<?xml version="1.0" encoding="UTF-8"?>
<svg id="Layer_3" data-name="Layer 3" xmlns="http://www.w3.org/2000/svg" viewBox="0 0 1280 720">
  <defs>
    <style>
      .cls-1 {
        fill: #fff;
        stroke-width: 0px;
      }
    </style>
  </defs>
  <g>
    <path class="cls-1" d="m524.61,312.9c8.35-4.73,18.26-7.09,29.74-7.09v35.63h-8.75c-13.49,0-23.71,3.42-30.65,10.26-6.94,6.85-10.42,18.72-10.42,35.63v87.56h-34.42v-166.36h34.42v24.15c5.03-8.46,11.72-15.05,20.08-19.78Z"/>
    <path class="cls-1" d="m737.31,404.54h-127.11c1,13.28,5.93,23.96,14.79,32.01,8.86,8.05,19.73,12.08,32.61,12.08,18.52,0,31.6-7.75,39.25-23.25h37.13c-5.04,15.3-14.14,27.83-27.33,37.59-13.18,9.77-29.54,14.64-49.06,14.64-15.9,0-30.14-3.57-42.72-10.71-12.58-7.14-22.45-17.21-29.59-30.19-7.14-12.99-10.71-28.03-10.71-45.14s3.47-32.15,10.42-45.14c6.94-12.98,16.7-22.99,29.28-30.04,12.58-7.05,27.02-10.57,43.33-10.57s29.69,3.42,41.97,10.26c12.28,6.84,21.84,16.45,28.68,28.83,6.84,12.38,10.26,26.62,10.26,42.72,0,6.24-.4,11.88-1.21,16.91Zm-34.72-27.78c-.2-12.68-4.73-22.84-13.59-30.49-8.86-7.65-19.83-11.47-32.91-11.47-11.88,0-22.04,3.77-30.49,11.32-8.46,7.55-13.49,17.77-15.1,30.64h92.08Z"/>
    <path class="cls-1" d="m830.76,313.5c10.16-5.13,21.48-7.7,33.96-7.7,14.69,0,27.98,3.52,39.86,10.57,11.88,7.05,21.23,17.06,28.08,30.04,6.84,12.98,10.26,27.83,10.26,44.54s-3.42,31.66-10.26,44.83c-6.85,13.19-16.26,23.45-28.23,30.8-11.98,7.35-25.21,11.01-39.71,11.01-12.88,0-24.31-2.51-34.27-7.55-9.96-5.03-17.86-11.47-23.7-19.32v24.15h-34.42v-232.48h34.42v90.88c5.84-8.05,13.84-14.65,24-19.78Zm70.04,47.71c-4.73-8.35-10.97-14.69-18.71-19.02-7.75-4.33-16.06-6.49-24.91-6.49s-16.86,2.22-24.6,6.64c-7.75,4.43-13.99,10.87-18.72,19.32s-7.09,18.42-7.09,29.89,2.36,21.49,7.09,30.05c4.73,8.55,10.97,15.05,18.72,19.47,7.74,4.43,15.95,6.64,24.6,6.64s17.16-2.26,24.91-6.79c7.74-4.53,13.98-11.12,18.71-19.78,4.73-8.65,7.09-18.71,7.09-30.19s-2.36-21.38-7.09-29.74Z"/>
    <path class="cls-1" d="m978.85,280.14c-4.23-4.23-6.34-9.46-6.34-15.7s2.12-11.47,6.34-15.7c4.23-4.23,9.45-6.34,15.7-6.34s11.17,2.11,15.4,6.34c4.23,4.23,6.34,9.46,6.34,15.7s-2.12,11.47-6.34,15.7c-4.23,4.23-9.36,6.34-15.4,6.34s-11.47-2.11-15.7-6.34Zm32.61,28.38v166.36h-34.42v-166.36h34.42Z"/>
    <path class="cls-1" d="m1175.84,313.96c10.37,5.43,18.47,13.49,24.31,24.15,5.84,10.67,8.75,23.55,8.75,38.64v98.12h-34.12v-92.99c0-14.89-3.73-26.31-11.17-34.27-7.46-7.95-17.62-11.93-30.5-11.93s-23.1,3.98-30.65,11.93c-7.55,7.95-11.32,19.37-11.32,34.27v92.99h-34.42v-166.36h34.42v19.02c5.63-6.84,12.83-12.18,21.59-16,8.75-3.82,18.06-5.74,27.92-5.74,13.08,0,24.8,2.72,35.17,8.15Z"/>
  </g>
  <g>
    <path class="cls-1" d="m359.95,292.54h-85.42l-87.39-81.82h106.36c2.49,0,4.88.95,6.7,2.65l66.45,62.21c6.49,6.08,2.19,16.96-6.7,16.96Z"/>
    <path class="cls-1" d="m235.59,292.54H71.1v-81.82h73.23c2.49,0,4.88.95,6.7,2.65l84.56,79.17Z"/>
    <path class="cls-1" d="m384.76,509.28h-110.23l-87.39-81.82h106.36c2.49,0,4.88.95,6.7,2.65l84.56,79.17Z"/>
    <polygon class="cls-1" points="235.59 509.28 71.1 509.28 71.1 427.46 148.2 427.46 235.59 509.28"/>
    <path class="cls-1" d="m359.95,319.09h-85.42l-87.39,81.82h106.36c2.49,0,4.88-.95,6.7-2.65l66.45-62.21c6.49-6.08,2.19-16.96-6.7-16.96Z"/>
    <path class="cls-1" d="m235.59,319.09H71.1v81.82h73.23c2.49,0,4.88-.95,6.7-2.65l84.56-79.17Z"/>
  </g>
</svg>