<svg width="17" height="17" viewBox="0 0 17 17" fill="none" xmlns="http://www.w3.org/2000/svg">
<circle cx="8.5" cy="8.5" r="8.5" fill="url(#paint0_linear_1737_3675)"/>
<mask id="mask0_1737_3675" style="mask-type:alpha" maskUnits="userSpaceOnUse" x="4" y="5" width="10" height="8">
<path d="M13.8042 5.20024C13.8663 5.26356 13.9155 5.33877 13.9491 5.42158C13.9827 5.50439 14 5.59316 14 5.68282C14 5.77247 13.9827 5.86124 13.9491 5.94405C13.9155 6.02686 13.8663 6.10207 13.8042 6.16539L7.8054 12.2998C7.74349 12.3632 7.66993 12.4136 7.58896 12.448C7.50798 12.4823 7.42117 12.5 7.3335 12.5C7.24583 12.5 7.15901 12.4823 7.07804 12.448C6.99706 12.4136 6.92351 12.3632 6.86159 12.2998L4.19547 9.57337C4.07031 9.44538 4 9.2718 4 9.0908C4 8.9098 4.07031 8.73621 4.19547 8.60823C4.32063 8.48024 4.49037 8.40834 4.66737 8.40834C4.84437 8.40834 5.01412 8.48024 5.13928 8.60823L7.3335 10.8534L12.8604 5.20024C12.9223 5.13677 12.9958 5.08641 13.0768 5.05205C13.1578 5.01769 13.2446 5 13.3323 5C13.4199 5 13.5068 5.01769 13.5877 5.05205C13.6687 5.08641 13.7423 5.13677 13.8042 5.20024Z" fill="black"/>
</mask>
<g mask="url(#mask0_1737_3675)">
<rect x="2" y="3" width="14" height="12" fill="white"/>
</g>
<defs>
<linearGradient id="paint0_linear_1737_3675" x1="3.77728e-07" y1="9.06667" x2="17" y2="9.06667" gradientUnits="userSpaceOnUse">
<stop stop-color="#0043FF"/>
<stop offset="1" stop-color="#12274F"/>
</linearGradient>
</defs>
</svg>
