<svg xmlns="http://www.w3.org/2000/svg" width="17" height="17" fill="none"><circle cx="8.5" cy="8.5" r="8.5" fill="url(#a)"/><mask id="b" width="10" height="8" x="4" y="5" maskUnits="userSpaceOnUse" style="mask-type:alpha"><path fill="#000" d="M13.804 5.2a.68.68 0 0 1 .196.483.7.7 0 0 1-.196.482L7.805 12.3a.67.67 0 0 1-.471.2.66.66 0 0 1-.472-.2L4.195 9.573a.69.69 0 0 1 0-.965.66.66 0 0 1 .944 0l2.194 2.245L12.86 5.2a.67.67 0 0 1 .472-.2.65.65 0 0 1 .472.2"/></mask><g mask="url(#b)"><path fill="#fff" d="M2 3h14v12H2z"/></g><defs><linearGradient id="a" x1="0" x2="17" y1="9.067" y2="9.067" gradientUnits="userSpaceOnUse"><stop stop-color="#0043FF"/><stop offset="1" stop-color="#12274F"/></linearGradient></defs></svg>