<svg xmlns="http://www.w3.org/2000/svg" width="391" height="407" fill="none"><path fill="#E0E0E0" d="M336.293 393.032c30.214 0 54.707-14.138 54.707-31.578s-24.493-31.577-54.707-31.577-54.707 14.138-54.707 31.577c0 17.44 24.493 31.578 54.707 31.578M148.295 406.959a3.92 3.92 0 0 1-3.801-3.139l-.884-4.653a50 50 0 0 1-5.905-1.453h-.152l-8.192 3.8a4.83 4.83 0 0 1-4.228-.193l-8.13-4.715a3.2 3.2 0 0 1-1.202-1.12 3.227 3.227 0 0 1 .928-4.407l4.939-3.556a18 18 0 0 1-1.23-1.869l-10.407-.65a3.73 3.73 0 0 1-3.496-3.709v-6.096a3.73 3.73 0 0 1 1.008-2.548 3.74 3.74 0 0 1 2.478-1.171l10.407-.66q.556-.969 1.23-1.859l-4.96-3.526a3.23 3.23 0 0 1-1.424-2.841 3.235 3.235 0 0 1 1.699-2.686l8.13-4.714a4.65 4.65 0 0 1 2.317-.589 4.5 4.5 0 0 1 1.911.396l8.201 3.8h.102a51 51 0 0 1 5.976-1.463l.884-4.654a3.91 3.91 0 0 1 3.801-3.139h12.002a3.923 3.923 0 0 1 3.801 3.139l.884 4.654c1.992.366 3.96.847 5.895 1.442h.152l8.202-3.799a4.5 4.5 0 0 1 1.9-.397 4.66 4.66 0 0 1 2.328.59l8.13 4.714a3.23 3.23 0 0 1 1.694 2.684 3.24 3.24 0 0 1-1.409 2.843l-4.95 3.556q.675.894 1.24 1.859l10.407.661a3.73 3.73 0 0 1 3.486 3.718v6.096a3.737 3.737 0 0 1-3.486 3.719l-10.407.65a18 18 0 0 1-1.24 1.87l4.95 3.556a3.235 3.235 0 0 1 .913 4.406 3.24 3.24 0 0 1-1.198 1.121l-8.13 4.714a4.8 4.8 0 0 1-2.328.589 4.65 4.65 0 0 1-1.9-.396l-8.202-3.8h-.101a51 51 0 0 1-5.966 1.473l-.884 4.643a3.92 3.92 0 0 1-3.801 3.15zm6.006-34.219a25.35 25.35 0 0 0-12.47 2.947c-2.795 1.615-4.4 3.678-4.4 5.679s1.605 4.064 4.4 5.68a27.89 27.89 0 0 0 24.95 0c2.795-1.616 4.391-3.678 4.391-5.68s-1.596-4.064-4.391-5.679a25.4 25.4 0 0 0-12.48-2.947M193.213 233.066l-3.404-1.961a9.24 9.24 0 0 0-8.354 0L1.723 334.89c-2.297 1.32-2.297 3.495 0 4.815l3.394 1.961a9.26 9.26 0 0 0 8.364 0l54.596-31.496L90.2 322.931c6.26 3.617 16.515 3.617 22.776 0l37.664-21.742c5.345-3.048 5.345-8.128 0-11.176l-23.772-13.828 66.354-38.293c2.287-1.331 2.287-3.496-.01-4.826"/><path fill="#103E13" d="M200.175 57.073 37.567 150.921V242.9a2.65 2.65 0 0 0 .427 1.504 1.135 1.135 0 0 0 .925.549c.233-.005.461-.072.66-.193l164.468-95.007V59.329c0-2.5-1.738-3.495-3.872-2.256" opacity=".1"/><path fill="#37474F" d="m116.379 317.526 31.16-18.004c3.211-1.859 4.817-4.287 4.817-6.716v-4.338l-29.33-16.632a6.88 6.88 0 0 1-3.1-5.375v-38.405l-54.403 31.446v38.405a6.84 6.84 0 0 0 3.05 5.364l24.492 14.224c6.474 3.739 16.891 3.739 23.314.031"/><path fill="#263238" d="M78.585 304.704v4.318l-9.97-5.751a6.87 6.87 0 0 1-3.1-5.375v-38.394l10.367-5.985c.223 2.632.447 5.355.67 8.006l-7.276 4.207v30.002a6.82 6.82 0 0 0 3.049 5.375z"/><path fill="#455A64" d="M69.273 295.743a6.88 6.88 0 0 0 3.05 5.374l20.732 12.08c6.433 3.709 16.85 3.709 23.273 0l31.17-18.003c6.433-3.709 6.433-9.723 0-13.432l-20.753-12.09a6.84 6.84 0 0 1-3.1-5.375v-29.992L69.273 265.73z"/><path fill="#103E13" d="m133.117 273.319-6.311-3.647a6.84 6.84 0 0 1-3.1-5.375v-29.992L69.273 265.73v30.012a6.88 6.88 0 0 0 3.05 5.375l6.209 3.576z" opacity=".15"/><path fill="#37474F" d="M4.435 319.426a8.32 8.32 0 0 0 7.52-.143c26.76-15.443 152.313-87.914 179.072-103.348a8.6 8.6 0 0 0 2.737-2.896 8.6 8.6 0 0 0 1.135-3.819V59.308a7.27 7.27 0 0 0-3.641-6.6 7.28 7.28 0 0 0-7.538.169L4.68 156.225a8.59 8.59 0 0 0-3.832 6.716v149.911a8.33 8.33 0 0 0 3.587 6.574"/><path fill="#455A64" d="m11.954 319.283 179.072-103.358a8.57 8.57 0 0 0 3.872-6.716V59.308c0-2.479-1.738-3.475-3.872-2.235L11.954 160.42a8.56 8.56 0 0 0-3.872 6.716v149.911c-.01 2.469 1.728 3.465 3.872 2.235"/><path fill="#0043FF" d="M13.207 298.963V168.915a5.27 5.27 0 0 1 2.378-4.125L187.39 65.628c1.311-.762 2.378-.142 2.378 1.371v130.049a5.26 5.26 0 0 1-2.388 4.135L15.585 300.345c-1.31.752-2.378.142-2.378-1.382"/><path fill="#fff" d="M13.207 298.963V168.915a5.27 5.27 0 0 1 2.378-4.125L187.39 65.628c1.311-.762 2.378-.142 2.378 1.371v130.049a5.26 5.26 0 0 1-2.388 4.135L15.585 300.345c-1.31.752-2.378.142-2.378-1.382" opacity=".75"/><path fill="#263238" d="m1.945 159.12 7.277 4.196a8.2 8.2 0 0 0-1.148 3.831v149.901c0 2.256 1.534 3.515 3.882 2.235a8.234 8.234 0 0 1-7.52.143 7.49 7.49 0 0 1-3.64-6.097V162.961a8 8 0 0 1 1.15-3.841"/><path fill="#0043FF" d="m93.575 261.838 15.824-9.144c.793-.447 1.423-.132 1.423.722a3.05 3.05 0 0 1-1.423 2.357l-15.824 9.144c-.782.457-1.423.132-1.423-.711a3.04 3.04 0 0 1 1.423-2.368"/><path fill="#fff" d="M35.332 240.401c.234-.007.462-.078.66-.203l174.072-100.585a5.51 5.51 0 0 0 2.469-4.257V3.866c0-.926-.386-1.474-1.016-1.474-.36.01-.71.115-1.016.305L36.419 103.24a5.53 5.53 0 0 0-2.47 4.268v130.8c-.009.533.14 1.056.428 1.504a1.177 1.177 0 0 0 .955.589"/><path fill="#fff" d="M31.215 238.694a216 216 0 0 1 3.303 1.87 2.74 2.74 0 0 1-1.016-2.266V116.276l-3.446-2.032v122.093a2.63 2.63 0 0 0 1.159 2.357"/><path fill="#E0E0E0" d="M211.495 2.849c.508 0 .579.63.579 1.016v131.481a5.06 5.06 0 0 1-2.236 3.871L35.768 239.801a.9.9 0 0 1-.438.133c-.478 0-.894-.742-.894-1.596V107.477a5.01 5.01 0 0 1 2.236-3.871L210.743 3.093c.225-.146.484-.23.752-.244m0-.904c-.425.011-.84.137-1.199.365L36.214 102.814a5.95 5.95 0 0 0-2.683 4.663v130.831c0 1.351.752 2.509 1.8 2.509.316-.006.624-.097.893-.264l174.062-100.584a5.92 5.92 0 0 0 2.703-4.653V3.865c0-1.22-.61-1.92-1.494-1.92"/><path fill="#0043FF" d="M212.979 3.804v9.012L33.531 116.448l-3.445-2.032v-8.859a5.6 5.6 0 0 1 .813-2.693 5.45 5.45 0 0 1 1.88-1.96L206.85.36a1.91 1.91 0 0 1 1.962-.163c.498.305 2.856 1.646 3.333 1.89a.7.7 0 0 1 .204.142q.122.09.213.214.104.125.173.274.094.151.132.325.059.179.081.366.033.196.031.396"/><path fill="#103E13" d="M212.979 3.804v9.012L33.531 116.448l-3.445-2.032v-8.859a5.6 5.6 0 0 1 .813-2.693 5.45 5.45 0 0 1 1.88-1.96L206.85.36a1.91 1.91 0 0 1 1.962-.163c.498.305 2.856 1.646 3.333 1.89a.7.7 0 0 1 .204.142q.122.09.213.214.104.125.173.274.094.151.132.325.059.179.081.366.033.196.031.396" opacity=".15"/><path fill="#0043FF" d="M212.979 3.804v9.012L33.531 116.448v-8.9a4.8 4.8 0 0 1 .325-1.676 2 2 0 0 1 .112-.274 6 6 0 0 1 .366-.732 5.4 5.4 0 0 1 1.89-1.981L210.286 2.31a1.79 1.79 0 0 1 2.032-.08q.123.09.214.213.104.125.172.274.095.151.132.325.059.179.082.366.048.195.061.396"/><path fill="#fff" d="M194.959 14.604a4.44 4.44 0 0 0-1.677 3.556c0 1.433.752 2.154 1.677 1.616a4.442 4.442 0 0 0 1.677-3.556c-.051-1.372-.803-2.154-1.677-1.616M200.955 11.11a4.42 4.42 0 0 0-1.677 3.555c0 1.422.752 2.154 1.677 1.616a4.43 4.43 0 0 0 1.687-3.556c0-1.433-.752-2.154-1.687-1.616M207.012 7.604a4.43 4.43 0 0 0-1.687 3.556c0 1.432.752 2.154 1.687 1.626a4.44 4.44 0 0 0 1.677-3.556c0-1.433-.752-2.154-1.677-1.626"/><path fill="#0043FF" d="M210.297 2.31 36.225 102.814a5.55 5.55 0 0 0-1.9 2.032l-3.415-2.032a5.3 5.3 0 0 1 1.87-1.971L206.851.36a1.91 1.91 0 0 1 1.962-.163c.478.295 2.713 1.565 3.283 1.87a1.97 1.97 0 0 0-1.799.243"/><path fill="#fff" d="M210.297 2.31 36.225 102.814a5.55 5.55 0 0 0-1.9 2.032l-3.415-2.032a5.3 5.3 0 0 1 1.87-1.971L206.851.36a1.91 1.91 0 0 1 1.962-.163c.478.295 2.713 1.565 3.283 1.87a1.97 1.97 0 0 0-1.799.243" opacity=".5"/><path fill="#455A64" d="M77.072 120.756a.24.24 0 0 1-.244-.244v-10.251a.243.243 0 0 1 .336-.225q.044.018.077.053a.24.24 0 0 1 .065.172v10.251a.24.24 0 0 1-.142.226.2.2 0 0 1-.092.018"/><path fill="#455A64" d="m76.207 119.547.823.823.813-.823v.701l-.813.813-.823-.813zM85.742 121.874a.225.225 0 0 1-.213-.122.23.23 0 0 1-.024-.182.23.23 0 0 1 .115-.143l6.748-3.901a.3.3 0 0 1 .091-.032.25.25 0 0 1 .244.123.243.243 0 0 1-.09.325l-6.76 3.902a.2.2 0 0 1-.111.03"/><path fill="#455A64" d="m92.063 118.928.305-1.118-1.118-.305.6-.345 1.118.294-.295 1.118zM84.492 175.732a.2.2 0 0 1-.125-.029.22.22 0 0 1-.088-.093.23.23 0 0 1-.024-.182.24.24 0 0 1 .115-.143l6.748-3.901a.255.255 0 0 1 .336.091.265.265 0 0 1-.092.336l-6.758 3.891a.2.2 0 0 1-.112.03"/><path fill="#455A64" d="m90.813 172.786.305-1.118-1.118-.294.6-.356 1.118.305-.295 1.117zM108.994 161.589a.23.23 0 0 1-.119-.031.23.23 0 0 1-.084-.09.234.234 0 0 1-.029-.184.23.23 0 0 1 .12-.142l6.748-3.901a.234.234 0 0 1 .184-.029.23.23 0 0 1 .142.12.242.242 0 0 1 .028.18.227.227 0 0 1-.11.145l-6.758 3.902a.24.24 0 0 1-.122.03"/><path fill="#455A64" d="m115.325 158.643.305-1.118-1.118-.304.599-.346 1.118.295-.305 1.117zM110.609 107.538a.2.2 0 0 1-.119-.032.2.2 0 0 1-.084-.09.24.24 0 0 1-.028-.179.23.23 0 0 1 .109-.146l6.759-3.901a.23.23 0 0 1 .325.091.3.3 0 0 1 .032.087.241.241 0 0 1-.044.177.2.2 0 0 1-.069.061l-6.759 3.902a.3.3 0 0 1-.122.03"/><path fill="#455A64" d="m116.899 104.592.305-1.118-1.118-.305.6-.345 1.117.294-.304 1.128zM110.133 134.625a.24.24 0 0 1-.213-.112.25.25 0 0 1 .018-.273.3.3 0 0 1 .073-.062l6.748-3.902a.24.24 0 0 1 .187-.023.246.246 0 0 1 .057.45l-6.758 3.891a.2.2 0 0 1-.112.031"/><path fill="#455A64" d="m110.547 133.202-.295 1.118 1.118.295-.6.345-1.118-.295.295-1.117zM109.697 184.998a.2.2 0 0 1-.119-.032.2.2 0 0 1-.085-.09.23.23 0 0 1-.047-.097.23.23 0 0 1 .058-.201.2.2 0 0 1 .091-.057l6.301-3.648a.25.25 0 0 1 .181-.019.24.24 0 0 1 .144.111.23.23 0 0 1 .028.179.2.2 0 0 1-.04.084.2.2 0 0 1-.069.062l-6.311 3.647a.3.3 0 0 1-.132.061"/><path fill="#455A64" d="m110.123 183.566-.305 1.117 1.118.305-.599.346-1.118-.305.305-1.118zM85.852 148.636a.228.228 0 0 1-.203-.122.24.24 0 0 1 .011-.264.2.2 0 0 1 .07-.061l6.758-3.902a.243.243 0 0 1 .307.364.24.24 0 0 1-.073.063l-6.748 3.891z"/><path fill="#455A64" d="m86.28 147.213-.305 1.118 1.118.294-.6.346-1.118-.295.305-1.117zM124.267 116.692a.243.243 0 0 1-.244-.243v-7.814a.244.244 0 0 1 .488 0v7.814a.243.243 0 0 1-.244.243"/><path fill="#455A64" d="m123.457 115.493.813.813.823-.813v.691l-.823.813-.813-.813zM77.072 166.619a.2.2 0 0 1-.122 0 .22.22 0 0 1-.122-.203v-5.751c0-.065.026-.127.072-.172a.24.24 0 0 1 .264-.053q.044.018.077.053a.24.24 0 0 1 .065.172v5.324l46.749-26.985v-3.577a.244.244 0 0 1 .488 0v3.719a.24.24 0 0 1-.122.203l-47.247 27.27a.2.2 0 0 1-.102 0"/><path fill="#455A64" d="m77.843 161.59-.813-.813-.823.813v-.691l.823-.823.813.823zM77.073 193.289a.2.2 0 0 1-.122 0 .224.224 0 0 1-.122-.213v-3.709a.243.243 0 0 1 .336-.225.234.234 0 0 1 .142.225v3.282l46.749-26.985v-5.629a.244.244 0 1 1 .488 0v5.751a.25.25 0 0 1-.035.117.24.24 0 0 1-.087.086l-47.278 27.269a.2.2 0 0 1-.072.031"/><path fill="#455A64" d="m125.093 160.99-.823-.813-.813.813v-.691l.813-.813.823.813zM66.217 186.278a.25.25 0 0 1-.122 0 .242.242 0 0 1-.122-.213V159.73a.24.24 0 0 1 .122-.203l2.56-1.483a.24.24 0 0 1 .285.061.25.25 0 0 1 .025.186.24.24 0 0 1-.116.149l-2.43 1.402v25.746l2.684-1.545a.24.24 0 0 1 .094-.05.243.243 0 0 1 .232.413.3.3 0 0 1-.092.054l-3.05 1.758a.3.3 0 0 1-.07.06"/><path fill="#455A64" d="m68.839 185.476.295-1.118-1.118-.305.61-.345 1.107.305-.295 1.107zM133.424 171.313a.227.227 0 0 1-.203-.122.2.2 0 0 1-.031-.091.24.24 0 0 1 .049-.182.3.3 0 0 1 .073-.063l2.541-1.463v-23.266l-2.195 1.26a.242.242 0 0 1-.18.028.23.23 0 0 1-.146-.109.3.3 0 0 1-.032-.09.2.2 0 0 1 .004-.095.2.2 0 0 1 .04-.086.2.2 0 0 1 .07-.065l2.561-1.473a.26.26 0 0 1 .244 0 .241.241 0 0 1 .111.213v23.816a.24.24 0 0 1-.028.116.24.24 0 0 1-.083.087l-2.673 1.585a.25.25 0 0 1-.122 0"/><path fill="#455A64" d="m133.854 169.87-.295 1.117 1.118.295-.61.356-1.118-.305.305-1.118z"/><path fill="#0043FF" d="M84.318 99.694c0 2.733-3.262 6.828-7.287 9.144-4.024 2.317-7.297 2.032-7.297-.741s3.263-6.828 7.297-9.144c4.035-2.317 7.287-1.992 7.287.741M103.564 192.923c3.757-3.144 5.638-7.085 4.2-8.802s-5.648-.559-9.406 2.585c-3.757 3.144-5.638 7.085-4.2 8.802s5.648.559 9.406-2.585M83.666 127.208l-13.283 7.661c-.396.223-.711 0-.711-.549v-6.838a1.72 1.72 0 0 1 .711-1.371l13.283-7.631c.397-.223.712 0 .712.549v6.828a1.73 1.73 0 0 1-.712 1.351"/><path fill="#fff" d="m83.666 127.208-13.283 7.661c-.396.223-.711 0-.711-.549v-6.838a1.72 1.72 0 0 1 .711-1.371l13.283-7.631c.397-.223.712 0 .712.549v6.828a1.73 1.73 0 0 1-.712 1.351" opacity=".6"/><path fill="#0043FF" d="m107.562 113.4-13.211 7.651c-.397.233-.722 0-.722-.539v-6.837a1.71 1.71 0 0 1 .721-1.372l13.212-7.661c.397-.233.722 0 .722.539v6.838a1.73 1.73 0 0 1-.722 1.381"/><path fill="#fff" d="m107.562 113.4-13.211 7.651c-.397.233-.722 0-.722-.539v-6.837a1.71 1.71 0 0 1 .721-1.372l13.212-7.661c.397-.233.722 0 .722.539v6.838a1.73 1.73 0 0 1-.722 1.381" opacity=".6"/><path fill="#0043FF" d="m107.562 140.223-13.211 7.661c-.397.233-.722 0-.722-.539v-6.838a1.73 1.73 0 0 1 .721-1.371l13.212-7.661c.397-.234.722 0 .722.539v6.837a1.72 1.72 0 0 1-.722 1.372"/><path fill="#fff" d="m107.562 140.223-13.211 7.661c-.397.233-.722 0-.722-.539v-6.838a1.73 1.73 0 0 1 .721-1.371l13.212-7.661c.397-.234.722 0 .722.539v6.837a1.72 1.72 0 0 1-.722 1.372" opacity=".6"/><path fill="#0043FF" d="m107.562 166.537-13.211 7.661c-.397.224-.722 0-.722-.549v-6.837a1.73 1.73 0 0 1 .721-1.372l13.212-7.661c.397-.223.722 0 .722.549v6.828a1.74 1.74 0 0 1-.722 1.381"/><path fill="#fff" d="m107.562 166.537-13.211 7.661c-.397.224-.722 0-.722-.549v-6.837a1.73 1.73 0 0 1 .721-1.372l13.212-7.661c.397-.223.722 0 .722.549v6.828a1.74 1.74 0 0 1-.722 1.381" opacity=".6"/><path fill="#0043FF" d="m130.936 153.075-13.273 7.661c-.396.234-.722 0-.722-.538v-6.838a1.73 1.73 0 0 1 .722-1.372l13.273-7.66c.396-.234.721 0 .721.538v6.838a1.7 1.7 0 0 1-.721 1.371"/><path fill="#fff" d="m130.936 153.075-13.273 7.661c-.396.234-.722 0-.722-.538v-6.838a1.73 1.73 0 0 1 .722-1.372l13.273-7.66c.396-.234.721 0 .721.538v6.838a1.7 1.7 0 0 1-.721 1.371" opacity=".6"/><path fill="#0043FF" d="m130.935 176.891-13.303 7.63c-.397.234-.722 0-.722-.539v-6.837a1.71 1.71 0 0 1 .722-1.372l13.303-7.63c.396-.234.722 0 .722.538v6.838a1.728 1.728 0 0 1-.722 1.372"/><path fill="#fff" d="m130.935 176.891-13.303 7.63c-.397.234-.722 0-.722-.539v-6.837a1.71 1.71 0 0 1 .722-1.372l13.303-7.63c.396-.234.722 0 .722.538v6.838a1.728 1.728 0 0 1-.722 1.372" opacity=".6"/><path fill="#0043FF" d="m83.666 154.041-13.283 7.66c-.396.234-.711 0-.711-.548v-6.828a1.74 1.74 0 0 1 .711-1.382l13.283-7.66c.397-.224.712 0 .712.548v6.838a1.72 1.72 0 0 1-.712 1.372"/><path fill="#fff" d="m83.666 154.041-13.283 7.66c-.396.234-.711 0-.711-.548v-6.828a1.74 1.74 0 0 1 .711-1.382l13.283-7.66c.397-.224.712 0 .712.548v6.838a1.72 1.72 0 0 1-.712 1.372" opacity=".6"/><path fill="#455A64" d="m123.597 106.563-5.61-7.834a2.15 2.15 0 0 1 .671-2.51l11.179-6.471c.711-.417 1.108.61.671 1.727l-5.61 14.316c-.295.873-.956 1.249-1.301.772"/><path fill="#FFE492" d="m129.981 123.977-5.203 8.971c-.305.519-.712.762-1.017.59l-5.203-2.967c-.457-.264-.457-1.311 0-2.103l5.203-8.961c.305-.519.712-.762 1.017-.59l5.203 2.967c.457.254.457 1.311 0 2.093M82.733 177.551l-5.194 9.002c-.305.518-.721.762-1.016.589l-5.203-2.967c-.458-.254-.458-1.31 0-2.103l5.203-8.961c.295-.518.711-.762 1.016-.589l5.194 2.967c.437.223.437 1.28 0 2.062"/><path fill="#455A64" d="M57.345 145.913a.27.27 0 0 1-.214-.112.255.255 0 0 1 .092-.335l15.67-9.043a.24.24 0 0 1 .185-.029.25.25 0 0 1 .151.11.255.255 0 0 1-.091.336l-15.672 9.073a.3.3 0 0 1-.122 0"/><path fill="#E0E0E0" d="M57.344 148.229a.25.25 0 0 1-.214-.122.243.243 0 0 1 .092-.325l15.671-9.053a.255.255 0 0 1 .335.092.244.244 0 0 1-.091.325l-15.671 9.053a.3.3 0 0 1-.122.03M57.345 150.505a.27.27 0 0 1-.214-.122.254.254 0 0 1 .092-.335l15.67-9.043a.245.245 0 0 1 .274.019.24.24 0 0 1 .082.254.25.25 0 0 1-.111.144l-15.672 9.052zM57.345 152.771a.27.27 0 0 1-.214-.112.255.255 0 0 1 .092-.335l15.67-9.043a.24.24 0 0 1 .185-.029.25.25 0 0 1 .151.11.255.255 0 0 1-.091.336l-15.672 9.042a.3.3 0 0 1-.122.031"/><path fill="#455A64" d="M50.454 119.364a.23.23 0 0 1-.12-.031.22.22 0 0 1-.083-.091.24.24 0 0 1-.03-.184.248.248 0 0 1 .11-.151l15.682-9.042a.25.25 0 0 1 .164.005.246.246 0 0 1 .15.269.24.24 0 0 1-.08.142l-15.671 9.053a.3.3 0 0 1-.122.03"/><path fill="#E0E0E0" d="M50.454 121.63a.23.23 0 0 1-.117-.029.237.237 0 0 1-.116-.267.3.3 0 0 1 .04-.087.3.3 0 0 1 .07-.064l15.682-9.043a.241.241 0 0 1 .18-.028q.046.012.084.04a.24.24 0 0 1 .093.161.25.25 0 0 1-.123.244L50.576 121.6a.3.3 0 0 1-.122.03M50.453 123.906a.222.222 0 0 1-.203-.122.24.24 0 0 1-.028-.18.23.23 0 0 1 .11-.145l15.68-9.043a.245.245 0 0 1 .356.181.23.23 0 0 1-.05.176.2.2 0 0 1-.072.06l-15.67 9.053a.3.3 0 0 1-.123.02M50.455 126.182a.24.24 0 0 1-.151-.05.24.24 0 0 1-.078-.29.24.24 0 0 1 .107-.117l15.681-9.043a.245.245 0 0 1 .182-.024q.046.014.084.043.037.03.06.073a.233.233 0 0 1-.092.325l-15.671 9.052z"/><path fill="#455A64" d="M93.119 125.034a.25.25 0 0 1-.24-.181.246.246 0 0 1 .118-.277l15.681-9.042a.3.3 0 0 1 .089-.031.3.3 0 0 1 .094.007.244.244 0 0 1 .166.297.22.22 0 0 1-.115.143l-15.671 9.043a.2.2 0 0 1-.122.041"/><path fill="#E0E0E0" d="M93.117 127.299a.23.23 0 0 1-.119-.031.23.23 0 0 1-.084-.091.23.23 0 0 1-.028-.179.23.23 0 0 1 .11-.146l15.681-9.052a.243.243 0 0 1 .233.426l-15.67 9.043zM93.117 129.575a.2.2 0 0 1-.119-.032.2.2 0 0 1-.084-.09.23.23 0 0 1-.028-.179.23.23 0 0 1 .11-.146l15.681-9.052a.242.242 0 0 1 .349.273.2.2 0 0 1-.043.084.3.3 0 0 1-.073.059l-15.67 9.053a.3.3 0 0 1-.123.03M93.119 131.851a.24.24 0 0 1-.24-.181.24.24 0 0 1 .118-.276l15.681-9.043a.238.238 0 0 1 .264.012.24.24 0 0 1 .093.161.24.24 0 0 1-.05.181.3.3 0 0 1-.073.063l-15.671 9.042a.2.2 0 0 1-.122.041"/><path fill="#455A64" d="M115.791 86.172a.22.22 0 0 1-.203-.122.22.22 0 0 1 .091-.325l15.671-9.053a.244.244 0 0 1 .326.091.241.241 0 0 1 .028.18.239.239 0 0 1-.11.145l-15.681 9.053a.24.24 0 0 1-.122.03"/><path fill="#E0E0E0" d="M115.792 88.447a.24.24 0 0 1-.203-.121.243.243 0 0 1 .102-.326l15.671-9.042a.225.225 0 0 1 .325.091.2.2 0 0 1 .032.087.2.2 0 0 1-.004.093.235.235 0 0 1-.109.145l-15.682 9.043a.172.172 0 0 1-.132.03M115.794 90.713a.22.22 0 0 1-.203-.122.2.2 0 0 1-.03-.088.23.23 0 0 1 .049-.177.2.2 0 0 1 .073-.06l15.671-9.043a.23.23 0 0 1 .18-.028.23.23 0 0 1 .145.11.24.24 0 0 1 .029.184.25.25 0 0 1-.11.151l-15.682 9.043a.24.24 0 0 1-.122.03M115.791 92.989a.22.22 0 0 1-.203-.122.22.22 0 0 1 .091-.325l15.671-9.053a.245.245 0 0 1 .326.092.24.24 0 0 1 .028.18.239.239 0 0 1-.11.145l-15.681 9.052a.25.25 0 0 1-.122.03"/><path fill="#455A64" d="M130.314 111.612a.23.23 0 0 1-.119-.031.22.22 0 0 1-.084-.091.22.22 0 0 1-.028-.183.2.2 0 0 1 .044-.084.2.2 0 0 1 .076-.058l15.671-9.052a.246.246 0 0 1 .359.278.24.24 0 0 1-.115.148l-15.682 9.043a.24.24 0 0 1-.122.03"/><path fill="#E0E0E0" d="M130.314 113.888a.22.22 0 0 1-.203-.122.25.25 0 0 1 .019-.273.24.24 0 0 1 .073-.062l15.671-9.043a.2.2 0 0 1 .089-.034.233.233 0 0 1 .178.05.2.2 0 0 1 .058.076.2.2 0 0 1 .032.087.23.23 0 0 1-.044.176.2.2 0 0 1-.069.062l-15.682 9.053a.25.25 0 0 1-.122.03M130.314 116.154a.231.231 0 0 1-.227-.299.24.24 0 0 1 .116-.148l15.671-9.043a.243.243 0 0 1 .18-.028.3.3 0 0 1 .084.04.2.2 0 0 1 .061.07.23.23 0 0 1 .029.184.3.3 0 0 1-.04.087.3.3 0 0 1-.07.064l-15.682 9.042a.24.24 0 0 1-.122.031M130.314 118.48a.23.23 0 0 1-.119-.031.22.22 0 0 1-.084-.091.22.22 0 0 1-.028-.183.2.2 0 0 1 .044-.084.2.2 0 0 1 .076-.058l15.671-9.052a.24.24 0 0 1 .325.091.2.2 0 0 1 .032.087.2.2 0 0 1-.004.093.2.2 0 0 1-.04.084.2.2 0 0 1-.069.061l-15.682 9.053a.25.25 0 0 1-.122.03"/><path fill="#455A64" d="M130.314 134.208a.2.2 0 0 1-.119-.032.2.2 0 0 1-.084-.09.22.22 0 0 1-.028-.183.2.2 0 0 1 .044-.084.2.2 0 0 1 .076-.058l15.671-9.053a.247.247 0 0 1 .357.179.23.23 0 0 1-.044.176.2.2 0 0 1-.069.062l-15.682 9.053a.25.25 0 0 1-.122.03"/><path fill="#E0E0E0" d="M130.314 136.484a.24.24 0 0 1-.117-.035.24.24 0 0 1-.117-.178.24.24 0 0 1 .123-.244l15.671-9.043a.2.2 0 0 1 .089-.034.233.233 0 0 1 .178.05.2.2 0 0 1 .058.076.2.2 0 0 1 .032.087.23.23 0 0 1-.044.176.2.2 0 0 1-.069.062l-15.682 9.053a.25.25 0 0 1-.122.03M130.314 138.801a.227.227 0 0 1-.203-.122.24.24 0 0 1-.024-.182.22.22 0 0 1 .115-.143l15.671-9.043a.242.242 0 0 1 .18-.028.24.24 0 0 1 .174.294.242.242 0 0 1-.11.151l-15.681 9.042a.25.25 0 0 1-.122.031M130.314 141.026a.227.227 0 0 1-.203-.122.22.22 0 0 1-.028-.184.2.2 0 0 1 .044-.084.2.2 0 0 1 .076-.058l15.671-9.052a.24.24 0 0 1 .325.091.2.2 0 0 1 .032.087.2.2 0 0 1-.004.093.2.2 0 0 1-.04.084.2.2 0 0 1-.069.061l-15.682 9.053a.25.25 0 0 1-.122.031"/><path fill="#455A64" d="M56.575 197.251a.256.256 0 0 1-.213-.111.244.244 0 0 1 .09-.336l15.672-9.042a.24.24 0 0 1 .184-.029q.048.011.087.04a.3.3 0 0 1 .064.07.254.254 0 0 1-.091.335l-15.62 9.043a.27.27 0 0 1-.173.03"/><path fill="#E0E0E0" d="M56.574 199.527a.23.23 0 0 1-.123-.032.24.24 0 0 1-.09-.09.233.233 0 0 1 .091-.325l15.671-9.052a.254.254 0 0 1 .335.091.244.244 0 0 1-.09.325l-15.621 9.053zM56.575 201.793a.26.26 0 0 1-.214-.122.244.244 0 0 1 .092-.335l15.671-9.043a.239.239 0 0 1 .187-.024q.047.012.086.043a.3.3 0 0 1 .062.073.244.244 0 0 1-.091.325l-15.62 9.083a.27.27 0 0 1-.173 0M56.571 204.069a.242.242 0 0 1-.122-.447l15.672-9.043a.24.24 0 0 1 .184-.029.25.25 0 0 1 .151.11.255.255 0 0 1-.091.336l-15.62 9.042z"/><path fill="#455A64" d="M238.964 28.056v123.841a6.6 6.6 0 0 1-.87 2.933 6.56 6.56 0 0 1-2.108 2.218l-79.169 45.72a1.9 1.9 0 0 1-1.016.285 1.6 1.6 0 0 1-.376 0 1 1 0 0 1-.255-.092l-.162-.081-.173-.122a1 1 0 0 1-.163-.142 2.4 2.4 0 0 1-.548-.782 3.75 3.75 0 0 1-.315-1.504V77.099a6.6 6.6 0 0 1 2.977-5.151l79.17-45.63a2.17 2.17 0 0 1 2.032-.253q.133.065.255.152a2.11 2.11 0 0 1 .721 1.84"/><path fill="#455A64" d="M237.311 26.939a.54.54 0 0 1 .274.06h.051s.315.265.315 1.017v123.881a5.5 5.5 0 0 1-.733 2.424 5.5 5.5 0 0 1-1.737 1.843l-79.159 45.72c-.144.09-.308.143-.478.153h-.223l-.082-.061h-.061l-.05-.051a1.6 1.6 0 0 1-.305-.447 2.7 2.7 0 0 1-.224-1.087V77.099a5.64 5.64 0 0 1 2.47-4.267l79.169-45.63c.243-.157.524-.248.813-.263zm.04-1.016c-.467.014-.923.15-1.321.396l-79.169 45.629a6.6 6.6 0 0 0-2.978 5.15V200.24c0 .517.107 1.029.315 1.503.129.295.315.561.549.783q.074.078.162.142l.173.122.163.081q.121.062.254.091.188.022.376 0c.334-.013.659-.111.945-.284l79.169-45.72a6.55 6.55 0 0 0 2.978-5.151V28.056a2.1 2.1 0 0 0-.721-1.798c-.27-.2-.599-.305-.935-.295z"/><path fill="#455A64" d="M238.964 28.056v123.841a6.6 6.6 0 0 1-.87 2.933 6.56 6.56 0 0 1-2.108 2.218l-79.169 45.72a1.9 1.9 0 0 1-1.016.285 1.6 1.6 0 0 1-.376 0 1 1 0 0 1-.255-.092l-.162-.081-.173-.122a1 1 0 0 1-.163-.142 2.4 2.4 0 0 1-.548-.782 3.75 3.75 0 0 1-.315-1.504V77.099a6.6 6.6 0 0 1 2.977-5.151l79.17-45.63a2.17 2.17 0 0 1 2.032-.253q.133.065.255.152a2.11 2.11 0 0 1 .721 1.84" opacity=".8"/><path fill="#0043FF" d="M237.99 26.024a2.16 2.16 0 0 0-2.032.254l-79.17 45.629a6.6 6.6 0 0 0-2.978 5.151v9.723l-3.79-2.225v-9.652a6.53 6.53 0 0 1 2.967-5.14l79.18-45.63a2.03 2.03 0 0 1 2.154-.172c.569.355 3.039 1.778 3.669 2.062"/><path fill="#0043FF" d="M238.966 28.056c0-1.88-1.341-2.631-2.977-1.687L156.819 72a6.57 6.57 0 0 0-2.967 5.14v9.724l85.114-49.084z"/><path fill="#fff" d="m235.987 26.319-79.17 45.629a6.2 6.2 0 0 0-2.093 2.214l-3.771-2.194a5.9 5.9 0 0 1 2.033-2.164l79.169-45.629a2.11 2.11 0 0 1 2.165-.183c.528.335 2.998 1.738 3.628 2.032a2.14 2.14 0 0 0-1.961.295" opacity=".4"/><path fill="#103E13" d="M150.039 84.607v-9.662a6.1 6.1 0 0 1 .915-2.977l3.78 2.184a6.04 6.04 0 0 0-.884 2.957v9.713z" opacity=".15"/><path fill="#455A64" d="M221.049 39.09a4.42 4.42 0 0 0-1.677 3.556c0 1.422.752 2.154 1.677 1.615a4.44 4.44 0 0 0 1.677-3.556c0-1.473-.752-2.154-1.677-1.615M227.095 35.585a4.46 4.46 0 0 0-1.676 3.556c0 1.432.752 2.154 1.676 1.625a4.43 4.43 0 0 0 1.688-3.556c0-1.432-.753-2.154-1.688-1.625M233.142 32.12a4.46 4.46 0 0 0-1.677 3.556c0 1.433.753 2.154 1.677 1.616a4.4 4.4 0 0 0 1.687-3.556c0-1.453-.752-2.185-1.687-1.616"/><path fill="#37474F" d="m154.939 202.738-.376-.214q-.444-.281-.914-.518l-.498-.284-.773-.447-.66-.376-.366-.203a1.5 1.5 0 0 1-.508-.407 2.2 2.2 0 0 1-.407-.609 3.7 3.7 0 0 1-.335-1.565V84.597l3.79 2.225v113.416c.019.516.125 1.024.315 1.504.129.295.316.561.549.782q.064.091.163.143z"/><path fill="#0043FF" d="M161.293 90.947a.9.9 0 0 1 .112-.407l1.585-3.291a.27.27 0 0 1 .101-.113.1.1 0 0 1 .036-.007.1.1 0 0 1 .066.028.2.2 0 0 1 .051.153v1.107q.02.173 0 .345c0 .082-.061.183-.112.295l-.843 1.737.843.773q.071.076.112.172.022.152 0 .305v1.036a.6.6 0 0 1-.051.224.4.4 0 0 1-.132.152h-.071l-1.565-1.392a.312.312 0 0 1-.112-.274zM167.105 82.707q.038-.168.112-.325a.6.6 0 0 1 .234-.244l.599-.345h.122q.031.03.044.07a.2.2 0 0 1 .007.082.5.5 0 0 1 0 .122l-2.734 11.613a1.5 1.5 0 0 1-.112.315.56.56 0 0 1-.244.264l-.569.335a.103.103 0 0 1-.122 0 .22.22 0 0 1-.061-.163 1 1 0 0 1 0-.121zM171.313 85.968a.9.9 0 0 1-.111.417l-1.586 3.282-.071.101a.12.12 0 0 1-.132 0 .24.24 0 0 1 0-.162v-1.108a1.5 1.5 0 0 1 0-.335q.047-.158.122-.305l.833-1.737-.833-.762a.6.6 0 0 1-.122-.173 1 1 0 0 1 0-.305v-1.107a.7.7 0 0 1 0-.224.4.4 0 0 1 .132-.152.06.06 0 0 1 .071 0l1.586 1.453a.34.34 0 0 1 .111.284zM175.721 85.217a.13.13 0 0 1 .163 0c.046.057.067.13.061.203v1.209a.7.7 0 0 1-.061.274.53.53 0 0 1-.163.193l-.742.427a.11.11 0 0 1-.152 0 .2.2 0 0 1-.059-.088.2.2 0 0 1-.012-.105v-1.22a.54.54 0 0 1 .071-.273.36.36 0 0 1 .152-.183zM178.232 83.774a.124.124 0 0 1 .153 0c.046.057.067.13.061.203v1.21a.7.7 0 0 1-.061.273.36.36 0 0 1-.153.183l-.752.437a.12.12 0 0 1-.076.027.12.12 0 0 1-.076-.027.28.28 0 0 1-.061-.203v-1.21a.7.7 0 0 1 .061-.273.43.43 0 0 1 .152-.194zM180.733 82.331a.12.12 0 0 1 .081-.031q.046 0 .082.031a.26.26 0 0 1 .06.193v1.22a.7.7 0 0 1-.06.274.42.42 0 0 1-.163.183l-.742.436a.12.12 0 0 1-.076.027.12.12 0 0 1-.076-.027.25.25 0 0 1-.06-.093q-.018-.053-.012-.11v-1.209a.55.55 0 0 1 .072-.274.4.4 0 0 1 .152-.193zM161.963 99.807l51.293-29.587c.426-.243.782-.07.782.397a1.69 1.69 0 0 1-.782 1.3l-51.263 29.586c-.437.254-.782.081-.782-.396a1.68 1.68 0 0 1 .752-1.3"/><path fill="#FFE492" d="m173.74 113.4 51.262-29.586c.426-.243.782-.07.782.397a1.711 1.711 0 0 1-.782 1.31l-51.262 29.586c-.437.244-.783.071-.783-.396a1.67 1.67 0 0 1 .783-1.311M173.74 120.208l32.115-18.532c.437-.254.782-.081.782.396a1.68 1.68 0 0 1-.782 1.301l-32.115 18.532c-.437.243-.783.071-.783-.397a1.656 1.656 0 0 1 .783-1.3M173.74 127.005l32.115-18.532c.437-.254.782-.071.782.396a1.68 1.68 0 0 1-.782 1.301l-32.115 18.532c-.437.254-.783.071-.783-.397a1.656 1.656 0 0 1 .783-1.3"/><path fill="#0043FF" d="m216.302 68.463 14.625-8.474c.437-.244.782-.07.782.397a1.67 1.67 0 0 1-.782 1.31l-14.625 8.474c-.437.243-.782.07-.782-.397a1.67 1.67 0 0 1 .782-1.31M174.634 167.361l38.619-22.352c.427-.254.783-.072.783.396a1.7 1.7 0 0 1-.783 1.3l-38.619 22.352c-.437.244-.782.072-.782-.396a1.68 1.68 0 0 1 .782-1.3M216.302 143.241l14.584-8.504c.437-.254.782-.071.782.396a1.65 1.65 0 0 1-.782 1.3l-14.584 8.464c-.437.254-.782.071-.782-.397a1.68 1.68 0 0 1 .782-1.259M181.189 143.058l49.697-28.652c.437-.243.782-.071.782.397a1.67 1.67 0 0 1-.782 1.31l-49.697 28.652c-.427.244-.783.071-.783-.407a1.72 1.72 0 0 1 .783-1.3M168.72 157.292l62.167-36.088c.437-.244.782-.072.782.396a1.67 1.67 0 0 1-.782 1.31l-62.167 36.079c-.427.254-.782.071-.782-.396a1.68 1.68 0 0 1 .782-1.301"/><path fill="#FFE492" d="m171.647 162.281 41.607-24.08c.427-.243.782-.071.782.397a1.699 1.699 0 0 1-.782 1.31l-41.577 24.08c-.437.243-.782.071-.782-.397a1.68 1.68 0 0 1 .752-1.31"/><path fill="#0043FF" d="m168.72 150.241 8.222-4.745c.427-.254.782-.071.782.396a1.68 1.68 0 0 1-.782 1.301l-8.222 4.745c-.427.254-.782.071-.782-.397a1.65 1.65 0 0 1 .782-1.3M161.962 106.624l35.957-20.767c.437-.254.793-.071.793.396a1.68 1.68 0 0 1-.793 1.3l-35.957 20.768c-.437.254-.782.071-.782-.397a1.65 1.65 0 0 1 .782-1.3"/><path fill="#fff" d="m161.962 106.624 35.957-20.767c.437-.254.793-.071.793.396a1.68 1.68 0 0 1-.793 1.3l-35.957 20.768c-.437.254-.782.071-.782-.397a1.65 1.65 0 0 1 .782-1.3" opacity=".6"/><path fill="#0043FF" d="m161.962 113.401 7.267-4.197c.427-.254.782-.081.782.397a1.7 1.7 0 0 1-.238.742 1.7 1.7 0 0 1-.544.558l-7.267 4.196c-.437.254-.782.071-.782-.396a1.65 1.65 0 0 1 .782-1.3"/><path fill="#fff" d="m161.962 113.401 7.267-4.197c.427-.254.782-.081.782.397a1.7 1.7 0 0 1-.238.742 1.7 1.7 0 0 1-.544.558l-7.267 4.196c-.437.254-.782.071-.782-.396a1.65 1.65 0 0 1 .782-1.3" opacity=".6"/><path fill="#0043FF" d="m161.962 120.208 7.267-4.196c.427-.254.782-.071.782.396a1.72 1.72 0 0 1-.782 1.301l-7.267 4.196c-.437.254-.782.071-.782-.397a1.65 1.65 0 0 1 .782-1.3"/><path fill="#fff" d="m161.962 120.208 7.267-4.196c.427-.254.782-.071.782.396a1.72 1.72 0 0 1-.782 1.301l-7.267 4.196c-.437.254-.782.071-.782-.397a1.65 1.65 0 0 1 .782-1.3" opacity=".6"/><path fill="#0043FF" d="m161.962 127.005 7.267-4.196c.427-.254.782-.071.782.396a1.7 1.7 0 0 1-.782 1.301l-7.267 4.196c-.437.254-.782.071-.782-.397a1.67 1.67 0 0 1 .782-1.3"/><path fill="#fff" d="m161.962 127.005 7.267-4.196c.427-.254.782-.071.782.396a1.7 1.7 0 0 1-.782 1.301l-7.267 4.196c-.437.254-.782.071-.782-.397a1.67 1.67 0 0 1 .782-1.3" opacity=".6"/><path fill="#0043FF" d="m161.962 133.802 7.267-4.196c.427-.254.782-.071.782.396a1.72 1.72 0 0 1-.782 1.301l-7.267 4.196c-.437.254-.782.071-.782-.397a1.67 1.67 0 0 1 .782-1.3"/><path fill="#fff" d="m161.962 133.802 7.267-4.196c.427-.254.782-.071.782.396a1.72 1.72 0 0 1-.782 1.301l-7.267 4.196c-.437.254-.782.071-.782-.397a1.67 1.67 0 0 1 .782-1.3" opacity=".6"/><path fill="#FFE492" d="m173.74 174.828 32.115-18.532c.437-.254.782-.071.782.397a1.68 1.68 0 0 1-.782 1.3l-32.115 18.532c-.437.254-.783.071-.783-.396a1.659 1.659 0 0 1 .783-1.301M173.74 181.625l32.115-18.532c.437-.254.782-.071.782.397a1.66 1.66 0 0 1-.782 1.3l-32.115 18.532c-.437.254-.783.071-.783-.396a1.68 1.68 0 0 1 .783-1.301M210.533 153.594l20.183-11.613c.437-.244.783-.071.783.396a1.69 1.69 0 0 1-.783 1.311l-20.183 11.603c-.427.254-.783.071-.783-.397a1.7 1.7 0 0 1 .783-1.3M210.533 160.391l20.183-11.613c.437-.244.783-.071.783.406a1.68 1.68 0 0 1-.783 1.301l-20.183 11.603c-.427.254-.783.071-.783-.397a1.7 1.7 0 0 1 .783-1.3"/><path fill="#0043FF" d="m161.962 181.625 7.267-4.196c.427-.254.782-.071.782.397a1.68 1.68 0 0 1-.782 1.3l-7.267 4.196c-.437.254-.782.081-.782-.396a1.68 1.68 0 0 1 .782-1.301"/><path fill="#fff" d="m161.962 181.625 7.267-4.196c.427-.254.782-.071.782.397a1.68 1.68 0 0 1-.782 1.3l-7.267 4.196c-.437.254-.782.081-.782-.396a1.68 1.68 0 0 1 .782-1.301" opacity=".6"/><path fill="#0043FF" d="m161.962 188.422 7.267-4.196c.427-.244.782-.071.782.397a1.68 1.68 0 0 1-.782 1.3l-7.267 4.206c-.437.244-.782.071-.782-.396a1.676 1.676 0 0 1 .782-1.311"/><path fill="#fff" d="m161.962 188.422 7.267-4.196c.427-.244.782-.071.782.397a1.68 1.68 0 0 1-.782 1.3l-7.267 4.206c-.437.244-.782.071-.782-.396a1.676 1.676 0 0 1 .782-1.311" opacity=".6"/><path fill="#0043FF" d="m200.968 84.1 9.31-5.355c.427-.254.782-.071.782.396a1.68 1.68 0 0 1-.782 1.3l-9.31 5.355c-.437.254-.792.081-.792-.397a1.68 1.68 0 0 1 .792-1.3"/><path fill="#fff" d="m200.968 84.1 9.31-5.355c.427-.254.782-.071.782.396a1.68 1.68 0 0 1-.782 1.3l-9.31 5.355c-.437.254-.792.081-.792-.397a1.68 1.68 0 0 1 .792-1.3" opacity=".6"/><path fill="#FFE492" d="m173.181 134.066 45.357-26.142c.427-.254.783-.071.783.397a1.7 1.7 0 0 1-.783 1.3l-45.357 26.132c-.427.254-.783.071-.783-.396a1.7 1.7 0 0 1 .783-1.291M161.962 147.508l68.926-39.889c.437-.254.782-.071.782.397a1.65 1.65 0 0 1-.782 1.3l-68.926 39.889c-.437.254-.782.071-.782-.397a1.65 1.65 0 0 1 .782-1.3M221.579 106.167l9.31-5.355c.437-.254.782-.071.782.397a1.66 1.66 0 0 1-.782 1.3l-9.31 5.365c-.437.243-.782.071-.782-.407a1.68 1.68 0 0 1 .782-1.3"/><path fill="#0043FF" d="m173.742 106.614 35.957-20.767c.437-.254.792-.072.792.396a1.68 1.68 0 0 1-.792 1.3l-35.957 20.778c-.437.254-.793.071-.793-.397a1.67 1.67 0 0 1 .793-1.31"/><path fill="#fff" d="m173.742 106.614 35.957-20.767c.437-.254.792-.072.792.396a1.68 1.68 0 0 1-.792 1.3l-35.957 20.778c-.437.254-.793.071-.793-.397a1.67 1.67 0 0 1 .793-1.31" opacity=".6"/><path fill="#0043FF" d="m212.746 84.089 9.309-5.355c.427-.253.783-.08.783.397a1.71 1.71 0 0 1-.783 1.3l-9.309 5.355c-.437.254-.793.07-.793-.397a1.689 1.689 0 0 1 .793-1.3"/><path fill="#fff" d="m212.746 84.089 9.309-5.355c.427-.253.783-.08.783.397a1.71 1.71 0 0 1-.783 1.3l-9.309 5.355c-.437.254-.793.07-.793-.397a1.689 1.689 0 0 1 .793-1.3" opacity=".6"/><path fill="#103E13" d="m49.682 227.67-29.107 16.795a2.58 2.58 0 0 0-1.169 2.032v35.083c0 .741.529 1.016 1.169.67l29.107-16.764a2.6 2.6 0 0 0 1.168-2.032v-35.113c0-.742-.528-1.036-1.168-.671M41.43 158.013l-21.485 12.375a1.18 1.18 0 0 0-.539.925v11.989c0 .345.244.477.539.304l21.484-12.375a1.15 1.15 0 0 0 .539-.914v-11.999c0-.335-.244-.477-.539-.305M41.43 182.936l-21.485 12.375a1.18 1.18 0 0 0-.539.924v11.989c0 .335.244.478.539.305l21.484-12.375a1.17 1.17 0 0 0 .539-.925v-11.988c0-.336-.244-.478-.539-.305M41.43 207.889l-21.485 12.344a1.18 1.18 0 0 0-.539.925v11.989c0 .335.244.477.539.305l21.484-12.355a1.18 1.18 0 0 0 .539-.925v-11.989c0-.365-.244-.497-.539-.294" opacity=".1"/><path fill="#0043FF" d="m53.29 229.073-29.067 16.764a2.58 2.58 0 0 0-1.168 2.032v35.082a2.55 2.55 0 0 0 1.168 2.032l2.216 1.25a2.6 2.6 0 0 0 2.337 0l29.107-16.764a2.58 2.58 0 0 0 1.169-2.032v-35.164a2.55 2.55 0 0 0-1.179-2.032l-2.205-1.25a2.6 2.6 0 0 0-2.379.082"/><path fill="#103E13" d="M28.736 286.172a2.66 2.66 0 0 1-2.338 0l-2.175-1.25a2.52 2.52 0 0 1-1.168-2.032v-35.042c.02-.422.15-.831.376-1.188l4.522 2.621a2.35 2.35 0 0 0-.345 1.148v35.073c-.04.68.437 1.066 1.128.67" opacity=".2"/><path fill="#fff" d="M58.99 232.11c-.092-.589-.57-.802-1.148-.467l-29.107 16.774a2.33 2.33 0 0 0-.823.864l-4.533-2.621c.194-.338.47-.621.803-.823l29.107-16.764a2.6 2.6 0 0 1 2.337 0l2.205 1.249a2.6 2.6 0 0 1 1.159 1.788" opacity=".5"/><path fill="#0043FF" d="m57.842 231.643-29.107 16.774a2.58 2.58 0 0 0-1.169 2.032v35.073c0 .741.529 1.016 1.17.67l29.106-16.764A2.57 2.57 0 0 0 59 267.396v-35.123c0-.701-.519-1.016-1.16-.63"/><path fill="#fff" d="M29.497 266.573a1.9 1.9 0 0 1 .122-.721 5 5 0 0 1 .376-.681l6.86-11.095a1 1 0 0 1 .112-.132l.081-.061a.196.196 0 0 1 .254 0 .46.46 0 0 1 .102.336v4.287c.01.31-.056.617-.193.894q-.16.3-.356.579l-3.049 4.613 3.05 1.179q.187.058.355.162c.132.081.193.305.193.661v4.287c.002.158-.033.315-.102.457a.7.7 0 0 1-.254.305h-.081a.2.2 0 0 1-.112 0l-6.86-3.17a1 1 0 0 1-.376-.254.94.94 0 0 1-.122-.569zM44.469 247.757q.089-.36.254-.691a1.2 1.2 0 0 1 .498-.538l2.297-1.331a.2.2 0 0 1 .137-.05.2.2 0 0 1 .137.05.47.47 0 0 1 .112.345q.01.128 0 .254l-5.803 24.73a2.7 2.7 0 0 1-.244.67 1.23 1.23 0 0 1-.508.559l-2.257 1.301a.205.205 0 0 1-.264 0 .48.48 0 0 1-.112-.346.9.9 0 0 1 0-.254zM57.081 251.76c.005.246-.036.491-.122.721a6 6 0 0 1-.376.671l-6.87 11.095a.6.6 0 0 1-.102.132l-.08.061c-.102.061-.194.061-.255 0a.45.45 0 0 1-.102-.336v-4.277a1.8 1.8 0 0 1 .194-.884c.132-.233.243-.427.345-.579l3.049-4.633-3.049-1.148a1.3 1.3 0 0 1-.345-.183c-.133-.091-.194-.315-.194-.66v-4.288a1 1 0 0 1 .102-.457.64.64 0 0 1 .254-.305h.183l6.87 3.17c.143.055.272.142.376.254.096.174.138.372.122.569z"/><path fill="#0043FF" d="M45.066 159.364 23.582 171.75a1.15 1.15 0 0 0-.539.914v11.999a1.16 1.16 0 0 0 .539.914l2.124 1.209a1.19 1.19 0 0 0 1.016 0l21.545-12.425a1.2 1.2 0 0 0 .529-.925v-11.989a1.16 1.16 0 0 0-.539-.914l-2.114-1.209a1.25 1.25 0 0 0-1.077.04"/><path fill="#103E13" d="M45.066 159.364 23.582 171.75a1.15 1.15 0 0 0-.539.914v11.999a1.16 1.16 0 0 0 .539.914l2.124 1.209a1.19 1.19 0 0 0 1.016 0l21.545-12.425a1.2 1.2 0 0 0 .529-.925v-11.989a1.16 1.16 0 0 0-.539-.914l-2.114-1.209a1.25 1.25 0 0 0-1.077.04" opacity=".4"/><path fill="#0043FF" d="M48.783 161.386c0-.264-.254-.355-.528-.203L26.77 173.558a1.1 1.1 0 0 0-.376.396l-3.19-1.829c.085-.158.21-.292.365-.386l21.485-12.375a1.23 1.23 0 0 1 1.077 0l2.114 1.209a1.13 1.13 0 0 1 .538.813"/><path fill="#0043FF" d="m48.27 161.153-21.495 12.405a1.16 1.16 0 0 0-.529.925v11.988c0 .336.234.478.529.305l21.494-12.415a1.17 1.17 0 0 0 .529-.925v-11.989c0-.294-.183-.437-.529-.294"/><path fill="#103E13" d="m48.27 161.153-21.495 12.405a1.16 1.16 0 0 0-.529.925v11.988c0 .336.234.478.529.305l21.494-12.415a1.17 1.17 0 0 0 .529-.925v-11.989c0-.294-.183-.437-.529-.294" opacity=".2"/><path fill="#fff" d="M31.548 176.626v1.779q.014.215.06.426c.022.114.075.22.153.305.07.072.164.115.264.122a.8.8 0 0 0 .387-.132c.148-.073.28-.177.386-.305q.146-.156.244-.345.095-.17.152-.356c0-.122.061-.223.081-.315a1 1 0 0 1 .072-.284.4.4 0 0 1 .162-.163l.895-.518h.101q.025.026.04.06a.2.2 0 0 1 .01.072c-.008.378-.066.754-.172 1.118a5.4 5.4 0 0 1-1.128 2.032 3.4 3.4 0 0 1-.843.69c-.265.17-.57.265-.885.275a1 1 0 0 1-.66-.234 1.4 1.4 0 0 1-.417-.67 3.6 3.6 0 0 1-.173-1.016v-1.88q.024-.608.163-1.199.15-.603.427-1.158.264-.55.66-1.016a3.6 3.6 0 0 1 .885-.742c.255-.157.544-.251.843-.274.235-.018.47.039.67.162.207.136.366.331.458.559.116.291.174.601.173.915a.4.4 0 0 1-.05.193.3.3 0 0 1-.102.132l-.895.518c-.081 0-.132.051-.162 0a.4.4 0 0 1-.072-.193c0-.071 0-.153-.08-.234a.5.5 0 0 0-.153-.183.44.44 0 0 0-.244-.061.9.9 0 0 0-.386.142c-.15.08-.282.191-.387.326a1.6 1.6 0 0 0-.264.416 2 2 0 0 0-.152.478 4 4 0 0 0-.061.558M37.433 170.347a1.8 1.8 0 0 1 .803-.274c.222-.016.444.029.64.132.176.106.32.257.417.437.102.191.154.404.153.62a.4.4 0 0 1 0 .183.25.25 0 0 1-.102.132l-.894.518a.3.3 0 0 1-.163 0l-.112-.061-.07-.071a.4.4 0 0 0-.123-.081.5.5 0 0 0-.213 0 .6.6 0 0 0-.295.111q-.132.078-.254.173-.118.09-.213.203-.09.119-.153.254a.7.7 0 0 0-.05.295c-.01.08.011.16.06.224q.045.043.104.061.059.02.12.01.206-.009.406-.061l.63-.163q.325-.095.661-.081a.8.8 0 0 1 .468.173c.137.129.236.295.284.477q.104.395.092.803a3.4 3.4 0 0 1-.163 1.016 4.6 4.6 0 0 1-.437 1.016c-.19.309-.419.593-.68.843q-.38.382-.844.65c-.259.165-.55.269-.854.305a1.08 1.08 0 0 1-1.098-.569 1.7 1.7 0 0 1-.162-.701.5.5 0 0 1 .05-.193.25.25 0 0 1 .092-.122l.904-.518a.27.27 0 0 1 .153-.051.16.16 0 0 1 .101.051l.092.081a.3.3 0 0 0 .142.112.4.4 0 0 0 .234 0 .7.7 0 0 0 .346-.122c.227-.126.433-.287.61-.477a.83.83 0 0 0 .243-.58.23.23 0 0 0-.091-.213.6.6 0 0 0-.265 0 2.6 2.6 0 0 0-.457.091l-.66.173a1.01 1.01 0 0 1-1.017-.183 1.84 1.84 0 0 1-.325-1.26c0-.319.045-.637.132-.944q.136-.501.386-.955.256-.462.61-.854c.223-.24.48-.445.762-.61M42.362 167.472c.243-.15.518-.24.803-.264.218-.018.437.028.63.132.184.098.333.251.427.437.098.192.15.404.152.62a.4.4 0 0 1 0 .183.4.4 0 0 1-.101.132l-.905.518a.25.25 0 0 1-.152 0 .22.22 0 0 1-.122-.051l-.061-.071a.4.4 0 0 0-.122-.081.5.5 0 0 0-.214 0 .74.74 0 0 0-.294.122q-.137.072-.254.172a1.4 1.4 0 0 0-.214.203 1 1 0 0 0-.152.254.7.7 0 0 0-.061.295.33.33 0 0 0 .071.224.26.26 0 0 0 .213.071q.212-.007.417-.061l.63-.163c.21-.068.43-.096.65-.081a.76.76 0 0 1 .478.173c.132.128.227.289.275.467q.107.399.101.813c-.005.345-.06.687-.162 1.016a4.4 4.4 0 0 1-1.962 2.479c-.26.159-.551.262-.853.305a1.16 1.16 0 0 1-.661-.122 1.1 1.1 0 0 1-.437-.457 1.5 1.5 0 0 1-.163-.691.44.44 0 0 1 0-.193.3.3 0 0 1 .102-.122l.904-.518c.061 0 .112-.061.143 0a.2.2 0 0 1 .112 0l.08.091a.6.6 0 0 0 .153.112.4.4 0 0 0 .234 0 .9.9 0 0 0 .346-.122q.339-.195.61-.478a.82.82 0 0 0 .243-.579.24.24 0 0 0-.091-.213.5.5 0 0 0-.264 0 2.5 2.5 0 0 0-.458.091l-.66.163a1.02 1.02 0 0 1-1.017-.173 1.87 1.87 0 0 1-.335-1.27c.005-.32.053-.638.142-.945.086-.331.216-.649.386-.945q.252-.47.61-.863.359-.362.803-.61"/><path fill="#0043FF" d="m45.066 184.288-21.484 12.426a1.2 1.2 0 0 0-.539.924v11.989a1.18 1.18 0 0 0 .539.925l2.124 1.199a1.16 1.16 0 0 0 1.016 0l21.495-12.375a1.23 1.23 0 0 0 .528-.925v-11.989a1.18 1.18 0 0 0-.538-.924l-2.114-1.199a1.22 1.22 0 0 0-1.027-.051"/><path fill="#103E13" d="m45.066 184.288-21.484 12.426a1.2 1.2 0 0 0-.539.924v11.989a1.18 1.18 0 0 0 .539.925l2.124 1.199a1.16 1.16 0 0 0 1.016 0l21.495-12.375a1.23 1.23 0 0 0 .528-.925v-11.989a1.18 1.18 0 0 0-.538-.924l-2.114-1.199a1.22 1.22 0 0 0-1.027-.051" opacity=".4"/><path fill="#0043FF" d="M48.783 186.309c0-.264-.254-.366-.528-.213L26.77 198.481a1.1 1.1 0 0 0-.376.396l-3.19-1.829c.085-.159.21-.292.365-.386l21.485-12.375a1.19 1.19 0 0 1 1.077 0l2.124 1.25a1.14 1.14 0 0 1 .528.772"/><path fill="#0043FF" d="m48.27 186.096-21.495 12.385a1.15 1.15 0 0 0-.529.914v11.999c0 .335.234.478.529.305l21.494-12.375a1.18 1.18 0 0 0 .529-.924v-11.989c0-.346-.183-.478-.529-.315"/><path fill="#103E13" d="m48.27 186.096-21.495 12.385a1.15 1.15 0 0 0-.529.914v11.999c0 .335.234.478.529.305l21.494-12.375a1.18 1.18 0 0 0 .529-.924v-11.989c0-.346-.183-.478-.529-.315" opacity=".2"/><path fill="#fff" d="M31.653 198.684a.089.089 0 0 1 .066-.028.1.1 0 0 1 .066.028.2.2 0 0 1 .06.163v6.827a.54.54 0 0 1-.06.234.32.32 0 0 1-.132.152l-.895.518a.1.1 0 0 1-.066.029.093.093 0 0 1-.066-.029v-2.753l-1.524.884v2.581c0 .081-.02.162-.061.233a.36.36 0 0 1-.122.163l-.905.518a.1.1 0 0 1-.066.024.1.1 0 0 1-.066-.024.26.26 0 0 1 0-.173v-6.827a.7.7 0 0 1 0-.234.44.44 0 0 1 .132-.163l.905-.518a.1.1 0 0 1 .122 0 .22.22 0 0 1 .06.173v2.54l1.525-.874v-2.55a.5.5 0 0 1 0-.234.4.4 0 0 1 .132-.152zM36.671 195.788a.1.1 0 0 1 .03-.02.1.1 0 0 1 .036-.008q.02 0 .036.008a.1.1 0 0 1 .03.02c.02.053.02.111 0 .163v1.118a.6.6 0 0 1 0 .233.37.37 0 0 1-.132.163l-1.209.701v5.415a.7.7 0 0 1-.061.244.44.44 0 0 1-.132.163l-.905.518a.13.13 0 0 1-.066.019.13.13 0 0 1-.066-.019.26.26 0 0 1 0-.173v-5.415l-1.21.691a.1.1 0 0 1-.065.024.1.1 0 0 1-.066-.024.3.3 0 0 1-.051-.173v-1.118a.6.6 0 0 1 .05-.233.37.37 0 0 1 .133-.163zM39.82 199.497a.5.5 0 0 1-.091-.122l-.65-1.372v3.495a.5.5 0 0 1-.051.234.36.36 0 0 1-.133.162l-.894.519a.1.1 0 0 1-.066.024.1.1 0 0 1-.066-.024.23.23 0 0 1 0-.173v-6.818a.5.5 0 0 1 0-.233.37.37 0 0 1 .132-.163l.793-.457h.203a.6.6 0 0 1 .092.112l1.117 2.286 1.108-3.566q.035-.116.092-.224a.46.46 0 0 1 .203-.234l.793-.457a.088.088 0 0 1 .066-.028.1.1 0 0 1 .066.028.2.2 0 0 1 0 .163v6.827a.5.5 0 0 1 0 .234.44.44 0 0 1-.132.163l-.895.518a.13.13 0 0 1-.066.019.13.13 0 0 1-.066-.019.23.23 0 0 1 0-.173v-3.505l-.65 2.113q-.038.12-.092.234a.4.4 0 0 1-.162.183l-.437.243c-.122.041-.173.051-.214.011M47.261 195.382h.122a.2.2 0 0 1 .061.162v1.169q0 .125-.06.233a.3.3 0 0 1-.123.163l-3.18 1.829a.1.1 0 0 1-.067.024.1.1 0 0 1-.066-.024.27.27 0 0 1 0-.173v-6.827a.6.6 0 0 1 0-.224.37.37 0 0 1 .132-.163l.895-.518a.1.1 0 0 1 .03-.021.1.1 0 0 1 .036-.007q.018 0 .036.007a.1.1 0 0 1 .03.021.2.2 0 0 1 .06.163v5.425z"/><path fill="#0043FF" d="m45.066 209.21-21.484 12.374a1.18 1.18 0 0 0-.539.925v11.989a1.18 1.18 0 0 0 .539.925l2.124 1.198a1.19 1.19 0 0 0 1.016 0l21.545-12.375a1.22 1.22 0 0 0 .529-.924v-11.989a1.18 1.18 0 0 0-.539-.925l-2.114-1.198a1.19 1.19 0 0 0-1.077 0"/><path fill="#103E13" d="m45.066 209.21-21.484 12.374a1.18 1.18 0 0 0-.539.925v11.989a1.18 1.18 0 0 0 .539.925l2.124 1.198a1.19 1.19 0 0 0 1.016 0l21.545-12.375a1.22 1.22 0 0 0 .529-.924v-11.989a1.18 1.18 0 0 0-.539-.925l-2.114-1.198a1.19 1.19 0 0 0-1.077 0" opacity=".4"/><path fill="#0043FF" d="M48.783 211.231c0-.264-.254-.365-.528-.213L26.77 223.393a1.2 1.2 0 0 0-.376.406l-3.19-1.839c.088-.153.214-.282.365-.375l21.495-12.375a1.21 1.21 0 0 1 1.077 0l2.114 1.209a1.13 1.13 0 0 1 .528.812"/><path fill="#0043FF" d="m48.27 211.018-21.495 12.375a1.18 1.18 0 0 0-.529.925v12.019c0 .345.234.477.529.315l21.494-12.406a1.19 1.19 0 0 0 .529-.924v-11.989c0-.345-.183-.478-.529-.315"/><path fill="#103E13" d="m48.27 211.018-21.495 12.375a1.18 1.18 0 0 0-.529.925v12.019c0 .345.234.477.529.315l21.494-12.406a1.19 1.19 0 0 0 .529-.924v-11.989c0-.345-.183-.478-.529-.315" opacity=".2"/><path fill="#fff" d="M31.967 226.228v1.7880000000000003q.015.215.061.427.046.167.153.304a.42.42 0 0 0 .264.122.8.8 0 0 0 .386-.132q.218-.121.386-.305.143-.161.254-.345.089-.171.143-.356c0-.122.06-.223.081-.325q.024-.14.071-.274a.36.36 0 0 1 .163-.163l.894-.518a.1.1 0 0 1 .056-.019q.031 0 .056.019v.132a4 4 0 0 1-.173 1.118 5.3 5.3 0 0 1-.447 1.087c-.19.336-.42.65-.681.935a3.2 3.2 0 0 1-.843.691c-.261.17-.563.268-.874.284a1 1 0 0 1-.661-.234 1.47 1.47 0 0 1-.427-.67 3.7 3.7 0 0 1-.173-1.016v-1.88a5.5 5.5 0 0 1 .173-1.199q.19-.602.508-1.148a4.9 4.9 0 0 1 .66-1.016c.253-.293.552-.544.885-.741.256-.157.545-.251.843-.275.24-.023.479.034.681.163.203.136.36.331.447.559.121.289.18.6.173.914a.44.44 0 0 1 0 .193.4.4 0 0 1-.112.132l-.894.518h-.162a.6.6 0 0 1-.072-.193c0-.071 0-.152-.08-.233a.37.37 0 0 0-.143-.183.5.5 0 0 0-.254-.061.9.9 0 0 0-.386.132 1.5 1.5 0 0 0-.387.325 2.3 2.3 0 0 0-.264.427 3 3 0 0 0-.152.477 4 4 0 0 0-.153.539M38.268 224.825v1.738a.7.7 0 0 1 0 .234.37.37 0 0 1-.133.162l-.863.498a.1.1 0 0 1-.066.024.1.1 0 0 1-.066-.024.22.22 0 0 1 0-.173v-1.737l-1.017.609a.1.1 0 0 1-.066.029.1.1 0 0 1-.036-.008.1.1 0 0 1-.03-.021.23.23 0 0 1 0-.162v-1.067a.6.6 0 0 1 0-.234.36.36 0 0 1 .132-.162l1.017-.61v-1.808a.5.5 0 0 1 0-.234.34.34 0 0 1 .132-.152l.864-.508a.12.12 0 0 1 .132 0q.029.086 0 .172v1.738l1.016-.61a.12.12 0 0 1 .066-.019q.035 0 .066.019a.22.22 0 0 1 .05.173v1.067a.48.48 0 0 1-.182.396zM42.821 222.194v1.748a.54.54 0 0 1-.06.233.4.4 0 0 1-.123.153l-.874.498a.1.1 0 0 1-.027.02.1.1 0 0 1-.034.007.1.1 0 0 1-.033-.007.1.1 0 0 1-.028-.02.2.2 0 0 1-.06-.163v-1.748l-1.017.62a.1.1 0 0 1-.066.025.1.1 0 0 1-.066-.025.23.23 0 0 1-.061-.173v-1.066a.54.54 0 0 1 .06-.234.3.3 0 0 1 .133-.152l1.016-.62v-1.738c0-.081.02-.162.061-.233a.36.36 0 0 1 .122-.163l.874-.498a.1.1 0 0 1 .028-.02.1.1 0 0 1 .033-.007q.018 0 .034.007.016.008.027.02a.2.2 0 0 1 .061.163v1.747l1.016-.609a.088.088 0 0 1 .066-.028.09.09 0 0 1 .067.028c.02.056.02.117 0 .173v1.016a.6.6 0 0 1 0 .223.37.37 0 0 1-.133.163z"/><path fill="#333" d="M282.047 68.27 264.251 78.55a1.43 1.43 0 0 0-.63 1.108V101.4c.011.22.075.433.187.622.111.19.267.349.453.465l2.521 1.443a1.45 1.45 0 0 0 1.28 0l17.796-10.292a1.412 1.412 0 0 0 .63-1.097V70.799a1.4 1.4 0 0 0-.641-1.097l-2.469-1.443a1.42 1.42 0 0 0-1.331.01"/><path fill="#333" d="M268.062 103.921a1.49 1.49 0 0 1-1.28 0l-2.521-1.443a1.354 1.354 0 0 1-.64-1.087V79.648c.01-.23.08-.454.203-.65l3.791 2.174c-.122.204-.193.427-.193.082v21.742c0 .925.264 1.138.64.925"/><path fill="#fff" d="M286.476 70.728c-.051-.325-.305-.437-.62-.254l-17.795 10.292a1.3 1.3 0 0 0-.448.468l-3.801-2.175a1.4 1.4 0 0 1 .448-.457l17.795-10.292a1.4 1.4 0 0 1 1.27 0l2.521 1.433a1.37 1.37 0 0 1 .63.985" opacity=".4"/><path fill="#37474F" d="M261.882 95.783c-.406-.244-3.445-1.951-3.536-2.032a.586.586 0 0 1-.261-.68.6.6 0 0 1 .129-.225l5.406-6.197 3.801 2.184-5.65 6.035a.6.6 0 0 0 .111.914"/><path fill="#fff" d="M261.882 95.783c-.406-.244-3.445-1.951-3.536-2.032a.586.586 0 0 1-.261-.68.6.6 0 0 1 .129-.225l5.406-6.197 3.801 2.184-5.65 6.035a.6.6 0 0 0 .111.914" opacity=".4"/><path fill="#37474F" d="m285.858 70.423-17.795 10.292a1.395 1.395 0 0 0-.64 1.097v7.041l-5.651 6.035a.569.569 0 0 0 .366 1.016l5.285-.385v8.077c0 .406.284.569.64.365l17.795-10.292a1.4 1.4 0 0 0 .63-1.097V70.83c0-.448-.284-.61-.63-.407"/><path fill="#fff" d="m282.362 89.717-3.649-2.733 3.761-7.193a1.37 1.37 0 0 0-1.616-1.939 1.36 1.36 0 0 0-.803.669l-3.557 6.797-3.252-2.459a1.37 1.37 0 0 0-1.01-.263 1.36 1.36 0 0 0-1.133 1.006 1.365 1.365 0 0 0 .496 1.431l3.618 2.733-3.608 6.889a1.37 1.37 0 0 0 1.21 2.001 1.36 1.36 0 0 0 1.209-.731l3.395-6.482 3.262 2.459a1.373 1.373 0 0 0 1.911-.265 1.373 1.373 0 0 0-.234-1.92"/><path fill="#263238" d="M365.592 349.394a8.8 8.8 0 0 1 .935 4.603c-.071 1.391-.904 3.2-.528 6.339s1.098 4.136 1.433 6.35a7.8 7.8 0 0 1-.022 3.075 7.8 7.8 0 0 1-1.208 2.828c-1.301 2.114-4.167 3.79-9.838 3.587-4.573-.163-6.423-2.51-6.524-5.202z"/><path fill="#37474F" d="M364.293 342.912q.212.878.275 1.778c.173 1.067.488 2.032.742 3.119.071.275.132.549.193.823.437 2.103 0 4.278 0 6.422a35.6 35.6 0 0 0 1.331 7.477c1.016 4.45 1.189 7.427-2.703 10.506-2.033 1.625-4.299 1.676-6.901 1.747a11 11 0 0 1-5.732-1.381c-1.667-1.23-1.646-2.266-1.656-2.662-.153-4.725 1.555-10.221 1.9-14.936.129-1.269.156-2.546.081-3.82-.162-1.564-.701-3.119-.874-4.694a2.73 2.73 0 0 1 .214-1.737 2.78 2.78 0 0 1 2.104-.945c2.032-.274 4.146-.478 6.229-.63a1.9 1.9 0 0 1 1.413.285c.407.365.417 1.016.529 1.513.111.498.498 1.138 1.016 1.016a.91.91 0 0 0 .63-.792c.051-.346.203-3.048.193-3.444.041.02.772-.092 1.016.355"/><path fill="#263238" d="M295.47 358.589a3.5 3.5 0 0 0 0 2.601c.335.772 4.207 3.17 9.563 3.048a22.36 22.36 0 0 0 11.179-3.414c2.084-1.27 4.218-1.432 6.871-1.483 2.652-.051 5.762-1.016 6.666-2.205a6.34 6.34 0 0 0 0-3.566z"/><path fill="#37474F" d="M314.86 342.77q-.307.574-.549 1.179a9.4 9.4 0 0 1-2.947 3.667 30.6 30.6 0 0 1-5.915 3.191c-1.321.589-2.703.751-4.065 1.219a22.6 22.6 0 0 0-4.34 1.91c-2.154 1.321-2.561 4.867-.233 6.37 2.032 1.291 7.388 2.825 13.14 1.443 3.141-.752 6.708-3.932 10.793-4.064 2.592-.091 7.521-.62 9.269-2.52.64-2.834-.061-3.637-.64-6.096-.31-1.36-.474-2.75-.488-4.145 0-.732.488-2.835-1.016-3.048l-.153 1.575s-.295.528-1.9.813c-.519.091-.925.772-1.199 1.392-.275.619-.448 1.097-1.017 1.087a1.02 1.02 0 0 1-.803-.63 7 7 0 0 1-.294-1.016 4.08 4.08 0 0 0-2.429-2.408 12.4 12.4 0 0 0-2.846-.6c-.732-.111-1.341-.426-2.033.204a2.2 2.2 0 0 0-.335.477"/><path fill="#455A64" d="M356.558 221.926c1.017 15.515 1.555 24.547 4.33 66.884a110.8 110.8 0 0 1 3.872 22.189c.549 9.368 1.88 37.593 1.88 37.593s-7.551 6.197-16.261 3.332c0 0-7.907-41.494-10.671-54.437-2.642-12.426-4.675-26.01-4.675-26.01l-1.961 17.333s.345 7.711.101 19.223c-.122 6.157-3.049 39.482-3.049 39.482s-10.6 4.815-17.754-1.372c0 0-.519-54.041-.63-59.609-.122-6.36 1.016-70.318 1.016-70.318z"/><path fill="#37474F" d="m334.993 271.487-5.416-28.377s-8.375-.732-12.999-5.405c0 0 .823 4.582 11.352 7.325l5.234 26.132-.091 17.648zM366.398 343.501a17.18 17.18 0 0 1-11.617 4.186s7.216-1.077 11.545-5.832zM330.462 343.583s-7.388 2.58-13.618.609c0 0 4.807 3.231 13.506.579z"/><path fill="#FFE492" d="M252.531 164.197a1.7 1.7 0 0 0-.305-.671 3.06 3.06 0 0 1 .061-3.048q.27-.337.448-.731c.203-.559-.051-1.189 0-1.788.182-2.673 5.02-1.504 6.555-1.016.447.152 3.049.822 4.065 1.178a13.8 13.8 0 0 1 .427-4.359c.691-2.773 2.977-2.489 3.11-.792.125 1.536.411 3.055.853 4.531.285 1.087 1.017 2.164 1.433 3.77.6 2.032.447 3.17 2.48 5.08 3.049 2.875 18.7 13.482 18.7 13.482 3.902-2.509 19.005-11.796 24.665-14.864 5.478-2.977 8.273-.579 8.273-.579l-4.777 17.587s-18.832 9.713-25.62 12.68c-4.736 2.032-6.83.894-12.054-3.76-4.146-3.921-9.614-9.591-15.519-14.813-2.357-2.093-4.065-3.16-5.731-3.241-.631 0-1.261-.071-1.881-.132-1.402-.163-3.049-.508-3.729-1.9-.234-.467-.346-1.016-.539-1.483-.295-.752-.762-1.423-1.016-2.175a3.04 3.04 0 0 1-.204-1.595c0-.437.366-.874.305-1.361"/><path fill="#455A64" d="M324.292 163.039c-4.817 0-6.687 0-12.805 3.474s-18.049 11.369-18.049 11.369 5.345 2.977 6.412 13.544l19.31-9.063z"/><path fill="#FFE492" d="M261.495 159.737c1.596.386 2.094 1.392 2.206 3.637.061 1.331.62 3.759 2.134 4.643a3.46 3.46 0 0 1-1.941-.681c-.732-.66-.925-.721-1.281-.294-.263.286-.59.506-.955.64a1.722 1.722 0 0 1 .295 2.032c-.62 1.199-3.74 1.432-6.383.284 0 0 4.238 1.016 5.082-.366.843-1.381-1.433-2.885-3.049-3.22 0 0 4.065.68 4.594-.671s-1.2-2.235-3.598-2.672c0 0 3.354.376 3.841-.792a2.03 2.03 0 0 0-.945-2.54M290.316 179.864a12.57 12.57 0 0 1 4.696 5.791s.335-4.46-3.334-6.655z"/><path fill="#0043FF" d="M312.178 180.412c.599-11.958 5.417-16.784 12.114-17.374l15.051-1.016c4.066.945 14.635 2.977 14.635 2.977 4.38 1.311 7.46 12.731 6.433 19.233-1.026 6.503-3.171 11.461-3.77 22.403.173 10.363.325 12.416.325 16.48-9.36 5.943-34.503 7.183-44.392 1.219 0 0-.173-10.018-.376-16.398-.345-10.943-.223-23.409-.02-27.524"/><path fill="#37474F" d="M316.132 129.683a3.87 3.87 0 0 0-1.951 3.444 5.08 5.08 0 0 0 .854 2.937 6.5 6.5 0 0 0 3.455 2.255q.885.212 1.718.579 1.037.74 1.931 1.646c.924.711 1.839 1.443 2.784 2.134a57 57 0 0 0 5.864 3.84 42 42 0 0 0 6.098 2.865c2.226.823 4.065.102 6.443.315l-.345 6.442s.793-1.484 1.697-3.251c.783-1.524 4.065-9.287 4.065-9.287 1.281-3.048 2.907-6.238 2.714-9.642-.163-2.753-.712-5.171-2.805-6.339-.173-3.17-.895-4.715-3.12-6.411a12.3 12.3 0 0 0-5.498-2.032 22.4 22.4 0 0 0-6.677.233c-3.293.529-6.586 1.372-9.92 1.199a15.9 15.9 0 0 0-5.325.335 5.402 5.402 0 0 0-3.73 5.274c-.071 1.209.895 3.2 1.748 3.464"/><path fill="#FFE492" d="M336.984 130.506c0 2.032 1.87 4.907 4.716 7.386a14 14 0 0 0 .152 5.67 5.6 5.6 0 0 0 .793 1.615 1.64 1.64 0 0 0 1.189.752c.66 0 .925-.345 1.128-.864q.45-.985 1.016-1.91a4.6 4.6 0 0 1 .58-.731c1.016-.925 3.953-2.032 5.325 1.097s-1.199 7.559-3.577 8.22c-4.066 1.148-4.99-1.646-4.99-1.646l.071 13.553c-1.149 3.434-7.511 6.777-12.633 6.096-5.122-.68-3.496-3.769-1.413-5.862l-.264-4.704c-1.823.18-3.663.112-5.467-.203-2.124-.407-3.873-2.398-4.757-5.639a49.4 49.4 0 0 1-.609-18.817c.772-3.82 1.717-5.466 2.174-5.913 0 .833 1.596 3.383 5.732 3.952 4.37.63 7.684-.751 10.834-2.052"/><path fill="#FFE492" d="M329.059 159.198c3.78-.345 6.849-.864 8.984-2.032 1.565-.823 2.916-3.393 3.323-4.308 0 0-.102 3.516-2.205 5.466-2.968 2.754-9.991 2.754-9.991 2.754z"/><path fill="#263238" d="M331.039 141.946a1.37 1.37 0 0 0 .843 1.255 1.38 1.38 0 0 0 1.485-.282 1.372 1.372 0 0 0-.905-2.354 1.4 1.4 0 0 0-.998.396 1.4 1.4 0 0 0-.425.985M331.539 137.466l3.323 1.371a1.88 1.88 0 0 0-1.016-2.397 1.74 1.74 0 0 0-2.307 1.026"/><path fill="#FFE492" d="m332.839 149.343-5.081 2.032a2.667 2.667 0 0 0 2.471 1.781c.362.007.721-.06 1.055-.196a2.855 2.855 0 0 0 1.555-3.617"/><path fill="#FFE492" d="M329.882 152.909a3 3 0 0 0 0 .254c.477.077.966.021 1.413-.163a2.8 2.8 0 0 0 1.252-1.051 2.8 2.8 0 0 0 .455-1.57 2.5 2.5 0 0 0-.548-.061 2.593 2.593 0 0 0-2.572 2.591"/><path fill="#263238" d="m319.1 138.756 3.282-1.27a1.692 1.692 0 0 0-2.225-1.016 1.79 1.79 0 0 0-1.057 2.286M319.944 141.652a1.39 1.39 0 0 0 1.331 1.473 1.44 1.44 0 0 0 1.389-.802 1.43 1.43 0 0 0-.225-1.588 1.43 1.43 0 0 0-1.557-.384 1.43 1.43 0 0 0-.938 1.301"/><path fill="#FFE492" d="m327.241 148.672-5.061-.955 4.776-8.087zM354.853 165.243c6.332 1.097 10.163 3.129 11.789 8.128 2.307 7.112 8.761 27.26 10.092 34.422.813 4.4 2.084 7.184-1.646 10.079a264 264 0 0 1-27.786 17.577c-8.455 4.43-21.22 5.304-21.22 5.304l9.259-5.599 1.646-3.139 24.747-21.915-9.35-27.615s-2.358-14.194 2.469-17.242"/><path fill="#FFE492" d="M361.734 210.1a14.1 14.1 0 0 1 6.504-1.565s-2.195-1.89-7.043 0z"/><path fill="#455A64" d="M353.98 165c2.896.538 6.098.853 9.045 2.722 2.947 1.87 3.486 4.136 5.752 11.116 2.267 6.979 4.939 17.272 4.939 17.272s-5.549 4.694-15.102 4.826c0 0-4.705-13.056-5.864-15.962s-4.075-12.273 1.23-19.974"/><path fill="#0043FF" d="M343.773 227.717v.874a2.45 2.45 0 0 1-1.179 2.154l-23.07 14.001a2.5 2.5 0 0 1-2.449 0l-43.457-23.795a2.49 2.49 0 0 1-1.27-2.103v-.59l45.926 25.177z"/><path fill="#fff" d="M343.773 227.717v.874a2.45 2.45 0 0 1-1.179 2.154l-23.07 14.001a2.5 2.5 0 0 1-2.449 0l-43.457-23.795a2.49 2.49 0 0 1-1.27-2.103v-.59l45.926 25.177z" opacity=".5"/><path fill="#103E13" d="M343.773 227.717v.874a2.45 2.45 0 0 1-1.179 2.154l-23.07 14.001a2.5 2.5 0 0 1-2.449 0l-43.457-23.795a2.49 2.49 0 0 1-1.27-2.103v-.59l45.926 25.177z" opacity=".1"/><path fill="#0043FF" d="m272.34 218.258 25.113-15.24a1.48 1.48 0 0 1 1.463 0l44.717 24.506q.074.044.116.119a.33.33 0 0 1 0 .322.3.3 0 0 1-.116.118l-25.357 15.393z"/><path fill="#fff" d="m272.34 218.258 25.113-15.24a1.48 1.48 0 0 1 1.463 0l44.717 24.506q.074.044.116.119a.33.33 0 0 1 0 .322.3.3 0 0 1-.116.118l-25.357 15.393z" opacity=".85"/><path fill="#0043FF" d="m318.05 241.047 13.547-8.219-40.225-22.047-13.618 8.178z"/><path fill="#fff" d="m318.05 241.047 13.547-8.219-40.225-22.047-13.618 8.178z" opacity=".6"/><path fill="#0043FF" d="m324.72 219.112-.254.152-6.637 4.034-12.114-6.645-.254-.132 6.89-4.186z"/><path fill="#0043FF" d="m324.466 219.264-6.637 4.034-12.114-6.645 6.646-4.023z"/><path fill="#fff" d="m324.466 219.264-6.637 4.034-12.114-6.645 6.646-4.023z" opacity=".6"/><path fill="#0043FF" d="M318.264 243.435v1.625a2.4 2.4 0 0 1-1.23-.294l-43.416-23.815a2.49 2.49 0 0 1-1.27-2.103v-.59z"/><path fill="#fff" d="M318.264 243.435v1.625a2.4 2.4 0 0 1-1.23-.294l-43.416-23.815a2.49 2.49 0 0 1-1.27-2.103v-.59z" opacity=".03"/><path fill="#103E13" d="M318.264 243.435v1.625a2.4 2.4 0 0 1-1.23-.294l-43.416-23.815a2.49 2.49 0 0 1-1.27-2.103v-.59z" opacity=".2"/><path fill="#0043FF" d="M317.585 243.811a2.88 2.88 0 0 1-2.51-.142l-43.253-23.714a2.94 2.94 0 0 1-1.464-2.032l-5.285-27.777a3 3 0 0 1 0-.478 2.897 2.897 0 0 1 .813-2.083l44.9 24.648a2.11 2.11 0 0 1 1.078 1.474z"/><path fill="#fff" d="M317.585 243.811a2.88 2.88 0 0 1-2.51-.142l-43.253-23.714a2.94 2.94 0 0 1-1.464-2.032l-5.285-27.777a3 3 0 0 1 0-.478 2.897 2.897 0 0 1 .813-2.083l44.9 24.648a2.11 2.11 0 0 1 1.078 1.474z" opacity=".4"/><path fill="#0043FF" d="m318.267 243.435-.285.173a3 3 0 0 1-.396.203l-5.722-30.064a2.12 2.12 0 0 0-1.077-1.473l-44.951-24.648q.257-.275.579-.468l45.053 24.689a2.18 2.18 0 0 1 1.077 1.484z"/><path fill="#fff" d="m318.267 243.435-.285.173a3 3 0 0 1-.396.203l-5.722-30.064a2.12 2.12 0 0 0-1.077-1.473l-44.951-24.648q.257-.275.579-.468l45.053 24.689a2.18 2.18 0 0 1 1.077 1.484z" opacity=".6"/><path fill="#0043FF" d="m311.445 212.833.671-.406c.212.263.359.573.427.904l5.722 30.104-.285.173a3 3 0 0 1-.396.203l-5.722-30.064a2.1 2.1 0 0 0-.417-.914"/><path fill="#fff" d="m311.445 212.833.671-.406c.212.263.359.573.427.904l5.722 30.104-.285.173a3 3 0 0 1-.396.203l-5.722-30.064a2.1 2.1 0 0 0-.417-.914" opacity=".5"/><path fill="#103E13" d="m311.445 212.833.671-.406c.212.263.359.573.427.904l5.722 30.104-.285.173a3 3 0 0 1-.396.203l-5.722-30.064a2.1 2.1 0 0 0-.417-.914" opacity=".1"/><path fill="#455A64" d="M292.958 218.604a9.45 9.45 0 0 0-4.431-5.446c-2.083-1.138-3.496-.569-3.14 1.3.356 1.87 2.337 4.288 4.431 5.436s3.496.569 3.14-1.29"/><path fill="#FFE492" d="M344.618 225.259c-2.419 1.697-5.681.325-8.893.711-3.211.386-5.955 1.179-8.536 1.107-2.582-.071-3.842.447-2.033 2.51s6.982.874 8.384 1.504a3.046 3.046 0 0 1 .651 4.755c-1.514 1.757 8.618-1.636 9.97-3.719 1.351-2.083 2.286-6.604.457-6.868"/></svg>