<svg xmlns="http://www.w3.org/2000/svg" id="Layer_1" data-name="Layer 1" viewBox="0 0 1280 1280"><defs><style>.cls-1{fill:#fff;stroke-width:0}</style></defs><path d="m362.92 584.89 237.86-238.08c3.1-3.1 7.3-4.85 11.69-4.85h292.92c14.72 0 22.09 17.8 11.68 28.2L678.98 608.25c-3.1 3.1-7.3 4.84-11.68 4.84H374.61c-14.72 0-22.09-17.79-11.69-28.2M600.78 933.19 362.92 695.1c-10.4-10.41-3.03-28.2 11.69-28.2H667.3c4.38 0 8.59 1.74 11.68 4.84l238.09 238.09c10.41 10.41 3.04 28.2-11.68 28.2H612.47c-4.38 0-8.59-1.74-11.69-4.84" class="cls-1"/></svg>