<svg width="554" height="504" viewBox="0 0 554 504" fill="none" xmlns="http://www.w3.org/2000/svg">
<g filter="url(#filter0_d_1032_3765)">
<rect x="259" y="305" width="265" height="165" rx="15.0305" fill="white"/>
</g>
<rect x="488.734" y="380.669" width="8.00001" height="72" rx="4" transform="rotate(90 488.734 380.669)" fill="#D9D9D9"/>
<rect x="484.734" y="402.801" width="8.00001" height="68" rx="4" transform="rotate(90 484.734 402.801)" fill="#D9D9D9"/>
<rect x="492.734" y="424.934" width="8.00001" height="76" rx="4" transform="rotate(90 492.734 424.934)" fill="#D9D9D9"/>
<path d="M377.379 406.299C377.379 428.35 359.547 446.201 337.581 446.201C315.615 446.201 297.782 428.35 297.782 406.299C297.782 384.247 315.615 366.397 337.581 366.397C359.547 366.397 377.379 384.247 377.379 406.299Z" stroke="#0A2640" stroke-width="13.3928"/>
<mask id="mask0_1032_3765" style="mask-type:alpha" maskUnits="userSpaceOnUse" x="263" y="342" width="74" height="122">
<path d="M336.098 402.002L317.962 342.845L263.059 412.577L292.241 463.472L336.098 402.002Z" fill="#C4C4C4"/>
</mask>
<g mask="url(#mask0_1032_3765)">
<path d="M377.379 406.298C377.379 428.35 359.547 446.2 337.581 446.2C315.615 446.2 297.782 428.35 297.782 406.298C297.782 384.247 315.615 366.396 337.581 366.396C359.547 366.396 377.379 384.247 377.379 406.298Z" stroke="#12274F" stroke-width="13.3928"/>
</g>
<mask id="mask1_1032_3765" style="mask-type:alpha" maskUnits="userSpaceOnUse" x="311" y="337" width="92" height="85">
<path d="M342.234 407.186L402.23 421.877L370.525 338.918L311.962 337.964L342.234 407.186Z" fill="#C4C4C4"/>
</mask>
<g mask="url(#mask1_1032_3765)">
<path d="M317.181 440.539C298.289 429.254 292.089 404.767 303.335 385.846C314.581 366.925 339.014 360.737 357.906 372.022C376.798 383.307 382.999 407.794 371.752 426.715C360.506 445.636 336.073 451.824 317.181 440.539Z" stroke="#0043FF" stroke-width="13.3928"/>
</g>
<path d="M291.56 335.4C291.56 334.301 291.805 333.32 292.296 332.456C292.797 331.581 293.475 330.904 294.328 330.424C295.192 329.933 296.157 329.688 297.224 329.688C298.472 329.688 299.565 330.008 300.504 330.648C301.443 331.288 302.099 332.173 302.472 333.304H299.896C299.64 332.771 299.277 332.371 298.808 332.104C298.349 331.837 297.816 331.704 297.208 331.704C296.557 331.704 295.976 331.859 295.464 332.168C294.963 332.467 294.568 332.893 294.28 333.448C294.003 334.003 293.864 334.653 293.864 335.4C293.864 336.136 294.003 336.787 294.28 337.352C294.568 337.907 294.963 338.339 295.464 338.648C295.976 338.947 296.557 339.096 297.208 339.096C297.816 339.096 298.349 338.963 298.808 338.696C299.277 338.419 299.64 338.013 299.896 337.48H302.472C302.099 338.621 301.443 339.512 300.504 340.152C299.576 340.781 298.483 341.096 297.224 341.096C296.157 341.096 295.192 340.856 294.328 340.376C293.475 339.885 292.797 339.208 292.296 338.344C291.805 337.48 291.56 336.499 291.56 335.4ZM309.569 341.112C308.524 341.112 307.564 340.867 306.689 340.376C305.815 339.885 305.121 339.208 304.609 338.344C304.097 337.469 303.841 336.483 303.841 335.384C303.841 334.296 304.097 333.32 304.609 332.456C305.121 331.581 305.815 330.899 306.689 330.408C307.564 329.917 308.524 329.672 309.569 329.672C310.625 329.672 311.585 329.917 312.449 330.408C313.324 330.899 314.012 331.581 314.513 332.456C315.025 333.32 315.281 334.296 315.281 335.384C315.281 336.483 315.025 337.469 314.513 338.344C314.012 339.208 313.324 339.885 312.449 340.376C311.575 340.867 310.615 341.112 309.569 341.112ZM309.569 339.112C310.241 339.112 310.833 338.963 311.345 338.664C311.857 338.355 312.257 337.917 312.545 337.352C312.833 336.787 312.977 336.131 312.977 335.384C312.977 334.637 312.833 333.987 312.545 333.432C312.257 332.867 311.857 332.435 311.345 332.136C310.833 331.837 310.241 331.688 309.569 331.688C308.897 331.688 308.3 331.837 307.777 332.136C307.265 332.435 306.865 332.867 306.577 333.432C306.289 333.987 306.145 334.637 306.145 335.384C306.145 336.131 306.289 336.787 306.577 337.352C306.865 337.917 307.265 338.355 307.777 338.664C308.3 338.963 308.897 339.112 309.569 339.112ZM317.396 338.472C318.42 337.619 319.236 336.909 319.844 336.344C320.452 335.768 320.958 335.171 321.364 334.552C321.769 333.933 321.972 333.325 321.972 332.728C321.972 332.184 321.844 331.757 321.588 331.448C321.332 331.139 320.937 330.984 320.404 330.984C319.87 330.984 319.46 331.165 319.172 331.528C318.884 331.88 318.734 332.365 318.724 332.984H316.548C316.59 331.704 316.969 330.733 317.684 330.072C318.409 329.411 319.326 329.08 320.436 329.08C321.652 329.08 322.585 329.405 323.236 330.056C323.886 330.696 324.212 331.544 324.212 332.6C324.212 333.432 323.988 334.227 323.54 334.984C323.092 335.741 322.58 336.403 322.004 336.968C321.428 337.523 320.676 338.195 319.748 338.984H324.468V340.84H316.564V339.176L317.396 338.472ZM333.34 341.144C332.614 341.144 331.964 341.016 331.388 340.76C330.812 340.493 330.353 340.136 330.012 339.688C329.681 339.24 329.5 338.744 329.468 338.2H331.724C331.766 338.541 331.932 338.824 332.22 339.048C332.518 339.272 332.886 339.384 333.324 339.384C333.75 339.384 334.081 339.299 334.316 339.128C334.561 338.957 334.684 338.739 334.684 338.472C334.684 338.184 334.534 337.971 334.236 337.832C333.948 337.683 333.484 337.523 332.844 337.352C332.182 337.192 331.638 337.027 331.212 336.856C330.796 336.685 330.433 336.424 330.124 336.072C329.825 335.72 329.676 335.245 329.676 334.648C329.676 334.157 329.814 333.709 330.092 333.304C330.38 332.899 330.785 332.579 331.308 332.344C331.841 332.109 332.465 331.992 333.18 331.992C334.236 331.992 335.078 332.259 335.708 332.792C336.337 333.315 336.684 334.024 336.748 334.92H334.604C334.572 334.568 334.422 334.291 334.156 334.088C333.9 333.875 333.553 333.768 333.116 333.768C332.71 333.768 332.396 333.843 332.172 333.992C331.958 334.141 331.852 334.349 331.852 334.616C331.852 334.915 332.001 335.144 332.3 335.304C332.598 335.453 333.062 335.608 333.692 335.768C334.332 335.928 334.86 336.093 335.276 336.264C335.692 336.435 336.049 336.701 336.348 337.064C336.657 337.416 336.817 337.885 336.828 338.472C336.828 338.984 336.684 339.443 336.396 339.848C336.118 340.253 335.713 340.573 335.18 340.808C334.657 341.032 334.044 341.144 333.34 341.144ZM338.09 336.536C338.09 335.64 338.266 334.845 338.618 334.152C338.981 333.459 339.467 332.925 340.075 332.552C340.693 332.179 341.381 331.992 342.139 331.992C342.8 331.992 343.376 332.125 343.867 332.392C344.368 332.659 344.768 332.995 345.067 333.4V332.136H347.323V341H345.067V339.704C344.779 340.12 344.379 340.467 343.867 340.744C343.365 341.011 342.784 341.144 342.123 341.144C341.376 341.144 340.693 340.952 340.075 340.568C339.467 340.184 338.981 339.645 338.618 338.952C338.266 338.248 338.09 337.443 338.09 336.536ZM345.067 336.568C345.067 336.024 344.96 335.56 344.747 335.176C344.533 334.781 344.245 334.483 343.883 334.28C343.52 334.067 343.131 333.96 342.715 333.96C342.299 333.96 341.915 334.061 341.562 334.264C341.211 334.467 340.923 334.765 340.699 335.16C340.485 335.544 340.379 336.003 340.379 336.536C340.379 337.069 340.485 337.539 340.699 337.944C340.923 338.339 341.211 338.643 341.562 338.856C341.925 339.069 342.309 339.176 342.715 339.176C343.131 339.176 343.52 339.075 343.883 338.872C344.245 338.659 344.533 338.36 344.747 337.976C344.96 337.581 345.067 337.112 345.067 336.568ZM353.206 338.936L355.446 332.136H357.83L354.55 341H351.83L348.566 332.136H350.966L353.206 338.936ZM360.224 331.08C359.83 331.08 359.499 330.957 359.232 330.712C358.976 330.456 358.848 330.141 358.848 329.768C358.848 329.395 358.976 329.085 359.232 328.84C359.499 328.584 359.83 328.456 360.224 328.456C360.619 328.456 360.944 328.584 361.2 328.84C361.467 329.085 361.6 329.395 361.6 329.768C361.6 330.141 361.467 330.456 361.2 330.712C360.944 330.957 360.619 331.08 360.224 331.08ZM361.328 332.136V341H359.088V332.136H361.328ZM368.454 332.008C369.51 332.008 370.363 332.344 371.014 333.016C371.664 333.677 371.99 334.605 371.99 335.8V341H369.75V336.104C369.75 335.4 369.574 334.861 369.222 334.488C368.87 334.104 368.39 333.912 367.782 333.912C367.163 333.912 366.672 334.104 366.31 334.488C365.958 334.861 365.782 335.4 365.782 336.104V341H363.542V332.136H365.782V333.24C366.08 332.856 366.459 332.557 366.918 332.344C367.387 332.12 367.899 332.008 368.454 332.008ZM377.592 331.992C378.253 331.992 378.834 332.125 379.336 332.392C379.837 332.648 380.232 332.984 380.52 333.4V332.136H382.776V341.064C382.776 341.885 382.61 342.616 382.28 343.256C381.949 343.907 381.453 344.419 380.792 344.792C380.13 345.176 379.33 345.368 378.392 345.368C377.133 345.368 376.098 345.075 375.288 344.488C374.488 343.901 374.034 343.101 373.928 342.088H376.152C376.269 342.493 376.52 342.813 376.904 343.048C377.298 343.293 377.773 343.416 378.328 343.416C378.978 343.416 379.506 343.219 379.912 342.824C380.317 342.44 380.52 341.853 380.52 341.064V339.688C380.232 340.104 379.832 340.451 379.32 340.728C378.818 341.005 378.242 341.144 377.592 341.144C376.845 341.144 376.162 340.952 375.544 340.568C374.925 340.184 374.434 339.645 374.072 338.952C373.72 338.248 373.544 337.443 373.544 336.536C373.544 335.64 373.72 334.845 374.072 334.152C374.434 333.459 374.92 332.925 375.528 332.552C376.146 332.179 376.834 331.992 377.592 331.992ZM380.52 336.568C380.52 336.024 380.413 335.56 380.2 335.176C379.986 334.781 379.698 334.483 379.336 334.28C378.973 334.067 378.584 333.96 378.168 333.96C377.752 333.96 377.368 334.061 377.016 334.264C376.664 334.467 376.376 334.765 376.152 335.16C375.938 335.544 375.832 336.003 375.832 336.536C375.832 337.069 375.938 337.539 376.152 337.944C376.376 338.339 376.664 338.643 377.016 338.856C377.378 339.069 377.762 339.176 378.168 339.176C378.584 339.176 378.973 339.075 379.336 338.872C379.698 338.659 379.986 338.36 380.2 337.976C380.413 337.581 380.52 337.112 380.52 336.568ZM388.355 341.144C387.63 341.144 386.979 341.016 386.403 340.76C385.827 340.493 385.369 340.136 385.027 339.688C384.697 339.24 384.515 338.744 384.483 338.2H386.739C386.782 338.541 386.947 338.824 387.235 339.048C387.534 339.272 387.902 339.384 388.339 339.384C388.766 339.384 389.097 339.299 389.331 339.128C389.577 338.957 389.699 338.739 389.699 338.472C389.699 338.184 389.55 337.971 389.251 337.832C388.963 337.683 388.499 337.523 387.859 337.352C387.198 337.192 386.654 337.027 386.227 336.856C385.811 336.685 385.449 336.424 385.139 336.072C384.841 335.72 384.691 335.245 384.691 334.648C384.691 334.157 384.83 333.709 385.107 333.304C385.395 332.899 385.801 332.579 386.323 332.344C386.857 332.109 387.481 331.992 388.195 331.992C389.251 331.992 390.094 332.259 390.723 332.792C391.353 333.315 391.699 334.024 391.763 334.92H389.619C389.587 334.568 389.438 334.291 389.171 334.088C388.915 333.875 388.569 333.768 388.131 333.768C387.726 333.768 387.411 333.843 387.187 333.992C386.974 334.141 386.867 334.349 386.867 334.616C386.867 334.915 387.017 335.144 387.315 335.304C387.614 335.453 388.078 335.608 388.707 335.768C389.347 335.928 389.875 336.093 390.291 336.264C390.707 336.435 391.065 336.701 391.363 337.064C391.673 337.416 391.833 337.885 391.843 338.472C391.843 338.984 391.699 339.443 391.411 339.848C391.134 340.253 390.729 340.573 390.195 340.808C389.673 341.032 389.059 341.144 388.355 341.144Z" fill="black"/>
<g filter="url(#filter1_d_1032_3765)">
<g clip-path="url(#clip0_1032_3765)">
<rect x="30" y="26" width="494" height="232" rx="15" fill="white"/>
<rect x="113.176" y="94.2432" width="11.7769" height="54.1739" rx="5.88847" transform="rotate(90 113.176 94.2432)" fill="#D9D9D9"/>
<rect x="424.477" y="94.1318" width="12" height="297" rx="6.00001" transform="rotate(90 424.477 94.1318)" fill="#0043FF"/>
<path d="M440.881 99.368C440.081 98.952 439.681 98.308 439.681 97.436C439.681 97.004 439.789 96.612 440.005 96.26C440.229 95.9 440.561 95.616 441.001 95.408C441.449 95.192 441.993 95.084 442.633 95.084C443.273 95.084 443.813 95.192 444.253 95.408C444.701 95.616 445.033 95.9 445.249 96.26C445.473 96.612 445.585 97.004 445.585 97.436C445.585 97.876 445.477 98.264 445.261 98.6C445.045 98.928 444.757 99.184 444.397 99.368C444.837 99.56 445.181 99.84 445.429 100.208C445.677 100.576 445.801 101.012 445.801 101.516C445.801 102.06 445.661 102.536 445.381 102.944C445.109 103.344 444.733 103.652 444.253 103.868C443.773 104.084 443.233 104.192 442.633 104.192C442.033 104.192 441.493 104.084 441.013 103.868C440.541 103.652 440.165 103.344 439.885 102.944C439.613 102.536 439.477 102.06 439.477 101.516C439.477 101.012 439.601 100.576 439.849 100.208C440.097 99.832 440.441 99.552 440.881 99.368ZM443.953 97.676C443.953 97.284 443.833 96.98 443.593 96.764C443.361 96.548 443.041 96.44 442.633 96.44C442.233 96.44 441.913 96.548 441.673 96.764C441.441 96.98 441.325 97.288 441.325 97.688C441.325 98.048 441.445 98.336 441.685 98.552C441.933 98.768 442.249 98.876 442.633 98.876C443.017 98.876 443.333 98.768 443.581 98.552C443.829 98.328 443.953 98.036 443.953 97.676ZM442.633 100.1C442.177 100.1 441.805 100.216 441.517 100.448C441.237 100.68 441.097 101.012 441.097 101.444C441.097 101.844 441.233 102.172 441.505 102.428C441.785 102.676 442.161 102.8 442.633 102.8C443.105 102.8 443.477 102.672 443.749 102.416C444.021 102.16 444.157 101.836 444.157 101.444C444.157 101.02 444.017 100.692 443.737 100.46C443.457 100.22 443.089 100.1 442.633 100.1ZM447.128 99.512C447.128 98.128 447.376 97.044 447.872 96.26C448.376 95.476 449.208 95.084 450.368 95.084C451.528 95.084 452.356 95.476 452.852 96.26C453.356 97.044 453.608 98.128 453.608 99.512C453.608 100.904 453.356 101.996 452.852 102.788C452.356 103.58 451.528 103.976 450.368 103.976C449.208 103.976 448.376 103.58 447.872 102.788C447.376 101.996 447.128 100.904 447.128 99.512ZM451.952 99.512C451.952 98.92 451.912 98.424 451.832 98.024C451.76 97.616 451.608 97.284 451.376 97.028C451.152 96.772 450.816 96.644 450.368 96.644C449.92 96.644 449.58 96.772 449.348 97.028C449.124 97.284 448.972 97.616 448.892 98.024C448.82 98.424 448.784 98.92 448.784 99.512C448.784 100.12 448.82 100.632 448.892 101.048C448.964 101.456 449.116 101.788 449.348 102.044C449.58 102.292 449.92 102.416 450.368 102.416C450.816 102.416 451.156 102.292 451.388 102.044C451.62 101.788 451.772 101.456 451.844 101.048C451.916 100.632 451.952 100.12 451.952 99.512ZM454.694 97.4C454.694 96.792 454.87 96.316 455.222 95.972C455.582 95.628 456.042 95.456 456.602 95.456C457.162 95.456 457.618 95.628 457.97 95.972C458.33 96.316 458.51 96.792 458.51 97.4C458.51 98.016 458.33 98.496 457.97 98.84C457.618 99.184 457.162 99.356 456.602 99.356C456.042 99.356 455.582 99.184 455.222 98.84C454.87 98.496 454.694 98.016 454.694 97.4ZM462.398 95.6L457.682 104H456.05L460.754 95.6H462.398ZM456.59 96.464C456.15 96.464 455.93 96.776 455.93 97.4C455.93 98.032 456.15 98.348 456.59 98.348C456.806 98.348 456.974 98.272 457.094 98.12C457.214 97.96 457.274 97.72 457.274 97.4C457.274 96.776 457.046 96.464 456.59 96.464ZM459.962 102.188C459.962 101.572 460.138 101.096 460.49 100.76C460.85 100.416 461.31 100.244 461.87 100.244C462.43 100.244 462.882 100.416 463.226 100.76C463.578 101.096 463.754 101.572 463.754 102.188C463.754 102.804 463.578 103.284 463.226 103.628C462.882 103.972 462.43 104.144 461.87 104.144C461.302 104.144 460.842 103.972 460.49 103.628C460.138 103.284 459.962 102.804 459.962 102.188ZM461.858 101.252C461.402 101.252 461.174 101.564 461.174 102.188C461.174 102.82 461.402 103.136 461.858 103.136C462.306 103.136 462.53 102.82 462.53 102.188C462.53 101.564 462.306 101.252 461.858 101.252Z" fill="black"/>
<rect x="113.176" y="133.28" width="11.7769" height="54.1739" rx="5.88847" transform="rotate(90 113.176 133.28)" fill="#D9D9D9"/>
<rect x="207.34" y="133.507" width="11.3237" height="79.8619" rx="5.66185" transform="rotate(90 207.34 133.507)" fill="#12274F"/>
<path d="M222.305 136.891C222.345 136.091 222.625 135.475 223.145 135.043C223.673 134.603 224.365 134.383 225.221 134.383C225.805 134.383 226.305 134.487 226.721 134.695C227.137 134.895 227.449 135.171 227.657 135.523C227.873 135.867 227.981 136.259 227.981 136.699C227.981 137.203 227.849 137.631 227.585 137.983C227.329 138.327 227.021 138.559 226.661 138.679V138.727C227.125 138.871 227.485 139.127 227.741 139.495C228.005 139.863 228.137 140.335 228.137 140.911C228.137 141.391 228.025 141.819 227.801 142.195C227.585 142.571 227.261 142.867 226.829 143.083C226.405 143.291 225.893 143.395 225.293 143.395C224.389 143.395 223.653 143.167 223.085 142.711C222.517 142.255 222.217 141.583 222.185 140.695H223.817C223.833 141.087 223.965 141.403 224.213 141.643C224.469 141.875 224.817 141.991 225.257 141.991C225.665 141.991 225.977 141.879 226.193 141.655C226.417 141.423 226.529 141.127 226.529 140.767C226.529 140.287 226.377 139.943 226.073 139.735C225.769 139.527 225.297 139.423 224.657 139.423H224.309V138.043H224.657C225.793 138.043 226.361 137.663 226.361 136.903C226.361 136.559 226.257 136.291 226.049 136.099C225.849 135.907 225.557 135.811 225.173 135.811C224.797 135.811 224.505 135.915 224.297 136.123C224.097 136.323 223.981 136.579 223.949 136.891H222.305ZM229.464 138.847C229.464 137.463 229.712 136.379 230.208 135.595C230.712 134.811 231.544 134.419 232.704 134.419C233.864 134.419 234.692 134.811 235.188 135.595C235.692 136.379 235.944 137.463 235.944 138.847C235.944 140.239 235.692 141.331 235.188 142.123C234.692 142.915 233.864 143.311 232.704 143.311C231.544 143.311 230.712 142.915 230.208 142.123C229.712 141.331 229.464 140.239 229.464 138.847ZM234.288 138.847C234.288 138.255 234.248 137.759 234.168 137.359C234.096 136.951 233.944 136.619 233.712 136.363C233.488 136.107 233.152 135.979 232.704 135.979C232.256 135.979 231.916 136.107 231.684 136.363C231.46 136.619 231.308 136.951 231.228 137.359C231.156 137.759 231.12 138.255 231.12 138.847C231.12 139.455 231.156 139.967 231.228 140.383C231.3 140.791 231.452 141.123 231.684 141.379C231.916 141.627 232.256 141.751 232.704 141.751C233.152 141.751 233.492 141.627 233.724 141.379C233.956 141.123 234.108 140.791 234.18 140.383C234.252 139.967 234.288 139.455 234.288 138.847ZM237.03 136.735C237.03 136.127 237.206 135.651 237.558 135.307C237.918 134.963 238.378 134.791 238.938 134.791C239.498 134.791 239.954 134.963 240.306 135.307C240.666 135.651 240.846 136.127 240.846 136.735C240.846 137.351 240.666 137.831 240.306 138.175C239.954 138.519 239.498 138.691 238.938 138.691C238.378 138.691 237.918 138.519 237.558 138.175C237.206 137.831 237.03 137.351 237.03 136.735ZM244.734 134.935L240.018 143.335H238.386L243.09 134.935H244.734ZM238.926 135.799C238.486 135.799 238.266 136.111 238.266 136.735C238.266 137.367 238.486 137.683 238.926 137.683C239.142 137.683 239.31 137.607 239.43 137.455C239.55 137.295 239.61 137.055 239.61 136.735C239.61 136.111 239.382 135.799 238.926 135.799ZM242.298 141.523C242.298 140.907 242.474 140.431 242.826 140.095C243.186 139.751 243.646 139.579 244.206 139.579C244.766 139.579 245.218 139.751 245.562 140.095C245.914 140.431 246.09 140.907 246.09 141.523C246.09 142.139 245.914 142.619 245.562 142.963C245.218 143.307 244.766 143.479 244.206 143.479C243.638 143.479 243.178 143.307 242.826 142.963C242.474 142.619 242.298 142.139 242.298 141.523ZM244.194 140.587C243.738 140.587 243.51 140.899 243.51 141.523C243.51 142.155 243.738 142.471 244.194 142.471C244.642 142.471 244.866 142.155 244.866 141.523C244.866 140.899 244.642 140.587 244.194 140.587Z" fill="black"/>
<rect x="113.176" y="172.019" width="11.7769" height="54.1739" rx="5.88847" transform="rotate(90 113.176 172.019)" fill="#D9D9D9"/>
<rect x="445.137" y="171.948" width="11.9197" height="317.66" rx="5.95985" transform="rotate(90 445.137 171.948)" fill="#12274F"/>
<path d="M459.873 174.874V173.326H462.765V182.074H461.037V174.874H459.873ZM464.425 177.586C464.425 176.202 464.673 175.118 465.169 174.334C465.673 173.55 466.505 173.158 467.665 173.158C468.825 173.158 469.653 173.55 470.149 174.334C470.653 175.118 470.905 176.202 470.905 177.586C470.905 178.978 470.653 180.07 470.149 180.862C469.653 181.654 468.825 182.05 467.665 182.05C466.505 182.05 465.673 181.654 465.169 180.862C464.673 180.07 464.425 178.978 464.425 177.586ZM469.249 177.586C469.249 176.994 469.209 176.498 469.129 176.098C469.057 175.69 468.905 175.358 468.673 175.102C468.449 174.846 468.113 174.718 467.665 174.718C467.217 174.718 466.877 174.846 466.645 175.102C466.421 175.358 466.269 175.69 466.189 176.098C466.117 176.498 466.081 176.994 466.081 177.586C466.081 178.194 466.117 178.706 466.189 179.122C466.261 179.53 466.413 179.862 466.645 180.118C466.877 180.366 467.217 180.49 467.665 180.49C468.113 180.49 468.453 180.366 468.685 180.118C468.917 179.862 469.069 179.53 469.141 179.122C469.213 178.706 469.249 178.194 469.249 177.586ZM472.183 177.586C472.183 176.202 472.431 175.118 472.927 174.334C473.431 173.55 474.263 173.158 475.423 173.158C476.583 173.158 477.411 173.55 477.907 174.334C478.411 175.118 478.663 176.202 478.663 177.586C478.663 178.978 478.411 180.07 477.907 180.862C477.411 181.654 476.583 182.05 475.423 182.05C474.263 182.05 473.431 181.654 472.927 180.862C472.431 180.07 472.183 178.978 472.183 177.586ZM477.007 177.586C477.007 176.994 476.967 176.498 476.887 176.098C476.815 175.69 476.663 175.358 476.431 175.102C476.207 174.846 475.871 174.718 475.423 174.718C474.975 174.718 474.635 174.846 474.403 175.102C474.179 175.358 474.027 175.69 473.947 176.098C473.875 176.498 473.839 176.994 473.839 177.586C473.839 178.194 473.875 178.706 473.947 179.122C474.019 179.53 474.171 179.862 474.403 180.118C474.635 180.366 474.975 180.49 475.423 180.49C475.871 180.49 476.211 180.366 476.443 180.118C476.675 179.862 476.827 179.53 476.899 179.122C476.971 178.706 477.007 178.194 477.007 177.586ZM479.749 175.474C479.749 174.866 479.925 174.39 480.277 174.046C480.637 173.702 481.097 173.53 481.657 173.53C482.217 173.53 482.673 173.702 483.025 174.046C483.385 174.39 483.565 174.866 483.565 175.474C483.565 176.09 483.385 176.57 483.025 176.914C482.673 177.258 482.217 177.43 481.657 177.43C481.097 177.43 480.637 177.258 480.277 176.914C479.925 176.57 479.749 176.09 479.749 175.474ZM487.453 173.674L482.737 182.074H481.105L485.809 173.674H487.453ZM481.645 174.538C481.205 174.538 480.985 174.85 480.985 175.474C480.985 176.106 481.205 176.422 481.645 176.422C481.861 176.422 482.029 176.346 482.149 176.194C482.269 176.034 482.329 175.794 482.329 175.474C482.329 174.85 482.101 174.538 481.645 174.538ZM485.017 180.262C485.017 179.646 485.193 179.17 485.545 178.834C485.905 178.49 486.365 178.318 486.925 178.318C487.485 178.318 487.937 178.49 488.281 178.834C488.633 179.17 488.809 179.646 488.809 180.262C488.809 180.878 488.633 181.358 488.281 181.702C487.937 182.046 487.485 182.218 486.925 182.218C486.357 182.218 485.897 182.046 485.545 181.702C485.193 181.358 485.017 180.878 485.017 180.262ZM486.913 179.326C486.457 179.326 486.229 179.638 486.229 180.262C486.229 180.894 486.457 181.21 486.913 181.21C487.361 181.21 487.585 180.894 487.585 180.262C487.585 179.638 487.361 179.326 486.913 179.326Z" fill="black"/>
<rect x="113.176" y="210.758" width="11.7769" height="54.1739" rx="5.88847" transform="rotate(90 113.176 210.758)" fill="#D9D9D9"/>
<rect x="381.367" y="210.985" width="11.3237" height="253.889" rx="5.66186" transform="rotate(90 381.367 210.985)" fill="#0043FF"/>
<path d="M401.876 213.337L398.684 220.813H396.98L400.196 213.529H396.092V212.089H401.876V213.337ZM408.762 213.517H404.874V215.569C405.042 215.361 405.282 215.193 405.594 215.065C405.906 214.929 406.238 214.861 406.59 214.861C407.23 214.861 407.754 215.001 408.162 215.281C408.57 215.561 408.866 215.921 409.05 216.361C409.234 216.793 409.326 217.257 409.326 217.753C409.326 218.673 409.062 219.413 408.534 219.973C408.014 220.533 407.27 220.813 406.302 220.813C405.39 220.813 404.662 220.585 404.118 220.129C403.574 219.673 403.266 219.077 403.194 218.341H404.826C404.898 218.661 405.058 218.917 405.306 219.109C405.562 219.301 405.886 219.397 406.278 219.397C406.75 219.397 407.106 219.249 407.346 218.953C407.586 218.657 407.706 218.265 407.706 217.777C407.706 217.281 407.582 216.905 407.334 216.649C407.094 216.385 406.738 216.253 406.266 216.253C405.93 216.253 405.65 216.337 405.426 216.505C405.202 216.673 405.042 216.897 404.946 217.177H403.338V212.041H408.762V213.517ZM410.413 214.213C410.413 213.605 410.589 213.129 410.941 212.785C411.301 212.441 411.761 212.269 412.321 212.269C412.881 212.269 413.337 212.441 413.689 212.785C414.049 213.129 414.229 213.605 414.229 214.213C414.229 214.829 414.049 215.309 413.689 215.653C413.337 215.997 412.881 216.169 412.321 216.169C411.761 216.169 411.301 215.997 410.941 215.653C410.589 215.309 410.413 214.829 410.413 214.213ZM418.117 212.413L413.401 220.813H411.769L416.473 212.413H418.117ZM412.309 213.277C411.869 213.277 411.649 213.589 411.649 214.213C411.649 214.845 411.869 215.161 412.309 215.161C412.525 215.161 412.693 215.085 412.813 214.933C412.933 214.773 412.993 214.533 412.993 214.213C412.993 213.589 412.765 213.277 412.309 213.277ZM415.681 219.001C415.681 218.385 415.857 217.909 416.209 217.573C416.569 217.229 417.029 217.057 417.589 217.057C418.149 217.057 418.601 217.229 418.945 217.573C419.297 217.909 419.473 218.385 419.473 219.001C419.473 219.617 419.297 220.097 418.945 220.441C418.601 220.785 418.149 220.957 417.589 220.957C417.021 220.957 416.561 220.785 416.209 220.441C415.857 220.097 415.681 219.617 415.681 219.001ZM417.577 218.065C417.121 218.065 416.893 218.377 416.893 219.001C416.893 219.633 417.121 219.949 417.577 219.949C418.025 219.949 418.249 219.633 418.249 219.001C418.249 218.377 418.025 218.065 417.577 218.065Z" fill="black"/>
<path d="M65.44 57.272C66.0693 57.3893 66.5867 57.704 66.992 58.216C67.3973 58.728 67.6 59.3147 67.6 59.976C67.6 60.5733 67.4507 61.1013 67.152 61.56C66.864 62.008 66.4427 62.36 65.888 62.616C65.3333 62.872 64.6773 63 63.92 63H59.104V51.832H63.712C64.4693 51.832 65.12 51.9547 65.664 52.2C66.2187 52.4453 66.6347 52.7867 66.912 53.224C67.2 53.6613 67.344 54.1573 67.344 54.712C67.344 55.3627 67.168 55.9067 66.816 56.344C66.4747 56.7813 66.016 57.0907 65.44 57.272ZM61.344 56.44H63.392C63.9253 56.44 64.336 56.3227 64.624 56.088C64.912 55.8427 65.056 55.496 65.056 55.048C65.056 54.6 64.912 54.2533 64.624 54.008C64.336 53.7627 63.9253 53.64 63.392 53.64H61.344V56.44ZM63.6 61.176C64.144 61.176 64.5653 61.048 64.864 60.792C65.1733 60.536 65.328 60.1733 65.328 59.704C65.328 59.224 65.168 58.8507 64.848 58.584C64.528 58.3067 64.096 58.168 63.552 58.168H61.344V61.176H63.6ZM70.5213 53.08C70.1266 53.08 69.7959 52.9573 69.5293 52.712C69.2733 52.456 69.1453 52.1413 69.1453 51.768C69.1453 51.3947 69.2733 51.0853 69.5293 50.84C69.7959 50.584 70.1266 50.456 70.5213 50.456C70.9159 50.456 71.2413 50.584 71.4973 50.84C71.7639 51.0853 71.8973 51.3947 71.8973 51.768C71.8973 52.1413 71.7639 52.456 71.4973 52.712C71.2413 52.9573 70.9159 53.08 70.5213 53.08ZM71.6253 54.136V63H69.3853V54.136H71.6253ZM78.7504 54.008C79.8064 54.008 80.6597 54.344 81.3104 55.016C81.961 55.6773 82.2864 56.6053 82.2864 57.8V63H80.0464V58.104C80.0464 57.4 79.8704 56.8613 79.5184 56.488C79.1664 56.104 78.6864 55.912 78.0784 55.912C77.4597 55.912 76.969 56.104 76.6064 56.488C76.2544 56.8613 76.0784 57.4 76.0784 58.104V63H73.8384V54.136H76.0784V55.24C76.377 54.856 76.7557 54.5573 77.2144 54.344C77.6837 54.12 78.1957 54.008 78.7504 54.008ZM90.469 51.16V63H88.229V51.16H90.469ZM100.922 58.376C100.922 58.696 100.901 58.984 100.858 59.24H94.3781C94.4315 59.88 94.6555 60.3813 95.0501 60.744C95.4448 61.1067 95.9301 61.288 96.5061 61.288C97.3381 61.288 97.9301 60.9307 98.2821 60.216H100.698C100.442 61.0693 99.9515 61.7733 99.2261 62.328C98.5008 62.872 97.6101 63.144 96.5541 63.144C95.7008 63.144 94.9328 62.9573 94.2501 62.584C93.5781 62.2 93.0501 61.6613 92.6661 60.968C92.2928 60.2747 92.1061 59.4747 92.1061 58.568C92.1061 57.6507 92.2928 56.8453 92.6661 56.152C93.0395 55.4587 93.5621 54.9253 94.2341 54.552C94.9061 54.1787 95.6795 53.992 96.5541 53.992C97.3968 53.992 98.1488 54.1733 98.8101 54.536C99.4821 54.8987 99.9995 55.416 100.362 56.088C100.735 56.7493 100.922 57.512 100.922 58.376ZM98.6021 57.736C98.5915 57.16 98.3835 56.7013 97.9781 56.36C97.5728 56.008 97.0768 55.832 96.4901 55.832C95.9355 55.832 95.4661 56.0027 95.0821 56.344C94.7088 56.6747 94.4795 57.1387 94.3941 57.736H98.6021ZM106.253 60.936L108.493 54.136H110.877L107.597 63H104.877L101.613 54.136H104.013L106.253 60.936ZM120.375 58.376C120.375 58.696 120.354 58.984 120.311 59.24H113.831C113.885 59.88 114.109 60.3813 114.503 60.744C114.898 61.1067 115.383 61.288 115.959 61.288C116.791 61.288 117.383 60.9307 117.735 60.216H120.151C119.895 61.0693 119.405 61.7733 118.679 62.328C117.954 62.872 117.063 63.144 116.007 63.144C115.154 63.144 114.386 62.9573 113.703 62.584C113.031 62.2 112.503 61.6613 112.119 60.968C111.746 60.2747 111.559 59.4747 111.559 58.568C111.559 57.6507 111.746 56.8453 112.119 56.152C112.493 55.4587 113.015 54.9253 113.687 54.552C114.359 54.1787 115.133 53.992 116.007 53.992C116.85 53.992 117.602 54.1733 118.263 54.536C118.935 54.8987 119.453 55.416 119.815 56.088C120.189 56.7493 120.375 57.512 120.375 58.376ZM118.055 57.736C118.045 57.16 117.837 56.7013 117.431 56.36C117.026 56.008 116.53 55.832 115.943 55.832C115.389 55.832 114.919 56.0027 114.535 56.344C114.162 56.6747 113.933 57.1387 113.847 57.736H118.055ZM124.25 51.16V63H122.01V51.16H124.25Z" fill="black"/>
</g>
</g>
<g filter="url(#filter2_d_1032_3765)">
<rect x="30" y="303" width="192.175" height="165.335" rx="15.0305" fill="white"/>
</g>
<rect width="9.30457" height="23.2668" rx="4.65228" transform="matrix(1 0 0 -1 55 445.267)" fill="#12274F"/>
<rect x="91.9102" y="382.199" width="9.30457" height="62.3972" rx="4.65228" fill="#12274F"/>
<rect x="110.52" y="401.5" width="9.30457" height="43.0964" rx="4.65229" fill="#12274F"/>
<rect x="73" y="430" width="9" height="13" rx="4.5" fill="#12274F"/>
<rect x="129.129" y="361.576" width="9.30457" height="83.02" rx="4.65229" fill="#0043FF"/>
<rect x="147.738" y="385.9" width="9.30457" height="58.6957" rx="4.65229" fill="#12274F"/>
<rect x="166.348" y="374.532" width="9.30456" height="70.0647" rx="4.65228" fill="#12274F"/>
<rect x="184.957" y="412.604" width="9.30456" height="31.9918" rx="4.65228" fill="#12274F"/>
<path d="M61.44 335.272C62.0693 335.389 62.5867 335.704 62.992 336.216C63.3973 336.728 63.6 337.315 63.6 337.976C63.6 338.573 63.4507 339.101 63.152 339.56C62.864 340.008 62.4427 340.36 61.888 340.616C61.3333 340.872 60.6773 341 59.92 341H55.104V329.832H59.712C60.4693 329.832 61.12 329.955 61.664 330.2C62.2187 330.445 62.6347 330.787 62.912 331.224C63.2 331.661 63.344 332.157 63.344 332.712C63.344 333.363 63.168 333.907 62.816 334.344C62.4747 334.781 62.016 335.091 61.44 335.272ZM57.344 334.44H59.392C59.9253 334.44 60.336 334.323 60.624 334.088C60.912 333.843 61.056 333.496 61.056 333.048C61.056 332.6 60.912 332.253 60.624 332.008C60.336 331.763 59.9253 331.64 59.392 331.64H57.344V334.44ZM59.6 339.176C60.144 339.176 60.5653 339.048 60.864 338.792C61.1733 338.536 61.328 338.173 61.328 337.704C61.328 337.224 61.168 336.851 60.848 336.584C60.528 336.307 60.096 336.168 59.552 336.168H57.344V339.176H59.6ZM66.5213 331.08C66.1266 331.08 65.7959 330.957 65.5293 330.712C65.2733 330.456 65.1453 330.141 65.1453 329.768C65.1453 329.395 65.2733 329.085 65.5293 328.84C65.7959 328.584 66.1266 328.456 66.5213 328.456C66.9159 328.456 67.2413 328.584 67.4973 328.84C67.7639 329.085 67.8973 329.395 67.8973 329.768C67.8973 330.141 67.7639 330.456 67.4973 330.712C67.2413 330.957 66.9159 331.08 66.5213 331.08ZM67.6253 332.136V341H65.3853V332.136H67.6253ZM74.7504 332.008C75.8064 332.008 76.6597 332.344 77.3104 333.016C77.961 333.677 78.2864 334.605 78.2864 335.8V341H76.0464V336.104C76.0464 335.4 75.8704 334.861 75.5184 334.488C75.1664 334.104 74.6864 333.912 74.0784 333.912C73.4597 333.912 72.969 334.104 72.6064 334.488C72.2544 334.861 72.0784 335.4 72.0784 336.104V341H69.8384V332.136H72.0784V333.24C72.377 332.856 72.7557 332.557 73.2144 332.344C73.6837 332.12 74.1957 332.008 74.7504 332.008ZM83.8085 341.144C83.0832 341.144 82.4325 341.016 81.8565 340.76C81.2805 340.493 80.8218 340.136 80.4805 339.688C80.1498 339.24 79.9685 338.744 79.9365 338.2H82.1925C82.2352 338.541 82.4005 338.824 82.6885 339.048C82.9872 339.272 83.3552 339.384 83.7925 339.384C84.2192 339.384 84.5498 339.299 84.7845 339.128C85.0298 338.957 85.1525 338.739 85.1525 338.472C85.1525 338.184 85.0032 337.971 84.7045 337.832C84.4165 337.683 83.9525 337.523 83.3125 337.352C82.6512 337.192 82.1072 337.027 81.6805 336.856C81.2645 336.685 80.9018 336.424 80.5925 336.072C80.2938 335.72 80.1445 335.245 80.1445 334.648C80.1445 334.157 80.2832 333.709 80.5605 333.304C80.8485 332.899 81.2538 332.579 81.7765 332.344C82.3098 332.109 82.9338 331.992 83.6485 331.992C84.7045 331.992 85.5472 332.259 86.1765 332.792C86.8058 333.315 87.1525 334.024 87.2165 334.92H85.0725C85.0405 334.568 84.8912 334.291 84.6245 334.088C84.3685 333.875 84.0218 333.768 83.5845 333.768C83.1792 333.768 82.8645 333.843 82.6405 333.992C82.4272 334.141 82.3205 334.349 82.3205 334.616C82.3205 334.915 82.4698 335.144 82.7685 335.304C83.0672 335.453 83.5312 335.608 84.1605 335.768C84.8005 335.928 85.3285 336.093 85.7445 336.264C86.1605 336.435 86.5178 336.701 86.8165 337.064C87.1258 337.416 87.2858 337.885 87.2965 338.472C87.2965 338.984 87.1525 339.443 86.8645 339.848C86.5872 340.253 86.1818 340.573 85.6485 340.808C85.1258 341.032 84.5125 341.144 83.8085 341.144ZM92.3717 336.568C92.3717 335.651 92.5584 334.851 92.9318 334.168C93.3051 333.475 93.8224 332.941 94.4838 332.568C95.1451 332.184 95.9024 331.992 96.7558 331.992C97.8544 331.992 98.7611 332.269 99.4758 332.824C100.201 333.368 100.686 334.136 100.932 335.128H98.5158C98.3878 334.744 98.1691 334.445 97.8598 334.232C97.5611 334.008 97.1878 333.896 96.7398 333.896C96.0998 333.896 95.5931 334.131 95.2198 334.6C94.8464 335.059 94.6598 335.715 94.6598 336.568C94.6598 337.411 94.8464 338.067 95.2198 338.536C95.5931 338.995 96.0998 339.224 96.7398 339.224C97.6464 339.224 98.2384 338.819 98.5158 338.008H100.932C100.686 338.968 100.201 339.731 99.4758 340.296C98.7504 340.861 97.8438 341.144 96.7558 341.144C95.9024 341.144 95.1451 340.957 94.4838 340.584C93.8224 340.2 93.3051 339.667 92.9318 338.984C92.5584 338.291 92.3717 337.485 92.3717 336.568ZM106.509 341.144C105.655 341.144 104.887 340.957 104.205 340.584C103.522 340.2 102.983 339.661 102.589 338.968C102.205 338.275 102.013 337.475 102.013 336.568C102.013 335.661 102.21 334.861 102.605 334.168C103.01 333.475 103.559 332.941 104.253 332.568C104.946 332.184 105.719 331.992 106.573 331.992C107.426 331.992 108.199 332.184 108.893 332.568C109.586 332.941 110.13 333.475 110.525 334.168C110.93 334.861 111.133 335.661 111.133 336.568C111.133 337.475 110.925 338.275 110.509 338.968C110.103 339.661 109.549 340.2 108.845 340.584C108.151 340.957 107.373 341.144 106.509 341.144ZM106.509 339.192C106.914 339.192 107.293 339.096 107.645 338.904C108.007 338.701 108.295 338.403 108.509 338.008C108.722 337.613 108.829 337.133 108.829 336.568C108.829 335.725 108.605 335.08 108.157 334.632C107.719 334.173 107.181 333.944 106.541 333.944C105.901 333.944 105.362 334.173 104.925 334.632C104.498 335.08 104.285 335.725 104.285 336.568C104.285 337.411 104.493 338.061 104.909 338.52C105.335 338.968 105.869 339.192 106.509 339.192ZM115.016 329.16V341H112.776V329.16H115.016ZM119.469 329.16V341H117.229V329.16H119.469ZM129.922 336.376C129.922 336.696 129.901 336.984 129.858 337.24H123.378C123.431 337.88 123.655 338.381 124.05 338.744C124.445 339.107 124.93 339.288 125.506 339.288C126.338 339.288 126.93 338.931 127.282 338.216H129.698C129.442 339.069 128.951 339.773 128.226 340.328C127.501 340.872 126.61 341.144 125.554 341.144C124.701 341.144 123.933 340.957 123.25 340.584C122.578 340.2 122.05 339.661 121.666 338.968C121.293 338.275 121.106 337.475 121.106 336.568C121.106 335.651 121.293 334.845 121.666 334.152C122.039 333.459 122.562 332.925 123.234 332.552C123.906 332.179 124.679 331.992 125.554 331.992C126.397 331.992 127.149 332.173 127.81 332.536C128.482 332.899 128.999 333.416 129.362 334.088C129.735 334.749 129.922 335.512 129.922 336.376ZM127.602 335.736C127.591 335.16 127.383 334.701 126.978 334.36C126.573 334.008 126.077 333.832 125.49 333.832C124.935 333.832 124.466 334.003 124.082 334.344C123.709 334.675 123.479 335.139 123.394 335.736H127.602ZM130.981 336.568C130.981 335.651 131.168 334.851 131.541 334.168C131.914 333.475 132.432 332.941 133.093 332.568C133.754 332.184 134.512 331.992 135.365 331.992C136.464 331.992 137.37 332.269 138.085 332.824C138.81 333.368 139.296 334.136 139.541 335.128H137.125C136.997 334.744 136.778 334.445 136.469 334.232C136.17 334.008 135.797 333.896 135.349 333.896C134.709 333.896 134.202 334.131 133.829 334.6C133.456 335.059 133.269 335.715 133.269 336.568C133.269 337.411 133.456 338.067 133.829 338.536C134.202 338.995 134.709 339.224 135.349 339.224C136.256 339.224 136.848 338.819 137.125 338.008H139.541C139.296 338.968 138.81 339.731 138.085 340.296C137.36 340.861 136.453 341.144 135.365 341.144C134.512 341.144 133.754 340.957 133.093 340.584C132.432 340.2 131.914 339.667 131.541 338.984C131.168 338.291 130.981 337.485 130.981 336.568ZM143.79 333.976V338.264C143.79 338.563 143.859 338.781 143.998 338.92C144.147 339.048 144.393 339.112 144.734 339.112H145.774V341H144.366C142.478 341 141.534 340.083 141.534 338.248V333.976H140.478V332.136H141.534V329.944H143.79V332.136H145.774V333.976H143.79ZM155.625 336.376C155.625 336.696 155.604 336.984 155.561 337.24H149.081C149.135 337.88 149.359 338.381 149.753 338.744C150.148 339.107 150.633 339.288 151.209 339.288C152.041 339.288 152.633 338.931 152.985 338.216H155.401C155.145 339.069 154.655 339.773 153.929 340.328C153.204 340.872 152.313 341.144 151.257 341.144C150.404 341.144 149.636 340.957 148.953 340.584C148.281 340.2 147.753 339.661 147.369 338.968C146.996 338.275 146.809 337.475 146.809 336.568C146.809 335.651 146.996 334.845 147.369 334.152C147.743 333.459 148.265 332.925 148.937 332.552C149.609 332.179 150.383 331.992 151.257 331.992C152.1 331.992 152.852 332.173 153.513 332.536C154.185 332.899 154.703 333.416 155.065 334.088C155.439 334.749 155.625 335.512 155.625 336.376ZM153.305 335.736C153.295 335.16 153.087 334.701 152.681 334.36C152.276 334.008 151.78 333.832 151.193 333.832C150.639 333.832 150.169 334.003 149.785 334.344C149.412 334.675 149.183 335.139 149.097 335.736H153.305ZM156.684 336.536C156.684 335.64 156.86 334.845 157.212 334.152C157.575 333.459 158.066 332.925 158.684 332.552C159.303 332.179 159.991 331.992 160.748 331.992C161.324 331.992 161.874 332.12 162.396 332.376C162.919 332.621 163.335 332.952 163.644 333.368V329.16H165.916V341H163.644V339.688C163.367 340.125 162.978 340.477 162.476 340.744C161.975 341.011 161.394 341.144 160.732 341.144C159.986 341.144 159.303 340.952 158.684 340.568C158.066 340.184 157.575 339.645 157.212 338.952C156.86 338.248 156.684 337.443 156.684 336.536ZM163.66 336.568C163.66 336.024 163.554 335.56 163.34 335.176C163.127 334.781 162.839 334.483 162.476 334.28C162.114 334.067 161.724 333.96 161.308 333.96C160.892 333.96 160.508 334.061 160.156 334.264C159.804 334.467 159.516 334.765 159.292 335.16C159.079 335.544 158.972 336.003 158.972 336.536C158.972 337.069 159.079 337.539 159.292 337.944C159.516 338.339 159.804 338.643 160.156 338.856C160.519 339.069 160.903 339.176 161.308 339.176C161.724 339.176 162.114 339.075 162.476 338.872C162.839 338.659 163.127 338.36 163.34 337.976C163.554 337.581 163.66 337.112 163.66 336.568Z" fill="black"/>
<defs>
<filter id="filter0_d_1032_3765" x="229" y="279" width="325" height="225" filterUnits="userSpaceOnUse" color-interpolation-filters="sRGB">
<feFlood flood-opacity="0" result="BackgroundImageFix"/>
<feColorMatrix in="SourceAlpha" type="matrix" values="0 0 0 0 0 0 0 0 0 0 0 0 0 0 0 0 0 0 127 0" result="hardAlpha"/>
<feOffset dy="4"/>
<feGaussianBlur stdDeviation="15"/>
<feComposite in2="hardAlpha" operator="out"/>
<feColorMatrix type="matrix" values="0 0 0 0 0 0 0 0 0 0 0 0 0 0 0 0 0 0 0.25 0"/>
<feBlend mode="normal" in2="BackgroundImageFix" result="effect1_dropShadow_1032_3765"/>
<feBlend mode="normal" in="SourceGraphic" in2="effect1_dropShadow_1032_3765" result="shape"/>
</filter>
<filter id="filter1_d_1032_3765" x="0" y="0" width="554" height="292" filterUnits="userSpaceOnUse" color-interpolation-filters="sRGB">
<feFlood flood-opacity="0" result="BackgroundImageFix"/>
<feColorMatrix in="SourceAlpha" type="matrix" values="0 0 0 0 0 0 0 0 0 0 0 0 0 0 0 0 0 0 127 0" result="hardAlpha"/>
<feOffset dy="4"/>
<feGaussianBlur stdDeviation="15"/>
<feComposite in2="hardAlpha" operator="out"/>
<feColorMatrix type="matrix" values="0 0 0 0 0 0 0 0 0 0 0 0 0 0 0 0 0 0 0.25 0"/>
<feBlend mode="normal" in2="BackgroundImageFix" result="effect1_dropShadow_1032_3765"/>
<feBlend mode="normal" in="SourceGraphic" in2="effect1_dropShadow_1032_3765" result="shape"/>
</filter>
<filter id="filter2_d_1032_3765" x="0" y="277" width="252.176" height="225.335" filterUnits="userSpaceOnUse" color-interpolation-filters="sRGB">
<feFlood flood-opacity="0" result="BackgroundImageFix"/>
<feColorMatrix in="SourceAlpha" type="matrix" values="0 0 0 0 0 0 0 0 0 0 0 0 0 0 0 0 0 0 127 0" result="hardAlpha"/>
<feOffset dy="4"/>
<feGaussianBlur stdDeviation="15"/>
<feComposite in2="hardAlpha" operator="out"/>
<feColorMatrix type="matrix" values="0 0 0 0 0 0 0 0 0 0 0 0 0 0 0 0 0 0 0.25 0"/>
<feBlend mode="normal" in2="BackgroundImageFix" result="effect1_dropShadow_1032_3765"/>
<feBlend mode="normal" in="SourceGraphic" in2="effect1_dropShadow_1032_3765" result="shape"/>
</filter>
<clipPath id="clip0_1032_3765">
<rect x="30" y="26" width="494" height="232" rx="15" fill="white"/>
</clipPath>
</defs>
</svg>
