<svg width="1508" height="280" viewBox="0 0 1508 280" fill="none" xmlns="http://www.w3.org/2000/svg">
<g opacity="0.3">
<path d="M872.028 279.943C863.888 279.943 855.965 279.714 848.351 279.258C832.383 278.3 817.63 276.334 804.502 273.414C790.392 270.276 778.017 266.001 767.717 260.707C747.016 250.066 736.659 237.323 726.642 225C724.674 222.58 722.64 220.078 720.574 217.65C706.48 201.102 688.613 186.608 665.956 173.337C620.76 146.866 557.199 124.274 482.141 108.005C395.338 89.1908 302.01 79.8187 219.348 81.6156C170.763 82.6723 106.569 92.7204 77.8793 109.881C60.8531 120.065 59.4802 131.367 73.9117 142.563L73.6251 142.611C66.0582 136.739 62.7613 130.852 63.8288 125.115C64.8081 119.851 69.4433 114.706 77.6085 109.822C90.5946 102.054 112.01 95.1697 139.541 89.9118C164.982 85.054 193.316 82.0674 219.329 81.5018C262.589 80.5622 308.598 82.6476 356.077 87.7015C399.117 92.2833 441.586 99.0812 482.305 107.907C557.406 124.185 621.005 146.789 666.227 173.277C688.896 186.556 706.772 201.058 720.876 217.615C722.945 220.043 724.979 222.546 726.944 224.966C736.952 237.281 747.302 250.015 767.975 260.639C787.967 270.916 815.029 277.142 848.405 279.143C894.624 281.914 950.751 276.118 998.539 263.636C1067.41 245.65 1115.2 219.47 1161.42 194.153C1169.53 189.716 1177.9 185.127 1186.2 180.696C1207.73 169.19 1236.89 154.281 1271.55 140.998C1306.97 127.422 1342.97 117.447 1381.6 110.503C1405.25 106.252 1430.31 103.388 1456.08 101.991C1479.89 100.7 1505.09 100.62 1530.99 101.751C1575.4 103.692 1623.25 109.176 1677.28 118.513C1783.65 136.9 1889.9 159.218 1993.09 184.848C2091.17 209.208 2187.37 236.774 2279 266.776L2278.79 266.859C2088.84 204.666 1886.42 154.789 1677.14 118.614C1558.9 98.1765 1465.04 95.6304 1381.74 110.603C1297 125.834 1237.81 153.322 1186.46 180.758C1178.17 185.188 1169.79 189.777 1161.69 194.214C1115.45 219.54 1067.64 245.728 998.728 263.726C976.459 269.543 951.406 274.08 926.281 276.846C913.008 278.307 899.814 279.262 887.061 279.686C881.978 279.858 876.962 279.943 872.028 279.943Z" fill="#12274F"/>
<path d="M879.986 273.633C859.228 273.633 840.001 272.219 822.817 269.428C803.656 266.317 787.121 261.495 773.669 255.098C772.478 254.531 771.297 253.945 770.158 253.355C749.677 242.761 738.861 230.183 728.403 218.02C726.287 215.561 724.102 213.019 721.885 210.551C708.681 195.861 692.782 182.913 673.275 170.97C670.872 169.499 668.384 168.026 665.875 166.59C620.014 140.346 555.936 118.041 480.57 102.085C393.14 83.5919 299.548 74.6073 217.034 76.7873C168.802 78.075 104.904 88.2876 76.0912 105.316C58.8383 115.513 56.886 126.837 70.4389 138.066L70.1492 138.111C63.0453 132.226 60.1262 126.328 61.4771 120.584C62.7178 115.308 67.5419 110.151 75.8204 105.257C88.9388 97.5031 110.292 90.6106 137.564 85.3257C162.772 80.4408 190.983 77.3686 217.005 76.6746C260.212 75.5334 306.271 77.4193 353.902 82.2794C397.045 86.6822 439.716 93.3133 480.728 101.988C556.138 117.953 620.25 140.272 666.139 166.531C668.649 167.967 671.14 169.442 673.542 170.913C693.063 182.864 708.971 195.819 722.181 210.518C724.401 212.985 726.586 215.527 728.702 217.987C739.156 230.143 749.964 242.711 770.416 253.291C771.553 253.879 772.733 254.465 773.921 255.03C801.719 268.253 839.916 273.633 880.083 273.633C880.304 273.633 880.521 273.633 880.741 273.633C880.49 273.632 880.238 273.633 879.986 273.633ZM888.554 273.554C925.897 272.868 964.43 267.734 997.488 260.097C1068.8 243.555 1120.04 218.006 1169.61 193.299C1171.65 192.28 1173.69 191.264 1175.73 190.248C1180.21 188.017 1185.52 185.376 1190.94 182.714C1215.27 170.776 1244.71 156.885 1278.61 144.382C1314.69 131.078 1350.73 121.206 1388.79 114.199C1412.18 109.899 1436.89 106.87 1462.25 105.195C1485.74 103.644 1510.57 103.206 1536.04 103.892C1580.03 105.078 1627.33 109.576 1680.65 117.642C1732.63 125.494 1775.37 132.886 1815.13 140.904C1871.46 152.274 1925.11 165.374 1970.17 176.688C2074.92 203.068 2177.7 233.023 2275.66 265.722L2275.44 265.804C2177.5 233.11 2074.73 203.157 1969.99 176.78C1924.94 165.467 1871.29 152.369 1814.98 141.003C1775.22 132.987 1732.51 125.598 1680.53 117.748C1564.38 100.175 1471.72 99.0792 1388.93 114.301C1303.01 130.116 1241.81 157.942 1191.2 182.782C1185.77 185.444 1180.47 188.084 1175.98 190.315C1173.94 191.33 1171.9 192.348 1169.86 193.366C1120.28 218.081 1069.02 243.639 997.658 260.194C979.964 264.281 961.137 267.528 941.695 269.843C923.598 271.996 905.76 273.241 888.554 273.554Z" fill="#12274F"/>
<path d="M888.761 267.467C886.264 267.467 883.783 267.448 881.321 267.408C860.582 267.08 841.389 265.378 824.278 262.346C805.564 259.031 789.35 254.12 776.09 247.749C774.912 247.181 773.738 246.594 772.604 246.004C752.353 235.461 741.086 223.052 730.194 211.053C727.924 208.552 725.575 205.965 723.194 203.455C709.339 188.814 693.021 175.969 673.303 164.187C670.862 162.731 668.337 161.27 665.789 159.845C619.264 133.83 554.67 111.811 478.995 96.1681C390.942 77.9961 297.085 69.3979 214.716 71.9609C168.339 73.4266 104.626 83.0568 74.3339 100.735C56.8322 110.949 54.2847 122.304 66.9654 133.572L66.6726 133.614C60.0283 127.71 57.4934 121.799 59.1309 116.045C60.6361 110.752 65.6618 105.582 74.0662 100.677C87.3232 92.9404 108.607 86.0456 135.618 80.736C160.589 75.8274 188.671 72.6718 214.688 71.8494C257.844 70.5076 303.953 72.193 351.732 76.8594C394.982 81.0841 437.852 87.5474 479.153 96.0712C554.872 111.724 619.5 133.756 666.054 159.786C668.602 161.211 671.13 162.672 673.57 164.131C693.298 175.92 709.626 188.772 723.487 203.421C725.868 205.932 728.217 208.519 730.487 211.02C741.376 223.013 752.634 235.413 772.859 245.943C773.993 246.534 775.161 247.119 776.339 247.685C830.22 273.572 925.708 270.793 996.436 256.556C1070.72 241.472 1125.92 216.402 1179.31 192.157L1179.86 191.908C1185.03 189.558 1190.37 187.129 1195.7 184.731C1251.85 159.428 1313.57 133.423 1395.98 117.893C1419.12 113.542 1443.49 110.347 1468.42 108.397C1491.62 106.583 1516.07 105.787 1541.1 106.03C1584.74 106.454 1631.49 109.967 1684.04 116.769C1739.26 123.892 1780.81 130.44 1818.77 138.001C1872.86 148.795 1925.26 162.434 1971.48 174.469C2074.41 201.407 2175.62 231.753 2272.32 264.662L2272.1 264.743C2175.41 231.837 2074.21 201.495 1971.3 174.559C1925.08 162.527 1872.69 148.889 1818.62 138.099C1780.67 130.54 1739.13 123.995 1683.93 116.874C1570.04 102.129 1478.59 102.484 1396.13 117.991C1313.77 133.511 1252.07 159.504 1195.94 184.798C1190.62 187.197 1185.27 189.627 1180.1 191.976L1179.55 192.225C1152.95 204.307 1125.44 216.799 1095.73 227.958C1062.35 240.498 1029.92 249.884 996.587 256.652C961.716 263.67 923.73 267.467 888.761 267.467Z" fill="#12274F"/>
<path d="M2268.77 263.68C2173.33 230.562 2073.69 199.83 1972.61 172.337C1968.33 171.181 1964.04 170.019 1959.74 168.854C1915.95 157 1870.68 144.743 1822.27 135.194C1775.3 125.956 1727.7 120.307 1687.34 116C1575.9 104.038 1485.66 105.844 1403.33 121.681C1318.81 137.988 1253.31 165.061 1200.69 186.816C1197.53 188.121 1194.38 189.429 1191.22 190.738C1188.89 191.705 1186.56 192.672 1184.23 193.637C1154.26 206.036 1127.01 217.122 1096.9 227.238C1062.5 238.793 1029.34 247.256 995.521 253.111C963.83 258.599 929.976 261.502 898.487 261.503C892.75 261.503 887.097 261.407 881.543 261.213C861.264 260.502 842.49 258.504 825.744 255.275C807.471 251.752 791.578 246.748 778.5 240.401C777.332 239.832 776.167 239.244 775.04 238.652C755.028 228.165 743.324 215.93 732.007 204.099C729.569 201.55 727.047 198.914 724.496 196.356C709.98 181.76 693.24 169.019 673.327 157.401C670.848 155.956 668.282 154.508 665.7 153.097C618.507 127.31 553.4 105.577 477.42 90.246C388.743 72.3951 294.625 64.1856 212.4 67.1283C156.189 69.1798 98.7083 81.1059 72.6163 96.1291C54.8407 106.364 51.6886 117.755 63.4939 129.071L63.1979 129.11C57.0166 123.185 54.8627 117.256 56.7961 111.487C58.5752 106.175 63.8088 100.988 72.3486 96.0694C85.7441 88.3556 106.958 81.4608 133.699 76.132C158.431 71.2032 186.368 67.9653 212.369 67.0167C255.474 65.4733 301.631 66.9593 349.558 71.4319C392.912 75.4786 435.986 81.7751 477.577 90.1469C553.605 105.487 618.746 127.232 665.967 153.035C668.553 154.447 671.119 155.896 673.597 157.342C693.524 168.966 710.27 181.714 724.796 196.316C727.346 198.876 729.869 201.511 732.306 204.06C743.617 215.885 755.315 228.112 775.301 238.587C776.429 239.177 777.59 239.764 778.756 240.332C835.005 267.634 930.609 264.224 995.386 253.009C1072.67 239.627 1131.81 215.155 1183.99 193.563C1186.32 192.596 1188.65 191.629 1190.99 190.664C1194.14 189.355 1197.3 188.047 1200.46 186.741C1230.49 174.324 1260.16 162.257 1292.77 151.137C1330.27 138.349 1366.39 128.682 1403.18 121.582C1426.07 117.178 1450.1 113.818 1474.6 111.595C1497.5 109.516 1521.58 108.363 1546.17 108.165C1589.53 107.815 1635.74 110.343 1687.43 115.892C1727.81 120.201 1775.43 125.852 1822.42 135.096C1870.86 144.648 1916.14 156.909 1959.93 168.765C1964.23 169.93 1968.52 171.092 1972.81 172.248C2073.89 199.743 2173.54 230.479 2268.99 263.6L2268.77 263.68Z" fill="#12274F"/>
<path d="M2265.43 262.619C2169.46 228.657 2071.38 197.533 1973.93 170.115C1968.1 168.475 1962.14 166.784 1956.37 165.149C1915.05 153.442 1872.33 141.335 1825.93 132.29C1779.59 123.29 1731.59 118.562 1690.75 115.126C1582.03 105.892 1492.98 109.148 1410.53 125.373C1331.88 140.905 1270.27 164.262 1210.68 186.849L1204.14 189.328C1198.97 191.288 1193.63 193.312 1188.36 195.298C1128.71 217.756 1069 238.804 994.463 249.57C976.375 252.182 957.803 253.993 939.256 254.954C919.339 255.985 899.992 255.999 881.75 254.997C861.937 253.907 843.588 251.619 827.214 248.195C809.394 244.47 793.82 239.374 780.928 233.052C779.766 232.479 778.61 231.89 777.492 231.3C757.727 220.874 745.6 208.82 733.874 197.162C731.257 194.56 728.549 191.87 725.815 189.257C710.625 174.707 693.47 162.068 673.367 150.617C670.854 149.187 668.25 147.75 665.627 146.35C617.77 120.792 552.149 99.345 475.857 84.3263C386.554 66.7988 292.171 58.9757 210.088 62.3003C154.39 64.6042 97.1711 76.6137 70.9469 91.5061C52.8752 101.767 49.0997 113.202 60.0264 124.575L59.7273 124.612C54.0088 118.662 52.2423 112.71 54.4749 106.924C56.5343 101.589 61.985 96.3821 70.6761 91.4476C84.2164 83.7597 105.355 76.8717 131.812 71.5271C156.298 66.5802 184.084 63.2646 210.05 62.1899C253.106 60.4459 299.31 61.7314 347.388 66.0102C390.849 69.8789 434.121 76.0076 476.005 84.2283C552.341 99.2549 618 120.715 665.885 146.288C668.508 147.689 671.116 149.127 673.628 150.558C693.744 162.014 710.908 174.66 726.105 189.218C728.838 191.831 731.547 194.522 734.163 197.123C745.884 208.775 758.004 220.824 777.747 231.237C778.862 231.825 780.018 232.413 781.177 232.985C836.072 259.907 927.284 259.151 994.34 249.466C1068.82 238.709 1128.5 217.669 1188.12 195.222C1193.39 193.235 1198.74 191.211 1203.9 189.252L1210.45 186.772C1239.7 175.685 1269.94 164.22 1302.79 153.555C1339.99 141.475 1375.18 132.225 1410.37 125.274C1433.03 120.815 1456.72 117.288 1480.78 114.794C1503.4 112.448 1527.1 110.937 1551.23 110.3C1594.4 109.161 1640.05 110.704 1690.82 115.016C1731.68 118.454 1779.7 123.183 1826.07 132.191C1872.5 141.24 1915.23 153.349 1956.56 165.06C1962.33 166.695 1968.29 168.385 1974.12 170.026C2071.59 197.447 2169.67 228.572 2265.65 262.538L2265.43 262.619Z" fill="#12274F"/>
<path d="M2262.09 261.558C2166.94 227.218 2070.43 195.705 1975.24 167.895C1968.08 165.806 1960.75 163.632 1953.66 161.531C1914.57 149.95 1874.15 137.974 1829.56 129.388C1783.45 120.542 1735.23 116.774 1694.14 114.255C1588.44 107.674 1500.6 112.381 1417.72 129.066C1345.39 143.688 1286 164.411 1228.57 184.451C1222.53 186.56 1216.27 188.74 1210.18 190.852C1203.03 193.333 1197.57 195.218 1192.47 196.962C1165.17 206.296 1132.66 217.045 1098.54 225.986C1062.39 235.46 1027.99 242.016 993.388 246.031C975.19 248.143 956.696 249.474 938.417 249.988C918.79 250.54 899.786 250.135 881.938 248.782C862.6 247.316 844.68 244.737 828.668 241.117C811.305 237.192 796.054 232.005 783.339 225.703C782.193 225.132 781.043 224.542 779.929 223.949C760.424 213.593 747.891 201.725 735.768 190.247C732.956 187.585 730.05 184.833 727.118 182.159C711.244 167.65 693.67 155.114 673.388 143.834C670.837 142.415 668.195 140.992 665.535 139.603C617.013 114.274 550.876 93.1131 474.275 78.4065C384.352 61.2011 289.705 53.7667 207.766 57.471C161.144 59.625 100.25 69.5481 69.3084 86.8593C50.9124 97.1519 46.4976 108.639 56.5458 120.077L56.2466 120.111C50.9911 114.13 49.6182 108.152 52.1625 102.343C54.5116 96.9818 60.1891 91.7521 69.0439 86.7985C82.7291 79.1422 103.789 72.2654 129.953 66.9096C154.194 61.9481 181.813 58.557 207.729 57.3594C250.734 55.4149 296.988 56.4998 345.211 60.5849C388.776 64.2756 432.25 70.2375 474.423 78.3073C551.068 93.0218 617.243 114.195 665.793 139.539C668.454 140.928 671.099 142.353 673.649 143.773C693.941 155.059 711.525 167.601 727.408 182.117C730.343 184.792 733.249 187.544 736.061 190.206C748.175 201.679 760.704 213.54 780.187 223.885C781.302 224.476 782.448 225.066 783.594 225.636C829.263 248.273 907.655 255.858 993.29 245.922C1070.84 236.925 1134.1 216.76 1192.25 196.878C1197.35 195.134 1202.81 193.249 1209.96 190.769C1216.05 188.656 1222.3 186.476 1228.35 184.367C1256.62 174.502 1285.86 164.3 1317.04 154.748C1352.3 143.945 1385.19 135.511 1417.57 128.966C1440.01 124.448 1463.35 120.756 1486.95 117.994C1509.31 115.377 1532.63 113.508 1556.29 112.436C1599.35 110.487 1644.46 111.045 1694.2 114.141C1735.31 116.662 1783.56 120.432 1829.71 129.286C1874.33 137.877 1914.76 149.856 1953.86 161.441C1960.95 163.542 1968.28 165.715 1975.44 167.805C2070.63 195.619 2167.15 227.134 2262.31 261.476L2262.09 261.558Z" fill="#12274F"/>
<path d="M2258.75 260.497C2164.43 225.777 2069.48 193.873 1976.55 165.674C1968.64 163.275 1960.52 160.757 1952.67 158.322C1915.26 146.725 1876.58 134.734 1833.21 126.484C1787.06 117.744 1738.74 114.955 1697.55 113.38C1596.63 109.418 1507.45 115.756 1424.91 132.757C1359.19 146.355 1302.86 164.546 1248.37 182.139C1237.37 185.692 1225.99 189.367 1214.93 192.87C1208.16 195.013 1202.17 196.896 1196.59 198.624C1170.67 206.652 1136.2 216.946 1099.35 225.358C1062.33 233.81 1027.32 239.415 992.315 242.492C954.134 245.848 916.029 245.872 882.121 242.565C863.269 240.725 845.773 237.857 830.12 234.039C813.22 229.917 798.294 224.64 785.752 218.357C784.615 217.784 783.475 217.193 782.367 216.6C763.139 206.323 750.216 194.65 737.721 183.361C734.698 180.63 731.575 177.807 728.423 175.064C711.853 160.593 693.86 148.158 673.414 137.052C670.826 135.646 668.146 134.236 665.447 132.859C616.261 107.759 549.611 86.8828 472.702 72.4906C382.158 55.6085 287.246 48.5617 205.45 52.6456C150.016 55.4733 94.6675 67.3477 67.7253 82.1917C48.9766 92.5214 43.91 104.068 53.0734 115.583L52.7711 115.613C47.9816 109.596 47.0054 103.587 49.8678 97.7533C52.5129 92.3615 58.4329 87.1048 67.4608 82.1297C81.2909 74.5094 102.269 67.6485 128.128 62.2881C152.113 57.3164 179.559 53.851 205.406 52.5329C248.36 50.3879 294.665 51.2734 343.036 55.1635C386.708 58.6762 430.383 64.4715 472.847 72.3892C549.8 86.7904 616.488 107.678 665.706 132.794C668.404 134.171 671.084 135.582 673.675 136.989C694.131 148.102 712.133 160.542 728.712 175.02C731.864 177.763 734.988 180.587 738.011 183.318C750.5 194.601 763.417 206.269 782.625 216.536C783.733 217.129 784.87 217.718 786.007 218.29C830.892 240.781 907.987 249.787 992.239 242.382C1069.05 235.631 1135.75 217.32 1196.38 198.54C1201.95 196.811 1207.95 194.93 1214.72 192.786C1225.78 189.284 1237.16 185.61 1248.16 182.056C1302.65 164.46 1359 146.265 1424.75 132.661C1447 128.079 1470 124.223 1493.12 121.197C1515.24 118.304 1538.19 116.076 1561.34 114.577C1604.4 111.788 1648.96 111.361 1697.58 113.27C1738.79 114.846 1787.16 117.635 1833.36 126.386C1876.76 134.641 1915.45 146.637 1952.87 158.239C1960.73 160.674 1968.85 163.191 1976.75 165.589C2069.69 193.791 2164.65 225.697 2258.97 260.419L2258.75 260.497Z" fill="#12274F"/>
<path d="M2255.41 259.435C2161.92 224.333 2068.54 192.04 1977.86 163.453C1969.53 160.826 1960.95 158.044 1952.67 155.354C1916.62 143.659 1879.36 131.565 1836.86 123.58C1790.51 114.915 1742.15 113.12 1700.95 112.507C1603.85 110.957 1515.91 118.788 1432.11 136.448C1373.34 148.893 1320.95 164.642 1270.29 179.873C1252.87 185.11 1236.41 190.057 1219.67 194.887C1212.86 196.853 1206.66 198.619 1200.71 200.286C1162.31 211.028 1130.36 218.795 1100.16 224.727C1062.28 232.171 1026.65 236.823 991.247 238.95C977.511 239.775 963.826 240.186 950.389 240.186C926.571 240.186 903.524 238.898 882.307 236.345C843.909 231.724 812.237 223.2 788.17 211.006C787.036 210.428 785.906 209.837 784.81 209.247C765.875 199.059 752.59 187.592 739.742 176.502C736.486 173.692 733.123 170.788 729.732 167.964C712.454 153.526 694.039 141.196 673.445 130.267C670.819 128.873 668.101 127.475 665.365 126.111C615.514 101.239 548.348 80.6492 471.13 66.569C379.965 50.0114 284.792 43.351 203.138 47.8145C147.474 50.9206 93.722 62.5696 66.2036 77.4924C47.0739 87.865 41.3366 99.4802 49.6056 111.083L49.3002 111.111C44.983 105.052 44.4099 99.007 47.5998 93.1431C50.5535 87.7152 56.7222 82.4292 65.9423 77.4305C79.9172 69.8519 100.804 63.0134 126.348 57.6531C150.075 52.6735 177.329 49.1405 203.09 47.703C245.994 45.3574 292.35 46.0424 340.865 49.7388C384.645 53.0746 428.519 58.7031 471.275 66.4676C548.537 80.5568 615.741 101.158 665.623 126.044C668.359 127.41 671.077 128.808 673.706 130.202C694.313 141.137 712.737 153.475 730.022 167.917C733.413 170.742 736.779 173.647 740.032 176.457C752.873 187.542 766.152 199.004 785.071 209.182C786.167 209.772 787.294 210.363 788.428 210.94C833.369 233.711 907.274 243.879 991.193 238.838C1071.08 234.039 1141.83 216.611 1200.52 200.196C1206.47 198.529 1212.67 196.764 1219.47 194.798C1236.21 189.968 1252.66 185.023 1270.08 179.785C1320.76 164.551 1373.16 148.799 1431.95 136.35C1454.02 131.697 1476.68 127.676 1499.3 124.395C1521.2 121.218 1543.78 118.632 1566.4 116.711C1609.55 113.049 1653.56 111.636 1700.96 112.393C1742.2 113.006 1790.6 114.803 1837 123.479C1879.54 131.469 1916.82 143.568 1952.87 155.268C1961.17 157.958 1969.74 160.74 1978.07 163.366C2068.75 191.956 2162.14 224.252 2255.63 259.356L2255.41 259.435Z" fill="#12274F"/>
<path d="M2252.07 258.373C2158.13 222.385 2068.86 190.61 1979.18 161.23C1970.62 158.427 1962.19 155.565 1953.27 152.534C1918.4 140.687 1882.35 128.437 1840.51 120.676C1793.58 112.014 1743.09 111.293 1704.35 111.633C1611.67 112.341 1524.98 121.665 1439.31 140.141C1387.91 151.279 1340.45 164.655 1294.55 177.592C1270.43 184.391 1247.65 190.811 1224.42 196.905C1217.52 198.716 1211.11 200.365 1204.83 201.948C1165.91 211.745 1132.91 218.781 1100.97 224.094C1062.21 230.543 1025.97 234.244 990.178 235.409C971.788 236.007 953.525 235.894 935.894 235.074C917.227 234.206 899.259 232.539 882.491 230.123C845.325 224.766 814.405 215.862 790.59 203.658C789.466 203.079 788.345 202.486 787.255 201.896C768.639 191.813 755.02 180.565 741.848 169.688C738.334 166.786 734.7 163.784 731.044 160.866C713.042 146.461 694.211 134.233 673.475 123.484C670.808 122.103 668.053 120.717 665.285 119.365C614.77 94.7218 547.09 74.4183 469.564 60.6502C398.008 47.9951 324.216 41.3922 256.549 41.3922C237.419 41.3922 218.793 41.9194 200.829 42.9863C145.836 46.3165 92.4207 58.0072 64.7416 72.7701C45.2057 83.1911 38.7725 94.8852 46.1378 106.587L45.8292 106.612C41.9844 100.506 41.8238 94.4188 45.3505 88.521C48.6191 83.0537 55.0555 77.7328 64.4771 72.707C78.5969 65.1757 99.3861 58.3655 124.603 53.0108C148.405 47.9557 174.746 44.4509 200.772 42.8759C243.626 40.3298 290.031 40.8154 338.695 44.3168C382.578 47.4735 426.657 52.9341 469.702 60.5477C547.273 74.3237 614.994 94.6385 665.54 119.296C668.311 120.648 671.07 122.035 673.737 123.417C694.482 134.172 713.322 146.406 731.334 160.818C734.99 163.736 738.627 166.737 742.141 169.64C755.306 180.513 768.919 191.757 787.52 201.832C788.609 202.421 789.73 203.014 790.851 203.591C835.387 226.413 908.026 237.967 990.153 235.295C1073.26 232.59 1148.44 216.002 1204.66 201.853C1210.94 200.27 1217.34 198.621 1224.24 196.812C1247.47 190.72 1270.25 184.299 1294.36 177.501C1340.27 164.563 1387.73 151.183 1439.15 140.041C1483.26 130.53 1526.54 123.598 1571.47 118.848C1614.81 114.267 1658.28 111.87 1704.35 111.518C1730.64 111.287 1752.09 111.688 1771.85 112.779C1797.37 114.187 1819.87 116.737 1840.66 120.574C1882.54 128.342 1918.61 140.598 1953.5 152.451C1962.41 155.481 1970.84 158.343 1979.39 161.146C2069.08 190.526 2158.35 222.304 2252.31 258.294L2252.07 258.373Z" fill="#12274F"/>
<path d="M2248.73 257.312C2155.64 220.93 2067.9 188.776 1980.48 159.009C1971.84 156.064 1963.31 153.03 1954.28 149.818C1920.46 137.784 1885.48 125.338 1844.15 117.772C1796.84 109.15 1746.41 109.495 1707.76 110.758C1620.29 113.517 1534.84 124.336 1446.5 143.83C1402.97 153.482 1361.53 164.527 1321.46 175.209C1289.78 183.653 1259.86 191.629 1229.16 198.92C1222.22 200.569 1215.42 202.146 1208.95 203.606C1169.95 212.398 1134.89 218.891 1101.78 223.456C1062.12 228.922 1025.27 231.673 989.105 231.865C970.706 231.962 952.515 231.367 935.048 230.095C916.737 228.761 899.115 226.676 882.672 223.895C846.78 217.826 816.611 208.544 793.003 196.306C791.895 195.728 790.78 195.134 789.694 194.541C771.427 184.58 757.512 173.57 744.053 162.923C740.246 159.91 736.307 156.794 732.349 153.765C713.609 139.386 694.36 127.261 673.502 116.696C670.797 115.327 668.003 113.954 665.198 112.615C614.018 88.2001 545.822 68.1828 467.987 54.7267C375.585 38.8192 279.88 32.9338 198.509 38.1545C144.228 41.6976 91.1683 53.4187 63.335 68.0138C43.3582 78.49 36.2102 90.2719 42.6592 102.088L42.3506 102.109C38.9875 95.95 39.2457 89.8157 43.1221 83.8774C46.7213 78.3649 53.4316 73.0057 63.0736 67.9496C77.3319 60.4723 98.0172 53.6959 122.894 48.3524C146.422 43.2985 172.549 39.734 198.452 38.043C241.258 35.2974 287.711 35.5813 336.52 38.889C380.51 41.87 424.787 47.1639 468.123 54.6242C546.005 68.087 614.239 88.1167 665.447 112.546C668.255 113.885 671.052 115.26 673.757 116.63C694.628 127.201 713.883 139.331 732.632 153.715C736.593 156.744 740.529 159.861 744.34 162.874C757.792 173.517 771.701 184.523 789.955 194.476C791.041 195.069 792.156 195.663 793.261 196.24C838.266 219.569 907.816 232.182 989.099 231.75C1055.05 231.401 1124.86 222.426 1208.78 203.508C1215.25 202.048 1222.05 200.472 1228.98 198.823C1259.67 191.534 1289.59 183.56 1321.27 175.116C1361.35 164.432 1402.79 153.385 1446.33 143.731C1490.87 133.902 1533.46 126.462 1576.52 120.983C1620.16 115.433 1663.07 112.05 1707.73 110.642C1746.42 109.377 1796.91 109.033 1844.3 117.668C1885.67 125.244 1920.66 137.695 1954.5 149.735C1963.53 152.947 1972.06 155.979 1980.7 158.923C2068.12 188.691 2155.87 220.848 2248.96 257.232L2248.73 257.312Z" fill="#12274F"/>
<path d="M2245.39 256.251C2153.17 219.474 2066.95 186.939 1981.8 156.789C1973.15 153.728 1964.62 150.547 1955.58 147.18C1922.71 134.931 1888.73 122.264 1847.8 114.869C1800.04 106.279 1749.69 107.693 1711.16 109.884C1628.87 114.475 1547.06 126.435 1453.7 147.523C1418.68 155.467 1384.46 164.183 1351.37 172.611C1311.18 182.847 1273.21 192.516 1233.9 200.938C1226.82 202.456 1219.81 203.914 1213.07 205.268C1173.37 213.238 1137.23 218.979 1102.58 222.818C1083.18 224.969 1064.02 226.527 1045.64 227.45C1026.04 228.433 1006.66 228.728 988.036 228.324C950.252 227.505 914.865 223.92 882.859 217.67C848.293 210.919 818.876 201.26 795.426 188.958C794.324 188.375 793.219 187.78 792.139 187.19C774.262 177.376 760.098 166.627 746.404 156.233C742.256 153.087 737.971 149.833 733.66 146.667C714.165 132.312 694.497 120.29 673.531 109.913C670.789 108.556 667.955 107.195 665.114 105.869C613.27 81.6821 544.561 61.9509 466.417 48.8091C373.398 33.2272 277.432 27.7294 196.196 33.3275C109.213 39.4145 24.4535 65.7148 39.1904 97.5918L38.8787 97.6099C35.1913 89.6358 37.3515 81.7801 45.2962 74.2589C52.5513 67.3901 64.4574 60.9257 80.6838 55.0471C95.7703 49.5809 113.87 44.8615 134.477 41.0199C154.076 37.3663 175.397 34.667 196.133 33.2159C238.889 30.2699 285.392 30.3544 334.348 33.4683C378.446 36.2724 422.924 41.3995 466.549 48.7077C544.737 61.8585 613.488 81.6009 665.363 105.801C668.206 107.128 671.04 108.489 673.786 109.848C694.761 120.23 714.439 132.258 733.943 146.619C738.254 149.785 742.54 153.038 746.687 156.186C760.379 166.577 774.536 177.321 792.403 187.129C793.48 187.719 794.582 188.314 795.684 188.896C840.755 212.538 909.074 226.5 988.055 228.213C1054.92 229.66 1128.47 222.125 1212.92 205.172C1219.66 203.817 1226.66 202.361 1233.74 200.842C1273.04 192.423 1311 182.755 1351.19 172.519C1384.28 164.09 1418.5 155.374 1453.53 147.428C1546.93 126.331 1628.78 114.367 1711.11 109.773C1737 108.3 1758.44 107.829 1778.57 108.292C1804.32 108.884 1827 111.002 1847.94 114.768C1888.91 122.171 1922.92 134.845 1955.81 147.101C1964.84 150.467 1973.37 153.648 1982.02 156.708C2067.17 186.86 2153.4 219.396 2245.62 256.176L2245.39 256.251Z" fill="#12274F"/>
<path d="M2242.06 255.19C2150.71 218.011 2066.01 185.098 1983.12 154.567C1974.54 151.408 1966.06 148.099 1957.09 144.594C1925.11 132.11 1892.04 119.201 1851.45 111.965C1802.65 103.302 1749.96 106.129 1714.57 109.008C1618.51 116.728 1532.43 134.675 1460.9 151.214C1435.19 157.183 1409.54 163.505 1384.74 169.619C1334.98 181.885 1287.99 193.469 1238.66 202.955C1231.4 204.351 1224.18 205.688 1217.2 206.931C1176.73 214.118 1139.5 219.106 1103.4 222.18C1062.48 225.664 1023.31 226.541 986.976 224.783C949.649 222.977 914.683 218.489 883.055 211.442C849.881 204.051 821.217 194.015 797.852 181.61C796.762 181.027 795.663 180.431 794.589 179.839C777.157 170.205 762.817 159.751 748.946 149.641C744.402 146.328 739.701 142.903 734.977 139.57C714.431 125.034 694.917 113.456 673.57 103.13C670.79 101.785 667.921 100.437 665.04 99.1226C612.525 75.1656 543.299 55.7205 464.847 42.8897C371.211 27.6345 274.98 22.5231 193.882 28.4986C106.588 35.0159 23.5603 60.9592 35.7214 93.0953L35.4097 93.11C32.393 85.1371 35.0035 77.2892 43.1655 69.7849C50.6473 62.9093 62.6226 56.4382 78.764 50.5528C93.8159 45.0641 111.821 40.3098 132.283 36.4197C151.765 32.7154 173.046 29.9384 193.819 28.3871C236.528 25.2405 283.079 25.1256 332.18 28.0446C376.384 30.6718 421.064 35.6322 464.979 42.7872C543.479 55.6248 612.742 75.0811 665.282 99.0528C668.163 100.369 671.035 101.717 673.819 103.062C695.178 113.393 714.698 124.978 735.254 139.519C739.978 142.853 744.679 146.279 749.223 149.592C763.091 159.699 777.428 170.149 794.848 179.778C795.921 180.37 797.017 180.965 798.107 181.548C843.527 205.661 910.615 220.976 987.014 224.672C1055.53 227.986 1130.78 222.149 1217.06 206.83C1224.04 205.588 1231.26 204.252 1238.51 202.856C1287.82 193.372 1334.81 181.79 1384.56 169.526C1409.36 163.412 1435.01 157.088 1460.72 151.118C1508.83 139.998 1548.84 131.781 1586.65 125.262C1631.16 117.588 1672.97 112.235 1714.5 108.898C1739.81 106.839 1761.87 105.906 1781.94 106.048C1807.79 106.23 1830.57 108.132 1851.59 111.863C1892.23 119.108 1925.32 132.026 1957.32 144.518C1966.29 148.021 1974.76 151.33 1983.34 154.487C2066.24 185.019 2150.94 217.934 2242.29 255.114L2242.06 255.19Z" fill="#12274F"/>
<path d="M2238.71 254.127C2148.25 216.546 2065.07 183.253 1984.42 152.344C1975.97 149.103 1967.6 145.679 1958.73 142.054C1927.6 129.319 1895.41 116.15 1855.1 109.06C1805.76 100.418 1753.21 104.391 1717.97 108.133C1630.94 117.293 1553.31 134.735 1468.09 154.905C1452.72 158.556 1437.18 162.324 1422.14 165.97C1364.31 179.989 1304.52 194.485 1243.4 204.972C1235.97 206.247 1228.54 207.465 1221.31 208.591C1180.57 214.936 1141.17 219.292 1104.21 221.537C1062.34 224.081 1022.54 223.981 985.897 221.241C949.093 218.489 914.552 213.096 883.233 205.212C851.539 197.233 823.621 186.82 800.256 174.262C799.176 173.678 798.086 173.081 797.019 172.489C780.112 163.08 765.681 152.967 751.725 143.187C746.696 139.663 741.497 136.019 736.273 132.474C714.923 117.953 695.003 106.475 673.584 96.3487C670.772 95.0193 667.863 93.6832 664.94 92.3786C611.771 68.6468 542.035 49.488 463.268 36.9704C369.017 22.0419 272.525 17.318 191.56 23.6698C107.036 30.373 22.4753 55.406 32.2401 88.5977L31.9284 88.609C29.5824 80.6361 32.6432 72.7972 41.0225 65.3099C48.7279 58.4264 60.7757 51.9496 76.8289 46.0575C106.448 35.1881 148.24 26.9876 191.491 23.5583C234.149 20.2123 280.75 19.8968 329.999 22.6209C374.311 25.0724 419.189 29.8649 463.394 36.8667C542.205 49.3911 611.982 68.5624 665.186 92.3054C668.111 93.6111 671.021 94.9472 673.836 96.2777C695.264 106.409 715.194 117.893 736.55 132.419C741.774 135.965 746.976 139.609 752.005 143.133C765.958 152.911 780.386 163.022 797.283 172.425C798.348 173.018 799.437 173.614 800.517 174.198C847.263 199.323 911.388 215.551 985.957 221.129C1055.01 226.294 1134.15 222.041 1221.18 208.488C1228.41 207.361 1235.83 206.144 1243.25 204.87C1304.35 194.387 1364.14 179.894 1421.95 165.877C1436.99 162.231 1452.54 158.462 1467.91 154.811C1505.21 145.982 1548.62 135.855 1591.7 127.4C1636.77 118.556 1678.04 112.219 1717.87 108.026C1742.95 105.364 1765.01 103.983 1785.3 103.805C1810.89 103.579 1834.42 105.314 1855.23 108.96C1873.29 112.136 1891.46 116.875 1910.79 123.45C1927.86 129.255 1943.67 135.724 1958.96 141.979C1967.82 145.603 1976.19 149.027 1984.65 152.267C2065.3 183.178 2148.48 216.472 2238.95 254.054L2238.71 254.127Z" fill="#12274F"/>
<path d="M2235.38 253.067C2145.8 215.081 2064.15 181.408 1985.74 150.125C1977.43 146.812 1969.21 143.285 1960.5 139.551C1930.18 126.552 1898.83 113.109 1858.75 106.159C1821.29 99.6847 1776.36 100.045 1721.38 107.261C1644.51 117.293 1575.79 134.074 1503.04 151.842C1493.98 154.054 1484.61 156.341 1475.29 158.6C1471.64 159.487 1467.99 160.375 1464.34 161.263C1395.02 178.127 1323.34 195.566 1248.15 206.992C1240.55 208.148 1232.91 209.246 1225.44 210.256C1183.8 215.881 1143.29 219.461 1105.04 220.896C1062.2 222.503 1021.76 221.428 984.841 217.701C948.609 214.043 914.494 207.745 883.442 198.983C853.345 190.489 826.176 179.701 802.688 166.915C801.618 166.331 800.538 165.732 799.477 165.139C783.212 156.026 768.828 146.32 754.913 136.934C749.28 133.133 743.451 129.203 737.597 125.377C715.422 110.866 695.099 99.4864 673.63 89.5656C670.777 88.2475 667.833 86.9249 664.873 85.6326C611.029 62.1307 540.777 43.2569 461.701 31.0525C366.84 16.4518 270.08 12.1144 189.25 18.8424C106.279 25.8059 21.8377 51.0439 28.7748 84.1027L28.4599 84.1117C26.7878 76.1377 30.2957 68.3078 38.8923 60.8396C46.8244 53.9483 58.9414 47.4636 74.9096 41.567C104.402 30.6751 146.05 22.3529 189.178 18.7331C231.789 15.1866 278.437 14.6706 327.831 17.201C372.25 19.4744 417.333 24.1002 461.827 30.9488C540.947 43.1611 611.243 62.0451 665.109 85.5594C668.069 86.8516 671.019 88.1765 673.872 89.4946C695.351 99.421 715.687 110.804 737.868 125.32C743.725 129.146 749.55 133.078 755.187 136.879C769.096 146.263 783.48 155.966 799.738 165.076C800.799 165.669 801.876 166.266 802.947 166.851C850.706 192.848 913.631 210.393 984.923 217.59C1055.3 224.694 1136.18 222.19 1225.33 210.147C1232.79 209.138 1240.42 208.041 1248.02 206.886C1323.19 195.464 1394.86 178.029 1464.16 161.167C1467.81 160.279 1471.46 159.391 1475.11 158.504C1484.43 156.245 1493.8 153.958 1502.86 151.747C1575.63 133.976 1644.36 117.191 1721.27 107.154C1746.11 103.894 1768.16 102.065 1788.68 101.562C1814.36 100.932 1837.98 102.445 1858.88 106.057C1876.84 109.169 1894.78 113.93 1913.76 120.612C1930.49 126.508 1945.87 133.102 1960.75 139.478C1969.45 143.211 1977.67 146.737 1985.97 150.048C2064.39 181.332 2146.05 215.006 2235.62 252.994L2235.38 253.067Z" fill="#12274F"/>
<path d="M2232.04 252.006C2150.29 216.608 2067.86 181.582 1987.05 147.903C1978.82 144.494 1970.67 140.831 1962.04 136.954C1933.97 124.343 1902.15 110.05 1862.4 103.256C1824.5 96.7925 1779.49 97.8165 1724.78 106.385C1659.73 116.541 1602.16 131.472 1541.21 147.281C1522.13 152.231 1502.39 157.351 1482.48 162.29C1447.74 170.93 1410.15 180.073 1370.74 188.399C1328.55 197.317 1289.99 204.058 1252.88 209.008C1245.09 210.048 1237.24 211.027 1229.55 211.916C1187.03 216.831 1145.42 219.629 1105.87 220.23C1062.09 220.895 1021.01 218.853 983.764 214.158C914.985 205.379 854.872 187.012 805.097 159.566C804.036 158.981 802.966 158.381 801.911 157.787C786.472 149.077 772.339 139.887 758.673 130.999C752.24 126.816 745.589 122.49 738.898 118.28C715.879 103.773 695.147 92.4934 673.652 82.7833C670.758 81.4764 667.776 80.1662 664.781 78.8875C610.283 55.612 539.514 37.0254 460.13 25.1331C364.655 10.8591 267.633 6.91042 186.936 14.0136C103.461 21.4029 21.1356 46.3063 25.3016 79.6063L24.9867 79.6108C23.9885 71.6345 27.9499 63.8136 36.7574 56.3646C44.9194 49.4642 57.1057 42.9727 72.9826 37.0716C87.94 31.5119 105.668 26.6506 125.673 22.6219C145.096 18.7115 165.681 15.7779 186.857 13.9032C229.421 10.1573 276.12 9.44075 325.658 11.7762C370.184 13.875 415.466 18.333 460.25 25.0283C539.681 36.9274 610.491 55.5253 665.021 78.812C668.015 80.0918 671.004 81.4032 673.898 82.71C695.402 92.4258 716.144 103.71 739.172 118.221C745.863 122.433 752.514 126.759 758.947 130.943C772.613 139.83 786.742 149.018 802.175 157.726C803.227 158.32 804.301 158.919 805.359 159.504C855.096 186.929 915.155 205.281 983.868 214.051C1054.65 222.973 1139.57 222.198 1229.46 211.808C1237.14 210.919 1244.98 209.941 1252.77 208.902C1335.74 197.836 1411.66 179.762 1482.3 162.197C1502.21 157.258 1521.94 152.139 1541.03 147.188C1601.99 131.377 1659.57 116.441 1724.65 106.282C1779.44 97.6994 1824.55 96.6753 1862.53 103.153C1880.33 106.196 1898.01 110.966 1916.57 117.734C1932.94 123.701 1947.86 130.403 1962.29 136.883C1970.92 140.76 1979.07 144.422 1987.29 147.828C2068.1 181.509 2150.53 216.535 2232.28 251.934L2232.04 252.006Z" fill="#12274F"/>
<path d="M2228.7 250.945C2148.2 215.351 2067.34 179.936 1988.36 145.681C1980.39 142.235 1972.49 138.508 1964.11 134.563C1936.73 121.658 1905.69 107.03 1866.04 100.351C1827.69 93.8986 1782.6 95.5862 1728.18 105.508C1671.16 115.889 1618.78 130.546 1568.12 144.722C1542.71 151.829 1516.44 159.179 1489.68 165.98C1447.43 176.726 1411.89 184.923 1377.81 191.778C1335.8 200.231 1296.48 206.527 1257.63 211.024C1249.65 211.948 1241.59 212.806 1233.67 213.576C1192.41 217.583 1151.89 219.611 1113.12 219.612C1110.97 219.612 1108.83 219.605 1106.69 219.593C1061.87 219.331 1020.16 216.31 982.696 210.614C964.615 207.849 946.909 204.34 930.072 200.183C914.245 196.276 898.693 191.674 883.845 186.505C857.133 177.206 832.162 165.989 807.512 152.217C806.454 151.624 805.399 151.03 804.351 150.435C790.048 142.308 776.518 133.814 763.434 125.599C755.88 120.857 748.07 115.953 740.204 111.179C715.986 96.4728 695.471 85.6215 673.677 75.997C670.745 74.7025 667.725 73.4047 664.693 72.1384C609.533 49.0939 538.251 30.7935 458.558 19.2132C362.472 5.26708 265.186 1.70591 184.621 9.18425C102.711 16.809 20.493 41.9017 21.8313 75.1081L21.5164 75.1092C20.8929 59.6422 38.0262 44.9345 71.0615 32.5769C85.9937 26.9912 103.628 22.095 123.479 18.0213C142.794 14.0579 163.338 11.0476 184.542 9.07384C227.056 5.12738 273.805 4.21146 323.489 6.35199C368.121 8.27509 413.604 12.5663 458.675 19.1073C538.418 30.6955 609.741 49.0071 664.936 72.0652C667.968 73.3326 670.994 74.6315 673.926 75.926C695.729 85.5561 716.253 96.4109 740.478 111.123C748.344 115.898 756.157 120.802 763.708 125.544C776.792 133.758 790.319 142.251 804.619 150.375C805.667 150.971 806.719 151.564 807.777 152.156C860.156 181.423 917.413 200.511 982.819 210.51C1073.41 224.286 1169.19 219.722 1233.59 213.468C1241.5 212.698 1249.56 211.841 1257.53 210.917C1346.89 200.573 1428.44 181.419 1489.5 165.889C1516.26 159.09 1542.52 151.74 1567.92 144.634C1618.6 130.455 1670.99 115.794 1728.04 105.409C1752.39 100.969 1774.43 98.2427 1795.41 97.0756C1821.29 95.6358 1845.1 96.7038 1866.17 100.25C1883.93 103.241 1901.44 108.05 1919.7 114.949C1935.79 121.028 1950.32 127.874 1964.37 134.497C1972.74 138.441 1980.64 142.166 1988.61 145.61C2067.58 179.865 2148.44 215.28 2228.95 250.874L2228.7 250.945Z" fill="#12274F"/>
<path d="M2225.36 249.882L1989.67 143.459C1981.98 139.984 1974.33 136.202 1966.24 132.199C1939.53 118.989 1909.26 104.016 1869.69 97.4471C1831.41 91.0953 1784.95 93.513 1731.58 104.634C1680.27 115.324 1633.47 129.54 1588.22 143.289C1558.72 152.251 1528.21 161.518 1496.87 169.673C1402.67 194.186 1320.35 208.663 1237.79 215.237C1203.55 217.963 1169.76 219.336 1137 219.336C1127.06 219.336 1117.23 219.209 1107.51 218.957C1061.63 217.767 1019.28 213.768 981.628 207.072C946.732 200.864 914.808 192.101 884.043 180.281C859.475 170.842 835.924 159.59 809.93 144.869C796.21 137.1 782.925 129.028 770.077 121.222C741 103.557 710.934 85.29 673.711 69.2134C616.614 44.5556 541.67 25.2188 456.98 13.2926C360.286 -0.324543 262.735 -3.49929 182.303 4.35421C104.43 11.9576 19.9095 35.9338 18.354 70.6104L18.0391 70.6082C18.735 55.1085 36.4036 40.403 69.1335 28.0814C98.727 16.9405 138.888 8.47529 182.221 4.24493C224.687 0.0990571 271.486 -1.0174 321.312 0.928231C366.052 2.67445 411.736 6.80005 457.096 13.1878C499.002 19.089 538.801 26.8568 575.392 36.2763C612.288 45.7746 645.449 56.831 673.95 69.1391C711.189 85.2212 741.264 103.492 770.348 121.162C783.195 128.967 796.481 137.038 810.197 144.806C848.123 166.285 901.9 192.762 981.77 206.968C1073.37 223.26 1171.51 220.396 1237.72 215.124C1320.24 208.555 1402.53 194.083 1496.69 169.58C1528.02 161.428 1558.52 152.161 1588.01 143.201C1633.28 129.45 1680.09 115.23 1731.42 104.534C1784.88 93.3947 1831.45 90.9748 1869.82 97.3434C1887.54 100.285 1904.89 105.135 1922.85 112.173C1938.67 118.368 1952.82 125.365 1966.49 132.132C1974.59 136.134 1982.23 139.914 1989.92 143.388L2225.61 249.811L2225.36 249.882Z" fill="#12274F"/>
<path d="M2223.47 241.701C2163.45 212.07 2111.96 188.025 2061.42 166.032C2036.88 155.349 2011.83 144.833 1986.94 134.777C1979.42 131.735 1971.96 128.5 1964.07 125.074C1944.23 116.463 1923.71 107.56 1900.11 100.952C1887.43 97.398 1875.23 94.853 1862.8 93.1721C1824.66 87.9616 1779.91 91.4068 1729.79 103.413C1703.86 109.617 1680.24 116.677 1660.56 122.766C1639.72 129.211 1619.17 136.318 1599.29 143.192C1570.72 153.072 1541.18 163.288 1509.42 172.062C1490.09 177.417 1470.5 182.201 1451.19 186.284C1412.55 194.452 1371.08 201.182 1327.93 206.288C1301.27 209.407 1274.48 211.765 1248.3 213.295C1225.75 214.609 1203.15 215.367 1181.14 215.549C1148.19 215.821 1116.09 214.781 1085.73 212.455C1053.45 209.981 1022.9 206.032 994.927 200.717C969.987 195.977 946.43 190.01 922.911 182.472C879.084 168.437 844.128 152.208 818.571 139.637C806.017 133.433 793.758 127.106 781.902 120.988C747.765 103.367 715.52 86.7235 675.169 71.8986C642.26 59.8869 604.712 49.5211 563.559 41.0874C531.934 34.6061 497.539 29.3054 461.329 25.3319C452.704 24.3867 443.916 23.5057 435.215 22.716C397.756 19.3215 355.585 17.1112 309.879 16.1457C263.798 15.1498 223.929 16.0116 188.003 18.783C167.692 20.3377 148.015 22.7768 129.509 26.0316C64.1748 37.5228 22.2217 56.8135 17.2842 77.6353L16.8906 77.6229C18.2069 72.0721 22.0706 66.6048 28.3716 61.3706C34.3577 56.3989 42.5795 51.6041 52.8072 47.1192C72.1322 38.6472 98.5957 31.3108 129.335 25.9042C147.87 22.6439 167.579 20.2014 187.921 18.6445C223.885 15.8708 263.785 15.0078 309.904 16.0048C355.636 16.9703 397.828 19.183 435.313 22.5797C444.023 23.3705 452.815 24.2515 461.446 25.1979C497.684 29.1736 532.108 34.4788 563.758 40.9657C604.939 49.405 642.518 59.7798 675.443 71.7995C715.819 86.6334 748.07 103.281 782.22 120.907C794.073 127.025 806.331 133.351 818.883 139.554C844.427 152.119 879.368 168.34 923.169 182.366C946.663 189.896 970.195 195.858 995.106 200.592C1049.84 210.994 1112.43 215.979 1181.13 215.408C1203.12 215.226 1225.7 214.468 1248.24 213.156C1274.39 211.626 1301.16 209.27 1327.8 206.153C1370.93 201.05 1412.38 194.325 1450.99 186.161C1470.29 182.082 1489.86 177.3 1509.17 171.949C1540.92 163.18 1570.45 152.966 1599.01 143.089C1618.89 136.215 1639.45 129.105 1660.3 122.657C1679.99 116.566 1703.62 109.503 1729.57 103.295C1751.89 97.9489 1773.49 94.2559 1793.79 92.317C1818.73 89.9354 1842 90.1788 1862.94 93.0403C1875.41 94.7268 1887.64 97.2786 1900.35 100.841C1923.99 107.458 1944.52 116.368 1964.37 124.984C1972.26 128.409 1979.72 131.644 1987.24 134.684C2012.13 144.741 2037.19 155.258 2061.72 165.943C2112.27 187.938 2163.77 211.985 2223.79 241.619L2223.47 241.701Z" fill="#12274F"/>
<path d="M2221.56 233.518C2165.92 203.385 2113.69 178.169 2061.9 156.432C2036.65 145.813 2010.51 135.607 1984.21 126.095C1977.23 123.571 1970.35 120.948 1963.05 118.172C1941.21 109.859 1918.63 101.263 1893.33 95.3161C1880.56 92.3002 1868.32 90.2002 1855.91 88.8956C1808.4 83.8981 1760.13 93.366 1728 102.188C1705.24 108.421 1684.45 115.468 1663.39 122.742C1644.96 129.109 1627.62 135.959 1609.26 143.21C1582.01 153.973 1553.84 165.103 1521.95 174.448C1503.03 180.024 1483.28 184.844 1463.26 188.776C1425.96 196.101 1385.12 201.79 1338.39 206.167C1312.24 208.617 1285.46 210.362 1258.8 211.352C1236.3 212.178 1213.84 212.473 1192.05 212.226C1159.62 211.864 1127.92 210.232 1097.83 207.379C1066.23 204.381 1036.07 200 1008.21 194.36C983.795 189.418 960.222 183.287 936.142 175.618C892.41 161.708 854.947 146.287 827.199 134.406C816.927 130.007 806.819 125.582 797.042 121.301C758.105 104.253 721.329 88.1498 676.621 74.5834C643.207 64.444 605.694 55.8706 565.13 49.102C534.437 43.9805 501.906 40.1433 465.681 37.3708C457.32 36.732 448.815 36.1563 440.404 35.6595C403.461 33.4885 364.033 32.6673 316.33 31.8178C281.944 31.1745 236.93 30.7509 193.686 33.2091C173.206 34.3515 153.408 36.3354 134.839 39.1035C69.4613 48.8519 25.1119 65.8815 16.2004 84.6596L15.7344 84.6315C18.0961 79.6519 22.8824 74.7681 29.9517 70.1142C36.6904 65.6799 45.5452 61.4281 56.2673 57.4738C76.644 49.9616 103.75 43.5547 134.657 38.9469C153.26 36.1732 173.095 34.1859 193.611 33.0413C236.896 30.5797 281.944 31.0044 316.352 31.6477C364.071 32.4971 403.511 33.3184 440.48 35.4905C448.897 35.9885 457.408 36.5641 465.778 37.2029C502.038 39.9789 534.601 43.8194 565.328 48.9466C605.934 55.7219 643.478 64.3021 676.926 74.4516C721.666 88.0282 758.458 104.136 797.407 121.191C807.181 125.471 817.289 129.896 827.561 134.293C855.303 146.169 892.75 161.585 936.457 175.488C960.508 183.15 984.056 189.274 1008.44 194.21C1063.23 205.301 1125.01 211.305 1192.06 212.055C1213.84 212.301 1236.28 212.007 1258.75 211.181C1285.39 210.192 1312.15 208.449 1338.27 206.001C1384.96 201.627 1425.77 195.944 1463.04 188.625C1483.03 184.698 1502.76 179.884 1521.66 174.314C1553.51 164.977 1581.68 153.852 1608.92 143.094C1627.28 135.84 1644.62 128.989 1663.07 122.618C1684.13 115.339 1704.93 108.29 1727.72 102.051C1748.54 96.3312 1769.09 92.2168 1788.78 89.8194C1812.65 86.9128 1835.29 86.5467 1856.05 88.73C1868.51 90.0403 1880.79 92.147 1893.6 95.1719C1918.94 101.13 1941.54 109.734 1963.4 118.054C1970.69 120.829 1977.58 123.451 1984.55 125.973C2010.86 135.488 2037 145.699 2062.27 156.32C2114.07 178.063 2166.31 203.283 2221.96 233.423L2221.56 233.518Z" fill="#12274F"/>
<path d="M2219.67 225.334C2167.59 194.291 2116.15 168.613 2062.4 146.832C2036.41 136.279 2009.19 126.382 1981.48 117.413C1975.56 115.496 1969.47 113.461 1963.57 111.494C1939.23 103.367 1914.06 94.9637 1886.57 89.681C1873.67 87.1845 1861.39 85.5284 1849.04 84.6192C1801.62 81.1279 1756.08 91.5805 1726.22 100.963C1705.98 107.296 1687.48 114.475 1669.59 121.418L1666.24 122.718C1649.99 129.017 1634.76 135.926 1618.62 143.241C1592.93 154.888 1566.36 166.932 1534.49 176.834C1515.95 182.639 1496.05 187.495 1475.33 191.27C1439.22 197.85 1399.03 202.546 1348.85 206.047C1322.91 207.858 1296.14 208.989 1269.3 209.408C1246.85 209.745 1224.53 209.576 1202.95 208.903C1137.61 206.876 1076.56 199.844 1021.49 188.002C997.686 182.883 974.097 176.591 949.381 168.764C907.554 155.545 870.353 141.958 835.837 129.175C831.208 127.461 826.63 125.759 822.086 124.07C774.943 106.553 730.418 90.0066 678.089 77.2716C643.926 68.9573 606.451 62.1775 566.708 57.1191C537.53 53.4058 505.909 50.8845 470.043 49.4109C461.96 49.0808 453.738 48.8093 445.604 48.6042C425.142 48.0973 403.44 48.015 380.462 47.9283C362.006 47.8584 342.924 47.7863 322.787 47.4923C283.894 46.876 239.816 46.1787 199.371 47.6388C178.503 48.3924 158.586 49.9201 140.171 52.1801C74.8185 60.2014 28.0696 74.9722 15.1181 91.692L14.5859 91.6391C17.9994 87.2307 23.7052 82.9305 31.5429 78.8578C39.0373 74.9632 48.5219 71.2522 59.732 67.8285C81.173 61.2807 108.928 55.8054 139.989 51.993C158.444 49.7275 178.402 48.1964 199.311 47.4416C239.797 45.9804 283.897 46.6789 322.806 47.2951C342.93 47.5881 362.013 47.6613 380.462 47.7311C403.449 47.8179 425.158 47.9001 445.639 48.4082C453.779 48.6144 462.01 48.8859 470.099 49.216C506.01 50.6907 537.669 53.2154 566.888 56.9343C606.678 61.9983 644.194 68.7861 678.394 77.1094C730.77 89.8557 775.318 106.41 822.48 123.935C827.023 125.624 831.605 127.325 836.231 129.04C870.74 141.821 907.929 155.404 949.743 168.618C974.434 176.437 997.997 182.723 1021.77 187.836C1076.77 199.663 1137.74 206.685 1203 208.709C1224.56 209.381 1246.85 209.55 1269.27 209.213C1296.09 208.794 1322.83 207.664 1348.75 205.856C1398.87 202.358 1439.01 197.667 1475.08 191.096C1495.75 187.33 1515.62 182.482 1534.13 176.688C1565.96 166.798 1592.51 154.761 1618.18 143.12C1634.32 135.802 1649.57 128.89 1665.83 122.587L1669.18 121.287C1687.08 114.34 1705.59 107.157 1725.85 100.816C1755.8 91.4036 1801.51 80.9206 1849.15 84.4277C1861.56 85.3414 1873.88 87.0031 1886.83 89.5098C1914.37 94.8037 1939.58 103.216 1963.94 111.352C1969.84 113.319 1975.93 115.354 1981.85 117.27C2009.57 126.244 2036.8 136.146 2062.8 146.705C2116.58 168.494 2168.04 194.182 2220.13 225.235L2219.67 225.334Z" fill="#12274F"/>
<path d="M2217.77 217.149C2169.95 185.637 2117.85 158.749 2062.9 137.233C2036.18 126.747 2007.87 117.158 1978.77 108.733C1974.56 107.517 1970.26 106.254 1966.09 105.033C1938.58 96.965 1910.13 88.6215 1879.83 84.0475C1866.82 82.0635 1854.51 80.8525 1842.18 80.3432C1794.89 78.392 1752.06 89.8123 1724.44 99.7365C1707.3 105.867 1691.82 112.686 1676.85 119.279C1674.27 120.421 1671.68 121.56 1669.09 122.694C1654.85 128.927 1641.54 135.889 1627.45 143.259C1603.49 155.789 1578.72 168.745 1547.04 179.222C1528.44 185.375 1508.93 190.131 1487.41 193.765C1442.38 201.367 1397.39 204.18 1359.31 205.93C1333.56 207.113 1306.81 207.632 1279.79 207.467C1257.42 207.315 1235.23 206.681 1213.86 205.583C1150.48 202.338 1090.23 194.285 1034.78 181.648C1011.71 176.391 988.106 169.936 962.622 161.913C936.879 153.829 912.891 146.05 889.689 138.526C873.923 133.413 859.028 128.583 844.484 123.949C789.503 106.433 739.143 91.0324 679.568 79.9624C644.672 73.4789 607.234 68.4903 568.295 65.1365C540.386 62.7323 510.553 61.5618 474.413 61.4502C466.616 61.43 458.674 61.4626 450.812 61.5482C438.868 61.6868 426.511 61.9764 413.434 62.2839C388.337 62.8731 359.887 63.5412 329.241 63.1672C317.571 63.0241 305.665 62.8224 294.15 62.6264C264.531 62.1228 233.904 61.6023 205.051 62.0676C183.862 62.4101 163.822 63.4826 145.495 65.2559C80.2528 71.5704 31.1076 84.0835 14.0279 98.7282L13.4453 98.6414C17.9168 94.8065 24.5421 91.091 33.1355 87.5974C41.3889 84.2424 51.5032 81.0733 63.192 78.1791C85.7162 72.6024 114.116 68.0588 145.325 65.0384C163.696 63.2607 183.78 62.1848 205.016 61.8423C233.901 61.3759 264.54 61.8975 294.175 62.4011C305.687 62.5971 317.593 62.7988 329.26 62.9418C359.877 63.3159 388.306 62.6489 413.39 62.0597C426.474 61.7522 438.833 61.4626 450.79 61.3241C458.662 61.2384 466.61 61.2058 474.416 61.226C510.607 61.3364 540.483 62.5104 568.44 64.9179C607.426 68.2763 644.914 73.2705 679.855 79.763C706.765 84.7629 734.035 91.0977 763.222 99.1281C789.352 106.317 814.77 114.183 844.899 123.781C859.444 128.416 874.339 133.246 890.108 138.36C913.306 145.882 937.295 153.661 963.031 161.744C988.49 169.759 1012.07 176.207 1035.11 181.459C1090.48 194.079 1150.65 202.12 1213.94 205.362C1235.29 206.458 1257.45 207.091 1279.79 207.243C1306.78 207.407 1333.5 206.89 1359.23 205.707C1397.25 203.96 1442.19 201.15 1487.13 193.563C1508.6 189.938 1528.05 185.194 1546.6 179.058C1578.23 168.598 1602.98 155.653 1626.92 143.133C1641.02 135.758 1654.34 128.792 1668.59 122.553C1671.18 121.419 1673.77 120.28 1676.36 119.14C1691.33 112.541 1706.82 105.719 1723.99 99.5799C1741.95 93.1233 1760.38 88.1562 1778.77 84.8169C1800.54 80.8615 1821.9 79.282 1842.24 80.1224C1854.63 80.6339 1867 81.8506 1880.06 83.8424C1910.44 88.4288 1938.93 96.7825 1966.48 104.86C1970.64 106.081 1974.95 107.344 1979.15 108.56C2008.28 116.991 2036.61 126.589 2063.34 137.083C2092.52 148.508 2121.1 161.525 2148.27 175.772C2172.29 188.363 2195.85 202.25 2218.3 217.043L2217.77 217.149Z" fill="#12274F"/>
<path d="M2215.86 208.961C2171.6 176.546 2120.31 149.183 2063.38 127.632C2035.94 117.213 2006.55 107.934 1976.04 100.052C1974.59 99.6771 1973.14 99.3019 1971.68 98.9256C1939.96 90.7195 1907.15 82.234 1873.08 78.4137C1859.88 76.9334 1847.53 76.1661 1835.32 76.067C1788.22 75.6862 1748.06 88.0607 1722.67 98.5077C1707.72 104.619 1694.46 111.318 1681.63 117.796C1678.46 119.398 1675.17 121.054 1671.94 122.668C1659.6 128.812 1648.14 135.798 1636 143.195C1613.92 156.65 1591.1 170.562 1559.58 181.608C1541.35 187.998 1521.69 192.79 1499.47 196.26C1455.71 203.095 1411.27 204.89 1369.76 205.811C1344.17 206.379 1317.43 206.282 1290.28 205.524C1267.97 204.882 1245.93 203.784 1224.76 202.26C1163.53 197.867 1104.08 188.793 1048.06 175.291C1025.62 169.884 1002.68 163.456 975.862 155.06C924.89 139.148 887.04 127.941 853.139 118.722C785.711 100.387 734.248 89.5997 681.066 82.6531C645.461 78.0025 608.062 74.8063 569.9 73.1525C543.424 72.0056 515.326 72.1081 478.798 73.4882C471.313 73.7744 463.655 74.1112 456.035 74.4909C448.836 74.8548 441.525 75.2716 433.781 75.7121C405.192 77.3401 372.787 79.1854 335.699 78.8407C316.15 78.6593 296.183 78.1625 276.874 77.6825C254.929 77.1373 232.238 76.5728 210.724 76.4962C189.154 76.4196 168.992 77.037 150.813 78.3326C85.7878 82.964 34.24 93.2217 12.9249 105.771L12.3203 105.639C17.8561 102.379 25.401 99.2478 34.7438 96.3333C43.7623 93.5191 54.5001 90.893 66.6613 88.526C90.2845 83.9273 119.336 80.3154 150.674 78.0836C168.904 76.7858 189.11 76.1661 210.731 76.2427C232.263 76.3194 254.967 76.8838 276.921 77.4302C296.224 77.9101 316.182 78.4069 335.715 78.5883C372.736 78.9319 405.107 77.0888 433.665 75.4631C441.411 75.0215 448.729 74.6058 455.931 74.2408C463.561 73.8611 471.225 73.5243 478.717 73.237C515.301 71.8558 543.446 71.7521 569.979 72.9024C608.194 74.5585 645.647 77.7592 681.302 82.4165C734.557 89.3721 786.073 100.171 853.561 118.522C887.475 127.744 925.338 138.955 976.322 154.871C1003.12 163.26 1026.04 169.681 1048.45 175.082C1104.4 188.565 1163.76 197.627 1224.89 202.014C1246.04 203.535 1268.06 204.631 1290.33 205.273C1317.45 206.03 1344.16 206.127 1369.72 205.56C1411.16 204.64 1455.52 202.85 1499.19 196.03C1521.32 192.574 1540.91 187.797 1559.08 181.43C1590.53 170.408 1613.33 156.51 1635.38 143.07C1647.53 135.668 1659 128.677 1671.35 122.523C1674.59 120.911 1677.87 119.255 1681.04 117.653C1693.88 111.169 1707.16 104.466 1722.13 98.3443C1738.7 91.5261 1756.08 86.1331 1773.77 82.314C1794.5 77.8403 1815.21 75.6558 1835.33 75.8169C1847.61 75.916 1860.03 76.6878 1873.29 78.1749C1907.47 82.0087 1940.33 90.5055 1972.1 98.724C1973.55 99.1003 1975.01 99.4765 1976.45 99.8506C2007 107.741 2036.42 117.031 2063.9 127.462C2120.87 149.032 2172.21 176.416 2216.49 208.854L2215.86 208.961Z" fill="#12274F"/>
<path d="M1385.44 205.697C1383.67 205.697 1381.93 205.695 1380.22 205.692C1354.76 205.654 1328.02 204.944 1300.76 203.581C1278.54 202.449 1256.64 200.886 1235.66 198.938C1205.68 196.16 1175.6 192.167 1146.23 187.072C1117.88 182.151 1089.32 176.049 1061.35 168.935C1033.94 161.964 1008.35 154.198 989.107 148.21C944.09 134.238 901.258 122.559 861.802 113.498C797.898 98.8232 740.95 89.8769 682.578 85.3446C647.364 82.6103 609.583 81.1683 573.207 81.1683C572.643 81.1683 572.083 81.1683 571.519 81.1694C540.269 81.2077 510.6 83.2852 483.198 85.5248C476.066 86.1118 468.688 86.7528 461.269 87.4322C457.204 87.8085 453.132 88.196 448.824 88.6061C418.44 91.5026 384.001 94.7843 342.161 94.5151C316.68 94.3506 290.654 93.4065 265.485 92.4928C249.233 91.9025 232.43 91.293 216.402 90.9246C194.369 90.4188 174.094 90.581 156.132 91.409C91.4533 94.3878 37.5028 102.391 11.8107 112.819L11.2188 112.633C24.397 107.285 44.2195 102.655 70.1351 98.8694C94.8856 95.2553 124.589 92.5785 156.031 91.1308C174.04 90.3016 194.369 90.1371 216.453 90.6452C232.497 91.0136 249.309 91.6242 265.567 92.2146C290.72 93.1282 316.73 94.0723 342.177 94.2357C383.909 94.5049 418.289 91.2277 448.623 88.3368C452.934 87.9256 457.005 87.5381 461.074 87.1618C468.499 86.4825 475.883 85.8403 483.022 85.2533C510.471 83.0103 540.19 80.9295 571.516 80.89C608.471 80.8438 646.929 82.2904 682.745 85.0719C712.871 87.4119 742.077 90.8559 772.026 95.6011C800.871 100.172 830.376 105.949 862.224 113.264C901.712 122.332 944.575 134.019 989.62 148C1008.84 153.985 1034.42 161.746 1061.8 168.708C1118.55 183.144 1177.11 193.224 1235.85 198.669C1256.81 200.614 1278.68 202.175 1300.87 203.306C1328.09 204.667 1354.79 205.377 1380.22 205.414C1420 205.472 1466.19 204.992 1511.25 198.498C1534.05 195.21 1553.78 190.403 1571.56 183.802C1602.79 172.21 1623.49 157.331 1643.52 142.941C1653.82 135.539 1663.54 128.547 1674.12 122.495C1677.51 120.556 1680.93 118.559 1684.23 116.627C1695.41 110.099 1706.96 103.351 1720.26 97.113C1735.47 89.9366 1751.79 84.1155 1768.77 79.8119C1788.45 74.8222 1808.52 72.0305 1828.41 71.5145C1840.69 71.1957 1853.15 71.5213 1866.51 72.5104C1902.22 75.1534 1937.62 82.8323 1973.75 91.1432C2005.26 98.3894 2036.62 107.622 2064.44 117.843C2095.34 129.165 2124.38 142.446 2150.74 157.318C2174.22 170.568 2195.73 185.153 2214.67 200.669L2213.95 200.781C2173.28 167.461 2122.79 139.623 2063.88 118.041C2036.1 107.834 2004.79 98.6148 1973.33 91.3809C1937.25 83.0846 1901.93 75.4204 1866.35 72.7864C1853.06 71.8029 1840.67 71.4796 1828.47 71.7962C1791.92 72.7459 1753.71 81.7969 1720.89 97.2842C1707.61 103.511 1696.07 110.254 1684.91 116.774C1681.6 118.708 1678.18 120.706 1674.79 122.645C1664.23 128.686 1654.51 135.672 1644.22 143.067C1634.4 150.127 1624.24 157.429 1612.58 164.447C1599.36 172.405 1586.14 178.799 1572.13 183.998C1554.27 190.628 1534.46 195.457 1511.54 198.76C1491.34 201.673 1469.62 203.599 1445.15 204.649C1424.43 205.533 1403.61 205.697 1385.44 205.697Z" fill="#12274F"/>
<path d="M1435.94 206.26C1419.88 206.26 1404.46 205.917 1390.66 205.57C1365.29 204.933 1338.57 203.609 1311.24 201.635C1289.11 200.014 1267.35 197.988 1246.55 195.612C1189.59 189.12 1133.35 178.312 1074.63 162.575C1049.02 155.713 1024.87 148.329 1002.35 141.356C957.87 127.628 913.502 116.497 870.465 108.271C807.172 96.1724 747.953 89.7407 684.1 88.0305C647.717 87.056 609.351 87.4537 573.144 89.1796C542.839 90.6239 514.269 94.1096 487.597 97.5547C480.925 98.4211 473.827 99.3674 466.506 100.367C464.676 100.618 462.831 100.874 460.961 101.132C430.243 105.381 395.485 110.189 350.878 110.189C350.125 110.189 349.376 110.188 348.617 110.185C318.437 110.076 287.625 108.535 257.824 107.043C246.009 106.451 233.791 105.841 222.068 105.346C199.169 104.382 179.337 104.097 161.435 104.478C96.3251 105.863 41.367 111.469 10.6587 119.861L10.1328 119.615C25.3138 115.466 47.2649 111.865 73.6056 109.199C99.515 106.578 129.867 104.838 161.382 104.168C179.334 103.786 199.216 104.071 222.165 105.038C233.901 105.532 246.122 106.144 257.94 106.734C287.713 108.224 318.497 109.764 348.62 109.873C394.156 110.04 429.481 105.151 460.643 100.84C462.51 100.582 464.358 100.326 466.188 100.074C473.516 99.0734 480.616 98.127 487.295 97.2607C514.011 93.8088 542.634 90.3186 573.021 88.8698C609.284 87.1416 647.714 86.7428 684.156 87.7184C715.8 88.5656 745.97 90.5664 776.388 93.8336C807.717 97.1987 838.62 101.83 870.865 107.995C913.955 116.233 958.38 127.377 1002.9 141.118C1025.42 148.089 1049.55 155.468 1075.14 162.324C1133.78 178.04 1189.93 188.831 1246.8 195.314C1267.57 197.685 1289.31 199.709 1311.4 201.328C1338.69 203.299 1365.38 204.622 1390.71 205.257C1433.34 206.328 1478.69 206.877 1523.3 200.955C1546.78 197.837 1566.64 193 1584.03 186.165C1615.01 173.99 1634.29 157.383 1651.31 142.73C1659.87 135.358 1667.95 128.394 1676.87 122.458C1680.09 120.316 1683.33 118.103 1686.46 115.962C1696.26 109.265 1706.4 102.339 1718.39 95.8716C1732.27 88.3369 1747.53 82.0877 1763.76 77.2974C1782.41 71.7962 1801.82 68.3984 1821.48 67.2009C1833.76 66.4517 1846.27 66.3323 1859.71 66.8325C1897.26 68.2328 1935.41 75.1524 1971.04 82.4223C2003.94 89.1345 2036.43 98.0527 2064.98 108.212C2096.74 119.481 2126.01 132.895 2151.96 148.08C2175.17 161.66 2195.66 176.594 2212.85 192.47L2212.05 192.582C2175.49 158.836 2124.43 129.737 2064.37 108.431C2035.87 98.2904 2003.45 89.3892 1970.62 82.6904C1935.07 75.4374 1897.02 68.5347 1859.62 67.14C1846.26 66.6421 1833.83 66.7615 1821.63 67.505C1785.34 69.7166 1748.94 79.8503 1719.12 96.0406C1707.15 102.495 1697.03 109.413 1687.24 116.104C1684.1 118.246 1680.86 120.46 1677.64 122.603C1668.74 128.526 1660.66 135.483 1652.11 142.847C1635.07 157.522 1615.76 174.156 1584.68 186.372C1567.19 193.244 1547.21 198.109 1523.61 201.244C1503.12 203.964 1481.02 205.539 1456.04 206.056C1449.28 206.202 1442.56 206.26 1435.94 206.26Z" fill="#12274F"/>
<path d="M1467.63 207.479C1467.4 207.479 1467.17 207.479 1466.94 207.479C1444.25 207.459 1421.97 206.466 1401.09 205.449C1375.76 204.217 1349.05 202.278 1321.71 199.689C1299.69 197.581 1278.06 195.09 1257.44 192.287C1202.75 184.866 1148.88 173.406 1087.9 156.217C1065.94 150.029 1044.33 143.365 1023.43 136.922C1020.82 136.115 1018.2 135.31 1015.58 134.504C970.877 120.78 924.969 110.196 879.136 103.046C816.375 93.2573 753.079 89.2241 685.629 90.7168C648.645 91.5359 610.313 93.7744 574.777 97.1903C546.739 99.8862 521.756 104.211 492.005 109.585C485.975 110.679 479.535 111.86 471.745 113.302L471.31 113.383C456.28 116.184 439.245 119.357 420.137 121.77C398.192 124.542 376.902 125.876 355.071 125.86C321.028 125.829 286.286 123.563 252.69 121.369C244.458 120.832 235.944 120.276 227.725 119.774C204.155 118.335 184.204 117.609 166.731 117.553C102.392 117.351 45.0751 120.762 9.47969 126.911L9.07031 126.607C26.5059 123.594 50.0252 121.15 77.0839 119.536C104.193 117.92 135.197 117.117 166.74 117.217C184.264 117.272 204.266 118 227.886 119.442C236.111 119.944 244.625 120.5 252.86 121.037C286.415 123.227 321.113 125.491 355.074 125.522C355.225 125.522 355.379 125.522 355.53 125.522C404.109 125.522 441.118 118.627 470.875 113.083L471.313 113.002C479.107 111.559 485.546 110.378 491.58 109.284C521.381 103.901 546.409 99.5685 574.535 96.8647C610.13 93.4421 648.525 91.2002 685.572 90.38C718.579 89.65 749.712 90.2065 780.758 92.0834C814.212 94.1056 846.517 97.5902 879.514 102.738C925.435 109.901 971.422 120.502 1016.2 134.249C1018.82 135.054 1021.43 135.861 1024.05 136.667C1044.94 143.108 1066.54 149.77 1088.49 155.953C1149.39 173.121 1203.18 184.566 1257.77 191.974C1278.37 194.774 1299.96 197.26 1321.95 199.366C1349.26 201.951 1375.93 203.887 1401.22 205.117C1446.52 207.323 1490.87 208.853 1535.37 203.427C1559.51 200.482 1579.52 195.614 1596.51 188.544C1627.21 175.771 1643.98 158.074 1658.78 142.458C1665.71 135.148 1672.26 128.242 1679.64 122.438C1682.48 120.205 1685.33 117.896 1688.08 115.662C1696.7 108.677 1705.61 101.456 1716.53 94.6464C1729.1 86.7501 1743.31 80.0716 1758.76 74.7969C1776.37 68.7854 1795.14 64.7837 1814.55 62.9046C1826.58 61.7397 1838.86 61.1719 1852.05 61.1719C1852.34 61.1719 1852.62 61.1719 1852.91 61.173C1893.93 61.2496 1936.14 67.9168 1968.34 73.7165C2002.63 79.8959 2036.24 88.4986 2065.53 98.5951C2098.16 109.812 2127.65 123.358 2153.2 138.859C2176.12 152.769 2195.58 168.053 2211.04 184.29L2210.14 184.399C2187.14 160.24 2143.26 125.787 2064.87 98.8396C2035.65 88.7656 2002.12 80.1832 1967.91 74.0184C1935.81 68.2345 1893.73 61.5865 1852.91 61.511C1839.47 61.4828 1827.01 62.0484 1814.79 63.2313C1778.84 66.7136 1744.24 77.93 1717.35 94.8143C1706.45 101.608 1697.55 108.821 1688.94 115.798C1686.19 118.033 1683.34 120.344 1680.5 122.578C1673.13 128.367 1666.6 135.264 1659.68 142.566C1644.85 158.21 1628.05 175.942 1597.23 188.763C1580.12 195.881 1559.98 200.782 1535.67 203.746C1515.07 206.257 1492.8 207.479 1467.63 207.479Z" fill="#12274F"/>
<path d="M1492.83 209.066C1487.94 209.066 1482.95 209.009 1477.84 208.897C1455.45 208.404 1433.7 206.927 1411.53 205.327C1385.83 203.473 1359.88 200.992 1332.19 197.743C1310.28 195.15 1288.79 192.196 1268.33 188.961C1216.41 180.769 1164.86 168.709 1101.19 149.858C1085.38 145.177 1069.57 140.268 1054.28 135.519C1045.96 132.935 1037.36 130.261 1028.83 127.651C983.594 113.834 936.152 103.799 887.823 97.821C823.966 89.9224 758.336 88.4759 687.176 93.3991C649.581 96.0004 611.284 100.08 576.429 105.196C548.429 109.305 524.037 115.077 498.213 121.188L496.427 121.61C492.394 122.568 488.316 123.539 484.188 124.521C481.81 125.088 479.417 125.658 477.002 126.233C461.944 129.834 445.679 133.592 427.028 136.483C405.373 139.841 383.954 141.492 361.54 141.533C324.225 141.598 286.164 138.496 249.36 135.492C244.107 135.063 238.672 134.62 233.398 134.2C208.669 132.228 189.174 131.094 172.038 130.627C108.801 128.907 49.1231 130.119 8.30045 133.954L8.03906 133.601C48.9687 129.755 108.77 128.539 172.117 130.262C189.3 130.73 208.846 131.868 233.621 133.843C238.899 134.264 244.334 134.707 249.59 135.136C285.944 138.102 323.523 141.168 360.344 141.168C360.74 141.168 361.137 141.168 361.537 141.167C409.161 141.081 443.063 133.909 476.438 125.928C478.853 125.354 481.246 124.784 483.624 124.217C487.752 123.234 491.827 122.264 495.864 121.305L497.649 120.882C523.518 114.762 547.95 108.98 576.042 104.857C610.96 99.7306 649.323 95.6444 686.984 93.0386C758.323 88.103 824.129 89.554 888.159 97.474C936.609 103.467 984.161 113.526 1029.5 127.373C1038.02 129.984 1046.63 132.656 1054.95 135.242C1070.23 139.989 1086.04 144.898 1101.84 149.576C1165.44 168.404 1216.92 180.448 1268.74 188.627C1289.18 191.856 1310.63 194.806 1332.51 197.395C1360.16 200.64 1386.08 203.117 1411.74 204.968C1450.69 207.779 1499.17 211.278 1547.44 205.889C1572.26 203.118 1592.4 198.22 1608.99 190.913C1639.4 177.529 1653.5 158.704 1665.94 142.097C1671.34 134.883 1676.45 128.068 1682.41 122.412C1684.73 120.209 1687.05 117.93 1689.3 115.725C1696.85 108.331 1704.65 100.686 1714.67 93.4149C1725.97 85.1513 1739.12 78.0436 1753.76 72.289C1770.35 65.7682 1788.47 61.1638 1807.62 58.6031C1819.9 56.9594 1832.5 55.9466 1846.11 55.5061C1864.35 54.9157 1883.77 55.5466 1905.46 57.4303C1923.82 59.0255 1943.5 61.5018 1965.63 65.0021C2001.32 70.6475 2036.05 78.9359 2066.08 88.9704C2099.57 100.134 2129.3 113.814 2154.43 129.629C2177.06 143.871 2195.5 159.505 2209.23 176.101L2208.25 176.205C2179.26 141.168 2128.52 110.282 2065.38 89.2386C2035.44 79.231 2000.8 70.9663 1965.22 65.3379C1917.54 57.7964 1879.72 54.7873 1846.21 55.8711C1832.68 56.3082 1820.17 57.3142 1807.97 58.9456C1762.42 65.0371 1732.59 81.1406 1715.59 93.576C1705.59 100.829 1697.8 108.465 1690.26 115.85C1688.01 118.056 1685.68 120.336 1683.36 122.541C1677.42 128.179 1672.33 134.986 1666.93 142.192C1654.46 158.835 1640.33 177.699 1609.79 191.144C1593.06 198.508 1572.76 203.446 1547.75 206.239C1530.79 208.132 1512.7 209.066 1492.83 209.066Z" fill="#12274F"/>
<path d="M1514.66 210.884C1481.36 210.884 1449.34 207.823 1421.96 205.205C1396.19 202.742 1370.25 199.665 1342.65 195.797C1320.86 192.721 1299.52 189.303 1279.21 185.636C1218.32 174.656 1164.04 158.896 1114.46 143.5C1104.34 140.357 1094.11 137.117 1084.22 133.984C1070.49 129.633 1056.29 125.135 1042.07 120.799C996.152 106.847 947.177 97.3573 896.504 92.5952C830.953 86.4361 762.984 87.5751 688.713 96.0786C650.473 100.457 612.213 106.377 578.069 113.199C551.735 118.461 529.453 125.103 505.865 132.135C504.193 132.633 502.517 133.133 500.833 133.634L499.92 133.906C494.185 135.618 488.256 137.386 482.245 139.162C467.841 143.435 451.98 147.855 433.635 151.231C412.339 155.151 390.869 157.105 367.992 157.207C327.837 157.386 286.911 153.347 247.335 149.441C244.561 149.167 241.799 148.895 239.05 148.625C212.952 146.063 193.914 144.545 177.325 143.7C115.676 140.561 53.6292 139.574 7.09444 140.993L7 140.599C53.6103 139.178 115.748 140.166 177.479 143.309C194.115 144.156 213.195 145.678 239.34 148.244C242.089 148.514 244.851 148.786 247.628 149.061C287.128 152.959 327.976 156.988 367.977 156.812C417.657 156.591 452.645 147.429 481.539 138.858C487.551 137.082 493.48 135.313 499.214 133.603L500.127 133.331C501.812 132.829 503.487 132.33 505.159 131.832C528.789 124.788 551.108 118.134 577.531 112.855C611.738 106.02 650.07 100.089 688.376 95.7035C723.587 91.6725 756.661 89.345 789.482 88.5879C826.094 87.7441 862.193 88.9642 896.781 92.2144C947.614 96.9912 996.734 106.508 1042.78 120.499C1057.01 124.836 1071.22 129.336 1084.95 133.688C1094.84 136.821 1105.06 140.06 1115.18 143.202C1164.71 158.581 1218.92 174.324 1279.7 185.284C1299.98 188.945 1321.29 192.359 1343.05 195.43C1370.61 199.292 1396.51 202.365 1422.24 204.824C1461.74 208.601 1510.91 213.301 1559.49 208.355C1584.98 205.759 1605.25 200.831 1621.45 193.287C1651.54 179.273 1662.8 159.291 1672.74 141.66C1676.73 134.576 1680.5 127.885 1685.15 122.39C1686.87 120.358 1688.59 118.258 1690.26 116.227C1696.79 108.282 1703.55 100.066 1712.78 92.1874C1722.83 83.5497 1734.93 76.0106 1748.73 69.7816C1764.31 62.7528 1781.78 57.5457 1800.66 54.3045C1812.92 52.2 1825.55 50.741 1839.29 49.8431C1857.79 48.6343 1878.32 48.6749 1900.31 49.9637C1919.57 51.0925 1940.62 53.2207 1962.9 56.2906C1999.98 61.402 2035.84 69.3749 2066.6 79.3475C2100.97 90.4592 2130.93 104.271 2155.64 120.402C2177.98 134.974 2195.39 150.961 2207.4 167.916L2206.33 168.013C2180.89 132.086 2131 100.701 2065.86 79.6405C2035.2 69.7005 1999.46 61.7535 1962.5 56.659C1914.6 50.0561 1874.36 47.9527 1839.49 50.2318C1825.85 51.123 1813.31 52.5718 1801.13 54.6605C1756.21 62.372 1728.85 79.4061 1713.8 92.3394C1704.59 100.197 1697.84 108.402 1691.32 116.337C1689.65 118.368 1687.92 120.469 1686.2 122.504C1681.57 127.98 1677.81 134.662 1673.82 141.737C1669.04 150.219 1663.62 159.833 1655.76 168.845C1646.75 179.172 1635.81 187.245 1622.33 193.527C1614.53 197.159 1605.57 200.25 1595.69 202.715C1585.06 205.366 1572.99 207.392 1559.79 208.735C1544.7 210.273 1529.55 210.884 1514.66 210.884Z" fill="#12274F"/>
<path d="M1534.34 212.88C1523.33 212.88 1511.8 212.497 1499.61 211.732C1475.62 210.226 1452.65 207.492 1432.38 205.083C1406.84 202.044 1380.17 198.265 1353.12 193.849C1331.47 190.296 1310.26 186.414 1290.09 182.309C1232.19 170.539 1182.31 154.89 1127.73 137.141C1122.89 135.564 1117.96 133.955 1113.2 132.398C1094.45 126.271 1075.06 119.935 1055.31 113.948C1008.63 99.8317 958.125 90.8899 905.191 87.3704C838.421 82.9305 766.103 86.7609 690.255 98.7569C651.335 104.913 613.11 112.673 579.715 121.2C554.571 127.62 533.873 135.19 511.96 143.204C509.734 144.019 507.498 144.836 505.25 145.656C499.654 147.7 493.627 149.893 487.496 152.089C474.639 156.709 458.97 161.974 440.25 165.976C419.294 170.458 397.771 172.717 374.456 172.88C331.776 173.181 288.33 168.125 246.314 163.235L244.714 163.049C224.142 160.657 202.38 158.239 182.624 156.771C122.404 152.297 59.6426 149.191 5.90625 148.025L5.97867 147.604C59.7717 148.771 122.59 151.879 182.863 156.357C202.676 157.83 224.476 160.251 245.079 162.647L246.679 162.833C288.604 167.711 331.961 172.755 374.434 172.457C423.485 172.112 457.361 162.319 486.662 151.788C492.793 149.593 498.813 147.4 504.409 145.357C506.657 144.538 508.893 143.72 511.119 142.907C533.07 134.879 553.806 127.296 579.032 120.854C612.489 112.31 650.787 104.535 689.78 98.3682C725.366 92.7409 760.385 88.8631 793.858 86.8443C832.105 84.5381 869.637 84.5742 905.412 86.9524C958.547 90.4854 1009.24 99.4588 1056.07 113.623C1075.84 119.616 1095.24 125.954 1114 132.085C1118.76 133.641 1123.69 135.25 1128.53 136.827C1183.05 154.558 1232.88 170.191 1290.68 181.94C1310.82 186.039 1332 189.915 1353.61 193.464C1380.63 197.872 1407.26 201.647 1432.76 204.68C1472.74 209.437 1522.5 215.355 1571.57 210.82C1597.74 208.402 1618.14 203.444 1633.93 195.661C1663.69 180.998 1672.31 158.898 1679.23 141.139C1681.92 134.222 1684.47 127.689 1687.92 122.371C1689.01 120.695 1690.1 118.968 1691.17 117.297C1696.68 108.618 1702.38 99.6424 1710.93 90.9631C1724.13 77.4564 1749.21 59.388 1793.72 50.0114C1806.01 47.4225 1818.69 45.5163 1832.49 44.1846C1868.57 40.6505 1911.54 41.794 1960.19 47.5813C1998.66 52.1587 2035.65 59.8161 2067.15 69.7268C2102.39 80.7855 2132.58 94.7305 2156.88 111.178C2168.03 118.721 2177.89 126.779 2186.18 135.126C2194.09 143.099 2200.62 151.378 2205.59 159.734L2204.43 159.822C2182.56 123.002 2133.53 91.1186 2066.37 70.0434C2034.98 60.1699 1998.14 52.5417 1959.81 47.9813C1911.39 42.2198 1868.65 41.0797 1832.79 44.5913C1819.1 45.9128 1806.52 47.8044 1794.32 50.3741C1750.12 59.6855 1725.18 77.6614 1712.04 91.1017C1703.51 99.7584 1697.82 108.722 1692.31 117.39C1691.25 119.06 1690.16 120.789 1689.07 122.466C1685.63 127.766 1683.09 134.29 1680.4 141.197C1676.91 150.133 1672.97 160.261 1666.22 169.82C1658.47 180.805 1648.22 189.339 1634.89 195.909C1627.28 199.657 1618.38 202.818 1608.44 205.304C1597.74 207.981 1585.43 209.976 1571.86 211.228C1559.96 212.33 1547.52 212.88 1534.34 212.88Z" fill="#12274F"/>
<path d="M1552.48 214.987C1539.28 214.987 1525.37 214.375 1510.51 213.148C1486.42 211.162 1463.25 207.866 1442.81 204.957C1417.07 201.295 1390.42 196.903 1363.58 191.9C1342.08 187.872 1321.01 183.526 1300.97 178.98C1245.83 166.48 1198.53 150.37 1148.46 133.316C1145.98 132.472 1143.5 131.627 1141.02 130.782C1117.73 122.86 1093.65 114.667 1068.55 107.096C1021.06 92.8009 969.027 84.4055 913.89 82.1433C844.632 79.3009 769.911 85.7912 691.799 101.432C652.727 109.255 613.508 119.116 581.363 129.198C557.092 136.81 537.625 145.376 517.015 154.445C514.575 155.518 512.128 156.596 509.663 157.675C504.738 159.834 498.877 162.395 492.743 165.015C481.382 169.878 465.902 176.059 446.864 180.708C426.241 185.745 404.671 188.313 380.919 188.555C361.396 188.729 339.851 187.651 315.05 185.257C293.757 183.202 273.16 180.517 250.368 177.475C229.563 174.664 207.605 171.761 187.906 169.843C129.553 164.163 67.9161 159.189 4.71094 155.057L4.93765 154.614C68.1806 158.747 129.852 163.726 188.236 169.408C207.99 171.331 229.978 174.239 250.809 177.052C289.011 182.152 336.557 188.502 380.884 188.104C431.563 187.586 464.132 176.561 491.777 164.724C497.908 162.107 503.765 159.547 508.686 157.389C511.152 156.309 513.599 155.232 516.036 154.16C536.68 145.076 556.182 136.496 580.532 128.859C612.742 118.757 652.038 108.876 691.185 101.039C769.534 85.3507 844.513 78.8435 914.034 81.6961C940.69 82.79 966.873 85.3305 991.851 89.2465C1018.65 93.4476 1044.73 99.3386 1069.36 106.753C1094.49 114.331 1118.59 122.528 1141.88 130.456C1144.37 131.302 1146.85 132.146 1149.33 132.99C1199.35 150.03 1246.61 166.124 1301.65 178.6C1321.66 183.139 1342.69 187.48 1364.17 191.501C1390.97 196.496 1417.58 200.883 1443.28 204.539C1483.67 210.285 1533.93 217.435 1583.64 213.288C1610.56 211.042 1631.09 206.053 1646.4 198.038C1675.9 182.73 1681.15 159.346 1685.38 140.556C1686.89 133.836 1688.31 127.489 1690.68 122.356C1691.17 121.297 1691.65 120.232 1692.14 119.162C1696.56 109.495 1701.12 99.4974 1709.06 89.7411C1720.39 75.7082 1743.07 56.68 1786.78 45.7205C1798.97 42.6629 1811.69 40.3106 1825.67 38.5283C1845.1 36.0284 1866.76 34.8534 1890.03 35.0336C1911.28 35.1981 1933.97 36.4903 1957.46 38.8731C1997.32 42.9142 2035.44 50.2562 2067.68 60.1049C2103.79 71.1095 2134.22 85.1896 2158.11 101.952C2169.07 109.644 2178.57 117.867 2186.33 126.393C2193.76 134.558 2199.63 143.023 2203.77 151.553L2202.53 151.629C2184.5 114.462 2135.05 81.2274 2066.87 60.4474C2034.76 50.6415 1996.81 43.3299 1957.12 39.3045C1908.18 34.3408 1862.87 34.2191 1826.09 38.9508C1812.22 40.7195 1799.59 43.0538 1787.49 46.0878C1744.09 56.9718 1721.54 75.902 1710.27 89.865C1702.35 99.5954 1697.79 109.578 1693.38 119.233C1692.9 120.303 1692.41 121.369 1691.92 122.428C1689.56 127.542 1688.14 133.881 1686.63 140.591C1682.39 159.435 1677.13 182.887 1647.44 198.293C1640.06 202.156 1631.23 205.389 1621.21 207.901C1610.42 210.602 1597.88 212.563 1583.92 213.727C1573.85 214.566 1563.41 214.987 1552.48 214.987Z" fill="#12274F"/>
<path d="M1569.52 217.18C1554.49 217.18 1538.56 216.31 1521.4 214.564C1497.11 212.093 1473.8 208.235 1453.23 204.831C1427.24 200.53 1400.6 195.522 1374.04 189.95C1352.69 185.455 1331.77 180.643 1311.85 175.651C1262.79 163.362 1220.87 148.308 1176.49 132.369C1169.23 129.763 1161.73 127.069 1154.29 124.42C1128.12 115.115 1105.77 107.442 1081.79 100.244C1033.45 85.7591 979.889 77.9101 922.582 76.9142C850.572 75.6626 773.44 84.8105 693.331 104.103C653.535 113.689 614.35 125.439 582.996 137.192C559.376 146.045 540.911 155.684 521.362 165.887C518.941 167.151 516.51 168.42 514.063 169.689C509.705 171.955 503.936 174.94 497.981 177.934C472.922 190.561 440.183 203.56 387.372 204.225C385.725 204.244 384.072 204.253 382.422 204.253C341.184 204.253 299.083 198.414 256.012 191.895L253.323 191.484C231.989 188.226 211.836 185.15 193.181 182.91C122.882 174.469 54.8934 167.345 3.51563 162.081L3.88406 161.621C55.2745 166.886 123.282 174.012 193.607 182.456C212.311 184.701 232.486 187.782 253.849 191.044L256.535 191.454C301.183 198.212 344.786 204.241 387.325 203.747C439.55 203.09 472.015 190.19 496.889 177.658C502.84 174.667 508.603 171.683 512.961 169.419C515.407 168.148 517.835 166.881 520.257 165.617C539.837 155.397 558.33 145.744 582.026 136.861C613.443 125.084 652.707 113.31 692.581 103.706C729.591 94.7922 766.613 87.9481 802.617 83.3617C843.928 78.0994 884.313 75.7696 922.645 76.4354C980.248 77.4358 1034.08 85.3231 1082.64 99.8754C1106.66 107.084 1129.03 114.766 1155.22 124.079C1162.67 126.728 1170.18 129.423 1177.43 132.028C1221.77 147.952 1263.65 162.992 1312.61 175.256C1332.5 180.242 1353.4 185.046 1374.72 189.534C1401.23 195.1 1427.84 200.1 1453.79 204.394C1494.53 211.137 1545.23 219.528 1595.7 215.75C1623.28 213.685 1643.95 208.667 1658.87 200.41C1687.99 184.405 1689.74 159.704 1691.15 139.857C1691.61 133.381 1692.04 127.264 1693.43 122.335L1693.46 122.223C1696.58 111.185 1699.8 99.7729 1707.18 88.5125C1713.58 78.6909 1722.49 69.8606 1733.66 62.2651C1746.25 53.7019 1761.78 46.6899 1779.82 41.4231C1791.89 37.8991 1804.65 35.0995 1818.84 32.8655C1857.19 26.7943 1904.18 25.8569 1954.73 30.1571C1975.07 31.8876 1995.14 34.5092 2014.38 37.9475C2033.73 41.4062 2051.84 45.623 2068.22 50.4787C2105.2 61.4303 2135.86 75.6434 2159.34 92.7237C2180.44 108.076 2195.17 125.589 2201.94 143.368L2200.62 143.432C2186.13 105.38 2137.56 71.6339 2067.36 50.8471C2034.54 41.111 1995.48 34.1171 1954.42 30.6258C1904.16 26.3504 1857.47 27.2776 1819.39 33.3071C1805.31 35.5242 1792.64 38.3013 1780.67 41.7971C1746.99 51.6312 1722.04 67.8237 1708.49 88.6241C1701.12 99.8551 1697.91 111.252 1694.8 122.273L1694.77 122.386C1693.38 127.297 1692.95 133.405 1692.49 139.872C1691.07 159.78 1689.32 184.555 1659.99 200.673C1652.79 204.654 1644.03 207.958 1633.95 210.49C1623.08 213.221 1610.3 215.149 1595.97 216.222C1587.44 216.86 1578.64 217.18 1569.52 217.18Z" fill="#12274F"/>
<path d="M388.354 219.939C369.914 219.939 349.834 218.654 327.171 216.029C304.653 213.421 282.384 209.82 261.67 206.319C257.92 205.681 254.198 205.045 250.501 204.413C232.099 201.266 214.716 198.294 198.471 195.979C133.695 186.751 71.9507 178.457 12.2377 170.438L2.34375 169.108L2.84127 168.634L12.7352 169.964C72.4513 177.985 134.205 186.279 198.994 195.509C215.283 197.83 232.687 200.805 251.112 203.956C254.805 204.588 258.527 205.225 262.275 205.861C304.794 213.049 349.969 220.015 393.783 219.394C447.642 218.592 479.919 203.581 502.018 190.595C507.68 187.274 513.133 183.964 517.252 181.451C519.526 180.067 521.784 178.683 524.035 177.303C542.708 165.863 560.345 155.056 583.54 144.867C614.157 131.42 653.383 117.75 693.998 106.377C731.678 95.8256 769.701 87.4888 807.016 81.599C849.816 74.8428 891.621 71.3368 931.269 71.178C990.929 70.8603 1046.34 78.2034 1095.94 93.0012C1123.44 101.214 1148.09 110.098 1168.58 117.706C1179.73 121.847 1190.89 126.09 1201.67 130.195C1239.84 144.724 1279.32 159.748 1323.59 171.916C1343.37 177.353 1364.12 182.621 1385.28 187.572C1411.46 193.686 1438.05 199.299 1464.32 204.254C1505.36 211.998 1556.45 221.636 1607.77 218.216C1636.02 216.333 1656.82 211.286 1671.34 202.786C1700.08 186.055 1698.14 160.001 1696.58 139.067C1696.12 132.876 1695.68 127.028 1696.21 122.32C1697.39 111.706 1699.17 99.371 1705.33 87.2894C1710.52 77.052 1718.36 67.7903 1728.63 59.7622C1740.25 50.6807 1755.14 43.0671 1772.88 37.1322C1784.64 33.1993 1797.81 29.8612 1812.04 27.2092C1832.33 23.4125 1855.11 21.0253 1879.74 20.115C1902.8 19.2622 1927.12 19.7106 1952.01 21.4466C1973 22.9112 1993.69 25.3199 2013.51 28.6073C2033.45 31.915 2052.04 36.0361 2068.76 40.8556C2088.04 46.4052 2105.76 52.9587 2121.44 60.3345C2136.3 67.3227 2149.46 75.1165 2160.58 83.4984C2181.37 99.1795 2195.04 117.054 2200.13 135.187L2198.72 135.237C2187.79 96.2988 2140.1 62.0424 2067.87 41.2511C2034.79 31.7178 1993.55 24.8614 1951.74 21.9446C1900.03 18.3384 1851.95 20.3144 1812.69 27.6587C1798.58 30.2893 1785.51 33.6015 1773.85 37.5029C1740.42 48.6855 1717.83 65.4661 1706.72 87.3806C1700.57 99.4296 1698.8 111.743 1697.62 122.34C1697.1 127.031 1697.53 132.87 1697.99 139.053C1698.76 149.381 1699.63 161.087 1696.71 172.404C1693.32 185.535 1685.42 195.56 1672.55 203.05C1665.55 207.149 1656.85 210.523 1646.7 213.078C1635.75 215.838 1622.73 217.735 1608.04 218.714C1600.62 219.208 1593.21 219.432 1585.84 219.432C1541.74 219.432 1499 211.368 1463.66 204.701C1437.36 199.738 1410.73 194.118 1384.51 187.995C1363.32 183.037 1342.53 177.761 1322.73 172.316C1278.37 160.123 1238.85 145.084 1200.64 130.541C1189.86 126.437 1178.71 122.195 1167.57 118.057C1147.1 110.458 1122.48 101.586 1095.04 93.3888C1045.7 78.6698 990.617 71.3695 931.291 71.6827C838.124 72.0567 751.302 90.9711 694.873 106.774C654.341 118.124 615.193 131.765 584.642 145.185C561.517 155.344 543.905 166.133 525.26 177.556C523.008 178.936 520.747 180.319 518.474 181.705C514.352 184.218 508.895 187.531 503.23 190.855C493.953 196.307 479.39 204.242 460.099 210.191C450.731 213.079 440.762 215.35 430.468 216.939C418.99 218.711 406.665 219.707 393.843 219.898C392.026 219.926 390.196 219.939 388.354 219.939Z" fill="#12274F"/>
<path d="M394.274 235.623C375.812 235.623 355.772 234.238 333.229 231.413C309.889 228.488 286.814 224.376 267.322 220.738C261.333 219.619 255.356 218.483 249.575 217.385C233.414 214.315 218.148 211.414 203.755 209.046C152.065 200.54 100.712 192.236 51.0476 184.204C34.6197 181.548 17.6344 178.801 1.17188 176.133L1.78905 175.645C18.2516 178.313 35.2369 181.06 51.6648 183.716C101.33 191.748 152.689 200.053 204.381 208.56C218.813 210.935 234.098 213.838 250.277 216.913C256.055 218.011 262.032 219.145 268.015 220.265C308.44 227.807 355.331 235.79 400.232 235.038C455.36 234.094 486.323 217.703 507.144 203.53C512.481 199.899 517.642 196.253 521.541 193.483C523.543 192.061 525.533 190.64 527.52 189.223C545.381 176.476 562.25 164.436 585.054 152.874C614.714 137.836 653.909 122.272 695.411 109.049C753.21 90.7136 842.542 68.3484 939.887 65.9229C1001.8 64.3389 1058.77 71.1367 1109.24 86.1295C1131.91 92.8688 1154.33 100.642 1181.94 111.337C1195.89 116.741 1209.74 122.343 1223.13 127.758C1257.96 141.849 1293.98 156.419 1334.57 168.58C1354.23 174.474 1374.84 180.205 1395.84 185.615C1421.27 192.159 1447.85 198.385 1474.84 204.119C1516.3 212.874 1567.9 223.771 1619.84 220.687C1648.32 219.031 1669.84 213.809 1683.81 205.168C1712.15 187.68 1706.07 159.069 1701.63 138.178C1700.38 132.315 1699.2 126.778 1698.97 122.311C1698.46 112.384 1698.5 99.2937 1703.47 86.0731C1712.04 63.1638 1733.06 45.2555 1765.94 32.8483C1777.47 28.4771 1790.68 24.6793 1805.22 21.5598C1825.91 17.1165 1849.24 14.1276 1874.59 12.6777C1898.47 11.3123 1923.59 11.3337 1949.28 12.7419C1970.95 13.9564 1992.27 16.1578 2012.63 19.2829C2033.19 22.4397 2052.25 26.4616 2069.3 31.2372C2089.01 36.7553 2107.02 43.3312 2122.81 50.7837C2137.79 57.8463 2150.91 65.7505 2161.81 74.2788C2182.28 90.29 2194.9 108.525 2198.32 127.012L2196.83 127.047C2189.47 87.22 2142.65 52.4522 2068.38 31.6597C2034.71 22.2267 1992.33 15.6959 1949.06 13.2714C1895.71 10.3479 1846.24 13.3728 1806 22.0194C1791.58 25.1131 1778.47 28.8804 1767.03 33.2167C1734.37 45.5416 1713.48 63.3486 1704.95 86.1452C1700 99.3298 1699.96 112.394 1700.47 122.302C1700.7 126.753 1701.88 132.284 1703.12 138.139C1705.42 148.937 1708.02 161.178 1706.53 173.127C1704.8 187.042 1697.79 197.611 1685.11 205.437C1678.28 209.658 1669.66 213.106 1659.46 215.683C1648.4 218.479 1635.16 220.34 1620.09 221.216C1596.73 222.603 1571.58 221.357 1543.21 217.406C1518.55 213.971 1494.93 208.982 1474.08 204.582C1447.05 198.84 1420.43 192.605 1394.97 186.052C1373.94 180.634 1353.3 174.895 1333.61 168.994C1292.94 156.808 1256.88 142.222 1222.01 128.117C1208.63 122.702 1194.78 117.104 1180.84 111.704C1153.28 101.029 1130.9 93.2698 1108.28 86.5463C1058.12 71.6392 1001.5 64.8819 939.988 66.4557C843.061 68.8723 754.025 91.1687 696.4 109.449C654.979 122.645 615.867 138.176 586.27 153.182C563.528 164.712 546.685 176.735 528.852 189.463C526.865 190.881 524.875 192.302 522.873 193.724C518.971 196.496 513.807 200.145 508.463 203.78C487.46 218.08 456.185 234.617 400.298 235.574C398.311 235.606 396.299 235.623 394.274 235.623Z" fill="#12274F"/>
<path d="M400.313 251.309C349.867 251.309 296.937 240.225 250.015 230.397C235.596 227.378 221.977 224.525 209.035 222.113L0 183.159L0.727419 182.66L209.762 221.614C222.739 224.032 236.374 226.888 250.812 229.912C299.547 240.119 354.789 251.688 406.68 250.685C463.024 249.598 492.705 231.827 512.27 216.468C518.668 211.445 524.846 206.333 530.823 201.39C547.169 187.871 564.069 173.891 586.562 160.88C604.423 150.549 626.61 139.714 650.725 129.549C677.179 118.397 705.503 108.165 734.905 99.1388C767.323 89.1876 800.286 80.9556 832.874 74.6725C868.92 67.7237 904.43 63.1869 938.426 61.1872C1006.53 57.1821 1068.47 63.2601 1122.52 79.2544C1167.44 92.5448 1205.61 108.98 1242.54 124.874C1274.67 138.708 1307.9 153.013 1345.53 165.241C1389 179.364 1436.04 192.397 1485.36 203.978C1526.91 213.735 1578.62 225.88 1631.91 223.15C1676.92 220.845 1702.95 210.07 1711.47 190.208C1718.72 173.314 1711.82 153.273 1706.28 137.17C1704.39 131.683 1702.61 126.499 1701.74 122.296C1696.91 99.1242 1699.99 79.9957 1711.15 63.8189C1718.11 53.7257 1728.39 44.7288 1741.7 37.078C1756.56 28.5317 1775.64 21.4071 1798.4 15.9026C1818.1 11.1404 1840.3 7.68178 1864.38 5.62237C1887.31 3.66209 1911.45 3.00529 1936.13 3.66998C1984.67 4.97683 2032.15 11.3489 2069.83 21.611C2089.97 27.0964 2108.25 33.696 2124.17 41.225C2139.26 48.3609 2152.34 56.3766 2163.03 65.0514C2183.18 81.3927 2194.74 99.9894 2196.49 118.829L2194.91 118.849C2191.2 78.7283 2144.08 42.5454 2068.87 22.0605C1989 0.305964 1875.62 -2.08805 1799.28 16.3701C1723.65 34.6547 1692.26 69.2897 1703.3 122.254C1704.17 126.444 1705.96 131.621 1707.84 137.102C1713.39 153.239 1720.31 173.323 1713.02 190.294C1709.06 199.538 1701.08 206.966 1689.33 212.375C1682.71 215.416 1674.74 217.901 1665.63 219.76C1655.94 221.738 1644.67 223.067 1632.13 223.709C1627.01 223.971 1621.8 224.103 1616.5 224.103C1597.19 224.103 1576.61 222.356 1554.07 218.816C1528.68 214.828 1504.18 209.073 1484.49 204.45C1435.11 192.852 1388 179.802 1344.47 165.659C1306.76 153.405 1273.49 139.083 1241.32 125.234C1204.44 109.36 1166.31 92.9459 1121.51 79.6893C1067.82 63.8043 1006.3 57.7657 938.672 61.7437C801.863 69.7899 660.937 118.927 587.891 161.177C565.458 174.152 548.58 188.113 532.256 201.614C526.276 206.56 520.095 211.674 513.69 216.702C500.701 226.899 487.872 234.201 473.318 239.678C464.233 243.096 454.377 245.791 444.023 247.687C432.511 249.795 419.972 250.994 406.753 251.249C404.618 251.289 402.467 251.309 400.313 251.309Z" fill="#12274F"/>
</g>
</svg>
