<svg xmlns="http://www.w3.org/2000/svg" width="1508" height="280" fill="none"><g fill="#12274F" opacity=".3"><path d="M872.028 279.943c-8.14 0-16.063-.229-23.677-.685-15.968-.958-30.721-2.924-43.849-5.844-14.11-3.138-26.485-7.413-36.785-12.707-20.701-10.641-31.058-23.384-41.075-35.707-1.968-2.42-4.002-4.922-6.068-7.35-14.094-16.548-31.961-31.042-54.618-44.313-45.196-26.471-108.757-49.063-183.815-65.332-86.803-18.814-180.131-28.186-262.793-26.39-48.585 1.057-112.779 11.105-141.469 28.266-17.026 10.184-18.399 21.486-3.967 32.682l-.287.048c-7.567-5.872-10.864-11.759-9.796-17.496.98-5.264 5.614-10.409 13.78-15.293 12.986-7.768 34.401-14.652 61.932-19.91 25.441-4.858 53.775-7.845 79.788-8.41 43.26-.94 89.269 1.146 136.748 6.2 43.04 4.581 85.509 11.38 126.228 20.205 75.101 16.278 138.7 38.882 183.922 65.37 22.669 13.279 40.545 27.781 54.649 44.338 2.069 2.428 4.103 4.931 6.068 7.351 10.008 12.315 20.358 25.049 41.031 35.673 19.992 10.277 47.054 16.503 80.43 18.504 46.219 2.771 102.346-3.025 150.134-15.507 68.871-17.986 116.661-44.166 162.881-69.483 8.11-4.437 16.48-9.026 24.78-13.457 21.53-11.506 50.69-26.415 85.35-39.698 35.42-13.576 71.42-23.551 110.05-30.495 23.65-4.251 48.71-7.115 74.48-8.512 23.81-1.291 49.01-1.371 74.91-.24 44.41 1.941 92.26 7.425 146.29 16.762 106.37 18.387 212.62 40.705 315.81 66.335 98.08 24.36 194.28 51.926 285.91 81.928l-.21.083c-189.95-62.193-392.37-112.07-601.65-148.245-118.24-20.437-212.1-22.984-295.4-8.011-84.74 15.231-143.93 42.719-195.28 70.155-8.29 4.43-16.67 9.019-24.77 13.456-46.24 25.326-94.05 51.514-162.962 69.512-22.269 5.817-47.322 10.354-72.447 13.12-13.273 1.461-26.467 2.416-39.22 2.84-5.083.172-10.099.257-15.033.257"/><path d="M879.986 273.633c-20.758 0-39.985-1.414-57.169-4.205-19.161-3.111-35.696-7.933-49.148-14.33a117 117 0 0 1-3.511-1.743c-20.481-10.594-31.297-23.172-41.755-35.335-2.116-2.459-4.301-5.001-6.518-7.469-13.204-14.69-29.103-27.638-48.61-39.581a293 293 0 0 0-7.4-4.38c-45.861-26.244-109.939-48.549-185.305-64.505-87.43-18.493-181.022-27.478-263.536-25.298-48.232 1.288-112.13 11.5-140.943 28.529-17.253 10.197-19.205 21.521-5.652 32.75l-.29.045c-7.104-5.885-10.023-11.783-8.672-17.527 1.24-5.276 6.065-10.433 14.343-15.327 13.119-7.754 34.472-14.646 61.744-19.931 25.208-4.885 53.419-7.957 79.441-8.651 43.207-1.142 89.266.744 136.897 5.604 43.143 4.403 85.814 11.034 126.826 19.709 75.41 15.965 139.522 38.284 185.411 64.543a290 290 0 0 1 7.403 4.382c19.521 11.951 35.429 24.906 48.639 39.605 2.22 2.467 4.405 5.009 6.521 7.469 10.454 12.156 21.262 24.724 41.714 35.304 1.137.588 2.317 1.174 3.505 1.739 27.798 13.223 65.995 18.603 106.162 18.603h.658zm8.568-.079c37.343-.686 75.876-5.82 108.934-13.457 71.312-16.542 122.552-42.091 172.122-66.798q3.06-1.528 6.12-3.051c4.48-2.231 9.79-4.872 15.21-7.534 24.33-11.938 53.77-25.829 87.67-38.332 36.08-13.304 72.12-23.176 110.18-30.183 23.39-4.3 48.1-7.329 73.46-9.004 23.49-1.551 48.32-1.989 73.79-1.303 43.99 1.186 91.29 5.684 144.61 13.75 51.98 7.852 94.72 15.244 134.48 23.262 56.33 11.37 109.98 24.47 155.04 35.784 104.75 26.38 207.53 56.335 305.49 89.034l-.22.082c-97.94-32.694-200.71-62.647-305.45-89.024-45.05-11.313-98.7-24.411-155.01-35.777-39.76-8.016-82.47-15.405-134.45-23.255-116.15-17.573-208.81-18.669-291.6-3.447-85.92 15.815-147.12 43.641-197.73 68.481-5.43 2.662-10.73 5.302-15.22 7.533q-3.06 1.523-6.12 3.051c-49.58 24.715-100.84 50.273-172.202 66.828-17.694 4.087-36.521 7.334-55.963 9.649-18.097 2.153-35.935 3.398-53.141 3.711"/><path d="M888.761 267.467q-3.746 0-7.44-.059c-20.739-.328-39.932-2.03-57.043-5.062-18.714-3.315-34.928-8.226-48.188-14.597a129 129 0 0 1-3.486-1.745c-20.251-10.543-31.518-22.952-42.41-34.951-2.27-2.501-4.619-5.088-7-7.598-13.855-14.641-30.173-27.486-49.891-39.268a312 312 0 0 0-7.514-4.342c-46.525-26.015-111.119-48.034-186.794-63.677-88.053-18.172-181.91-26.77-264.279-24.207-46.377 1.466-110.09 11.096-140.382 28.774-17.502 10.214-20.05 21.569-7.369 32.837l-.292.042c-6.645-5.904-9.18-11.815-7.542-17.569 1.505-5.293 6.53-10.463 14.935-15.368 13.257-7.737 34.541-14.631 61.552-19.941 24.971-4.909 53.053-8.064 79.07-8.887 43.156-1.341 89.265.344 137.044 5.01 43.25 4.225 86.12 10.688 127.421 19.212 75.719 15.653 140.347 37.685 186.901 63.715a301 301 0 0 1 7.516 4.345c19.728 11.789 36.056 24.641 49.917 39.29 2.381 2.511 4.73 5.098 7 7.599 10.889 11.993 22.147 24.393 42.372 34.923 1.134.591 2.302 1.176 3.48 1.742 53.881 25.887 149.369 23.108 220.097 8.871 74.284-15.084 129.484-40.154 182.874-64.399l.55-.249c5.17-2.35 10.51-4.779 15.84-7.177 56.15-25.303 117.87-51.308 200.28-66.838 23.14-4.351 47.51-7.546 72.44-9.496 23.2-1.814 47.65-2.61 72.68-2.367 43.64.424 90.39 3.937 142.94 10.739 55.22 7.123 96.77 13.671 134.73 21.232 54.09 10.794 106.49 24.433 152.71 36.468 102.93 26.938 204.14 57.284 300.84 90.193l-.22.081c-96.69-32.906-197.89-63.248-300.8-90.184-46.22-12.032-98.61-25.67-152.68-36.46-37.95-7.559-79.49-14.104-134.69-21.225-113.89-14.745-205.34-14.39-287.8 1.117-82.36 15.52-144.06 41.513-200.19 66.807a6158 6158 0 0 0-15.84 7.178l-.55.249c-26.6 12.082-54.11 24.574-83.82 35.733-33.38 12.54-65.81 21.926-99.143 28.694-34.871 7.018-72.857 10.815-107.826 10.815"/><path d="M2268.77 263.68c-95.44-33.118-195.08-63.85-296.16-91.343q-6.42-1.735-12.87-3.483c-43.79-11.854-89.06-24.111-137.47-33.66-46.97-9.238-94.57-14.887-134.93-19.194-111.44-11.962-201.68-10.156-284.01 5.681-84.52 16.307-150.02 43.38-202.64 65.135-3.16 1.305-6.31 2.613-9.47 3.922q-3.495 1.451-6.99 2.899c-29.97 12.399-57.22 23.485-87.33 33.601-34.4 11.555-67.56 20.018-101.379 25.873-31.691 5.488-65.545 8.391-97.034 8.392-5.737 0-11.39-.096-16.944-.29-20.279-.711-39.053-2.709-55.799-5.938-18.273-3.523-34.166-8.527-47.244-14.874a128 128 0 0 1-3.46-1.749c-20.012-10.487-31.716-22.722-43.033-34.553-2.438-2.549-4.96-5.185-7.511-7.743-14.516-14.596-31.256-27.337-51.169-38.955a319 319 0 0 0-7.627-4.304c-47.193-25.787-112.3-47.52-188.28-62.851-88.677-17.85-182.795-26.06-265.02-23.118C156.189 69.18 98.708 81.106 72.616 96.13c-17.775 10.235-20.927 21.626-9.122 32.942l-.296.039c-6.181-5.925-8.335-11.854-6.402-17.623 1.78-5.312 7.013-10.499 15.553-15.418 13.395-7.713 34.609-14.608 61.35-19.937 24.732-4.929 52.669-8.167 78.67-9.115 43.105-1.544 89.262-.058 137.189 4.415 43.354 4.047 86.428 10.343 128.019 18.715 76.028 15.34 141.169 37.085 188.39 62.888a309 309 0 0 1 7.63 4.307c19.927 11.624 36.673 24.372 51.199 38.974 2.55 2.56 5.073 5.195 7.51 7.744 11.311 11.825 23.009 24.052 42.995 34.527 1.128.59 2.289 1.177 3.455 1.745 56.249 27.302 151.853 23.892 216.63 12.677 77.284-13.382 136.424-37.854 188.604-59.446 2.33-.967 4.66-1.934 7-2.899 3.15-1.309 6.31-2.617 9.47-3.923 30.03-12.417 59.7-24.484 92.31-35.604 37.5-12.788 73.62-22.455 110.41-29.555 22.89-4.404 46.92-7.764 71.42-9.987 22.9-2.079 46.98-3.232 71.57-3.43 43.36-.35 89.57 2.178 141.26 7.727 40.38 4.309 88 9.96 134.99 19.204 48.44 9.552 93.72 21.813 137.51 33.669 4.3 1.165 8.59 2.327 12.88 3.483 101.08 27.495 200.73 58.231 296.18 91.352z"/><path d="M2265.43 262.619c-95.97-33.962-194.05-65.086-291.5-92.504-5.83-1.64-11.79-3.331-17.56-4.966-41.32-11.707-84.04-23.814-130.44-32.859-46.34-9-94.34-13.728-135.18-17.164-108.72-9.234-197.77-5.978-280.22 10.247-78.65 15.532-140.26 38.889-199.85 61.476l-6.54 2.479c-5.17 1.96-10.51 3.984-15.78 5.97-59.65 22.458-119.36 43.506-193.897 54.272a608 608 0 0 1-55.207 5.384c-19.917 1.031-39.264 1.045-57.506.043-19.813-1.09-38.162-3.378-54.536-6.802-17.82-3.725-33.394-8.821-46.286-15.143a141 141 0 0 1-3.436-1.752c-19.765-10.426-31.892-22.48-43.618-34.138-2.617-2.602-5.325-5.292-8.059-7.905-15.19-14.55-32.345-27.189-52.448-38.64a328 328 0 0 0-7.74-4.267c-47.857-25.558-113.478-47.005-189.77-62.024C386.554 66.8 292.171 58.976 210.088 62.3 154.39 64.604 97.171 76.614 70.947 91.506c-18.072 10.261-21.847 21.696-10.92 33.069l-.3.037c-5.718-5.95-7.485-11.902-5.252-17.688 2.06-5.335 7.51-10.542 16.201-15.476 13.54-7.688 34.679-14.576 61.136-19.92 24.486-4.948 52.272-8.263 78.238-9.338 43.056-1.744 89.26-.459 137.338 3.82 43.461 3.869 86.733 9.998 128.617 18.218 76.336 15.027 141.995 36.487 189.88 62.06a326 326 0 0 1 7.743 4.27c20.116 11.456 37.28 24.102 52.477 38.66 2.733 2.613 5.442 5.304 8.058 7.905 11.721 11.652 23.841 23.701 43.584 34.114 1.115.588 2.271 1.176 3.43 1.748 54.895 26.922 146.107 26.166 213.163 16.481 74.48-10.757 134.16-31.797 193.78-54.244 5.27-1.987 10.62-4.011 15.78-5.97l6.55-2.48c29.25-11.087 59.49-22.552 92.34-33.217 37.2-12.08 72.39-21.33 107.58-28.281 22.66-4.459 46.35-7.986 70.41-10.48 22.62-2.346 46.32-3.857 70.45-4.494 43.17-1.139 88.82.404 139.59 4.716 40.86 3.438 88.88 8.167 135.25 17.175 46.43 9.049 89.16 21.158 130.49 32.869 5.77 1.635 11.73 3.325 17.56 4.966 97.47 27.421 195.55 58.546 291.53 92.512z"/><path d="M2262.09 261.558c-95.15-34.34-191.66-65.853-286.85-93.663-7.16-2.089-14.49-4.263-21.58-6.364-39.09-11.581-79.51-23.557-124.1-32.143-46.11-8.846-94.33-12.614-135.42-15.133-105.7-6.581-193.54-1.874-276.42 14.811-72.33 14.622-131.72 35.345-189.15 55.385a9291 9291 0 0 1-18.39 6.401 4129 4129 0 0 1-17.71 6.11c-27.3 9.334-59.81 20.083-93.93 29.024-36.15 9.474-70.55 16.03-105.152 20.045a633 633 0 0 1-54.971 3.957c-19.627.552-38.631.147-56.479-1.206-19.338-1.466-37.258-4.045-53.27-7.665-17.363-3.925-32.614-9.112-45.329-15.414a143 143 0 0 1-3.41-1.754c-19.505-10.356-32.038-22.224-44.161-33.702-2.812-2.662-5.718-5.414-8.65-8.088-15.874-14.509-33.448-27.045-53.73-38.325a340 340 0 0 0-7.853-4.231c-48.522-25.329-114.659-46.49-191.26-61.197-89.923-17.205-184.57-24.64-266.509-20.935-46.622 2.154-107.516 12.077-138.458 29.388-18.396 10.293-22.81 21.78-12.762 33.218l-.3.034c-5.255-5.981-6.628-11.959-4.084-17.768 2.35-5.361 8.027-10.59 16.882-15.544 13.685-7.657 34.745-14.534 60.909-19.89 24.241-4.96 51.86-8.352 77.776-9.55 43.005-1.944 89.259-.86 137.482 3.226 43.565 3.69 87.039 9.652 129.212 17.722 76.645 14.715 142.82 35.888 191.37 61.232a332 332 0 0 1 7.856 4.234c20.292 11.286 37.876 23.828 53.759 38.344 2.935 2.675 5.841 5.427 8.653 8.089 12.114 11.473 24.643 23.334 44.126 33.679a149 149 0 0 0 3.407 1.751c45.669 22.637 124.061 30.222 209.696 20.286 77.55-8.997 140.81-29.162 198.96-49.044 5.1-1.744 10.56-3.629 17.71-6.109 6.09-2.113 12.34-4.293 18.39-6.402 28.27-9.865 57.51-20.067 88.69-29.619 35.26-10.803 68.15-19.237 100.53-25.782 22.44-4.518 45.78-8.21 69.38-10.972 22.36-2.617 45.68-4.486 69.34-5.558 43.06-1.949 88.17-1.391 137.91 1.705 41.11 2.521 89.36 6.291 135.51 15.145 44.62 8.591 85.05 20.57 124.15 32.155 7.09 2.101 14.42 4.274 21.58 6.364 95.19 27.814 191.71 59.329 286.87 93.671z"/><path d="M2258.75 260.497c-94.32-34.72-189.27-66.624-282.2-94.823-7.91-2.399-16.03-4.917-23.88-7.352-37.41-11.597-76.09-23.588-119.46-31.838-46.15-8.74-94.47-11.529-135.66-13.104-100.92-3.962-190.1 2.376-272.64 19.377-65.72 13.598-122.05 31.789-176.54 49.382-11 3.553-22.38 7.228-33.44 10.731-6.77 2.143-12.76 4.026-18.34 5.754-25.92 8.028-60.39 18.322-97.24 26.734-37.02 8.452-72.03 14.057-107.035 17.134-38.181 3.356-76.286 3.38-110.194.073-18.852-1.84-36.348-4.708-52.001-8.526-16.9-4.122-31.826-9.399-44.368-15.682a156 156 0 0 1-3.385-1.757c-19.228-10.277-32.151-21.95-44.646-33.239-3.023-2.731-6.146-5.554-9.298-8.297-16.57-14.471-34.563-26.906-55.009-38.012a349 349 0 0 0-7.967-4.193c-49.186-25.1-115.836-45.976-192.745-60.368-90.544-16.882-185.456-23.93-267.252-19.845-55.434 2.827-110.782 14.702-137.725 29.546-18.748 10.33-23.815 21.876-14.652 33.391l-.302.03c-4.79-6.017-5.766-12.026-2.903-17.86 2.645-5.391 8.565-10.648 17.593-15.623 13.83-7.62 34.808-14.481 60.667-19.842 23.985-4.972 51.431-8.437 77.278-9.755 42.954-2.145 89.259-1.26 137.63 2.63 43.672 3.513 87.347 9.309 129.811 17.226 76.953 14.401 143.641 35.289 192.859 60.405a354 354 0 0 1 7.969 4.195c20.456 11.113 38.458 23.553 55.037 38.031 3.152 2.743 6.276 5.567 9.299 8.298 12.489 11.283 25.406 22.951 44.614 33.218 1.108.593 2.245 1.182 3.382 1.754 44.885 22.491 121.98 31.497 206.232 24.092 76.811-6.751 143.511-25.062 204.141-43.842 5.57-1.729 11.57-3.61 18.34-5.754 11.06-3.502 22.44-7.176 33.44-10.73 54.49-17.596 110.84-35.791 176.59-49.395 22.25-4.582 45.25-8.438 68.37-11.464 22.12-2.893 45.07-5.121 68.22-6.62 43.06-2.789 87.62-3.216 136.24-1.307 41.21 1.576 89.58 4.365 135.78 13.116 43.4 8.255 82.09 20.251 119.51 31.853 7.86 2.435 15.98 4.952 23.88 7.35 92.94 28.202 187.9 60.108 282.22 94.83z"/><path d="M2255.41 259.435c-93.49-35.102-186.87-67.395-277.55-95.982-8.33-2.627-16.91-5.409-25.19-8.099-36.05-11.695-73.31-23.789-115.81-31.774-46.35-8.665-94.71-10.46-135.91-11.073-97.1-1.55-185.04 6.281-268.84 23.941-58.77 12.445-111.16 28.194-161.82 43.425-17.42 5.237-33.88 10.184-50.62 15.014-6.81 1.966-13.01 3.732-18.96 5.399-38.4 10.742-70.35 18.509-100.55 24.441-37.88 7.444-73.51 12.096-108.913 14.223a683 683 0 0 1-40.858 1.236c-23.818 0-46.865-1.288-68.082-3.841-38.398-4.621-70.07-13.145-94.137-25.339a170 170 0 0 1-3.36-1.759c-18.935-10.188-32.22-21.655-45.068-32.745-3.256-2.81-6.619-5.714-10.01-8.538-17.278-14.438-35.693-26.768-56.287-37.697a357 357 0 0 0-8.08-4.156c-49.851-24.872-117.017-45.462-194.235-59.542-91.165-16.558-186.338-23.218-267.992-18.754C147.474 50.92 93.722 62.57 66.204 77.492c-19.13 10.373-24.867 21.988-16.598 33.591l-.306.028c-4.317-6.059-4.89-12.104-1.7-17.968 2.953-5.428 9.122-10.714 18.342-15.713 13.975-7.578 34.862-14.417 60.406-19.777 23.727-4.98 50.981-8.512 76.742-9.95 42.904-2.346 89.26-1.66 137.775 2.036 43.78 3.336 87.654 8.964 130.41 16.729 77.262 14.089 144.466 34.69 194.348 59.576a373 373 0 0 1 8.083 4.158c20.607 10.935 39.031 23.273 56.316 37.715 3.391 2.825 6.757 5.73 10.01 8.54 12.841 11.085 26.12 22.547 45.039 32.725 1.096.59 2.223 1.181 3.357 1.758 44.941 22.771 118.846 32.939 202.765 27.898 79.887-4.799 150.637-22.227 209.327-38.642 5.95-1.667 12.15-3.432 18.95-5.398 16.74-4.83 33.19-9.775 50.61-15.013 50.68-15.234 103.08-30.986 161.87-43.435 22.07-4.653 44.73-8.674 67.35-11.955 21.9-3.177 44.48-5.763 67.1-7.684 43.15-3.662 87.16-5.075 134.56-4.318 41.24.613 89.64 2.41 136.04 11.086 42.54 7.99 79.82 20.089 115.87 31.789 8.3 2.69 16.87 5.472 25.2 8.098 90.68 28.59 184.07 60.886 277.56 95.99z"/><path d="M2252.07 258.373c-93.94-35.988-183.21-67.763-272.89-97.143-8.56-2.803-16.99-5.665-25.91-8.696-34.87-11.847-70.92-24.097-112.76-31.858-46.93-8.662-97.42-9.383-136.16-9.043-92.68.708-179.37 10.032-265.04 28.508-51.4 11.138-98.86 24.514-144.76 37.451-24.12 6.799-46.9 13.219-70.13 19.313-6.9 1.811-13.31 3.46-19.59 5.043-38.92 9.797-71.92 16.833-103.86 22.146-38.76 6.449-75 10.15-110.792 11.315-18.39.598-36.653.485-54.284-.335-18.667-.868-36.635-2.535-53.403-4.951-37.166-5.357-68.086-14.261-91.901-26.465a185 185 0 0 1-3.335-1.762c-18.616-10.083-32.235-21.331-45.407-32.208-3.514-2.902-7.148-5.904-10.804-8.822-18.002-14.405-36.833-26.633-57.569-37.382a393 393 0 0 0-8.19-4.119C614.77 94.722 547.09 74.418 469.564 60.65c-71.556-12.655-145.348-19.258-213.015-19.258-19.13 0-37.756.527-55.72 1.594-54.993 3.33-108.408 15.021-136.087 29.784-19.536 10.421-25.97 22.115-18.604 33.817l-.309.025c-3.845-6.106-4.005-12.193-.479-18.091 3.27-5.467 9.706-10.788 19.127-15.814 14.12-7.531 34.91-14.341 60.126-19.696 23.802-5.055 50.143-8.56 76.169-10.135 42.854-2.546 89.259-2.06 137.923 1.44 43.883 3.157 87.962 8.618 131.007 16.232 77.571 13.776 145.292 34.09 195.838 58.748a382 382 0 0 1 8.197 4.121c20.745 10.755 39.585 22.989 57.597 37.401 3.656 2.918 7.293 5.919 10.807 8.822 13.165 10.873 26.778 22.117 45.379 32.192 1.089.589 2.21 1.182 3.331 1.759 44.536 22.822 117.175 34.376 199.302 31.704 83.107-2.705 158.287-19.293 214.507-33.442a2119 2119 0 0 0 19.58-5.041c23.23-6.092 46.01-12.513 70.12-19.311 45.91-12.938 93.37-26.318 144.79-37.46 44.11-9.511 87.39-16.443 132.32-21.193 43.34-4.581 86.81-6.978 132.88-7.33 26.29-.231 47.74.17 67.5 1.261 25.52 1.408 48.02 3.958 68.81 7.795 41.88 7.768 77.95 20.024 112.84 31.877 8.91 3.03 17.34 5.892 25.89 8.695 89.69 29.38 178.96 61.158 272.92 97.148z"/><path d="M2248.73 257.312c-93.09-36.382-180.83-68.536-268.25-98.303-8.64-2.945-17.17-5.979-26.2-9.191-33.82-12.034-68.8-24.48-110.13-32.046-47.31-8.622-97.74-8.277-136.39-7.014-87.47 2.759-172.92 13.578-261.26 33.072-43.53 9.652-84.97 20.697-125.04 31.379-31.68 8.444-61.6 16.42-92.3 23.711-6.94 1.649-13.74 3.226-20.21 4.686-39 8.792-74.06 15.285-107.17 19.85-39.66 5.466-76.51 8.217-112.675 8.409-18.399.097-36.59-.498-54.057-1.77-18.311-1.334-35.933-3.419-52.376-6.2-35.892-6.069-66.061-15.351-89.669-27.589a199 199 0 0 1-3.309-1.765c-18.267-9.961-32.182-20.971-45.641-31.618-3.807-3.013-7.746-6.129-11.704-9.158-18.74-14.379-37.989-26.504-58.847-37.069a402 402 0 0 0-8.304-4.081C614.018 88.2 545.822 68.183 467.987 54.727 375.585 38.819 279.88 32.934 198.509 38.155c-54.281 3.543-107.34 15.264-135.174 29.859C43.358 78.49 36.21 90.272 42.659 102.088l-.308.021c-3.364-6.159-3.105-12.293.771-18.232 3.6-5.512 10.31-10.871 19.952-15.927 14.258-7.478 34.943-14.254 59.82-19.598 23.528-5.053 49.655-8.618 75.558-10.309 42.806-2.746 89.259-2.462 138.068.846a1295 1295 0 0 1 131.603 15.735c77.882 13.463 146.116 33.493 197.324 57.922a390 390 0 0 1 8.31 4.084c20.871 10.571 40.126 22.701 58.875 37.085 3.961 3.029 7.897 6.146 11.708 9.159 13.452 10.643 27.361 21.649 45.615 31.602 1.086.593 2.201 1.187 3.306 1.764 45.005 23.329 114.555 35.942 195.838 35.51 65.951-.349 135.761-9.324 219.681-28.242 6.47-1.46 13.27-3.036 20.2-4.685 30.69-7.289 60.61-15.263 92.29-23.707 40.08-10.684 81.52-21.731 125.06-31.385 44.54-9.829 87.13-17.269 130.19-22.748 43.64-5.55 86.55-8.933 131.21-10.341 38.69-1.265 89.18-1.609 136.57 7.026 41.37 7.576 76.36 20.027 110.2 32.067 9.03 3.212 17.56 6.244 26.2 9.188 87.42 29.768 175.17 61.925 268.26 98.309z"/><path d="M2245.39 256.251c-92.22-36.777-178.44-69.312-263.59-99.462-8.65-3.061-17.18-6.242-26.22-9.609-32.87-12.249-66.85-24.916-107.78-32.311-47.76-8.59-98.11-7.176-136.64-4.985-82.29 4.591-164.1 16.551-257.46 37.639-35.02 7.944-69.24 16.66-102.33 25.088-40.19 10.236-78.16 19.905-117.47 28.327-7.08 1.518-14.09 2.976-20.83 4.33-39.7 7.97-75.84 13.711-110.49 17.55-19.4 2.151-38.56 3.709-56.94 4.632-19.6.983-38.98 1.278-57.604.874-37.784-.819-73.171-4.404-105.177-10.654-34.566-6.751-63.983-16.41-87.433-28.712a280 280 0 0 1-3.287-1.768c-17.877-9.814-32.041-20.563-45.735-30.957-4.148-3.146-8.433-6.4-12.744-9.566-19.495-14.355-39.163-26.377-60.129-36.754a411 411 0 0 0-8.417-4.044c-51.844-24.187-120.553-43.918-198.697-57.06-93.019-15.582-188.985-21.08-270.221-15.481C109.213 39.414 24.454 65.715 39.19 97.592l-.311.018c-3.688-7.974-1.527-15.83 6.417-23.351 7.255-6.869 19.161-13.333 35.388-19.212 15.086-5.466 33.186-10.185 53.793-14.027 19.599-3.654 40.92-6.353 61.656-7.804 42.756-2.946 89.259-2.862 138.215.252a1304 1304 0 0 1 132.201 15.24C544.737 61.858 613.488 81.6 665.363 105.8a411 411 0 0 1 8.423 4.047c20.975 10.382 40.653 22.41 60.157 36.771 4.311 3.166 8.597 6.419 12.744 9.567 13.692 10.391 27.849 21.135 45.716 30.943 1.077.59 2.179 1.185 3.281 1.767 45.071 23.642 113.39 37.604 192.371 39.317 66.865 1.447 140.415-6.088 224.865-23.041 6.74-1.355 13.74-2.811 20.82-4.33 39.3-8.419 77.26-18.087 117.45-28.323 33.09-8.429 67.31-17.145 102.34-25.091 93.4-21.097 175.25-33.061 257.58-37.655 25.89-1.473 47.33-1.944 67.46-1.481 25.75.592 48.43 2.71 69.37 6.476 40.97 7.403 74.98 20.077 107.87 32.333 9.03 3.366 17.56 6.547 26.21 9.607 85.15 30.152 171.38 62.688 263.6 99.468z"/><path d="M2242.06 255.19c-91.35-37.179-176.05-70.092-258.94-100.623-8.58-3.159-17.06-6.468-26.03-9.973-31.98-12.484-65.05-25.393-105.64-32.629-48.8-8.663-101.49-5.836-136.88-2.957-96.06 7.72-182.14 25.667-253.67 42.206-25.71 5.969-51.36 12.291-76.16 18.405-49.76 12.266-96.75 23.85-146.08 33.336-7.26 1.396-14.48 2.733-21.46 3.976-40.47 7.187-77.7 12.175-113.8 15.249-40.92 3.484-80.09 4.361-116.424 2.603-37.327-1.806-72.293-6.294-103.921-13.341-33.174-7.391-61.838-17.427-85.203-29.832a296 296 0 0 1-3.263-1.771c-17.432-9.634-31.772-20.088-45.643-30.198-4.544-3.313-9.245-6.738-13.969-10.071-20.546-14.536-40.06-26.114-61.407-36.44a419 419 0 0 0-8.53-4.007C612.525 75.166 543.299 55.72 464.847 42.89 371.211 27.634 274.98 22.523 193.882 28.499c-87.294 6.517-170.322 32.46-158.16 64.596l-.312.015c-3.017-7.973-.406-15.82 7.756-23.325 7.481-6.876 19.457-13.347 35.598-19.232 15.052-5.489 33.057-10.243 53.519-14.133 19.482-3.705 40.763-6.482 61.536-8.033 42.709-3.146 89.26-3.261 138.361-.342 44.204 2.627 88.884 7.587 132.799 14.742 78.5 12.838 147.763 32.294 200.303 56.266a441 441 0 0 1 8.537 4.009c21.359 10.331 40.879 21.916 61.435 36.457 4.724 3.334 9.425 6.76 13.969 10.073 13.868 10.107 28.205 20.557 45.625 30.186 1.073.592 2.169 1.187 3.259 1.77 45.42 24.113 112.508 39.428 188.907 43.124 68.516 3.314 143.766-2.523 230.046-17.842 6.98-1.242 14.2-2.578 21.45-3.974 49.31-9.484 96.3-21.066 146.05-33.33 24.8-6.114 50.45-12.438 76.16-18.408 48.11-11.12 88.12-19.337 125.93-25.856 44.51-7.674 86.32-13.027 127.85-16.364 25.31-2.059 47.37-2.992 67.44-2.85 25.85.182 48.63 2.084 69.65 5.815 40.64 7.245 73.73 20.163 105.73 32.655 8.97 3.503 17.44 6.812 26.02 9.969 82.9 30.532 167.6 63.447 258.95 100.627z"/><path d="M2238.71 254.127c-90.46-37.581-173.64-70.874-254.29-101.783-8.45-3.241-16.82-6.665-25.69-10.29-31.13-12.735-63.32-25.904-103.63-32.994-49.34-8.642-101.89-4.669-137.13-.927-87.03 9.16-164.66 26.602-249.88 46.772-15.37 3.651-30.91 7.419-45.95 11.065-57.83 14.019-117.62 28.515-178.74 39.002-7.43 1.275-14.86 2.493-22.09 3.619-40.74 6.345-80.14 10.701-117.1 12.946-41.87 2.544-81.67 2.444-118.313-.296-36.804-2.752-71.345-8.145-102.664-16.029-31.694-7.979-59.612-18.392-82.977-30.95-1.08-.584-2.17-1.181-3.237-1.773-16.907-9.409-31.338-19.522-45.294-29.302-5.029-3.524-10.228-7.168-15.452-10.713-21.35-14.521-41.27-25.999-62.689-36.125a438 438 0 0 0-8.644-3.97C611.771 68.647 542.035 49.488 463.268 36.97c-94.251-14.928-190.743-19.652-271.708-13.3-84.524 6.703-169.085 31.736-159.32 64.928l-.312.011c-2.346-7.973.715-15.812 9.095-23.3 7.705-6.883 19.753-13.36 35.806-19.251 29.619-10.87 71.411-19.07 114.662-22.5 42.658-3.346 89.259-3.661 138.508-.937 44.312 2.451 89.19 7.244 133.395 14.246 78.811 12.524 148.588 31.695 201.792 55.438a441 441 0 0 1 8.65 3.973c21.428 10.131 41.358 21.615 62.714 36.141 5.224 3.546 10.426 7.19 15.455 10.714 13.953 9.778 28.381 19.889 45.278 29.292 1.065.593 2.154 1.189 3.234 1.773 46.746 25.125 110.871 41.353 185.44 46.931 69.053 5.165 148.193.912 235.223-12.641 7.23-1.127 14.65-2.344 22.07-3.618 61.1-10.483 120.89-24.976 178.7-38.993 15.04-3.646 30.59-7.415 45.96-11.066 37.3-8.829 80.71-18.956 123.79-27.411 45.07-8.844 86.34-15.181 126.17-19.374 25.08-2.662 47.14-4.043 67.43-4.221 25.59-.226 49.12 1.509 69.93 5.155 18.06 3.176 36.23 7.915 55.56 14.49 17.07 5.805 32.88 12.274 48.17 18.529 8.86 3.624 17.23 7.048 25.69 10.288 80.65 30.911 163.83 64.205 254.3 101.787z"/><path d="M2235.38 253.067c-89.58-37.986-171.23-71.659-249.64-102.942-8.31-3.313-16.53-6.84-25.24-10.574-30.32-12.999-61.67-26.442-101.75-33.392-37.46-6.474-82.39-6.114-137.37 1.102-76.87 10.032-145.59 26.813-218.34 44.581-9.06 2.212-18.43 4.499-27.75 6.758l-10.95 2.663c-69.32 16.864-141 34.303-216.19 45.729-7.6 1.156-15.24 2.254-22.71 3.264-41.64 5.625-82.15 9.205-120.4 10.64-42.84 1.607-83.28.532-120.199-3.195-36.232-3.658-70.347-9.956-101.399-18.718-30.097-8.494-57.266-19.282-80.754-32.068a367 367 0 0 1-3.211-1.776c-16.265-9.113-30.649-18.819-44.564-28.205-5.633-3.801-11.462-7.731-17.316-11.557-22.175-14.511-42.498-25.89-63.967-35.811a456 456 0 0 0-8.757-3.933c-53.844-23.502-124.096-42.376-203.172-54.58C366.84 16.451 270.08 12.113 189.25 18.842c-82.971 6.963-167.412 32.2-160.475 65.26l-.315.009c-1.672-7.974 1.836-15.804 10.432-23.272 7.932-6.892 20.05-13.376 36.018-19.273 29.492-10.892 71.14-19.214 114.268-22.834 42.611-3.546 89.259-4.062 138.653-1.532 44.419 2.273 89.502 6.9 133.996 13.748 79.12 12.212 149.416 31.096 203.282 54.61 2.96 1.293 5.91 2.618 8.763 3.936 21.479 9.926 41.815 21.309 63.996 35.825 5.857 3.826 11.682 7.758 17.319 11.559 13.909 9.384 28.293 19.087 44.551 28.197 1.061.593 2.138 1.19 3.209 1.775 47.759 25.997 110.684 43.542 181.976 50.739 70.377 7.104 151.257 4.6 240.407-7.443 7.46-1.009 15.09-2.106 22.69-3.261 75.17-11.422 146.84-28.857 216.14-45.719l10.95-2.663c9.32-2.259 18.69-4.546 27.75-6.757 72.77-17.771 141.5-34.556 218.41-44.593 24.84-3.26 46.89-5.089 67.41-5.592 25.68-.63 49.3.883 70.2 4.495 17.96 3.112 35.9 7.873 54.88 14.555 16.73 5.896 32.11 12.49 46.99 18.866 8.7 3.733 16.92 7.259 25.22 10.57 78.42 31.284 160.08 64.958 249.65 102.946z"/><path d="M2232.04 252.006a19448 19448 0 0 0-244.99-104.103c-8.23-3.409-16.38-7.072-25.01-10.949-28.07-12.611-59.89-26.904-99.64-33.698-37.9-6.463-82.91-5.44-137.62 3.129-65.05 10.156-122.62 25.087-183.57 40.896-19.08 4.95-38.82 10.07-58.73 15.009-34.74 8.64-72.33 17.783-111.74 26.109-42.19 8.918-80.75 15.659-117.86 20.609-7.79 1.04-15.64 2.019-23.33 2.908-42.52 4.915-84.13 7.713-123.68 8.314-43.78.665-84.86-1.377-122.106-6.072-68.779-8.779-128.892-27.146-178.667-54.592a412 412 0 0 1-3.186-1.779c-15.439-8.71-29.572-17.9-43.238-26.788-6.433-4.183-13.084-8.509-19.775-12.719-23.019-14.507-43.751-25.787-65.246-35.497a471 471 0 0 0-8.871-3.895C610.283 55.612 539.514 37.025 460.13 25.133 364.655 10.86 267.633 6.91 186.936 14.013c-83.475 7.39-165.8 32.293-161.634 65.593l-.315.005c-.998-7.977 2.963-15.797 11.77-23.246 8.162-6.9 20.349-13.392 36.226-19.293 14.957-5.56 32.685-10.421 52.69-14.45 19.423-3.91 40.008-6.844 61.184-8.719 42.564-3.746 89.263-4.462 138.801-2.127 44.526 2.099 89.808 6.557 134.592 13.252 79.431 11.9 150.241 30.497 204.771 53.784a483 483 0 0 1 8.877 3.898c21.504 9.716 42.246 21 65.274 35.511 6.691 4.212 13.342 8.538 19.775 12.722 13.666 8.887 27.795 18.075 43.228 26.783a411 411 0 0 0 3.184 1.778c49.737 27.425 109.796 45.777 178.509 54.547 70.782 8.922 155.702 8.147 245.592-2.243 7.68-.889 15.52-1.867 23.31-2.906 82.97-11.066 158.89-29.14 229.53-46.705 19.91-4.939 39.64-10.058 58.73-15.009 60.96-15.811 118.54-30.747 183.62-40.906 54.79-8.583 99.9-9.607 137.88-3.129 17.8 3.043 35.48 7.813 54.04 14.581 16.37 5.967 31.29 12.669 45.72 19.149 8.63 3.877 16.78 7.539 25 10.945a19463 19463 0 0 1 244.99 104.106z"/><path d="M2228.7 250.945a37209 37209 0 0 0-240.34-105.264c-7.97-3.446-15.87-7.173-24.25-11.118-27.38-12.905-58.42-27.533-98.07-34.212-38.35-6.452-83.44-4.765-137.86 5.157-57.02 10.381-109.4 25.038-160.06 39.214-25.41 7.107-51.68 14.457-78.44 21.258-42.25 10.746-77.79 18.943-111.87 25.798-42.01 8.453-81.33 14.749-120.18 19.246-7.98.924-16.04 1.782-23.96 2.552-41.26 4.007-81.78 6.035-120.55 6.036-2.15 0-4.29-.007-6.43-.019-44.82-.262-86.53-3.283-123.994-8.979-18.081-2.765-35.787-6.274-52.624-10.431-15.827-3.907-31.379-8.509-46.227-13.678-26.712-9.299-51.683-20.516-76.333-34.288a660 660 0 0 1-3.161-1.782c-14.303-8.127-27.833-16.621-40.917-24.836-7.554-4.742-15.364-9.646-23.23-14.42-24.218-14.706-44.733-25.558-66.527-35.182a487 487 0 0 0-8.984-3.859c-55.16-23.044-126.442-41.344-206.135-52.925C362.472 5.267 265.186 1.706 184.621 9.184c-81.91 7.625-164.128 32.718-162.79 65.924l-.315.001c-.623-15.467 16.51-30.174 49.545-42.532 14.933-5.586 32.567-10.482 52.418-14.556 19.315-3.963 39.859-6.973 61.063-8.947 42.514-3.947 89.263-4.863 138.947-2.722 44.632 1.923 90.115 6.214 135.186 12.755 79.743 11.589 151.066 29.9 206.261 52.958a496 496 0 0 1 8.99 3.861c21.803 9.63 42.327 20.485 66.552 35.197 7.866 4.775 15.679 9.679 23.23 14.421 13.084 8.214 26.611 16.707 40.911 24.831q1.572.894 3.158 1.781c52.379 29.267 109.636 48.355 175.042 58.354 90.591 13.776 186.371 9.212 250.771 2.958 7.91-.77 15.97-1.627 23.94-2.551 89.36-10.344 170.91-29.498 231.97-45.028 26.76-6.799 53.02-14.149 78.42-21.255 50.68-14.179 103.07-28.84 160.12-39.225 24.35-4.44 46.39-7.166 67.37-8.333 25.88-1.44 49.69-.372 70.76 3.174 17.76 2.991 35.27 7.8 53.53 14.699 16.09 6.079 30.62 12.925 44.67 19.548 8.37 3.944 16.27 7.669 24.24 11.113 78.97 34.255 159.83 69.67 240.34 105.264z"/><path d="m2225.36 249.882-235.69-106.423c-7.69-3.475-15.34-7.257-23.43-11.26-26.71-13.21-56.98-28.183-96.55-34.752-38.28-6.352-84.74-3.934-138.11 7.187-51.31 10.69-98.11 24.906-143.36 38.655-29.5 8.962-60.01 18.229-91.35 26.384-94.2 24.513-176.52 38.99-259.08 45.564-34.24 2.726-68.03 4.099-100.79 4.099q-14.91 0-29.49-.379c-45.88-1.19-88.23-5.189-125.882-11.885-34.896-6.208-66.82-14.971-97.585-26.791-24.568-9.439-48.119-20.691-74.113-35.412-13.72-7.769-27.005-15.841-39.853-23.647C741 103.557 710.934 85.29 673.711 69.213 616.614 44.556 541.67 25.22 456.98 13.293 360.286-.325 262.735-3.5 182.303 4.354 104.43 11.958 19.91 35.934 18.354 70.61l-.315-.002c.696-15.5 18.365-30.205 51.095-42.527C98.727 16.941 138.888 8.475 182.22 4.245 224.687.099 271.486-1.017 321.312.928c44.74 1.746 90.424 5.872 135.784 12.26 41.906 5.901 81.705 13.669 118.296 23.088 36.896 9.499 70.057 20.555 98.558 32.863 37.239 16.082 67.314 34.353 96.398 52.023 12.847 7.805 26.133 15.876 39.849 23.644 37.926 21.479 91.703 47.956 171.573 62.162 91.6 16.292 189.74 13.428 255.95 8.156 82.52-6.569 164.81-21.041 258.97-45.544 31.33-8.152 61.83-17.419 91.32-26.379 45.27-13.751 92.08-27.971 143.41-38.667 53.46-11.14 100.03-13.56 138.4-7.19 17.72 2.941 35.07 7.791 53.03 14.829 15.82 6.195 29.97 13.192 43.64 19.959 8.1 4.002 15.74 7.782 23.43 11.256l235.69 106.423z"/><path d="M2223.47 241.701c-60.02-29.631-111.51-53.676-162.05-75.669a3048 3048 0 0 0-74.48-31.255c-7.52-3.042-14.98-6.277-22.87-9.703-19.84-8.611-40.36-17.514-63.96-24.122-12.68-3.554-24.88-6.099-37.31-7.78-38.14-5.21-82.89-1.765-133.01 10.241-25.93 6.204-49.55 13.264-69.23 19.353-20.84 6.445-41.39 13.552-61.27 20.426-28.57 9.88-58.11 20.096-89.87 28.87a973 973 0 0 1-58.23 14.222c-38.64 8.168-80.11 14.898-123.26 20.004-26.66 3.119-53.45 5.477-79.63 7.007a1352 1352 0 0 1-67.16 2.254c-32.95.272-65.05-.768-95.41-3.094-32.28-2.474-62.83-6.423-90.803-11.738-24.94-4.74-48.497-10.707-72.016-18.245-43.827-14.035-78.783-30.264-104.34-42.835-12.554-6.204-24.813-12.531-36.669-18.649-34.137-17.621-66.382-34.264-106.733-49.09-32.909-12.011-70.457-22.377-111.61-30.81-31.625-6.482-66.02-11.783-102.23-15.756a1415 1415 0 0 0-26.114-2.616c-37.459-3.395-79.63-5.605-125.336-6.57-46.081-.996-85.95-.134-121.876 2.637-20.311 1.555-39.988 3.994-58.494 7.249C64.175 37.522 22.222 56.813 17.284 77.635l-.393-.012c1.316-5.55 5.18-11.018 11.48-16.252 5.987-4.972 14.209-9.767 24.436-14.252 19.325-8.472 45.789-15.808 76.528-21.215 18.535-3.26 38.244-5.703 58.586-7.26 35.964-2.773 75.864-3.636 121.983-2.64 45.732.966 87.924 3.179 125.409 6.576 8.71.79 17.502 1.672 26.133 2.618 36.238 3.976 70.662 9.28 102.312 15.768 41.181 8.439 78.76 18.814 111.685 30.833 40.376 14.834 72.627 31.482 106.777 49.108 11.853 6.118 24.111 12.444 36.663 18.647 25.544 12.565 60.485 28.786 104.286 42.812 23.494 7.53 47.026 13.492 71.937 18.226 54.734 10.402 117.324 15.387 186.024 14.816 21.99-.182 44.57-.94 67.11-2.252 26.15-1.53 52.92-3.886 79.56-7.003 43.13-5.103 84.58-11.828 123.19-19.992a970 970 0 0 0 58.18-14.212c31.75-8.769 61.28-18.983 89.84-28.86 19.88-6.874 40.44-13.984 61.29-20.432 19.69-6.091 43.32-13.154 69.27-19.362 22.32-5.346 43.92-9.04 64.22-10.978 24.94-2.382 48.21-2.138 69.15.723 12.47 1.687 24.7 4.239 37.41 7.801 23.64 6.617 44.17 15.527 64.02 24.143 7.89 3.425 15.35 6.66 22.87 9.7a3028 3028 0 0 1 74.48 31.259c50.55 21.995 102.05 46.042 162.07 75.676z"/><path d="M2221.56 233.518c-55.64-30.133-107.87-55.349-159.66-77.086-25.25-10.619-51.39-20.825-77.69-30.337-6.98-2.524-13.86-5.147-21.16-7.923-21.84-8.313-44.42-16.909-69.72-22.856-12.77-3.016-25.01-5.116-37.42-6.42-47.51-4.998-95.78 4.47-127.91 13.292-22.76 6.233-43.55 13.28-64.61 20.554-18.43 6.367-35.77 13.217-54.13 20.468-27.25 10.763-55.42 21.893-87.31 31.238-18.92 5.576-38.67 10.396-58.69 14.328-37.3 7.325-78.14 13.014-124.87 17.391-26.15 2.45-52.93 4.195-79.59 5.185-22.5.826-44.96 1.121-66.75.874-32.43-.362-64.13-1.994-94.22-4.847-31.6-2.998-61.76-7.379-89.62-13.019-24.415-4.942-47.988-11.073-72.068-18.742-43.732-13.91-81.195-29.331-108.943-41.212-10.272-4.399-20.38-8.824-30.157-13.105-38.937-17.048-75.713-33.151-120.421-46.718-33.414-10.139-70.927-18.712-111.491-25.481-30.693-5.121-63.224-8.959-99.449-11.731a1475 1475 0 0 0-25.277-1.712c-36.943-2.17-76.371-2.992-124.074-3.841-34.386-.644-79.4-1.067-122.644 1.391-20.48 1.142-40.278 3.126-58.847 5.894C69.461 48.853 25.112 65.883 16.2 84.66l-.466-.028c2.362-4.98 7.148-9.864 14.218-14.518 6.738-4.434 15.593-8.686 26.315-12.64 20.377-7.512 47.483-13.92 78.39-18.527 18.603-2.774 38.438-4.761 58.954-5.906 43.285-2.461 88.333-2.037 122.741-1.393 47.719.85 87.159 1.67 124.128 3.842 8.417.498 16.928 1.074 25.298 1.713 36.26 2.776 68.823 6.616 99.55 11.744 40.606 6.775 78.15 15.355 111.598 25.505 44.74 13.576 81.532 29.684 120.481 46.739 9.774 4.28 19.882 8.705 30.154 13.102 27.742 11.876 65.189 27.292 108.896 41.195 24.051 7.662 47.599 13.786 71.983 18.722 54.79 11.091 116.57 17.095 183.62 17.845 21.78.246 44.22-.048 66.69-.874 26.64-.989 53.4-2.732 79.52-5.18 46.69-4.374 87.5-10.057 124.77-17.376 19.99-3.927 39.72-8.741 58.62-14.311 31.85-9.337 60.02-20.462 87.26-31.22 18.36-7.254 35.7-14.105 54.15-20.476 21.06-7.279 41.86-14.328 64.65-20.567 20.82-5.72 41.37-9.834 61.06-12.232 23.87-2.906 46.51-3.272 67.27-1.089 12.46 1.31 24.74 3.417 37.55 6.442 25.34 5.958 47.94 14.562 69.8 22.882 7.29 2.775 14.18 5.397 21.15 7.919a1648 1648 0 0 1 77.72 30.347c51.8 21.743 104.04 46.963 159.69 77.103z"/><path d="M2219.67 225.334c-52.08-31.043-103.52-56.721-157.27-78.502-25.99-10.553-53.21-20.45-80.92-29.419-5.92-1.917-12.01-3.952-17.91-5.919-24.34-8.127-49.51-16.53-77-21.813-12.9-2.496-25.18-4.153-37.53-5.062-47.42-3.491-92.96 6.962-122.82 16.344-20.24 6.333-38.74 13.512-56.63 20.455l-3.35 1.3c-16.25 6.299-31.48 13.208-47.62 20.523-25.69 11.647-52.26 23.691-84.13 33.593-18.54 5.805-38.44 10.661-59.16 14.436-36.11 6.58-76.3 11.276-126.48 14.777-25.94 1.811-52.71 2.942-79.55 3.361-22.45.337-44.77.168-66.35-.505-65.34-2.027-126.39-9.059-181.46-20.901-23.804-5.119-47.393-11.411-72.109-19.238-41.827-13.219-79.028-26.806-113.544-39.589-4.629-1.714-9.207-3.416-13.751-5.105-47.143-17.517-91.668-34.063-143.997-46.798-34.163-8.315-71.638-15.095-111.381-20.153-29.178-3.713-60.799-6.234-96.665-7.708a1574 1574 0 0 0-24.439-.807c-20.462-.507-42.164-.589-65.142-.676-18.456-.07-37.538-.142-57.675-.436-38.893-.616-82.971-1.313-123.416.147-20.868.753-40.785 2.281-59.2 4.541C74.819 60.201 28.07 74.972 15.118 91.692l-.532-.053c3.413-4.408 9.12-8.708 16.957-12.781 7.494-3.895 16.979-7.606 28.189-11.03 21.441-6.547 49.196-12.023 80.257-15.835 18.455-2.266 38.413-3.797 59.322-4.551 40.486-1.462 84.586-.763 123.495-.147 20.124.293 39.207.366 57.656.436 22.987.087 44.696.17 65.177.677 8.14.206 16.371.478 24.46.808 35.911 1.475 67.57 4 96.789 7.718 39.79 5.064 77.306 11.852 111.506 20.175 52.376 12.747 96.924 29.301 144.086 46.826q6.813 2.533 13.751 5.105c34.509 12.781 71.698 26.364 113.512 39.578 24.691 7.819 48.254 14.105 72.027 19.218 55 11.827 115.97 18.849 181.23 20.873 21.56.672 43.85.841 66.27.504 26.82-.419 53.56-1.549 79.48-3.357 50.12-3.498 90.26-8.189 126.33-14.76 20.67-3.766 40.54-8.614 59.05-14.408 31.83-9.89 58.38-21.927 84.05-33.568 16.14-7.318 31.39-14.23 47.65-20.533l3.35-1.3c17.9-6.947 36.41-14.13 56.67-20.471 29.95-9.412 75.66-19.895 123.3-16.388 12.41.913 24.73 2.575 37.68 5.082 27.54 5.294 52.75 13.706 77.11 21.842 5.9 1.967 11.99 4.002 17.91 5.918 27.72 8.974 54.95 18.876 80.95 29.435 53.78 21.789 105.24 47.477 157.33 78.53z"/><path d="M2217.77 217.149c-47.82-31.512-99.92-58.4-154.87-79.916-26.72-10.486-55.03-20.075-84.13-28.5-4.21-1.216-8.51-2.479-12.68-3.7-27.51-8.068-55.96-16.412-86.26-20.985-13.01-1.984-25.32-3.195-37.65-3.705-47.29-1.951-90.12 9.47-117.74 19.394-17.14 6.13-32.62 12.949-47.59 19.542-2.58 1.142-5.17 2.281-7.76 3.415-14.24 6.233-27.55 13.195-41.64 20.565-23.96 12.53-48.73 25.486-80.41 35.963-18.6 6.153-38.11 10.909-59.63 14.543-45.03 7.602-90.02 10.415-128.1 12.165-25.75 1.183-52.5 1.702-79.52 1.537-22.37-.152-44.56-.786-65.93-1.884-63.38-3.245-123.63-11.298-179.08-23.935-23.07-5.257-46.674-11.712-72.158-19.735-25.743-8.084-49.731-15.863-72.933-23.387-15.766-5.113-30.661-9.943-45.205-14.577-54.981-17.516-105.341-32.917-164.916-43.987-34.896-6.483-72.334-11.472-111.273-14.826-27.909-2.404-57.742-3.574-93.882-3.686-7.797-.02-15.739.013-23.601.098-11.944.139-24.301.428-37.378.736-25.097.59-53.547 1.257-84.193.883-11.67-.143-23.576-.345-35.091-.54-29.619-.504-60.246-1.025-89.099-.56-21.189.343-41.229 1.416-59.556 3.189C80.253 71.57 31.108 84.084 14.028 98.728l-.583-.087c4.472-3.835 11.097-7.55 19.69-11.044 8.254-3.355 18.368-6.524 30.057-9.418 22.524-5.577 50.924-10.12 82.133-13.14 18.371-1.778 38.455-2.854 59.691-3.197 28.885-.466 59.524.056 89.159.56 11.512.195 23.418.397 35.085.54 30.617.374 59.046-.293 84.13-.882 13.084-.308 25.443-.597 37.4-.736 7.872-.086 15.82-.118 23.626-.098 36.191.11 66.067 1.284 94.024 3.692 38.986 3.358 76.474 8.352 111.415 14.845 26.91 5 54.18 11.335 83.367 19.365 26.13 7.189 51.548 15.055 81.677 24.653 14.545 4.635 29.44 9.465 45.209 14.579 23.198 7.522 47.187 15.301 72.923 23.384 25.459 8.015 49.039 14.463 72.079 19.715 55.37 12.62 115.54 20.661 178.83 23.903 21.35 1.096 43.51 1.729 65.85 1.881 26.99.164 53.71-.353 79.44-1.536 38.02-1.747 82.96-4.557 127.9-12.144 21.47-3.625 40.92-8.369 59.47-14.505 31.63-10.46 56.38-23.405 80.32-35.925 14.1-7.375 27.42-14.341 41.67-20.58q3.885-1.702 7.77-3.413c14.97-6.599 30.46-13.421 47.63-19.56 17.96-6.457 36.39-11.424 54.78-14.763 21.77-3.955 43.13-5.535 63.47-4.695 12.39.512 24.76 1.729 37.82 3.72 30.38 4.587 58.87 12.94 86.42 21.018 4.16 1.221 8.47 2.484 12.67 3.7 29.13 8.431 57.46 18.029 84.19 28.523 29.18 11.425 57.76 24.442 84.93 38.689a818 818 0 0 1 70.03 41.271z"/><path d="M2215.86 208.961c-44.26-32.415-95.55-59.778-152.48-81.329-27.44-10.419-56.83-19.698-87.34-27.58-1.45-.375-2.9-.75-4.36-1.126-31.72-8.207-64.53-16.692-98.6-20.512-13.2-1.48-25.55-2.248-37.76-2.347-47.1-.38-87.26 11.994-112.65 22.44-14.95 6.112-28.21 12.811-41.04 19.289-3.17 1.602-6.46 3.258-9.69 4.872-12.34 6.144-23.8 13.13-35.94 20.527-22.08 13.455-44.9 27.367-76.42 38.413-18.23 6.39-37.89 11.182-60.11 14.652-43.76 6.835-88.2 8.63-129.71 9.551-25.59.568-52.33.471-79.48-.287-22.31-.642-44.35-1.74-65.52-3.264-61.23-4.393-120.68-13.467-176.7-26.969-22.44-5.407-45.38-11.835-72.198-20.231-50.972-15.912-88.822-27.119-122.723-36.338-67.428-18.335-118.891-29.122-172.073-36.069-35.605-4.65-73.004-7.847-111.166-9.5-26.476-1.147-54.574-1.045-91.102.335-7.485.286-15.143.623-22.763 1.003-7.199.364-14.51.78-22.254 1.221-28.589 1.628-60.994 3.473-98.082 3.129-19.549-.182-39.516-.678-58.825-1.158-21.945-.546-44.636-1.11-66.15-1.187-21.57-.076-41.732.541-59.911 1.837C85.788 82.964 34.24 93.222 12.925 105.77l-.605-.132c5.536-3.26 13.081-6.391 22.424-9.306 9.018-2.814 19.756-5.44 31.917-7.807 23.623-4.599 52.675-8.21 84.013-10.442 18.23-1.298 38.436-1.918 60.057-1.841 21.532.076 44.236.64 66.19 1.187 19.303.48 39.261.977 58.794 1.158 37.021.344 69.392-1.5 97.95-3.125 7.746-.441 15.064-.857 22.266-1.222 7.63-.38 15.294-.717 22.786-1.004 36.584-1.381 64.729-1.485 91.262-.335 38.215 1.656 75.668 4.857 111.323 9.514 53.255 6.956 104.771 17.755 172.259 36.106 33.914 9.222 71.777 20.433 122.761 36.349 26.798 8.389 49.718 14.81 72.128 20.211 55.95 13.483 115.31 22.545 176.44 26.932 21.15 1.521 43.17 2.617 65.44 3.259 27.12.757 53.83.854 79.39.287 41.44-.92 85.8-2.71 129.47-9.53 22.13-3.456 41.72-8.233 59.89-14.6 31.45-11.022 54.25-24.92 76.3-38.36 12.15-7.402 23.62-14.393 35.97-20.547 3.24-1.612 6.52-3.268 9.69-4.87 12.84-6.484 26.12-13.187 41.09-19.309 16.57-6.818 33.95-12.21 51.64-16.03 20.73-4.474 41.44-6.658 61.56-6.497 12.28.099 24.7.87 37.96 2.358 34.18 3.834 67.04 12.33 98.81 20.549 1.45.376 2.91.752 4.35 1.127 30.55 7.89 59.97 17.18 87.45 27.611 56.97 21.57 108.31 48.954 152.59 81.392z"/><path d="M1385.44 205.697q-2.655 0-5.22-.005c-25.46-.038-52.2-.748-79.46-2.111-22.22-1.132-44.12-2.695-65.1-4.643a1142 1142 0 0 1-89.43-11.866 1130 1130 0 0 1-84.88-18.137c-27.41-6.971-53-14.737-72.243-20.725-45.017-13.972-87.849-25.651-127.305-34.712-63.904-14.675-120.852-23.621-179.224-28.153-35.214-2.735-72.995-4.177-109.371-4.177l-1.688.001c-31.25.039-60.919 2.116-88.321 4.356-7.132.587-14.51 1.228-21.929 1.907-4.065.376-8.137.764-12.445 1.174-30.384 2.897-64.823 6.178-106.663 5.91-25.481-.165-51.507-1.11-76.676-2.023-16.252-.59-33.055-1.2-49.083-1.568-22.033-.506-42.308-.344-60.27.484-64.679 2.979-118.63 10.982-144.321 21.41l-.592-.186c13.178-5.348 33-9.978 58.916-13.764 24.75-3.614 54.454-6.29 85.896-7.738 18.009-.83 38.338-.994 60.422-.486 16.044.369 32.856.98 49.114 1.57 25.153.913 51.163 1.857 76.61 2.02 41.732.27 76.112-3.007 106.446-5.898 4.311-.411 8.382-.799 12.451-1.175 7.425-.68 14.809-1.322 21.948-1.909 27.449-2.243 57.168-4.323 88.494-4.363 36.955-.046 75.413 1.4 111.229 4.182a1119 1119 0 0 1 89.281 10.53c28.845 4.57 58.35 10.347 90.198 17.662 39.488 9.068 82.351 20.755 127.396 34.736 19.22 5.985 44.8 13.746 72.18 20.708 56.75 14.436 115.31 24.516 174.05 29.961 20.96 1.945 42.83 3.506 65.02 4.637 27.22 1.361 53.92 2.071 79.35 2.108 39.78.058 85.97-.422 131.03-6.916 22.8-3.288 42.53-8.095 60.31-14.696 31.23-11.592 51.93-26.471 71.96-40.861 10.3-7.402 20.02-14.394 30.6-20.446 3.39-1.939 6.81-3.936 10.11-5.868 11.18-6.528 22.73-13.276 36.03-19.514 15.21-7.176 31.53-12.998 48.51-17.301 19.68-4.99 39.75-7.781 59.64-8.297 12.28-.32 24.74.006 38.1.995 35.71 2.643 71.11 10.322 107.24 18.633 31.51 7.246 62.87 16.479 90.69 26.7 30.9 11.322 59.94 24.603 86.3 39.475 23.48 13.25 44.99 27.835 63.93 43.351l-.72.112c-40.67-33.32-91.16-61.158-150.07-82.74-27.78-10.207-59.09-19.426-90.55-26.66-36.08-8.296-71.4-15.96-106.98-18.595-13.29-.983-25.68-1.306-37.88-.99-36.55.95-74.76 10-107.58 25.488-13.28 6.227-24.82 12.97-35.98 19.49-3.31 1.934-6.73 3.932-10.12 5.871-10.56 6.041-20.28 13.027-30.57 20.422-9.82 7.06-19.98 14.362-31.64 21.38-13.22 7.958-26.44 14.352-40.45 19.551-17.86 6.63-37.67 11.459-60.59 14.762-20.2 2.913-41.92 4.839-66.39 5.889-20.72.884-41.54 1.048-59.71 1.048"/><path d="M1435.94 206.26c-16.06 0-31.48-.343-45.28-.69-25.37-.637-52.09-1.961-79.42-3.935-22.13-1.621-43.89-3.647-64.69-6.023-56.96-6.492-113.2-17.3-171.92-33.037-25.61-6.862-49.76-14.246-72.28-21.219-44.48-13.728-88.848-24.859-131.885-33.085-63.293-12.099-122.512-18.53-186.365-20.24-36.383-.975-74.749-.577-110.956 1.149-30.305 1.444-58.875 4.93-85.547 8.375a3261 3261 0 0 0-21.091 2.812c-1.83.251-3.675.507-5.545.765-30.718 4.249-65.476 9.057-110.083 9.057-.753 0-1.502-.001-2.261-.004-30.18-.109-60.992-1.65-90.793-3.142-11.815-.592-24.033-1.202-35.756-1.697-22.899-.964-42.731-1.249-60.633-.868-65.11 1.385-120.068 6.991-150.776 15.383l-.526-.246c15.18-4.149 37.132-7.75 63.473-10.416 25.909-2.621 56.261-4.361 87.776-5.031 17.952-.382 37.834-.097 60.783.87 11.736.494 23.957 1.106 35.775 1.696 29.773 1.49 60.557 3.03 90.68 3.139 45.536.167 80.861-4.722 112.023-9.033l5.545-.766c7.328-1 14.428-1.947 21.107-2.813 26.716-3.452 55.339-6.942 85.726-8.391 36.263-1.728 74.693-2.127 111.135-1.152 31.644.848 61.814 2.848 92.232 6.116 31.329 3.365 62.232 7.996 94.477 14.161 43.09 8.238 87.515 19.382 132.035 33.123 22.52 6.971 46.65 14.35 72.24 21.206 58.64 15.716 114.79 26.507 171.66 32.99 20.77 2.371 42.51 4.395 64.6 6.014 27.29 1.971 53.98 3.294 79.31 3.929 42.63 1.071 87.98 1.62 132.59-4.302 23.48-3.118 43.34-7.955 60.73-14.79 30.98-12.175 50.26-28.782 67.28-43.435 8.56-7.372 16.64-14.336 25.56-20.272 3.22-2.142 6.46-4.355 9.59-6.496 9.8-6.697 19.94-13.623 31.93-20.09 13.88-7.535 29.14-13.784 45.37-18.575 18.65-5.5 38.06-8.899 57.72-10.096 12.28-.75 24.79-.869 38.23-.368 37.55 1.4 75.7 8.32 111.33 15.59 32.9 6.712 65.39 15.63 93.94 25.789 31.76 11.269 61.03 24.683 86.98 39.868 23.21 13.58 43.7 28.514 60.89 44.39l-.8.112c-36.56-33.746-87.62-62.845-147.68-84.151-28.5-10.14-60.92-19.042-93.75-25.74-35.55-7.254-73.6-14.156-111-15.551-13.36-.498-25.79-.379-37.99.365-36.29 2.212-72.69 12.345-102.51 28.536-11.97 6.454-22.09 13.372-31.88 20.063-3.14 2.142-6.38 4.356-9.6 6.499-8.9 5.923-16.98 12.88-25.53 20.244-17.04 14.675-36.35 31.309-67.43 43.525-17.49 6.872-37.47 11.737-61.07 14.872-20.49 2.72-42.59 4.295-67.57 4.812-6.76.146-13.48.204-20.1.204"/><path d="M1467.63 207.479h-.69c-22.69-.02-44.97-1.013-65.85-2.03-25.33-1.232-52.04-3.171-79.38-5.76-22.02-2.108-43.65-4.599-64.27-7.402-54.69-7.421-108.56-18.881-169.54-36.07-21.96-6.188-43.57-12.852-64.47-19.295-2.61-.807-5.23-1.612-7.85-2.418-44.703-13.724-90.611-24.308-136.444-31.458-62.761-9.789-126.057-13.822-193.507-12.33-36.984.82-75.316 3.058-110.852 6.474-28.038 2.696-53.021 7.021-82.772 12.395-6.03 1.094-12.47 2.275-20.26 3.717l-.435.081c-15.03 2.801-32.065 5.974-51.173 8.387-21.945 2.772-43.235 4.106-65.066 4.09-34.043-.031-68.785-2.297-102.381-4.491-8.232-.537-16.746-1.093-24.965-1.595-23.57-1.439-43.521-2.165-60.994-2.221-64.339-.202-121.656 3.209-157.251 9.358l-.41-.304c17.436-3.013 40.955-5.457 68.014-7.071 27.109-1.616 58.113-2.419 89.656-2.319 17.524.055 37.526.783 61.146 2.225 8.225.502 16.739 1.058 24.974 1.595 33.555 2.19 68.253 4.454 102.214 4.485h.456c48.579 0 85.588-6.895 115.345-12.439l.438-.081a5484 5484 0 0 1 20.267-3.718c29.801-5.383 54.829-9.716 82.955-12.42 35.595-3.422 73.99-5.664 111.037-6.484 33.007-.73 64.14-.173 95.186 1.703 33.454 2.023 65.759 5.507 98.756 10.655 45.921 7.163 91.908 17.764 136.686 31.511 2.62.805 5.23 1.612 7.85 2.418 20.89 6.441 42.49 13.103 64.44 19.286 60.9 17.168 114.69 28.613 169.28 36.021 20.6 2.8 42.19 5.286 64.18 7.392 27.31 2.585 53.98 4.521 79.27 5.751 45.3 2.206 89.65 3.736 134.15-1.69 24.14-2.945 44.15-7.813 61.14-14.883 30.7-12.773 47.47-30.47 62.27-46.086 6.93-7.31 13.48-14.216 20.86-20.02 2.84-2.233 5.69-4.542 8.44-6.776 8.62-6.985 17.53-14.206 28.45-21.016 12.57-7.896 26.78-14.574 42.23-19.85 17.61-6.01 36.38-10.012 55.79-11.891 12.03-1.165 24.31-1.733 37.5-1.733l.86.001c41.02.077 83.23 6.744 115.43 12.543 34.29 6.18 67.9 14.783 97.19 24.88 32.63 11.216 62.12 24.762 87.67 40.263 22.92 13.91 42.38 29.194 57.84 45.431l-.9.109c-23-24.159-66.88-58.612-145.27-85.56-29.22-10.073-62.75-18.656-96.96-24.82-32.1-5.785-74.18-12.433-115-12.508-13.44-.028-25.9.537-38.12 1.72-35.95 3.483-70.55 14.699-97.44 31.583-10.9 6.794-19.8 14.007-28.41 20.984a684 684 0 0 1-8.44 6.78c-7.37 5.789-13.9 12.686-20.82 19.988-14.83 15.644-31.63 33.376-62.45 46.197-17.11 7.118-37.25 12.019-61.56 14.983-20.6 2.511-42.87 3.733-68.04 3.733"/><path d="M1492.83 209.066c-4.89 0-9.88-.057-14.99-.169-22.39-.493-44.14-1.97-66.31-3.57-25.7-1.854-51.65-4.335-79.34-7.584-21.91-2.593-43.4-5.547-63.86-8.782-51.92-8.192-103.47-20.252-167.14-39.103-15.81-4.681-31.62-9.59-46.91-14.339-8.32-2.584-16.92-5.258-25.45-7.868-45.236-13.817-92.678-23.852-141.007-29.83-63.857-7.899-129.487-9.345-200.647-4.422-37.595 2.601-75.892 6.681-110.747 11.797-28 4.109-52.392 9.881-78.216 15.992l-1.786.422q-6.048 1.438-12.239 2.911l-7.186 1.712c-15.058 3.601-31.323 7.359-49.974 10.25-21.655 3.358-43.074 5.009-65.488 5.05-37.315.065-75.376-3.037-112.18-6.041-5.253-.429-10.688-.872-15.962-1.292-24.729-1.972-44.224-3.106-61.36-3.573-63.237-1.72-122.915-.508-163.738 3.327l-.26-.353c40.929-3.846 100.73-5.062 164.077-3.339 17.183.468 36.729 1.606 61.504 3.581 5.278.421 10.713.864 15.969 1.293 36.354 2.966 73.933 6.032 110.754 6.032l1.193-.001c47.624-.086 81.526-7.258 114.901-15.239l7.186-1.711c4.128-.983 8.203-1.953 12.24-2.912l1.785-.423c25.869-6.12 50.301-11.902 78.393-16.025 34.918-5.126 73.281-9.213 110.942-11.818 71.339-4.936 137.145-3.485 201.175 4.435 48.45 5.993 96.002 16.052 141.341 29.899 8.52 2.611 17.13 5.283 25.45 7.869 15.28 4.747 31.09 9.656 46.89 14.334 63.6 18.828 115.08 30.872 166.9 39.051 20.44 3.229 41.89 6.179 63.77 8.768 27.65 3.245 53.57 5.722 79.23 7.573 38.95 2.811 87.43 6.31 135.7.921 24.82-2.771 44.96-7.669 61.55-14.976 30.41-13.384 44.51-32.209 56.95-48.816 5.4-7.214 10.51-14.029 16.47-19.685 2.32-2.203 4.64-4.482 6.89-6.687 7.55-7.394 15.35-15.039 25.37-22.31 11.3-8.264 24.45-15.371 39.09-21.126 16.59-6.52 34.71-11.125 53.86-13.686 12.28-1.644 24.88-2.656 38.49-3.097 18.24-.59 37.66.04 59.35 1.924 18.36 1.596 38.04 4.072 60.17 7.572 35.69 5.645 70.42 13.934 100.45 23.968 33.49 11.164 63.22 24.844 88.35 40.659 22.63 14.242 41.07 29.876 54.8 46.472l-.98.104c-28.99-35.037-79.73-65.923-142.87-86.966-29.94-10.008-64.58-18.273-100.16-23.901-47.68-7.542-85.5-10.55-119.01-9.467-13.53.437-26.04 1.443-38.24 3.075-45.55 6.091-75.38 22.195-92.38 34.63-10 7.253-17.79 14.889-25.33 22.274a623 623 0 0 1-6.9 6.691c-5.94 5.638-11.03 12.445-16.43 19.651-12.47 16.643-26.6 35.507-57.14 48.952-16.73 7.364-37.03 12.302-62.04 15.095-16.96 1.893-35.05 2.827-54.92 2.827"/><path d="M1514.66 210.884c-33.3 0-65.32-3.061-92.7-5.679-25.77-2.463-51.71-5.54-79.31-9.408-21.79-3.076-43.13-6.494-63.44-10.161-60.89-10.98-115.17-26.74-164.75-42.136-10.12-3.143-20.35-6.383-30.24-9.516-13.73-4.351-27.93-8.849-42.15-13.185-45.918-13.952-94.893-23.442-145.566-28.204-65.551-6.159-133.52-5.02-207.791 3.484-38.24 4.378-76.5 10.298-110.644 17.12-26.334 5.262-48.616 11.904-72.204 18.936l-5.032 1.499-.913.272a6542 6542 0 0 1-17.675 5.256c-14.404 4.273-30.265 8.693-48.61 12.069-21.296 3.92-42.766 5.874-65.643 5.976-40.155.179-81.081-3.86-120.657-7.766l-8.285-.816c-26.098-2.562-45.136-4.08-61.725-4.925-61.649-3.139-123.696-4.126-170.23-2.707L7 140.599c46.61-1.421 108.748-.433 170.479 2.71 16.636.847 35.716 2.369 61.861 4.935q4.123.405 8.288.817c39.5 3.898 80.348 7.927 120.349 7.751 49.68-.221 84.668-9.383 113.562-17.954 6.012-1.776 11.941-3.545 17.675-5.255l.913-.272 5.032-1.499c23.63-7.044 45.949-13.698 72.372-18.977 34.207-6.835 72.539-12.766 110.845-17.151 35.211-4.031 68.285-6.359 101.106-7.116 36.612-.844 72.711.376 107.299 3.626 50.833 4.777 99.953 14.294 145.999 28.285 14.23 4.337 28.44 8.837 42.17 13.189 9.89 3.133 20.11 6.372 30.23 9.514 49.53 15.379 103.74 31.122 164.52 42.082 20.28 3.661 41.59 7.075 63.35 10.146 27.56 3.862 53.46 6.935 79.19 9.394 39.5 3.777 88.67 8.477 137.25 3.531 25.49-2.596 45.76-7.524 61.96-15.068 30.09-14.014 41.35-33.996 51.29-51.627 3.99-7.084 7.76-13.775 12.41-19.27 1.72-2.032 3.44-4.132 5.11-6.163 6.53-7.945 13.29-16.161 22.52-24.04 10.05-8.637 22.15-16.176 35.95-22.405 15.58-7.03 33.05-12.236 51.93-15.477 12.26-2.105 24.89-3.564 38.63-4.462 18.5-1.209 39.03-1.168 61.02.12 19.26 1.13 40.31 3.258 62.59 6.328 37.08 5.111 72.94 13.084 103.7 23.057 34.37 11.111 64.33 24.923 89.04 41.054 22.34 14.572 39.75 30.559 51.76 47.514l-1.07.097c-25.44-35.927-75.33-67.312-140.47-88.372-30.66-9.94-66.4-17.888-103.36-22.982-47.9-6.603-88.14-8.706-123.01-6.427-13.64.891-26.18 2.34-38.36 4.429-44.92 7.711-72.28 24.745-87.33 37.678-9.21 7.858-15.96 16.063-22.48 23.998-1.67 2.031-3.4 4.132-5.12 6.167-4.63 5.476-8.39 12.158-12.38 19.233-4.78 8.482-10.2 18.096-18.06 27.108-9.01 10.327-19.95 18.4-33.43 24.682-7.8 3.632-16.76 6.723-26.64 9.188-10.63 2.651-22.7 4.677-35.9 6.02-15.09 1.538-30.24 2.149-45.13 2.149"/><path d="M1534.34 212.88c-11.01 0-22.54-.383-34.73-1.148-23.99-1.506-46.96-4.24-67.23-6.649-25.54-3.039-52.21-6.818-79.26-11.234-21.65-3.553-42.86-7.435-63.03-11.54-57.9-11.77-107.78-27.419-162.36-45.168-4.84-1.577-9.77-3.186-14.53-4.743-18.75-6.127-38.14-12.463-57.89-18.45-46.68-14.116-97.185-23.058-150.119-26.578-66.77-4.44-139.088-.61-214.936 11.387-38.92 6.156-77.145 13.916-110.54 22.443-25.144 6.42-45.842 13.99-67.755 22.004q-3.339 1.222-6.71 2.452a3019 3019 0 0 1-17.754 6.433c-12.857 4.62-28.526 9.885-47.246 13.887-20.956 4.482-42.479 6.741-65.794 6.904-42.68.301-86.126-4.755-128.142-9.645l-1.6-.186c-20.572-2.392-42.334-4.81-62.09-6.278-60.22-4.474-122.981-7.58-176.718-8.746l.073-.421c53.793 1.167 116.611 4.275 176.884 8.753 19.813 1.473 41.613 3.894 62.216 6.29l1.6.186c41.925 4.878 85.282 9.922 127.755 9.624 49.051-.345 82.927-10.138 112.228-20.669a3016 3016 0 0 0 17.747-6.431q3.371-1.23 6.71-2.45c21.951-8.028 42.687-15.611 67.913-22.053 33.457-8.544 71.755-16.319 110.748-22.486 35.586-5.627 70.605-9.505 104.078-11.524 38.247-2.306 75.779-2.27 111.554.108 53.135 3.533 103.828 12.507 150.658 26.671 19.77 5.993 39.17 12.331 57.93 18.462 4.76 1.556 9.69 3.165 14.53 4.742 54.52 17.731 104.35 33.364 162.15 45.113 20.14 4.099 41.32 7.975 62.93 11.524 27.02 4.408 53.65 8.183 79.15 11.216 39.98 4.757 89.74 10.675 138.81 6.14 26.17-2.418 46.57-7.376 62.36-15.159 29.76-14.663 38.38-36.763 45.3-54.522 2.69-6.917 5.24-13.45 8.69-18.768 1.09-1.676 2.18-3.403 3.25-5.074 5.51-8.679 11.21-17.655 19.76-26.334 13.2-13.507 38.28-31.575 82.79-40.952 12.29-2.589 24.97-4.495 38.77-5.826 36.08-3.535 79.05-2.391 127.7 3.396 38.47 4.578 75.46 12.235 106.96 22.146 35.24 11.058 65.43 25.004 89.73 41.451 11.15 7.543 21.01 15.601 29.3 23.948 7.91 7.973 14.44 16.252 19.41 24.608l-1.16.088c-21.87-36.82-70.9-68.703-138.06-89.779-31.39-9.873-68.23-17.501-106.56-22.062-48.42-5.761-91.16-6.901-127.02-3.39-13.69 1.322-26.27 3.213-38.47 5.783-44.2 9.311-69.14 27.287-82.28 40.728-8.53 8.656-14.22 17.62-19.73 26.288-1.06 1.67-2.15 3.399-3.24 5.076-3.44 5.3-5.98 11.824-8.67 18.731-3.49 8.936-7.43 19.064-14.18 28.623-7.75 10.985-18 19.519-31.33 26.089-7.61 3.748-16.51 6.909-26.45 9.395-10.7 2.677-23.01 4.672-36.58 5.924-11.9 1.102-24.34 1.652-37.52 1.652"/><path d="M1552.48 214.987c-13.2 0-27.11-.612-41.97-1.839-24.09-1.986-47.26-5.282-67.7-8.191-25.74-3.662-52.39-8.054-79.23-13.057-21.5-4.028-42.57-8.374-62.61-12.92-55.14-12.5-102.44-28.61-152.51-45.664l-7.44-2.534c-23.29-7.922-47.37-16.115-72.47-23.686-47.49-14.295-99.523-22.69-154.66-24.953-69.258-2.842-143.979 3.648-222.091 19.289-39.072 7.823-78.291 17.684-110.436 27.766-24.271 7.612-43.738 16.178-64.348 25.247-2.44 1.073-4.887 2.151-7.352 3.23a1942 1942 0 0 1-16.92 7.34c-11.361 4.863-26.841 11.044-45.879 15.693-20.623 5.037-42.193 7.605-65.945 7.847-19.523.174-41.068-.904-65.869-3.298-21.293-2.055-41.89-4.74-64.682-7.782-20.805-2.811-42.763-5.714-62.462-7.632-58.353-5.68-119.99-10.654-183.195-14.786l.227-.443c63.243 4.133 124.914 9.112 183.298 14.794 19.754 1.923 41.742 4.831 62.573 7.644 38.202 5.1 85.748 11.45 130.075 11.052 50.679-.518 83.248-11.543 110.893-23.38a1868 1868 0 0 0 16.909-7.335c2.466-1.08 4.913-2.157 7.35-3.229 20.644-9.084 40.146-17.664 64.496-25.301 32.21-10.102 71.506-19.983 110.653-27.82 78.349-15.688 153.328-22.195 222.849-19.343 26.656 1.094 52.839 3.635 77.817 7.55 26.799 4.202 52.879 10.093 77.509 17.507 25.13 7.578 49.23 15.775 72.52 23.703l7.45 2.534c50.02 17.04 97.28 33.134 152.32 45.61 20.01 4.539 41.04 8.88 62.52 12.901 26.8 4.995 53.41 9.382 79.11 13.038 40.39 5.746 90.65 12.896 140.36 8.749 26.92-2.246 47.45-7.235 62.76-15.25 29.5-15.308 34.75-38.692 38.98-57.482 1.51-6.72 2.93-13.067 5.3-18.2.49-1.059.97-2.124 1.46-3.194 4.42-9.667 8.98-19.665 16.92-29.42 11.33-14.034 34.01-33.062 77.72-44.021 12.19-3.058 24.91-5.41 38.89-7.193 19.43-2.5 41.09-3.675 64.36-3.494 21.25.164 43.94 1.456 67.43 3.84 39.86 4.04 77.98 11.382 110.22 21.23 36.11 11.005 66.54 25.086 90.43 41.848 10.96 7.692 20.46 15.915 28.22 24.441 7.43 8.165 13.3 16.63 17.44 25.16l-1.24.076c-18.03-37.167-67.48-70.402-135.66-91.182-32.11-9.806-70.06-17.117-109.75-21.143-48.94-4.963-94.25-5.085-131.03-.353-13.87 1.768-26.5 4.103-38.6 7.137-43.4 10.884-65.95 29.814-77.22 43.777-7.92 9.73-12.48 19.713-16.89 29.368-.48 1.07-.97 2.136-1.46 3.195-2.36 5.114-3.78 11.453-5.29 18.163-4.24 18.844-9.5 42.296-39.19 57.702-7.38 3.863-16.21 7.096-26.23 9.608-10.79 2.701-23.33 4.662-37.29 5.826-10.07.839-20.51 1.26-31.44 1.26"/><path d="M1569.52 217.18c-15.03 0-30.96-.87-48.12-2.616-24.29-2.471-47.6-6.329-68.17-9.733-25.99-4.301-52.63-9.309-79.19-14.881-21.35-4.495-42.27-9.307-62.19-14.299-49.06-12.289-90.98-27.343-135.36-43.282-7.26-2.606-14.76-5.3-22.2-7.949-26.17-9.305-48.52-16.978-72.5-24.176-48.34-14.485-101.901-22.334-159.208-23.33-72.01-1.251-149.142 7.897-229.251 27.189-39.796 9.586-78.981 21.336-110.335 33.089-23.62 8.853-42.085 18.492-61.634 28.695a2980 2980 0 0 1-7.299 3.802 1341 1341 0 0 1-16.082 8.245c-25.059 12.627-57.798 25.626-110.609 26.291-1.647.019-3.3.028-4.95.028-41.238 0-83.339-5.839-126.41-12.358l-2.689-.411c-21.334-3.258-41.487-6.334-60.142-8.574-70.299-8.441-138.288-15.565-189.665-20.829l.368-.46c51.39 5.265 119.398 12.391 189.723 20.835 18.704 2.245 38.879 5.326 60.242 8.588l2.686.41c44.648 6.758 88.251 12.787 130.79 12.293 52.225-.657 84.69-13.557 109.564-26.089a1356 1356 0 0 0 16.072-8.239c2.446-1.271 4.874-2.538 7.296-3.802 19.58-10.22 38.073-19.873 61.769-28.756 31.417-11.777 70.681-23.551 110.555-33.155 37.01-8.914 74.032-15.758 110.036-20.344 41.311-5.263 81.696-7.592 120.028-6.927 57.603 1 111.435 8.888 159.995 23.44 24.02 7.209 46.39 14.891 72.58 24.204a7143 7143 0 0 1 22.21 7.949c44.34 15.924 86.22 30.964 135.18 43.228 19.89 4.986 40.79 9.79 62.11 14.278 26.51 5.566 53.12 10.566 79.07 14.86 40.74 6.743 91.44 15.134 141.91 11.356 27.58-2.065 48.25-7.083 63.17-15.34 29.12-16.005 30.87-40.706 32.28-60.553.46-6.476.89-12.593 2.28-17.522l.03-.112c3.12-11.038 6.34-22.45 13.72-33.71 6.4-9.822 15.31-18.652 26.48-26.248 12.59-8.563 28.12-15.575 46.16-20.842 12.07-3.524 24.83-6.324 39.02-8.558 38.35-6.07 85.34-7.008 135.89-2.708 20.34 1.73 40.41 4.352 59.65 7.79 19.35 3.46 37.46 7.676 53.84 12.532 36.98 10.951 67.64 25.164 91.12 42.245 21.1 15.352 35.83 32.865 42.6 50.644l-1.32.064c-14.49-38.052-63.06-71.798-133.26-92.585-32.82-9.736-71.88-16.73-112.94-20.221-50.26-4.276-96.95-3.348-135.03 2.681-14.08 2.217-26.75 4.994-38.72 8.49-33.68 9.834-58.63 26.027-72.18 46.827-7.37 11.231-10.58 22.628-13.69 33.649l-.03.113c-1.39 4.911-1.82 11.019-2.28 17.486-1.42 19.908-3.17 44.683-32.5 60.801-7.2 3.981-15.96 7.285-26.04 9.817-10.87 2.731-23.65 4.659-37.98 5.732-8.53.638-17.33.958-26.45.958"/><path d="M388.354 219.939c-18.44 0-38.52-1.285-61.183-3.91-22.518-2.608-44.787-6.209-65.501-9.71q-5.624-.958-11.169-1.906c-18.402-3.147-35.785-6.119-52.03-8.434-64.776-9.228-126.52-17.522-186.233-25.541l-9.894-1.33.497-.474 9.894 1.33c59.716 8.021 121.47 16.315 186.259 25.545 16.289 2.321 33.693 5.296 52.118 8.447q5.54.95 11.163 1.905c42.519 7.188 87.694 14.154 131.508 13.533 53.859-.802 86.136-15.813 108.235-28.799 5.662-3.321 11.115-6.631 15.234-9.144 2.274-1.384 4.532-2.768 6.783-4.148 18.673-11.44 36.31-22.247 59.505-32.436 30.617-13.447 69.843-27.117 110.458-38.49 37.68-10.551 75.703-18.888 113.018-24.778 42.8-6.756 84.605-10.262 124.253-10.421 59.66-.318 115.071 7.025 164.671 21.823 27.5 8.213 52.15 17.097 72.64 24.705 11.15 4.141 22.31 8.384 33.09 12.489 38.17 14.529 77.65 29.553 121.92 41.721 19.78 5.437 40.53 10.705 61.69 15.656a1887 1887 0 0 0 79.04 16.682c41.04 7.744 92.13 17.382 143.45 13.962 28.25-1.883 49.05-6.93 63.57-15.43 28.74-16.731 26.8-42.785 25.24-63.719-.46-6.191-.9-12.039-.37-16.747 1.18-10.614 2.96-22.949 9.12-35.03 5.19-10.238 13.03-19.5 23.3-27.528 11.62-9.081 26.51-16.695 44.25-22.63 11.76-3.933 24.93-7.27 39.16-9.923 20.29-3.796 43.07-6.184 67.7-7.094 23.06-.853 47.38-.404 72.27 1.332 20.99 1.464 41.68 3.873 61.5 7.16 19.94 3.308 38.53 7.43 55.25 12.249 19.28 5.55 37 12.103 52.68 19.478 14.86 6.989 28.02 14.782 39.14 23.164 20.79 15.682 34.46 33.556 39.55 51.689l-1.41.05c-10.93-38.938-58.62-73.195-130.85-93.986-33.08-9.533-74.32-16.39-116.13-19.306-51.71-3.607-99.79-1.63-139.05 5.714-14.11 2.63-27.18 5.943-38.84 9.844-33.43 11.182-56.02 27.963-67.13 49.878-6.15 12.049-7.92 24.362-9.1 34.959-.52 4.691-.09 10.53.37 16.713.77 10.328 1.64 22.034-1.28 33.351-3.39 13.131-11.29 23.156-24.16 30.646-7 4.099-15.7 7.473-25.85 10.028-10.95 2.76-23.97 4.657-38.66 5.636-7.42.494-14.83.718-22.2.718-44.1 0-86.84-8.064-122.18-14.731a1895 1895 0 0 1-79.15-16.706c-21.19-4.958-41.98-10.234-61.78-15.679-44.36-12.193-83.88-27.232-122.09-41.775-10.78-4.104-21.93-8.346-33.07-12.484-20.47-7.599-45.09-16.471-72.53-24.668-49.34-14.72-104.423-22.02-163.749-21.706-93.167.374-179.989 19.288-236.418 35.091-40.532 11.35-79.68 24.991-110.231 38.411-23.125 10.159-40.737 20.948-59.382 32.371a3614 3614 0 0 1-6.786 4.149c-4.122 2.513-9.579 5.826-15.244 9.15-9.277 5.452-23.84 13.387-43.131 19.336-9.368 2.888-19.337 5.159-29.631 6.748-11.478 1.772-23.803 2.768-36.625 2.959q-2.726.042-5.489.041"/><path d="M394.274 235.623c-18.462 0-38.502-1.385-61.045-4.21-23.34-2.925-46.415-7.037-65.907-10.675-5.989-1.119-11.966-2.255-17.747-3.353-16.161-3.07-31.427-5.971-45.82-8.339-51.69-8.506-103.043-16.81-152.707-24.842-16.428-2.656-33.414-5.403-49.876-8.071l.617-.488c16.463 2.668 33.448 5.415 49.876 8.071 49.665 8.032 101.024 16.337 152.716 24.844 14.432 2.375 29.717 5.278 45.896 8.353a6604 6604 0 0 0 17.738 3.352c40.425 7.542 87.316 15.525 132.217 14.773 55.128-.944 86.091-17.335 106.912-31.508 5.337-3.631 10.498-7.277 14.397-10.047 2.002-1.422 3.992-2.843 5.979-4.26 17.861-12.747 34.73-24.787 57.534-36.349 29.66-15.038 68.855-30.602 110.357-43.825 57.799-18.335 147.131-40.7 244.476-43.126 61.913-1.584 118.883 5.214 169.353 20.206 22.67 6.74 45.09 14.513 72.7 25.208 13.95 5.404 27.8 11.006 41.19 16.421 34.83 14.091 70.85 28.661 111.44 40.822 19.66 5.894 40.27 11.625 61.27 17.035 25.43 6.544 52.01 12.77 79 18.504 41.46 8.755 93.06 19.652 145 16.568 28.48-1.656 50-6.878 63.97-15.519 28.34-17.488 22.26-46.099 17.82-66.99-1.25-5.863-2.43-11.4-2.66-15.867-.51-9.927-.47-23.017 4.5-36.238 8.57-22.91 29.59-40.817 62.47-53.225 11.53-4.37 24.74-8.169 39.28-11.288 20.69-4.443 44.02-7.432 69.37-8.882 23.88-1.366 49-1.344 74.69.064 21.67 1.214 42.99 3.416 63.35 6.54 20.56 3.158 39.62 7.18 56.67 11.955 19.71 5.518 37.72 12.094 53.51 19.547 14.98 7.062 28.1 14.967 39 23.495 20.47 16.011 33.09 34.246 36.51 52.733l-1.49.035c-7.36-39.827-54.18-74.595-128.45-95.387-33.67-9.433-76.05-15.964-119.32-18.389-53.35-2.923-102.82.102-143.06 8.748-14.42 3.094-27.53 6.861-38.97 11.198-32.66 12.325-53.55 30.132-62.08 52.928-4.95 13.185-4.99 26.249-4.48 36.157.23 4.451 1.41 9.982 2.65 15.837 2.3 10.798 4.9 23.039 3.41 34.988-1.73 13.915-8.74 24.484-21.42 32.31-6.83 4.221-15.45 7.669-25.65 10.246-11.06 2.796-24.3 4.657-39.37 5.533-23.36 1.387-48.51.141-76.88-3.81-24.66-3.435-48.28-8.424-69.13-12.824-27.03-5.742-53.65-11.977-79.11-18.53-21.03-5.418-41.67-11.157-61.36-17.058-40.67-12.186-76.73-26.772-111.6-40.877-13.38-5.415-27.23-11.013-41.17-16.413-27.56-10.675-49.94-18.434-72.56-25.158-50.16-14.907-106.78-21.664-168.292-20.09-96.927 2.416-185.963 24.713-243.588 42.993-41.421 13.196-80.533 28.727-110.13 43.733-22.742 11.53-39.585 23.553-57.418 36.281-1.987 1.418-3.977 2.839-5.979 4.261-3.902 2.772-9.066 6.421-14.41 10.056-21.003 14.3-52.278 30.837-108.165 31.794-1.987.032-3.999.049-6.024.049"/><path d="M400.313 251.309c-50.446 0-103.376-11.084-150.298-20.912-14.419-3.019-28.038-5.872-40.98-8.284L0 183.159l.727-.499 209.035 38.954c12.977 2.418 26.612 5.274 41.05 8.298 48.735 10.207 103.977 21.776 155.868 20.773 56.344-1.087 86.025-18.858 105.59-34.217 6.398-5.023 12.576-10.135 18.553-15.078 16.346-13.519 33.246-27.499 55.739-40.51 17.861-10.331 40.048-21.166 64.163-31.331 26.454-11.152 54.778-21.384 84.18-30.41 32.418-9.951 65.381-18.183 97.969-24.466 36.046-6.95 71.556-11.486 105.552-13.486 68.104-4.005 130.044 2.073 184.094 18.067 44.92 13.29 83.09 29.726 120.02 45.62 32.13 13.834 65.36 28.139 102.99 40.367 43.47 14.123 90.51 27.156 139.83 38.737 41.55 9.757 93.26 21.902 146.55 19.172 45.01-2.305 71.04-13.08 79.56-32.942 7.25-16.894.35-36.935-5.19-53.038-1.89-5.487-3.67-10.671-4.54-14.874-4.83-23.172-1.75-42.3 9.41-58.477 6.96-10.093 17.24-19.09 30.55-26.741 14.86-8.546 33.94-15.67 56.7-21.175 19.7-4.763 41.9-8.221 65.98-10.28 22.93-1.96 47.07-2.618 71.75-1.953 48.54 1.307 96.02 7.679 133.7 17.941 20.14 5.485 38.42 12.085 54.34 19.614 15.09 7.136 28.17 15.152 38.86 23.826 20.15 16.342 31.71 34.938 33.46 53.778l-1.58.02c-3.71-40.12-50.83-76.304-126.04-96.788C1989 .306 1875.62-2.09 1799.28 16.37c-75.63 18.284-107.02 52.919-95.98 105.883.87 4.19 2.66 9.367 4.54 14.848 5.55 16.137 12.47 36.221 5.18 53.192-3.96 9.244-11.94 16.672-23.69 22.081-6.62 3.041-14.59 5.526-23.7 7.385-9.69 1.978-20.96 3.307-33.5 3.949q-7.68.393-15.63.394c-19.31 0-39.89-1.747-62.43-5.287-25.39-3.988-49.89-9.743-69.58-14.366-49.38-11.598-96.49-24.648-140.02-38.791-37.71-12.254-70.98-26.576-103.15-40.425-36.88-15.874-75.01-32.288-119.81-45.545-53.69-15.885-115.21-21.923-182.838-17.945-136.809 8.046-277.735 57.183-350.781 99.433-22.433 12.975-39.311 26.936-55.635 40.437-5.98 4.946-12.161 10.06-18.566 15.088-12.989 10.197-25.818 17.499-40.372 22.976-9.085 3.418-18.941 6.113-29.295 8.009-11.512 2.108-24.051 3.307-37.27 3.562-2.135.04-4.286.06-6.44.06"/></g></svg>