<svg width="20" height="20" viewBox="0 0 20 20" fill="none" xmlns="http://www.w3.org/2000/svg">
<path d="M7 4.61671V12.8667M13 6.86671V15.1167M13.503 18.6147L18.378 16.1777C18.759 15.9877 19 15.5977 19 15.1717V2.68671C19 1.85071 18.12 1.30671 17.372 1.68071L13.503 3.61471C13.186 3.77371 12.813 3.77371 12.497 3.61471L7.503 1.11871C7.34682 1.04064 7.17461 1 7 1C6.82539 1 6.65318 1.04064 6.497 1.11871L1.622 3.55571C1.24 3.74671 1 4.13671 1 4.56171V17.0467C1 17.8827 1.88 18.4267 2.628 18.0527L6.497 16.1187C6.814 15.9597 7.187 15.9597 7.503 16.1187L12.497 18.6157C12.814 18.7737 13.187 18.7737 13.503 18.6157V18.6147Z" stroke="url(#paint0_linear_2493_10597)" stroke-width="1.5" stroke-linecap="round" stroke-linejoin="round"/>
<defs>
<linearGradient id="paint0_linear_2493_10597" x1="1" y1="9.86719" x2="19" y2="9.86719" gradientUnits="userSpaceOnUse">
<stop stop-color="#0043FF"/>
<stop offset="1" stop-color="#12274F"/>
</linearGradient>
</defs>
</svg>
