<svg width="22" height="17" viewBox="0 0 22 17" fill="none" xmlns="http://www.w3.org/2000/svg">
<path d="M7.00002 14.5005C7.00002 14.8983 6.84198 15.2798 6.56068 15.5611C6.27937 15.8424 5.89784 16.0005 5.50002 16.0005C5.10219 16.0005 4.72066 15.8424 4.43936 15.5611C4.15805 15.2798 4.00002 14.8983 4.00002 14.5005M7.00002 14.5005C7.00002 14.1027 6.84198 13.7211 6.56068 13.4398C6.27937 13.1585 5.89784 13.0005 5.50002 13.0005C5.10219 13.0005 4.72066 13.1585 4.43936 13.4398C4.15805 13.7211 4.00002 14.1027 4.00002 14.5005M7.00002 14.5005H13M4.00002 14.5005H2.12502C1.82665 14.5005 1.5405 14.382 1.32952 14.171C1.11855 13.96 1.00002 13.6738 1.00002 13.3755V10.0005M13 14.5005H15.25M13 14.5005V10.0005M1.00002 10.0005V2.36548C0.998429 2.09165 1.09848 1.82696 1.28081 1.62265C1.46313 1.41835 1.71477 1.28894 1.98702 1.25948C5.32006 0.913507 8.67997 0.913507 12.013 1.25948C12.578 1.31748 13 1.79748 13 2.36548V3.32348M1.00002 10.0005H13M18.25 14.5005C18.25 14.8983 18.092 15.2798 17.8107 15.5611C17.5294 15.8424 17.1478 16.0005 16.75 16.0005C16.3522 16.0005 15.9707 15.8424 15.6894 15.5611C15.4081 15.2798 15.25 14.8983 15.25 14.5005M18.25 14.5005C18.25 14.1027 18.092 13.7211 17.8107 13.4398C17.5294 13.1585 17.1478 13.0005 16.75 13.0005C16.3522 13.0005 15.9707 13.1585 15.6894 13.4398C15.4081 13.7211 15.25 14.1027 15.25 14.5005M18.25 14.5005H19.375C19.996 14.5005 20.504 13.9965 20.465 13.3765C20.2641 10.0741 19.1519 6.89204 17.252 4.18348C17.0711 3.92976 16.8348 3.7205 16.5611 3.57151C16.2873 3.42252 15.9833 3.33771 15.672 3.32348H13M13 3.32348V10.0005" stroke="url(#paint0_linear_2493_10585)" stroke-width="1.5" stroke-linecap="round" stroke-linejoin="round"/>
<defs>
<linearGradient id="paint0_linear_2493_10585" x1="0.75" y1="8.75" x2="20.75" y2="8.75" gradientUnits="userSpaceOnUse">
<stop stop-color="#0043FF"/>
<stop offset="1" stop-color="#12274F"/>
</linearGradient>
</defs>
</svg>
