<svg width="544" height="517" viewBox="0 0 544 517" fill="none" xmlns="http://www.w3.org/2000/svg">
<g opacity="0.03">
<path d="M494.404 224.039H262.622L25.4844 2H314.088C320.836 2 327.345 4.57213 332.277 9.18607L512.58 178.006C530.186 194.499 518.519 224.039 494.391 224.039H494.404Z" fill="#0043FF"/>
<path d="M156.665 224.039H-290.031V2H-80.6471L156.665 224.039Z" fill="#0043FF"/>
<path d="M494.404 296.051H262.622L25.4844 518.09H314.088C320.836 518.09 327.345 515.518 332.277 510.904L512.58 342.084C530.186 325.591 518.519 296.051 494.391 296.051H494.404Z" fill="#0043FF"/>
<path d="M156.665 296.051H-290.031V518.09H-80.6471L156.665 296.051Z" fill="#0043FF"/>
</g>
<rect x="1" y="-6" width="543" height="98" fill="url(#paint0_linear_2560_8361)"/>
<defs>
<linearGradient id="paint0_linear_2560_8361" x1="249.516" y1="-6" x2="249.516" y2="92" gradientUnits="userSpaceOnUse">
<stop stop-color="white"/>
<stop offset="1" stop-color="white" stop-opacity="0"/>
</linearGradient>
</defs>
</svg>
