<svg width="557" height="517" viewBox="0 0 557 517" fill="none" xmlns="http://www.w3.org/2000/svg">
<g opacity="0.03">
<path d="M76.7524 229.039H308.534L545.672 7H257.068C250.32 7 243.811 9.57213 238.879 14.1861L58.5764 183.006C40.9703 199.499 52.6369 229.039 76.7657 229.039H76.7524Z" fill="#0043FF"/>
<path d="M414.492 229.039H861.188V7H651.803L414.492 229.039Z" fill="#0043FF"/>
<path d="M76.7524 301.051H308.534L545.672 523.09H257.068C250.32 523.09 243.811 520.518 238.879 515.904L58.5764 347.084C40.9703 330.591 52.6369 301.051 76.7657 301.051H76.7524Z" fill="#0043FF"/>
<path d="M414.492 301.051H861.188V523.09H651.803L414.492 301.051Z" fill="#0043FF"/>
</g>
<rect y="-6" width="558" height="98" fill="url(#paint0_linear_2611_5987)"/>
<defs>
<linearGradient id="paint0_linear_2611_5987" x1="255.381" y1="-6" x2="255.381" y2="92" gradientUnits="userSpaceOnUse">
<stop stop-color="white"/>
<stop offset="1" stop-color="white" stop-opacity="0"/>
</linearGradient>
</defs>
</svg>
