<svg xmlns="http://www.w3.org/2000/svg" width="32" height="43" fill="none"><mask id="a" width="32" height="43" x="0" y="0" maskUnits="userSpaceOnUse" style="mask-type:alpha"><path fill="#000" d="M1.938 21.27V3.725c0-1.081.905-1.922 2.068-1.922H16.54c1.163 0 2.067.84 2.067 1.922v2.043h1.939V3.725C20.546 1.682 18.736 0 16.54 0H4.006C1.809 0 0 1.682 0 3.725V43h1.938z"/><path fill="#000" d="M9.82 9.132c-1.81.6-3.101 2.163-3.101 3.965v3.245h24.81v-3.365c0-1.802-1.163-3.365-2.972-3.966-6.074-2.042-12.405-1.922-18.737.12M31.658 18.147H6.718v11.776c1.277-.086 2.714-7.69 4.136-7.21 2.455.841 4.006 3.004 4.006 5.408l-8.141 1.802h24.81V18.147zM31.568 31.386H6.718V43h24.85z"/><path fill="#000" d="M19.222 20.623H6.797v9.292h12.425z"/></mask><g mask="url(#a)"><path fill="url(#b)" d="M-10.766-5.42H45.56v58.846h-56.326z"/></g><defs><linearGradient id="b" x1="-.826" x2="31.893" y1="24.777" y2="24.777" gradientUnits="userSpaceOnUse"><stop stop-color="#0043FF"/><stop offset="1" stop-color="#12274F"/></linearGradient></defs></svg>