<svg width="494" height="232" viewBox="0 0 494 232" fill="none" xmlns="http://www.w3.org/2000/svg">
<g clip-path="url(#clip0_1699_4315)">
<rect width="494" height="232" rx="15" fill="white"/>
<rect x="83.1719" y="68.2432" width="11.7769" height="54.1739" rx="5.88847" transform="rotate(90 83.1719 68.2432)" fill="#D9D9D9"/>
<rect x="394.477" y="68.1318" width="12" height="297" rx="6.00001" transform="rotate(90 394.477 68.1318)" fill="#0043FF"/>
<path d="M410.881 73.368C410.081 72.952 409.681 72.308 409.681 71.436C409.681 71.004 409.789 70.612 410.005 70.26C410.229 69.9 410.561 69.616 411.001 69.408C411.449 69.192 411.993 69.084 412.633 69.084C413.273 69.084 413.813 69.192 414.253 69.408C414.701 69.616 415.033 69.9 415.249 70.26C415.473 70.612 415.585 71.004 415.585 71.436C415.585 71.876 415.477 72.264 415.261 72.6C415.045 72.928 414.757 73.184 414.397 73.368C414.837 73.56 415.181 73.84 415.429 74.208C415.677 74.576 415.801 75.012 415.801 75.516C415.801 76.06 415.661 76.536 415.381 76.944C415.109 77.344 414.733 77.652 414.253 77.868C413.773 78.084 413.233 78.192 412.633 78.192C412.033 78.192 411.493 78.084 411.013 77.868C410.541 77.652 410.165 77.344 409.885 76.944C409.613 76.536 409.477 76.06 409.477 75.516C409.477 75.012 409.601 74.576 409.849 74.208C410.097 73.832 410.441 73.552 410.881 73.368ZM413.953 71.676C413.953 71.284 413.833 70.98 413.593 70.764C413.361 70.548 413.041 70.44 412.633 70.44C412.233 70.44 411.913 70.548 411.673 70.764C411.441 70.98 411.325 71.288 411.325 71.688C411.325 72.048 411.445 72.336 411.685 72.552C411.933 72.768 412.249 72.876 412.633 72.876C413.017 72.876 413.333 72.768 413.581 72.552C413.829 72.328 413.953 72.036 413.953 71.676ZM412.633 74.1C412.177 74.1 411.805 74.216 411.517 74.448C411.237 74.68 411.097 75.012 411.097 75.444C411.097 75.844 411.233 76.172 411.505 76.428C411.785 76.676 412.161 76.8 412.633 76.8C413.105 76.8 413.477 76.672 413.749 76.416C414.021 76.16 414.157 75.836 414.157 75.444C414.157 75.02 414.017 74.692 413.737 74.46C413.457 74.22 413.089 74.1 412.633 74.1ZM417.128 73.512C417.128 72.128 417.376 71.044 417.872 70.26C418.376 69.476 419.208 69.084 420.368 69.084C421.528 69.084 422.356 69.476 422.852 70.26C423.356 71.044 423.608 72.128 423.608 73.512C423.608 74.904 423.356 75.996 422.852 76.788C422.356 77.58 421.528 77.976 420.368 77.976C419.208 77.976 418.376 77.58 417.872 76.788C417.376 75.996 417.128 74.904 417.128 73.512ZM421.952 73.512C421.952 72.92 421.912 72.424 421.832 72.024C421.76 71.616 421.608 71.284 421.376 71.028C421.152 70.772 420.816 70.644 420.368 70.644C419.92 70.644 419.58 70.772 419.348 71.028C419.124 71.284 418.972 71.616 418.892 72.024C418.82 72.424 418.784 72.92 418.784 73.512C418.784 74.12 418.82 74.632 418.892 75.048C418.964 75.456 419.116 75.788 419.348 76.044C419.58 76.292 419.92 76.416 420.368 76.416C420.816 76.416 421.156 76.292 421.388 76.044C421.62 75.788 421.772 75.456 421.844 75.048C421.916 74.632 421.952 74.12 421.952 73.512ZM424.694 71.4C424.694 70.792 424.87 70.316 425.222 69.972C425.582 69.628 426.042 69.456 426.602 69.456C427.162 69.456 427.618 69.628 427.97 69.972C428.33 70.316 428.51 70.792 428.51 71.4C428.51 72.016 428.33 72.496 427.97 72.84C427.618 73.184 427.162 73.356 426.602 73.356C426.042 73.356 425.582 73.184 425.222 72.84C424.87 72.496 424.694 72.016 424.694 71.4ZM432.398 69.6L427.682 78H426.05L430.754 69.6H432.398ZM426.59 70.464C426.15 70.464 425.93 70.776 425.93 71.4C425.93 72.032 426.15 72.348 426.59 72.348C426.806 72.348 426.974 72.272 427.094 72.12C427.214 71.96 427.274 71.72 427.274 71.4C427.274 70.776 427.046 70.464 426.59 70.464ZM429.962 76.188C429.962 75.572 430.138 75.096 430.49 74.76C430.85 74.416 431.31 74.244 431.87 74.244C432.43 74.244 432.882 74.416 433.226 74.76C433.578 75.096 433.754 75.572 433.754 76.188C433.754 76.804 433.578 77.284 433.226 77.628C432.882 77.972 432.43 78.144 431.87 78.144C431.302 78.144 430.842 77.972 430.49 77.628C430.138 77.284 429.962 76.804 429.962 76.188ZM431.858 75.252C431.402 75.252 431.174 75.564 431.174 76.188C431.174 76.82 431.402 77.136 431.858 77.136C432.306 77.136 432.53 76.82 432.53 76.188C432.53 75.564 432.306 75.252 431.858 75.252Z" fill="black"/>
<rect x="83.1719" y="107.28" width="11.7769" height="54.1739" rx="5.88847" transform="rotate(90 83.1719 107.28)" fill="#D9D9D9"/>
<rect x="177.336" y="107.507" width="11.3237" height="79.8619" rx="5.66185" transform="rotate(90 177.336 107.507)" fill="#12274F"/>
<path d="M192.301 110.891C192.341 110.091 192.621 109.475 193.141 109.043C193.669 108.603 194.361 108.383 195.217 108.383C195.801 108.383 196.301 108.487 196.717 108.695C197.133 108.895 197.445 109.171 197.653 109.523C197.869 109.867 197.977 110.259 197.977 110.699C197.977 111.203 197.845 111.631 197.581 111.983C197.325 112.327 197.017 112.559 196.657 112.679V112.727C197.121 112.871 197.481 113.127 197.737 113.495C198.001 113.863 198.133 114.335 198.133 114.911C198.133 115.391 198.021 115.819 197.797 116.195C197.581 116.571 197.257 116.867 196.825 117.083C196.401 117.291 195.889 117.395 195.289 117.395C194.385 117.395 193.649 117.167 193.081 116.711C192.513 116.255 192.213 115.583 192.181 114.695H193.813C193.829 115.087 193.961 115.403 194.209 115.643C194.465 115.875 194.813 115.991 195.253 115.991C195.661 115.991 195.973 115.879 196.189 115.655C196.413 115.423 196.525 115.127 196.525 114.767C196.525 114.287 196.373 113.943 196.069 113.735C195.765 113.527 195.293 113.423 194.653 113.423H194.305V112.043H194.653C195.789 112.043 196.357 111.663 196.357 110.903C196.357 110.559 196.253 110.291 196.045 110.099C195.845 109.907 195.553 109.811 195.169 109.811C194.793 109.811 194.501 109.915 194.293 110.123C194.093 110.323 193.977 110.579 193.945 110.891H192.301ZM199.46 112.847C199.46 111.463 199.708 110.379 200.204 109.595C200.708 108.811 201.54 108.419 202.7 108.419C203.86 108.419 204.688 108.811 205.184 109.595C205.688 110.379 205.94 111.463 205.94 112.847C205.94 114.239 205.688 115.331 205.184 116.123C204.688 116.915 203.86 117.311 202.7 117.311C201.54 117.311 200.708 116.915 200.204 116.123C199.708 115.331 199.46 114.239 199.46 112.847ZM204.284 112.847C204.284 112.255 204.244 111.759 204.164 111.359C204.092 110.951 203.94 110.619 203.708 110.363C203.484 110.107 203.148 109.979 202.7 109.979C202.252 109.979 201.912 110.107 201.68 110.363C201.456 110.619 201.304 110.951 201.224 111.359C201.152 111.759 201.116 112.255 201.116 112.847C201.116 113.455 201.152 113.967 201.224 114.383C201.296 114.791 201.448 115.123 201.68 115.379C201.912 115.627 202.252 115.751 202.7 115.751C203.148 115.751 203.488 115.627 203.72 115.379C203.952 115.123 204.104 114.791 204.176 114.383C204.248 113.967 204.284 113.455 204.284 112.847ZM207.026 110.735C207.026 110.127 207.202 109.651 207.554 109.307C207.914 108.963 208.374 108.791 208.934 108.791C209.494 108.791 209.95 108.963 210.302 109.307C210.662 109.651 210.842 110.127 210.842 110.735C210.842 111.351 210.662 111.831 210.302 112.175C209.95 112.519 209.494 112.691 208.934 112.691C208.374 112.691 207.914 112.519 207.554 112.175C207.202 111.831 207.026 111.351 207.026 110.735ZM214.73 108.935L210.014 117.335H208.382L213.086 108.935H214.73ZM208.922 109.799C208.482 109.799 208.262 110.111 208.262 110.735C208.262 111.367 208.482 111.683 208.922 111.683C209.138 111.683 209.306 111.607 209.426 111.455C209.546 111.295 209.606 111.055 209.606 110.735C209.606 110.111 209.378 109.799 208.922 109.799ZM212.294 115.523C212.294 114.907 212.47 114.431 212.822 114.095C213.182 113.751 213.642 113.579 214.202 113.579C214.762 113.579 215.214 113.751 215.558 114.095C215.91 114.431 216.086 114.907 216.086 115.523C216.086 116.139 215.91 116.619 215.558 116.963C215.214 117.307 214.762 117.479 214.202 117.479C213.634 117.479 213.174 117.307 212.822 116.963C212.47 116.619 212.294 116.139 212.294 115.523ZM214.19 114.587C213.734 114.587 213.506 114.899 213.506 115.523C213.506 116.155 213.734 116.471 214.19 116.471C214.638 116.471 214.862 116.155 214.862 115.523C214.862 114.899 214.638 114.587 214.19 114.587Z" fill="black"/>
<rect x="83.1719" y="146.02" width="11.7769" height="54.1739" rx="5.88847" transform="rotate(90 83.1719 146.02)" fill="#D9D9D9"/>
<rect x="415.141" y="145.948" width="11.9197" height="317.66" rx="5.95985" transform="rotate(90 415.141 145.948)" fill="#12274F"/>
<path d="M429.87 148.874V147.326H432.762V156.074H431.034V148.874H429.87ZM434.421 151.586C434.421 150.202 434.669 149.118 435.165 148.334C435.669 147.55 436.501 147.158 437.661 147.158C438.821 147.158 439.649 147.55 440.145 148.334C440.649 149.118 440.901 150.202 440.901 151.586C440.901 152.978 440.649 154.07 440.145 154.862C439.649 155.654 438.821 156.05 437.661 156.05C436.501 156.05 435.669 155.654 435.165 154.862C434.669 154.07 434.421 152.978 434.421 151.586ZM439.245 151.586C439.245 150.994 439.205 150.498 439.125 150.098C439.053 149.69 438.901 149.358 438.669 149.102C438.445 148.846 438.109 148.718 437.661 148.718C437.213 148.718 436.873 148.846 436.641 149.102C436.417 149.358 436.265 149.69 436.185 150.098C436.113 150.498 436.077 150.994 436.077 151.586C436.077 152.194 436.113 152.706 436.185 153.122C436.257 153.53 436.409 153.862 436.641 154.118C436.873 154.366 437.213 154.49 437.661 154.49C438.109 154.49 438.449 154.366 438.681 154.118C438.913 153.862 439.065 153.53 439.137 153.122C439.209 152.706 439.245 152.194 439.245 151.586ZM442.179 151.586C442.179 150.202 442.427 149.118 442.923 148.334C443.427 147.55 444.259 147.158 445.419 147.158C446.579 147.158 447.407 147.55 447.903 148.334C448.407 149.118 448.659 150.202 448.659 151.586C448.659 152.978 448.407 154.07 447.903 154.862C447.407 155.654 446.579 156.05 445.419 156.05C444.259 156.05 443.427 155.654 442.923 154.862C442.427 154.07 442.179 152.978 442.179 151.586ZM447.003 151.586C447.003 150.994 446.963 150.498 446.883 150.098C446.811 149.69 446.659 149.358 446.427 149.102C446.203 148.846 445.867 148.718 445.419 148.718C444.971 148.718 444.631 148.846 444.399 149.102C444.175 149.358 444.023 149.69 443.943 150.098C443.871 150.498 443.835 150.994 443.835 151.586C443.835 152.194 443.871 152.706 443.943 153.122C444.015 153.53 444.167 153.862 444.399 154.118C444.631 154.366 444.971 154.49 445.419 154.49C445.867 154.49 446.207 154.366 446.439 154.118C446.671 153.862 446.823 153.53 446.895 153.122C446.967 152.706 447.003 152.194 447.003 151.586ZM449.745 149.474C449.745 148.866 449.921 148.39 450.273 148.046C450.633 147.702 451.093 147.53 451.653 147.53C452.213 147.53 452.669 147.702 453.021 148.046C453.381 148.39 453.561 148.866 453.561 149.474C453.561 150.09 453.381 150.57 453.021 150.914C452.669 151.258 452.213 151.43 451.653 151.43C451.093 151.43 450.633 151.258 450.273 150.914C449.921 150.57 449.745 150.09 449.745 149.474ZM457.449 147.674L452.733 156.074H451.101L455.805 147.674H457.449ZM451.641 148.538C451.201 148.538 450.981 148.85 450.981 149.474C450.981 150.106 451.201 150.422 451.641 150.422C451.857 150.422 452.025 150.346 452.145 150.194C452.265 150.034 452.325 149.794 452.325 149.474C452.325 148.85 452.097 148.538 451.641 148.538ZM455.013 154.262C455.013 153.646 455.189 153.17 455.541 152.834C455.901 152.49 456.361 152.318 456.921 152.318C457.481 152.318 457.933 152.49 458.277 152.834C458.629 153.17 458.805 153.646 458.805 154.262C458.805 154.878 458.629 155.358 458.277 155.702C457.933 156.046 457.481 156.218 456.921 156.218C456.353 156.218 455.893 156.046 455.541 155.702C455.189 155.358 455.013 154.878 455.013 154.262ZM456.909 153.326C456.453 153.326 456.225 153.638 456.225 154.262C456.225 154.894 456.453 155.21 456.909 155.21C457.357 155.21 457.581 154.894 457.581 154.262C457.581 153.638 457.357 153.326 456.909 153.326Z" fill="black"/>
<rect x="83.1719" y="184.758" width="11.7769" height="54.1739" rx="5.88847" transform="rotate(90 83.1719 184.758)" fill="#D9D9D9"/>
<rect x="351.367" y="184.984" width="11.3237" height="253.889" rx="5.66186" transform="rotate(90 351.367 184.984)" fill="#0043FF"/>
<path d="M371.876 187.336L368.684 194.812H366.98L370.196 187.528H366.092V186.088H371.876V187.336ZM378.762 187.516H374.874V189.568C375.042 189.36 375.282 189.192 375.594 189.064C375.906 188.928 376.238 188.86 376.59 188.86C377.23 188.86 377.754 189 378.162 189.28C378.57 189.56 378.866 189.92 379.05 190.36C379.234 190.792 379.326 191.256 379.326 191.752C379.326 192.672 379.062 193.412 378.534 193.972C378.014 194.532 377.27 194.812 376.302 194.812C375.39 194.812 374.662 194.584 374.118 194.128C373.574 193.672 373.266 193.076 373.194 192.34H374.826C374.898 192.66 375.058 192.916 375.306 193.108C375.562 193.3 375.886 193.396 376.278 193.396C376.75 193.396 377.106 193.248 377.346 192.952C377.586 192.656 377.706 192.264 377.706 191.776C377.706 191.28 377.582 190.904 377.334 190.648C377.094 190.384 376.738 190.252 376.266 190.252C375.93 190.252 375.65 190.336 375.426 190.504C375.202 190.672 375.042 190.896 374.946 191.176H373.338V186.04H378.762V187.516ZM380.413 188.212C380.413 187.604 380.589 187.128 380.941 186.784C381.301 186.44 381.761 186.268 382.321 186.268C382.881 186.268 383.337 186.44 383.689 186.784C384.049 187.128 384.229 187.604 384.229 188.212C384.229 188.828 384.049 189.308 383.689 189.652C383.337 189.996 382.881 190.168 382.321 190.168C381.761 190.168 381.301 189.996 380.941 189.652C380.589 189.308 380.413 188.828 380.413 188.212ZM388.117 186.412L383.401 194.812H381.769L386.473 186.412H388.117ZM382.309 187.276C381.869 187.276 381.649 187.588 381.649 188.212C381.649 188.844 381.869 189.16 382.309 189.16C382.525 189.16 382.693 189.084 382.813 188.932C382.933 188.772 382.993 188.532 382.993 188.212C382.993 187.588 382.765 187.276 382.309 187.276ZM385.681 193C385.681 192.384 385.857 191.908 386.209 191.572C386.569 191.228 387.029 191.056 387.589 191.056C388.149 191.056 388.601 191.228 388.945 191.572C389.297 191.908 389.473 192.384 389.473 193C389.473 193.616 389.297 194.096 388.945 194.44C388.601 194.784 388.149 194.957 387.589 194.957C387.021 194.957 386.561 194.784 386.209 194.44C385.857 194.096 385.681 193.616 385.681 193ZM387.577 192.064C387.121 192.064 386.893 192.376 386.893 193C386.893 193.632 387.121 193.948 387.577 193.948C388.025 193.948 388.249 193.632 388.249 193C388.249 192.376 388.025 192.064 387.577 192.064Z" fill="black"/>
<path d="M35.44 31.272C36.0693 31.3893 36.5867 31.704 36.992 32.216C37.3973 32.728 37.6 33.3147 37.6 33.976C37.6 34.5733 37.4507 35.1013 37.152 35.56C36.864 36.008 36.4427 36.36 35.888 36.616C35.3333 36.872 34.6773 37 33.92 37H29.104V25.832H33.712C34.4693 25.832 35.12 25.9547 35.664 26.2C36.2187 26.4453 36.6347 26.7867 36.912 27.224C37.2 27.6613 37.344 28.1573 37.344 28.712C37.344 29.3627 37.168 29.9067 36.816 30.344C36.4747 30.7813 36.016 31.0907 35.44 31.272ZM31.344 30.44H33.392C33.9253 30.44 34.336 30.3227 34.624 30.088C34.912 29.8427 35.056 29.496 35.056 29.048C35.056 28.6 34.912 28.2533 34.624 28.008C34.336 27.7627 33.9253 27.64 33.392 27.64H31.344V30.44ZM33.6 35.176C34.144 35.176 34.5653 35.048 34.864 34.792C35.1733 34.536 35.328 34.1733 35.328 33.704C35.328 33.224 35.168 32.8507 34.848 32.584C34.528 32.3067 34.096 32.168 33.552 32.168H31.344V35.176H33.6ZM40.5213 27.08C40.1266 27.08 39.7959 26.9573 39.5293 26.712C39.2733 26.456 39.1453 26.1413 39.1453 25.768C39.1453 25.3947 39.2733 25.0853 39.5293 24.84C39.7959 24.584 40.1266 24.456 40.5213 24.456C40.9159 24.456 41.2413 24.584 41.4973 24.84C41.7639 25.0853 41.8973 25.3947 41.8973 25.768C41.8973 26.1413 41.7639 26.456 41.4973 26.712C41.2413 26.9573 40.9159 27.08 40.5213 27.08ZM41.6253 28.136V37H39.3853V28.136H41.6253ZM48.7504 28.008C49.8064 28.008 50.6597 28.344 51.3104 29.016C51.961 29.6773 52.2864 30.6053 52.2864 31.8V37H50.0464V32.104C50.0464 31.4 49.8704 30.8613 49.5184 30.488C49.1664 30.104 48.6864 29.912 48.0784 29.912C47.4597 29.912 46.969 30.104 46.6064 30.488C46.2544 30.8613 46.0784 31.4 46.0784 32.104V37H43.8384V28.136H46.0784V29.24C46.377 28.856 46.7557 28.5573 47.2144 28.344C47.6837 28.12 48.1957 28.008 48.7504 28.008ZM60.469 25.16V37H58.229V25.16H60.469ZM70.9221 32.376C70.9221 32.696 70.9008 32.984 70.8581 33.24H64.3781C64.4315 33.88 64.6555 34.3813 65.0501 34.744C65.4448 35.1067 65.9301 35.288 66.5061 35.288C67.3381 35.288 67.9301 34.9307 68.2821 34.216H70.6981C70.4421 35.0693 69.9515 35.7733 69.2261 36.328C68.5008 36.872 67.6101 37.144 66.5541 37.144C65.7008 37.144 64.9328 36.9573 64.2501 36.584C63.5781 36.2 63.0501 35.6613 62.6661 34.968C62.2928 34.2747 62.1061 33.4747 62.1061 32.568C62.1061 31.6507 62.2928 30.8453 62.6661 30.152C63.0395 29.4587 63.5621 28.9253 64.2341 28.552C64.9061 28.1787 65.6795 27.992 66.5541 27.992C67.3968 27.992 68.1488 28.1733 68.8101 28.536C69.4821 28.8987 69.9995 29.416 70.3621 30.088C70.7355 30.7493 70.9221 31.512 70.9221 32.376ZM68.6021 31.736C68.5915 31.16 68.3835 30.7013 67.9781 30.36C67.5728 30.008 67.0768 29.832 66.4901 29.832C65.9355 29.832 65.4661 30.0027 65.0821 30.344C64.7088 30.6747 64.4795 31.1387 64.3941 31.736H68.6021ZM76.2531 34.936L78.4931 28.136H80.8771L77.5971 37H74.8771L71.6131 28.136H74.0131L76.2531 34.936ZM90.3753 32.376C90.3753 32.696 90.3539 32.984 90.3113 33.24H83.8313C83.8846 33.88 84.1086 34.3813 84.5033 34.744C84.8979 35.1067 85.3833 35.288 85.9593 35.288C86.7913 35.288 87.3833 34.9307 87.7353 34.216H90.1513C89.8953 35.0693 89.4046 35.7733 88.6793 36.328C87.9539 36.872 87.0633 37.144 86.0073 37.144C85.1539 37.144 84.3859 36.9573 83.7033 36.584C83.0313 36.2 82.5033 35.6613 82.1193 34.968C81.7459 34.2747 81.5592 33.4747 81.5592 32.568C81.5592 31.6507 81.7459 30.8453 82.1193 30.152C82.4926 29.4587 83.0153 28.9253 83.6873 28.552C84.3593 28.1787 85.1326 27.992 86.0073 27.992C86.8499 27.992 87.6019 28.1733 88.2633 28.536C88.9353 28.8987 89.4526 29.416 89.8153 30.088C90.1886 30.7493 90.3753 31.512 90.3753 32.376ZM88.0553 31.736C88.0446 31.16 87.8366 30.7013 87.4313 30.36C87.0259 30.008 86.5299 29.832 85.9433 29.832C85.3886 29.832 84.9193 30.0027 84.5353 30.344C84.1619 30.6747 83.9326 31.1387 83.8473 31.736H88.0553ZM94.2503 25.16V37H92.0103V25.16H94.2503Z" fill="black"/>
</g>
<defs>
<clipPath id="clip0_1699_4315">
<rect width="494" height="232" rx="15" fill="white"/>
</clipPath>
</defs>
</svg>
