<svg width="193" height="166" viewBox="0 0 193 166" fill="none" xmlns="http://www.w3.org/2000/svg">
<rect width="192.175" height="165.335" rx="15.0305" fill="white"/>
<rect width="9.30457" height="23.2668" rx="4.65228" transform="matrix(1 0 0 -1 25 142.267)" fill="#12274F"/>
<rect x="61.9062" y="79.1992" width="9.30457" height="62.3972" rx="4.65228" fill="#12274F"/>
<rect x="80.5156" y="98.5" width="9.30457" height="43.0964" rx="4.65229" fill="#12274F"/>
<rect x="43" y="127" width="9" height="13" rx="4.5" fill="#12274F"/>
<rect x="99.125" y="58.5762" width="9.30457" height="83.02" rx="4.65229" fill="#0043FF"/>
<rect x="117.734" y="82.9004" width="9.30457" height="58.6957" rx="4.65229" fill="#12274F"/>
<rect x="136.344" y="71.5312" width="9.30456" height="70.0647" rx="4.65228" fill="#12274F"/>
<rect x="154.953" y="109.604" width="9.30456" height="31.9918" rx="4.65228" fill="#12274F"/>
<path d="M31.44 32.272C32.0693 32.3893 32.5867 32.704 32.992 33.216C33.3973 33.728 33.6 34.3147 33.6 34.976C33.6 35.5733 33.4507 36.1013 33.152 36.56C32.864 37.008 32.4427 37.36 31.888 37.616C31.3333 37.872 30.6773 38 29.92 38H25.104V26.832H29.712C30.4693 26.832 31.12 26.9547 31.664 27.2C32.2187 27.4453 32.6347 27.7867 32.912 28.224C33.2 28.6613 33.344 29.1573 33.344 29.712C33.344 30.3627 33.168 30.9067 32.816 31.344C32.4747 31.7813 32.016 32.0907 31.44 32.272ZM27.344 31.44H29.392C29.9253 31.44 30.336 31.3227 30.624 31.088C30.912 30.8427 31.056 30.496 31.056 30.048C31.056 29.6 30.912 29.2533 30.624 29.008C30.336 28.7627 29.9253 28.64 29.392 28.64H27.344V31.44ZM29.6 36.176C30.144 36.176 30.5653 36.048 30.864 35.792C31.1733 35.536 31.328 35.1733 31.328 34.704C31.328 34.224 31.168 33.8507 30.848 33.584C30.528 33.3067 30.096 33.168 29.552 33.168H27.344V36.176H29.6ZM36.5213 28.08C36.1266 28.08 35.7959 27.9573 35.5293 27.712C35.2733 27.456 35.1453 27.1413 35.1453 26.768C35.1453 26.3947 35.2733 26.0853 35.5293 25.84C35.7959 25.584 36.1266 25.456 36.5213 25.456C36.9159 25.456 37.2413 25.584 37.4973 25.84C37.7639 26.0853 37.8973 26.3947 37.8973 26.768C37.8973 27.1413 37.7639 27.456 37.4973 27.712C37.2413 27.9573 36.9159 28.08 36.5213 28.08ZM37.6253 29.136V38H35.3853V29.136H37.6253ZM44.7504 29.008C45.8064 29.008 46.6597 29.344 47.3104 30.016C47.961 30.6773 48.2864 31.6053 48.2864 32.8V38H46.0464V33.104C46.0464 32.4 45.8704 31.8613 45.5184 31.488C45.1664 31.104 44.6864 30.912 44.0784 30.912C43.4597 30.912 42.969 31.104 42.6064 31.488C42.2544 31.8613 42.0784 32.4 42.0784 33.104V38H39.8384V29.136H42.0784V30.24C42.377 29.856 42.7557 29.5573 43.2144 29.344C43.6837 29.12 44.1957 29.008 44.7504 29.008ZM53.8085 38.144C53.0832 38.144 52.4325 38.016 51.8565 37.76C51.2805 37.4933 50.8218 37.136 50.4805 36.688C50.1498 36.24 49.9685 35.744 49.9365 35.2H52.1925C52.2352 35.5413 52.4005 35.824 52.6885 36.048C52.9872 36.272 53.3552 36.384 53.7925 36.384C54.2192 36.384 54.5498 36.2987 54.7845 36.128C55.0298 35.9573 55.1525 35.7387 55.1525 35.472C55.1525 35.184 55.0032 34.9707 54.7045 34.832C54.4165 34.6827 53.9525 34.5227 53.3125 34.352C52.6512 34.192 52.1072 34.0267 51.6805 33.856C51.2645 33.6853 50.9018 33.424 50.5925 33.072C50.2938 32.72 50.1445 32.2453 50.1445 31.648C50.1445 31.1573 50.2832 30.7093 50.5605 30.304C50.8485 29.8987 51.2538 29.5787 51.7765 29.344C52.3098 29.1093 52.9338 28.992 53.6485 28.992C54.7045 28.992 55.5472 29.2587 56.1765 29.792C56.8058 30.3147 57.1525 31.024 57.2165 31.92H55.0725C55.0405 31.568 54.8912 31.2907 54.6245 31.088C54.3685 30.8747 54.0218 30.768 53.5845 30.768C53.1792 30.768 52.8645 30.8427 52.6405 30.992C52.4272 31.1413 52.3205 31.3493 52.3205 31.616C52.3205 31.9147 52.4698 32.144 52.7685 32.304C53.0672 32.4533 53.5312 32.608 54.1605 32.768C54.8005 32.928 55.3285 33.0933 55.7445 33.264C56.1605 33.4347 56.5178 33.7013 56.8165 34.064C57.1258 34.416 57.2858 34.8853 57.2965 35.472C57.2965 35.984 57.1525 36.4427 56.8645 36.848C56.5872 37.2533 56.1818 37.5733 55.6485 37.808C55.1258 38.032 54.5125 38.144 53.8085 38.144ZM62.3717 33.568C62.3717 32.6507 62.5584 31.8507 62.9318 31.168C63.3051 30.4747 63.8224 29.9413 64.4838 29.568C65.1451 29.184 65.9024 28.992 66.7558 28.992C67.8544 28.992 68.7611 29.2693 69.4758 29.824C70.2011 30.368 70.6864 31.136 70.9318 32.128H68.5158C68.3878 31.744 68.1691 31.4453 67.8598 31.232C67.5611 31.008 67.1878 30.896 66.7398 30.896C66.0998 30.896 65.5931 31.1307 65.2198 31.6C64.8464 32.0587 64.6598 32.7147 64.6598 33.568C64.6598 34.4107 64.8464 35.0667 65.2198 35.536C65.5931 35.9947 66.0998 36.224 66.7398 36.224C67.6464 36.224 68.2384 35.8187 68.5158 35.008H70.9318C70.6864 35.968 70.2011 36.7307 69.4758 37.296C68.7504 37.8613 67.8438 38.144 66.7558 38.144C65.9024 38.144 65.1451 37.9573 64.4838 37.584C63.8224 37.2 63.3051 36.6667 62.9318 35.984C62.5584 35.2907 62.3717 34.4853 62.3717 33.568ZM76.5088 38.144C75.6554 38.144 74.8874 37.9573 74.2048 37.584C73.5221 37.2 72.9834 36.6613 72.5888 35.968C72.2048 35.2747 72.0128 34.4747 72.0128 33.568C72.0128 32.6613 72.2101 31.8613 72.6048 31.168C73.0101 30.4747 73.5594 29.9413 74.2528 29.568C74.9461 29.184 75.7194 28.992 76.5728 28.992C77.4261 28.992 78.1994 29.184 78.8928 29.568C79.5861 29.9413 80.1301 30.4747 80.5248 31.168C80.9301 31.8613 81.1328 32.6613 81.1328 33.568C81.1328 34.4747 80.9248 35.2747 80.5087 35.968C80.1034 36.6613 79.5488 37.2 78.8448 37.584C78.1514 37.9573 77.3728 38.144 76.5088 38.144ZM76.5088 36.192C76.9141 36.192 77.2928 36.096 77.6448 35.904C78.0074 35.7013 78.2954 35.4027 78.5088 35.008C78.7221 34.6133 78.8288 34.1333 78.8288 33.568C78.8288 32.7253 78.6048 32.08 78.1568 31.632C77.7194 31.1733 77.1808 30.944 76.5408 30.944C75.9008 30.944 75.3621 31.1733 74.9248 31.632C74.4981 32.08 74.2848 32.7253 74.2848 33.568C74.2848 34.4107 74.4928 35.0613 74.9088 35.52C75.3354 35.968 75.8688 36.192 76.5088 36.192ZM85.0159 26.16V38H82.7759V26.16H85.0159ZM89.469 26.16V38H87.229V26.16H89.469ZM99.9221 33.376C99.9221 33.696 99.9008 33.984 99.8581 34.24H93.3781C93.4315 34.88 93.6555 35.3813 94.0501 35.744C94.4448 36.1067 94.9301 36.288 95.5061 36.288C96.3381 36.288 96.9301 35.9307 97.2821 35.216H99.6981C99.4421 36.0693 98.9515 36.7733 98.2261 37.328C97.5008 37.872 96.6101 38.144 95.5541 38.144C94.7008 38.144 93.9328 37.9573 93.2501 37.584C92.5781 37.2 92.0501 36.6613 91.6661 35.968C91.2928 35.2747 91.1061 34.4747 91.1061 33.568C91.1061 32.6507 91.2928 31.8453 91.6661 31.152C92.0395 30.4587 92.5621 29.9253 93.2341 29.552C93.9061 29.1787 94.6795 28.992 95.5541 28.992C96.3968 28.992 97.1488 29.1733 97.8101 29.536C98.4821 29.8987 98.9995 30.416 99.3621 31.088C99.7355 31.7493 99.9221 32.512 99.9221 33.376ZM97.6021 32.736C97.5915 32.16 97.3835 31.7013 96.9781 31.36C96.5728 31.008 96.0768 30.832 95.4901 30.832C94.9355 30.832 94.4661 31.0027 94.0821 31.344C93.7088 31.6747 93.4795 32.1387 93.3941 32.736H97.6021ZM100.981 33.568C100.981 32.6507 101.168 31.8507 101.541 31.168C101.914 30.4747 102.432 29.9413 103.093 29.568C103.754 29.184 104.512 28.992 105.365 28.992C106.464 28.992 107.37 29.2693 108.085 29.824C108.81 30.368 109.296 31.136 109.541 32.128H107.125C106.997 31.744 106.778 31.4453 106.469 31.232C106.17 31.008 105.797 30.896 105.349 30.896C104.709 30.896 104.202 31.1307 103.829 31.6C103.456 32.0587 103.269 32.7147 103.269 33.568C103.269 34.4107 103.456 35.0667 103.829 35.536C104.202 35.9947 104.709 36.224 105.349 36.224C106.256 36.224 106.848 35.8187 107.125 35.008H109.541C109.296 35.968 108.81 36.7307 108.085 37.296C107.36 37.8613 106.453 38.144 105.365 38.144C104.512 38.144 103.754 37.9573 103.093 37.584C102.432 37.2 101.914 36.6667 101.541 35.984C101.168 35.2907 100.981 34.4853 100.981 33.568ZM113.79 30.976V35.264C113.79 35.5627 113.859 35.7813 113.998 35.92C114.147 36.048 114.393 36.112 114.734 36.112H115.774V38H114.366C112.478 38 111.534 37.0827 111.534 35.248V30.976H110.478V29.136H111.534V26.944H113.79V29.136H115.774V30.976H113.79ZM125.625 33.376C125.625 33.696 125.604 33.984 125.561 34.24H119.081C119.135 34.88 119.359 35.3813 119.753 35.744C120.148 36.1067 120.633 36.288 121.209 36.288C122.041 36.288 122.633 35.9307 122.985 35.216H125.401C125.145 36.0693 124.655 36.7733 123.929 37.328C123.204 37.872 122.313 38.144 121.257 38.144C120.404 38.144 119.636 37.9573 118.953 37.584C118.281 37.2 117.753 36.6613 117.369 35.968C116.996 35.2747 116.809 34.4747 116.809 33.568C116.809 32.6507 116.996 31.8453 117.369 31.152C117.743 30.4587 118.265 29.9253 118.937 29.552C119.609 29.1787 120.383 28.992 121.257 28.992C122.1 28.992 122.852 29.1733 123.513 29.536C124.185 29.8987 124.703 30.416 125.065 31.088C125.439 31.7493 125.625 32.512 125.625 33.376ZM123.305 32.736C123.295 32.16 123.087 31.7013 122.681 31.36C122.276 31.008 121.78 30.832 121.193 30.832C120.639 30.832 120.169 31.0027 119.785 31.344C119.412 31.6747 119.183 32.1387 119.097 32.736H123.305ZM126.684 33.536C126.684 32.64 126.86 31.8453 127.212 31.152C127.575 30.4587 128.066 29.9253 128.684 29.552C129.303 29.1787 129.991 28.992 130.748 28.992C131.324 28.992 131.874 29.12 132.396 29.376C132.919 29.6213 133.335 29.952 133.644 30.368V26.16H135.916V38H133.644V36.688C133.367 37.1253 132.978 37.4773 132.476 37.744C131.975 38.0107 131.394 38.144 130.732 38.144C129.986 38.144 129.303 37.952 128.684 37.568C128.066 37.184 127.575 36.6453 127.212 35.952C126.86 35.248 126.684 34.4427 126.684 33.536ZM133.66 33.568C133.66 33.024 133.554 32.56 133.34 32.176C133.127 31.7813 132.839 31.4827 132.476 31.28C132.114 31.0667 131.724 30.96 131.308 30.96C130.892 30.96 130.508 31.0613 130.156 31.264C129.804 31.4667 129.516 31.7653 129.292 32.16C129.079 32.544 128.972 33.0027 128.972 33.536C128.972 34.0693 129.079 34.5387 129.292 34.944C129.516 35.3387 129.804 35.6427 130.156 35.856C130.519 36.0693 130.903 36.176 131.308 36.176C131.724 36.176 132.114 36.0747 132.476 35.872C132.839 35.6587 133.127 35.36 133.34 34.976C133.554 34.5813 133.66 34.112 133.66 33.568Z" fill="black"/>
</svg>
