<svg xmlns="http://www.w3.org/2000/svg" width="554" height="504" fill="none"><g filter="url(#a)"><rect width="265" height="165" x="259" y="305" fill="#fff" rx="15.03"/></g><rect width="8" height="72" x="488.734" y="380.669" fill="#D9D9D9" rx="4" transform="rotate(90 488.734 380.669)"/><rect width="8" height="68" x="484.734" y="402.801" fill="#D9D9D9" rx="4" transform="rotate(90 484.734 402.801)"/><rect width="8" height="76" x="492.734" y="424.934" fill="#D9D9D9" rx="4" transform="rotate(90 492.734 424.934)"/><path stroke="#0A2640" stroke-width="13.393" d="M377.379 406.299c0 22.051-17.832 39.902-39.798 39.902s-39.799-17.851-39.799-39.902 17.833-39.902 39.799-39.902 39.798 17.85 39.798 39.902Z"/><mask id="b" width="74" height="122" x="263" y="342" maskUnits="userSpaceOnUse" style="mask-type:alpha"><path fill="#C4C4C4" d="m336.098 402.002-18.136-59.157-54.903 69.732 29.182 50.895z"/></mask><g mask="url(#b)"><path stroke="#12274F" stroke-width="13.393" d="M377.379 406.298c0 22.052-17.832 39.902-39.798 39.902s-39.799-17.85-39.799-39.902c0-22.051 17.833-39.902 39.799-39.902s39.798 17.851 39.798 39.902Z"/></g><mask id="c" width="92" height="85" x="311" y="337" maskUnits="userSpaceOnUse" style="mask-type:alpha"><path fill="#C4C4C4" d="m342.234 407.186 59.996 14.691-31.705-82.959-58.563-.954z"/></mask><g mask="url(#c)"><path stroke="#0043FF" stroke-width="13.393" d="M317.181 440.539c-18.892-11.285-25.092-35.772-13.846-54.693s35.679-25.109 54.571-13.824 25.093 35.772 13.846 54.693-35.679 25.109-54.571 13.824Z"/></g><path fill="#000" d="M291.56 335.4q0-1.648.736-2.944a5.3 5.3 0 0 1 2.032-2.032q1.296-.736 2.896-.736 1.872 0 3.28.96 1.409.96 1.968 2.656h-2.576q-.384-.8-1.088-1.2-.688-.4-1.6-.4-.976 0-1.744.464a3.13 3.13 0 0 0-1.184 1.28q-.416.832-.416 1.952 0 1.104.416 1.952.432.833 1.184 1.296.768.448 1.744.448.912 0 1.6-.4.704-.416 1.088-1.216h2.576q-.56 1.712-1.968 2.672-1.392.944-3.28.944-1.6 0-2.896-.72a5.47 5.47 0 0 1-2.032-2.032q-.736-1.296-.736-2.944m18.009 5.712a5.8 5.8 0 0 1-2.88-.736 5.5 5.5 0 0 1-2.08-2.032q-.768-1.312-.768-2.96 0-1.632.768-2.928a5.5 5.5 0 0 1 2.08-2.048 5.8 5.8 0 0 1 2.88-.736q1.584 0 2.88.736a5.36 5.36 0 0 1 2.064 2.048q.768 1.296.768 2.928 0 1.648-.768 2.96a5.4 5.4 0 0 1-2.064 2.032 5.8 5.8 0 0 1-2.88.736m0-2q1.008 0 1.776-.448a3.2 3.2 0 0 0 1.2-1.312q.432-.847.432-1.968t-.432-1.952a3.08 3.08 0 0 0-1.2-1.296q-.768-.448-1.776-.448t-1.792.448a3.08 3.08 0 0 0-1.2 1.296q-.432.832-.432 1.952t.432 1.968a3.2 3.2 0 0 0 1.2 1.312q.784.448 1.792.448m7.827-.64a62 62 0 0 0 2.448-2.128 10 10 0 0 0 1.52-1.792q.608-.928.608-1.824 0-.816-.384-1.28t-1.184-.464-1.232.544q-.433.528-.448 1.456h-2.176q.063-1.92 1.136-2.912 1.087-.992 2.752-.992 1.824 0 2.8.976.976.96.976 2.544 0 1.248-.672 2.384a9.6 9.6 0 0 1-1.536 1.984 50 50 0 0 1-2.256 2.016h4.72v1.856h-7.904v-1.664zm15.944 2.672q-1.088 0-1.952-.384-.864-.4-1.376-1.072a2.73 2.73 0 0 1-.544-1.488h2.256q.063.512.496.848.447.336 1.104.336.64 0 .992-.256.368-.256.368-.656 0-.432-.448-.64-.432-.224-1.392-.48a12 12 0 0 1-1.632-.496 2.9 2.9 0 0 1-1.088-.784q-.448-.528-.448-1.424 0-.737.416-1.344.432-.608 1.216-.96.8-.352 1.872-.352 1.584 0 2.528.8.944.784 1.04 2.128h-2.144a1.13 1.13 0 0 0-.448-.832q-.384-.32-1.04-.32-.609 0-.944.224a.72.72 0 0 0-.32.624q0 .448.448.688.447.224 1.392.464.96.24 1.584.496t1.072.8q.464.528.48 1.408 0 .768-.432 1.376-.417.608-1.216.96-.784.336-1.84.336m4.75-4.608q0-1.344.528-2.384.545-1.04 1.457-1.6a3.9 3.9 0 0 1 2.064-.56q.992 0 1.728.4.752.4 1.2 1.008v-1.264h2.256V341h-2.256v-1.296q-.432.624-1.2 1.04-.753.4-1.744.4-1.12 0-2.048-.576-.912-.576-1.457-1.616-.528-1.056-.528-2.416m6.977.032q0-.816-.32-1.392a2.2 2.2 0 0 0-.864-.896 2.27 2.27 0 0 0-1.168-.32q-.624 0-1.153.304a2.34 2.34 0 0 0-.863.896q-.32.576-.32 1.376t.32 1.408q.336.593.863.912.544.32 1.153.32.624 0 1.168-.304.543-.32.864-.896.32-.592.32-1.408m8.139 2.368 2.24-6.8h2.384L354.55 341h-2.72l-3.264-8.864h2.4zm7.018-7.856q-.591 0-.992-.368a1.28 1.28 0 0 1-.384-.944q0-.56.384-.928.4-.384.992-.384t.976.384q.4.368.4.928t-.4.944q-.384.368-.976.368m1.104 1.056V341h-2.24v-8.864zm7.126-.128q1.584 0 2.56 1.008.976.992.976 2.784v5.2h-2.24v-4.896q0-1.056-.528-1.616-.528-.576-1.44-.576-.929 0-1.472.576-.528.56-.528 1.616V341h-2.24v-8.864h2.24v1.104a3 3 0 0 1 1.136-.896 3.5 3.5 0 0 1 1.536-.336m9.138-.016q.991 0 1.744.4.752.384 1.184 1.008v-1.264h2.256v8.928q0 1.232-.496 2.192a3.62 3.62 0 0 1-1.488 1.536q-.993.576-2.4.576-1.889 0-3.104-.88-1.2-.88-1.36-2.4h2.224q.176.608.752.96.591.368 1.424.368.975 0 1.584-.592.608-.576.608-1.76v-1.376q-.432.624-1.2 1.04-.753.416-1.728.416-1.12 0-2.048-.576-.929-.576-1.472-1.616-.528-1.056-.528-2.416 0-1.344.528-2.384.543-1.04 1.456-1.6a3.9 3.9 0 0 1 2.064-.56m2.928 4.576q0-.816-.32-1.392a2.2 2.2 0 0 0-.864-.896 2.27 2.27 0 0 0-1.168-.32q-.624 0-1.152.304t-.864.896q-.32.576-.32 1.376t.32 1.408q.336.593.864.912.543.32 1.152.32.624 0 1.168-.304.543-.32.864-.896.32-.592.32-1.408m7.835 4.576q-1.088 0-1.952-.384-.864-.4-1.376-1.072a2.73 2.73 0 0 1-.544-1.488h2.256q.064.512.496.848.448.336 1.104.336.64 0 .992-.256.368-.256.368-.656 0-.432-.448-.64-.432-.224-1.392-.48a12 12 0 0 1-1.632-.496 2.9 2.9 0 0 1-1.088-.784q-.447-.528-.448-1.424 0-.737.416-1.344.433-.608 1.216-.96.801-.352 1.872-.352 1.584 0 2.528.8.945.784 1.04 2.128h-2.144a1.12 1.12 0 0 0-.448-.832q-.383-.32-1.04-.32-.608 0-.944.224a.72.72 0 0 0-.32.624q0 .448.448.688.448.224 1.392.464.96.24 1.584.496t1.072.8q.465.528.48 1.408 0 .768-.432 1.376-.415.608-1.216.96-.784.336-1.84.336"/><g filter="url(#d)"><g clip-path="url(#e)"><rect width="494" height="232" x="30" y="26" fill="#fff" rx="15"/><rect width="11.777" height="54.174" x="113.176" y="94.243" fill="#D9D9D9" rx="5.888" transform="rotate(90 113.176 94.243)"/><rect width="12" height="297" x="424.477" y="94.132" fill="#0043FF" rx="6" transform="rotate(90 424.477 94.132)"/><path fill="#000" d="M440.881 99.368q-1.2-.624-1.2-1.932 0-.648.324-1.176.336-.54.996-.852.672-.324 1.632-.324t1.62.324q.672.312.996.852.336.528.336 1.176 0 .66-.324 1.164a2.23 2.23 0 0 1-.864.768q.66.288 1.032.84t.372 1.308q0 .816-.42 1.428-.408.6-1.128.924t-1.62.324-1.62-.324a2.73 2.73 0 0 1-1.128-.924q-.408-.612-.408-1.428 0-.756.372-1.308a2.24 2.24 0 0 1 1.032-.84m3.072-1.692q0-.588-.36-.912-.348-.324-.96-.324-.6 0-.96.324-.348.324-.348.924 0 .54.36.864.372.324.948.324t.948-.324q.372-.336.372-.876m-1.32 2.424q-.684 0-1.116.348-.42.348-.42.996 0 .6.408.984.42.372 1.128.372t1.116-.384.408-.972q0-.636-.42-.984-.42-.36-1.104-.36m4.495-.588q0-2.076.744-3.252.756-1.176 2.496-1.176t2.484 1.176q.756 1.176.756 3.252 0 2.088-.756 3.276-.744 1.188-2.484 1.188t-2.496-1.188q-.744-1.188-.744-3.276m4.824 0q0-.888-.12-1.488-.108-.612-.456-.996-.336-.384-1.008-.384t-1.02.384q-.336.384-.456.996-.108.6-.108 1.488 0 .912.108 1.536.108.612.456.996.348.372 1.02.372t1.02-.372q.348-.384.456-.996.108-.624.108-1.536m2.742-2.112q0-.912.528-1.428.54-.516 1.38-.516t1.368.516q.54.516.54 1.428 0 .924-.54 1.44-.528.516-1.368.516t-1.38-.516q-.528-.516-.528-1.44m7.704-1.8-4.716 8.4h-1.632l4.704-8.4zm-5.808.864q-.66 0-.66.936 0 .948.66.948a.6.6 0 0 0 .504-.228q.18-.24.18-.72 0-.936-.684-.936m3.372 5.724q0-.924.528-1.428.54-.516 1.38-.516t1.356.516q.528.504.528 1.428t-.528 1.44q-.516.516-1.356.516-.852 0-1.38-.516t-.528-1.44m1.896-.936q-.684 0-.684.936 0 .948.684.948.672 0 .672-.948 0-.936-.672-.936"/><rect width="11.777" height="54.174" x="113.176" y="133.28" fill="#D9D9D9" rx="5.888" transform="rotate(90 113.176 133.28)"/><rect width="11.324" height="79.862" x="207.34" y="133.507" fill="#12274F" rx="5.662" transform="rotate(90 207.34 133.507)"/><path fill="#000" d="M222.305 136.891q.06-1.2.84-1.848.792-.66 2.076-.66.876 0 1.5.312.624.3.936.828.324.516.324 1.176 0 .756-.396 1.284-.384.516-.924.696v.048q.696.216 1.08.768.396.552.396 1.416 0 .72-.336 1.284-.324.564-.972.888-.636.312-1.536.312-1.356 0-2.208-.684t-.9-2.016h1.632q.024.588.396.948.384.348 1.044.348.612 0 .936-.336.336-.348.336-.888 0-.72-.456-1.032t-1.416-.312h-.348v-1.38h.348q1.704 0 1.704-1.14 0-.516-.312-.804-.3-.288-.876-.288-.564 0-.876.312-.3.3-.348.768zm7.159 1.956q0-2.076.744-3.252.756-1.176 2.496-1.176t2.484 1.176q.756 1.176.756 3.252 0 2.088-.756 3.276-.744 1.188-2.484 1.188t-2.496-1.188q-.744-1.188-.744-3.276m4.824 0q0-.888-.12-1.488-.108-.612-.456-.996-.336-.384-1.008-.384t-1.02.384q-.336.384-.456.996-.108.6-.108 1.488 0 .912.108 1.536.108.612.456.996.348.372 1.02.372t1.02-.372q.348-.384.456-.996.108-.624.108-1.536m2.742-2.112q0-.912.528-1.428.54-.516 1.38-.516t1.368.516q.54.516.54 1.428 0 .924-.54 1.44-.528.516-1.368.516t-1.38-.516q-.528-.516-.528-1.44m7.704-1.8-4.716 8.4h-1.632l4.704-8.4zm-5.808.864q-.66 0-.66.936 0 .948.66.948a.6.6 0 0 0 .504-.228q.18-.24.18-.72 0-.936-.684-.936m3.372 5.724q0-.924.528-1.428.54-.516 1.38-.516t1.356.516q.528.504.528 1.428t-.528 1.44q-.516.516-1.356.516-.852 0-1.38-.516t-.528-1.44m1.896-.936q-.684 0-.684.936 0 .948.684.948.672 0 .672-.948 0-.936-.672-.936"/><rect width="11.777" height="54.174" x="113.176" y="172.019" fill="#D9D9D9" rx="5.888" transform="rotate(90 113.176 172.019)"/><rect width="11.92" height="317.66" x="445.137" y="171.948" fill="#12274F" rx="5.96" transform="rotate(90 445.137 171.948)"/><path fill="#000" d="M459.873 174.874v-1.548h2.892v8.748h-1.728v-7.2zm4.552 2.712q0-2.076.744-3.252.756-1.176 2.496-1.176t2.484 1.176q.756 1.176.756 3.252 0 2.088-.756 3.276-.744 1.188-2.484 1.188t-2.496-1.188q-.744-1.188-.744-3.276m4.824 0q0-.888-.12-1.488-.108-.612-.456-.996-.336-.384-1.008-.384t-1.02.384q-.336.384-.456.996-.108.6-.108 1.488 0 .912.108 1.536.108.612.456.996.348.372 1.02.372t1.02-.372q.348-.384.456-.996.108-.624.108-1.536m2.934 0q0-2.076.744-3.252.756-1.176 2.496-1.176t2.484 1.176q.756 1.176.756 3.252 0 2.088-.756 3.276-.744 1.188-2.484 1.188t-2.496-1.188q-.744-1.188-.744-3.276m4.824 0q0-.888-.12-1.488-.108-.612-.456-.996-.336-.384-1.008-.384t-1.02.384q-.336.384-.456.996-.108.6-.108 1.488 0 .912.108 1.536.108.612.456.996.348.372 1.02.372t1.02-.372q.348-.384.456-.996.108-.624.108-1.536m2.742-2.112q0-.912.528-1.428.54-.516 1.38-.516t1.368.516q.54.516.54 1.428 0 .924-.54 1.44-.528.516-1.368.516t-1.38-.516q-.528-.516-.528-1.44m7.704-1.8-4.716 8.4h-1.632l4.704-8.4zm-5.808.864q-.66 0-.66.936 0 .948.66.948a.6.6 0 0 0 .504-.228q.18-.24.18-.72 0-.936-.684-.936m3.372 5.724q0-.924.528-1.428.54-.516 1.38-.516t1.356.516q.528.504.528 1.428t-.528 1.44q-.516.516-1.356.516-.852 0-1.38-.516t-.528-1.44m1.896-.936q-.684 0-.684.936 0 .948.684.948.672 0 .672-.948 0-.936-.672-.936"/><rect width="11.777" height="54.174" x="113.176" y="210.758" fill="#D9D9D9" rx="5.888" transform="rotate(90 113.176 210.758)"/><rect width="11.324" height="253.889" x="381.367" y="210.985" fill="#0043FF" rx="5.662" transform="rotate(90 381.367 210.985)"/><path fill="#000" d="m401.876 213.337-3.192 7.476h-1.704l3.216-7.284h-4.104v-1.44h5.784zm6.886.18h-3.888v2.052q.252-.312.72-.504.468-.204.996-.204.96 0 1.572.42t.888 1.08q.276.648.276 1.392 0 1.38-.792 2.22-.78.84-2.232.84-1.368 0-2.184-.684t-.924-1.788h1.632a1.3 1.3 0 0 0 .48.768q.384.288.972.288.708 0 1.068-.444t.36-1.176q0-.744-.372-1.128-.36-.396-1.068-.396-.504 0-.84.252a1.38 1.38 0 0 0-.48.672h-1.608v-5.136h5.424zm1.651.696q0-.912.528-1.428.54-.516 1.38-.516t1.368.516q.54.516.54 1.428 0 .924-.54 1.44-.528.516-1.368.516t-1.38-.516q-.528-.516-.528-1.44m7.704-1.8-4.716 8.4h-1.632l4.704-8.4zm-5.808.864q-.66 0-.66.936 0 .948.66.948a.6.6 0 0 0 .504-.228q.18-.24.18-.72 0-.936-.684-.936m3.372 5.724q0-.924.528-1.428.54-.516 1.38-.516t1.356.516q.528.504.528 1.428t-.528 1.44q-.516.516-1.356.516-.852 0-1.38-.516t-.528-1.44m1.896-.936q-.684 0-.684.936 0 .948.684.948.672 0 .672-.948 0-.936-.672-.936M65.44 57.272a2.5 2.5 0 0 1 1.552.944q.608.768.608 1.76 0 .895-.448 1.584-.432.672-1.264 1.056T63.92 63h-4.816V51.832h4.608q1.136 0 1.952.368.832.368 1.248 1.024.432.656.432 1.488 0 .976-.528 1.632-.512.656-1.376.928m-4.096-.832h2.048q.8 0 1.232-.352.432-.368.432-1.04t-.432-1.04-1.232-.368h-2.048zm2.256 4.736q.816 0 1.264-.384.465-.384.464-1.088 0-.72-.48-1.12-.48-.416-1.296-.416h-2.208v3.008zm6.921-8.096q-.591 0-.992-.368a1.28 1.28 0 0 1-.384-.944q0-.56.384-.928.4-.384.992-.384t.976.384q.4.368.4.928t-.4.944q-.384.368-.976.368m1.104 1.056V63h-2.24v-8.864zm7.125-.128q1.584 0 2.56 1.008.976.992.976 2.784V63h-2.24v-4.896q0-1.056-.528-1.616-.528-.576-1.44-.576-.927 0-1.472.576-.528.56-.528 1.616V63h-2.24v-8.864h2.24v1.104a3.04 3.04 0 0 1 1.136-.896 3.5 3.5 0 0 1 1.536-.336M90.47 51.16V63h-2.24V51.16zm10.453 7.216q0 .48-.064.864h-6.48q.08.96.672 1.504t1.456.544q1.248 0 1.776-1.072h2.416a4.08 4.08 0 0 1-1.472 2.112q-1.088.816-2.672.816-1.28 0-2.304-.56a4.1 4.1 0 0 1-1.584-1.616q-.56-1.04-.56-2.4 0-1.376.56-2.416a3.9 3.9 0 0 1 1.568-1.6q1.008-.56 2.32-.56 1.264 0 2.256.544 1.008.544 1.552 1.552.56.992.56 2.288m-2.32-.64q-.016-.864-.624-1.376-.607-.528-1.488-.528-.831 0-1.408.512-.56.496-.688 1.392zm7.651 3.2 2.24-6.8h2.384L107.597 63h-2.72l-3.264-8.864h2.4zm14.122-2.56q0 .48-.064.864h-6.48q.081.96.672 1.504t1.456.544q1.248 0 1.776-1.072h2.416a4.08 4.08 0 0 1-1.472 2.112q-1.088.816-2.672.816-1.28 0-2.304-.56a4.1 4.1 0 0 1-1.584-1.616q-.56-1.04-.56-2.4 0-1.376.56-2.416a3.9 3.9 0 0 1 1.568-1.6q1.008-.56 2.32-.56 1.264 0 2.256.544a3.75 3.75 0 0 1 1.552 1.552q.56.992.56 2.288m-2.32-.64q-.015-.864-.624-1.376-.607-.528-1.488-.528-.831 0-1.408.512-.56.496-.688 1.392zm6.195-6.576V63h-2.24V51.16z"/></g></g><g filter="url(#f)"><rect width="192.175" height="165.335" x="30" y="303" fill="#fff" rx="15.03"/></g><rect width="9.305" height="23.267" fill="#12274F" rx="4.652" transform="matrix(1 0 0 -1 55 445.267)"/><rect width="9.305" height="62.397" x="91.91" y="382.199" fill="#12274F" rx="4.652"/><rect width="9.305" height="43.096" x="110.52" y="401.5" fill="#12274F" rx="4.652"/><rect width="9" height="13" x="73" y="430" fill="#12274F" rx="4.5"/><rect width="9.305" height="83.02" x="129.129" y="361.576" fill="#0043FF" rx="4.652"/><rect width="9.305" height="58.696" x="147.738" y="385.9" fill="#12274F" rx="4.652"/><rect width="9.305" height="70.065" x="166.348" y="374.532" fill="#12274F" rx="4.652"/><rect width="9.305" height="31.992" x="184.957" y="412.604" fill="#12274F" rx="4.652"/><path fill="#000" d="M61.44 335.272q.945.176 1.552.944t.608 1.76q0 .895-.448 1.584-.433.672-1.264 1.056-.832.384-1.968.384h-4.816v-11.168h4.608q1.136 0 1.952.368.832.368 1.248 1.024.432.656.432 1.488 0 .976-.528 1.632-.512.656-1.376.928m-4.096-.832h2.048q.8 0 1.232-.352.432-.368.432-1.04t-.432-1.04-1.232-.368h-2.048zm2.256 4.736q.816 0 1.264-.384.464-.384.464-1.088 0-.72-.48-1.12-.48-.416-1.296-.416h-2.208v3.008zm6.921-8.096q-.591 0-.992-.368a1.28 1.28 0 0 1-.384-.944q0-.56.384-.928.4-.384.992-.384t.976.384q.4.368.4.928t-.4.944q-.384.368-.976.368m1.104 1.056V341h-2.24v-8.864zm7.125-.128q1.584 0 2.56 1.008.976.992.976 2.784v5.2h-2.24v-4.896q0-1.056-.528-1.616-.528-.576-1.44-.576-.927 0-1.472.576-.528.56-.528 1.616V341h-2.24v-8.864h2.24v1.104a3 3 0 0 1 1.136-.896 3.5 3.5 0 0 1 1.536-.336m9.058 9.136q-1.088 0-1.952-.384-.863-.4-1.375-1.072a2.73 2.73 0 0 1-.544-1.488h2.255q.065.512.497.848.447.336 1.104.336.64 0 .991-.256.368-.256.368-.656 0-.432-.448-.64-.43-.224-1.391-.48a12 12 0 0 1-1.633-.496 2.9 2.9 0 0 1-1.088-.784q-.447-.528-.448-1.424.001-.737.416-1.344.433-.608 1.216-.96.8-.352 1.873-.352 1.583 0 2.528.8.943.784 1.04 2.128h-2.144a1.13 1.13 0 0 0-.448-.832q-.385-.32-1.04-.32-.609 0-.944.224a.72.72 0 0 0-.32.624q0 .448.448.688.447.224 1.391.464.96.24 1.585.496.623.256 1.072.8.463.528.48 1.408 0 .768-.432 1.376-.417.608-1.216.96-.784.336-1.84.336m8.564-4.576q0-1.375.56-2.4a3.94 3.94 0 0 1 1.552-1.6q.991-.576 2.272-.576 1.647 0 2.72.832 1.087.816 1.456 2.304h-2.416a1.7 1.7 0 0 0-.656-.896q-.448-.336-1.12-.336-.96 0-1.52.704-.56.688-.56 1.968 0 1.264.56 1.968.56.688 1.52.688 1.359 0 1.776-1.216h2.416q-.369 1.44-1.456 2.288-1.088.848-2.72.848-1.28 0-2.272-.56a4.07 4.07 0 0 1-1.552-1.6q-.56-1.04-.56-2.416m14.137 4.576q-1.281 0-2.304-.56a4.2 4.2 0 0 1-1.616-1.616q-.576-1.04-.576-2.4t.592-2.4a4.16 4.16 0 0 1 1.648-1.6q1.04-.576 2.32-.576t2.32.576a4.07 4.07 0 0 1 1.632 1.6q.608 1.04.608 2.4t-.624 2.4a4.26 4.26 0 0 1-1.664 1.616q-1.04.56-2.336.56m0-1.952q.608 0 1.136-.288.543-.304.864-.896t.32-1.44q0-1.264-.672-1.936a2.15 2.15 0 0 0-1.616-.688q-.96 0-1.616.688-.64.672-.64 1.936t.624 1.952q.64.672 1.6.672m8.507-10.032V341h-2.24v-11.84zm4.453 0V341h-2.24v-11.84zm10.453 7.216q0 .48-.064.864h-6.48q.08.96.672 1.504t1.456.544q1.248 0 1.776-1.072h2.416a4.1 4.1 0 0 1-1.472 2.112q-1.088.816-2.672.816-1.28 0-2.304-.56a4.1 4.1 0 0 1-1.584-1.616q-.56-1.04-.56-2.4 0-1.376.56-2.416a3.9 3.9 0 0 1 1.568-1.6q1.008-.56 2.32-.56 1.264 0 2.256.544 1.008.544 1.552 1.552.56.992.56 2.288m-2.32-.64q-.017-.864-.624-1.376-.608-.528-1.488-.528-.832 0-1.408.512-.56.497-.688 1.392zm3.379.832q0-1.375.56-2.4a3.94 3.94 0 0 1 1.552-1.6q.992-.576 2.272-.576 1.648 0 2.72.832 1.088.816 1.456 2.304h-2.416a1.7 1.7 0 0 0-.656-.896q-.448-.336-1.12-.336-.96 0-1.52.704-.56.688-.56 1.968 0 1.264.56 1.968.56.688 1.52.688 1.36 0 1.776-1.216h2.416q-.368 1.44-1.456 2.288t-2.72.848q-1.28 0-2.272-.56a4.07 4.07 0 0 1-1.552-1.6q-.56-1.04-.56-2.416m12.809-2.592v4.288q0 .448.208.656.224.192.736.192h1.04V341h-1.408q-2.832 0-2.832-2.752v-4.272h-1.056v-1.84h1.056v-2.192h2.256v2.192h1.984v1.84zm11.835 2.4q0 .48-.064.864h-6.48q.081.96.672 1.504t1.456.544q1.248 0 1.776-1.072h2.416a4.08 4.08 0 0 1-1.472 2.112q-1.088.816-2.672.816-1.28 0-2.304-.56a4.1 4.1 0 0 1-1.584-1.616q-.56-1.04-.56-2.4 0-1.376.56-2.416a3.9 3.9 0 0 1 1.568-1.6q1.008-.56 2.32-.56 1.264 0 2.256.544a3.75 3.75 0 0 1 1.552 1.552q.56.992.56 2.288m-2.32-.64q-.015-.864-.624-1.376-.607-.528-1.488-.528-.831 0-1.408.512-.56.497-.688 1.392zm3.379.8q0-1.344.528-2.384.545-1.04 1.472-1.6a3.9 3.9 0 0 1 2.064-.56q.865 0 1.648.384a3.2 3.2 0 0 1 1.248.992v-4.208h2.272V341h-2.272v-1.312a3.03 3.03 0 0 1-1.168 1.056q-.751.4-1.744.4a3.8 3.8 0 0 1-2.048-.576q-.927-.576-1.472-1.616-.528-1.056-.528-2.416m6.976.032q0-.816-.32-1.392a2.2 2.2 0 0 0-.864-.896 2.27 2.27 0 0 0-1.168-.32q-.624 0-1.152.304t-.864.896q-.32.576-.32 1.376t.32 1.408q.336.593.864.912.545.32 1.152.32a2.35 2.35 0 0 0 1.168-.304 2.3 2.3 0 0 0 .864-.896q.32-.592.32-1.408"/><defs><filter id="a" width="325" height="225" x="229" y="279" color-interpolation-filters="sRGB" filterUnits="userSpaceOnUse"><feFlood flood-opacity="0" result="BackgroundImageFix"/><feColorMatrix in="SourceAlpha" result="hardAlpha" values="0 0 0 0 0 0 0 0 0 0 0 0 0 0 0 0 0 0 127 0"/><feOffset dy="4"/><feGaussianBlur stdDeviation="15"/><feComposite in2="hardAlpha" operator="out"/><feColorMatrix values="0 0 0 0 0 0 0 0 0 0 0 0 0 0 0 0 0 0 0.25 0"/><feBlend in2="BackgroundImageFix" result="effect1_dropShadow_1032_3765"/><feBlend in="SourceGraphic" in2="effect1_dropShadow_1032_3765" result="shape"/></filter><filter id="d" width="554" height="292" x="0" y="0" color-interpolation-filters="sRGB" filterUnits="userSpaceOnUse"><feFlood flood-opacity="0" result="BackgroundImageFix"/><feColorMatrix in="SourceAlpha" result="hardAlpha" values="0 0 0 0 0 0 0 0 0 0 0 0 0 0 0 0 0 0 127 0"/><feOffset dy="4"/><feGaussianBlur stdDeviation="15"/><feComposite in2="hardAlpha" operator="out"/><feColorMatrix values="0 0 0 0 0 0 0 0 0 0 0 0 0 0 0 0 0 0 0.25 0"/><feBlend in2="BackgroundImageFix" result="effect1_dropShadow_1032_3765"/><feBlend in="SourceGraphic" in2="effect1_dropShadow_1032_3765" result="shape"/></filter><filter id="f" width="252.176" height="225.335" x="0" y="277" color-interpolation-filters="sRGB" filterUnits="userSpaceOnUse"><feFlood flood-opacity="0" result="BackgroundImageFix"/><feColorMatrix in="SourceAlpha" result="hardAlpha" values="0 0 0 0 0 0 0 0 0 0 0 0 0 0 0 0 0 0 127 0"/><feOffset dy="4"/><feGaussianBlur stdDeviation="15"/><feComposite in2="hardAlpha" operator="out"/><feColorMatrix values="0 0 0 0 0 0 0 0 0 0 0 0 0 0 0 0 0 0 0.25 0"/><feBlend in2="BackgroundImageFix" result="effect1_dropShadow_1032_3765"/><feBlend in="SourceGraphic" in2="effect1_dropShadow_1032_3765" result="shape"/></filter><clipPath id="e"><rect width="494" height="232" x="30" y="26" fill="#fff" rx="15"/></clipPath></defs></svg>