<svg width="265" height="45" viewBox="0 0 265 45" fill="none" xmlns="http://www.w3.org/2000/svg">
<path d="M67.4682 30.3652L61.082 23.2892V30.3652H59.0571V14.8559H61.082V22.0432L67.4905 14.8559H70.0494L63.0179 22.6217L70.1161 30.3652H67.4682ZM74.4025 20.1518C74.7585 19.4546 75.2629 18.9131 75.9156 18.5274C76.5832 18.1417 77.3916 17.9489 78.341 17.9489V20.0405H77.807C75.5373 20.0405 74.4025 21.2718 74.4025 23.7343V30.3652H72.3776V18.1714H74.4025V20.1518ZM81.7243 16.191C81.3386 16.191 81.0123 16.0575 80.7452 15.7905C80.4782 15.5235 80.3447 15.1971 80.3447 14.8114C80.3447 14.4257 80.4782 14.0994 80.7452 13.8323C81.0123 13.5653 81.3386 13.4318 81.7243 13.4318C82.0952 13.4318 82.4067 13.5653 82.6589 13.8323C82.9259 14.0994 83.0594 14.4257 83.0594 14.8114C83.0594 15.1971 82.9259 15.5235 82.6589 15.7905C82.4067 16.0575 82.0952 16.191 81.7243 16.191ZM82.7034 18.1714V30.3652H80.6785V18.1714H82.7034ZM92.0956 17.9489C93.579 17.9489 94.7806 18.4013 95.7004 19.3062C96.6201 20.1963 97.08 21.4869 97.08 23.178V30.3652H95.0773V23.4673C95.0773 22.2508 94.7732 21.3237 94.165 20.6858C93.5568 20.0331 92.7261 19.7067 91.6728 19.7067C90.6048 19.7067 89.7518 20.0405 89.1139 20.7081C88.4909 21.3756 88.1793 22.3473 88.1793 23.623V30.3652H86.1545V18.1714H88.1793V19.907C88.5799 19.284 89.1213 18.8019 89.8037 18.4607C90.5009 18.1195 91.2649 17.9489 92.0956 17.9489ZM105.416 17.9711C106.47 17.9711 107.389 18.2011 108.176 18.6609C108.977 19.1208 109.57 19.6993 109.956 20.3965V18.1714H112.003V30.6323C112.003 31.7448 111.766 32.7313 111.291 33.5917C110.816 34.4669 110.134 35.1493 109.244 35.6388C108.368 36.1284 107.345 36.3732 106.173 36.3732C104.571 36.3732 103.236 35.9949 102.168 35.2383C101.1 34.4818 100.469 33.4508 100.276 32.1454H102.279C102.502 32.8871 102.961 33.4805 103.659 33.9255C104.356 34.3853 105.194 34.6153 106.173 34.6153C107.286 34.6153 108.19 34.2667 108.888 33.5695C109.6 32.8722 109.956 31.8932 109.956 30.6323V28.0733C109.555 28.7854 108.962 29.3787 108.176 29.8534C107.389 30.3281 106.47 30.5655 105.416 30.5655C104.334 30.5655 103.347 30.2985 102.457 29.7644C101.582 29.2304 100.892 28.4813 100.388 27.517C99.8832 26.5528 99.6311 25.4551 99.6311 24.2238C99.6311 22.9777 99.8832 21.8874 100.388 20.9528C100.892 20.0034 101.582 19.2691 102.457 18.7499C103.347 18.2307 104.334 17.9711 105.416 17.9711ZM109.956 24.2461C109.956 23.3263 109.77 22.5253 109.399 21.8429C109.029 21.1605 108.524 20.6413 107.886 20.2853C107.263 19.9144 106.574 19.729 105.817 19.729C105.06 19.729 104.371 19.907 103.748 20.263C103.125 20.6191 102.628 21.1383 102.257 21.8206C101.886 22.503 101.7 23.3041 101.7 24.2238C101.7 25.1584 101.886 25.9743 102.257 26.6715C102.628 27.3539 103.125 27.8805 103.748 28.2513C104.371 28.6074 105.06 28.7854 105.817 28.7854C106.574 28.7854 107.263 28.6074 107.886 28.2513C108.524 27.8805 109.029 27.3539 109.399 26.6715C109.77 25.9743 109.956 25.1658 109.956 24.2461ZM131.668 18.1714L127.863 30.3652H125.772L122.835 20.6858L119.897 30.3652H117.806L113.978 18.1714H116.048L118.852 28.4071L121.878 18.1714H123.947L126.907 28.4294L129.666 18.1714H131.668ZM134.724 16.191C134.338 16.191 134.012 16.0575 133.745 15.7905C133.478 15.5235 133.344 15.1971 133.344 14.8114C133.344 14.4257 133.478 14.0994 133.745 13.8323C134.012 13.5653 134.338 13.4318 134.724 13.4318C135.095 13.4318 135.406 13.5653 135.658 13.8323C135.925 14.0994 136.059 14.4257 136.059 14.8114C136.059 15.1971 135.925 15.5235 135.658 15.7905C135.406 16.0575 135.095 16.191 134.724 16.191ZM135.703 18.1714V30.3652H133.678V18.1714H135.703ZM145.095 17.9489C146.579 17.9489 147.78 18.4013 148.7 19.3062C149.62 20.1963 150.079 21.4869 150.079 23.178V30.3652H148.077V23.4673C148.077 22.2508 147.773 21.3237 147.165 20.6858C146.556 20.0331 145.726 19.7067 144.672 19.7067C143.604 19.7067 142.751 20.0405 142.113 20.7081C141.49 21.3756 141.179 22.3473 141.179 23.623V30.3652H139.154V18.1714H141.179V19.907C141.579 19.284 142.121 18.8019 142.803 18.4607C143.5 18.1195 144.264 17.9489 145.095 17.9489ZM160.196 30.3652L155.412 24.9804V30.3652H153.387V13.8991H155.412V23.5785L160.107 18.1714H162.933L157.192 24.2461L162.955 30.3652H160.196ZM175.965 23.801C175.965 24.1867 175.942 24.5947 175.898 25.0249H166.152C166.226 26.2264 166.634 27.1684 167.376 27.8508C168.132 28.5184 169.044 28.8521 170.112 28.8521C170.988 28.8521 171.715 28.6519 172.293 28.2513C172.886 27.836 173.302 27.2871 173.539 26.6047H175.72C175.393 27.7766 174.741 28.7335 173.762 29.4752C172.783 30.2021 171.566 30.5655 170.112 30.5655C168.955 30.5655 167.917 30.3059 166.997 29.7867C166.092 29.2675 165.38 28.5332 164.861 27.5838C164.342 26.6196 164.082 25.507 164.082 24.2461C164.082 22.9851 164.334 21.88 164.839 20.9306C165.343 19.9812 166.048 19.2543 166.953 18.7499C167.872 18.2307 168.926 17.9711 170.112 17.9711C171.27 17.9711 172.293 18.2233 173.183 18.7277C174.073 19.232 174.756 19.9293 175.23 20.8193C175.72 21.6946 175.965 22.6885 175.965 23.801ZM173.873 23.3783C173.873 22.6069 173.702 21.9467 173.361 21.3979C173.02 20.8342 172.553 20.4114 171.959 20.1295C171.381 19.8328 170.736 19.6845 170.023 19.6845C169 19.6845 168.125 20.0109 167.398 20.6636C166.686 21.3163 166.278 22.2212 166.174 23.3783H173.873ZM180.662 13.8991V30.3652H178.637V13.8991H180.662ZM199.213 26.9162H192.449L191.203 30.3652H189.067L194.674 14.9449H197.01L202.596 30.3652H200.459L199.213 26.9162ZM198.635 25.2696L195.831 17.4371L193.027 25.2696H198.635ZM207.509 19.8403V27.0275C207.509 27.6209 207.635 28.0437 207.888 28.2958C208.14 28.5332 208.577 28.6519 209.2 28.6519H210.691V30.3652H208.867C207.739 30.3652 206.894 30.1056 206.33 29.5864C205.766 29.0672 205.484 28.2143 205.484 27.0275V19.8403H203.905V18.1714H205.484V15.1007H207.509V18.1714H210.691V19.8403H207.509ZM224.27 23.801C224.27 24.1867 224.248 24.5947 224.204 25.0249H214.458C214.532 26.2264 214.94 27.1684 215.681 27.8508C216.438 28.5184 217.35 28.8521 218.418 28.8521C219.294 28.8521 220.02 28.6519 220.599 28.2513C221.192 27.836 221.608 27.2871 221.845 26.6047H224.026C223.699 27.7766 223.047 28.7335 222.068 29.4752C221.088 30.2021 219.872 30.5655 218.418 30.5655C217.261 30.5655 216.223 30.3059 215.303 29.7867C214.398 29.2675 213.686 28.5332 213.167 27.5838C212.648 26.6196 212.388 25.507 212.388 24.2461C212.388 22.9851 212.64 21.88 213.145 20.9306C213.649 19.9812 214.354 19.2543 215.259 18.7499C216.178 18.2307 217.232 17.9711 218.418 17.9711C219.575 17.9711 220.599 18.2233 221.489 18.7277C222.379 19.232 223.061 19.9293 223.536 20.8193C224.026 21.6946 224.27 22.6885 224.27 23.801ZM222.179 23.3783C222.179 22.6069 222.008 21.9467 221.667 21.3979C221.326 20.8342 220.859 20.4114 220.265 20.1295C219.687 19.8328 219.041 19.6845 218.329 19.6845C217.306 19.6845 216.43 20.0109 215.704 20.6636C214.992 21.3163 214.584 22.2212 214.48 23.3783H222.179ZM228.968 13.8991V30.3652H226.943V13.8991H228.968ZM233.51 16.191C233.124 16.191 232.797 16.0575 232.53 15.7905C232.278 15.5235 232.152 15.1971 232.152 14.8114C232.152 14.4257 232.278 14.0994 232.53 13.8323C232.797 13.5653 233.124 13.4318 233.51 13.4318C233.895 13.4318 234.214 13.5653 234.466 13.8323C234.733 14.0994 234.867 14.4257 234.867 14.8114C234.867 15.1971 234.733 15.5235 234.466 15.7905C234.214 16.0575 233.895 16.191 233.51 16.191ZM234.511 33.0132C234.511 34.0961 234.236 34.8897 233.688 35.3941C233.139 35.8985 232.338 36.1506 231.284 36.1506H230.105V34.4373H230.951C231.514 34.4373 231.907 34.326 232.13 34.1035C232.367 33.881 232.486 33.5027 232.486 32.9687V18.1714H234.511V33.0132ZM249.064 23.801C249.064 24.1867 249.042 24.5947 248.998 25.0249H239.251C239.326 26.2264 239.734 27.1684 240.475 27.8508C241.232 28.5184 242.144 28.8521 243.212 28.8521C244.087 28.8521 244.814 28.6519 245.393 28.2513C245.986 27.836 246.402 27.2871 246.639 26.6047H248.82C248.493 27.7766 247.841 28.7335 246.862 29.4752C245.882 30.2021 244.666 30.5655 243.212 30.5655C242.055 30.5655 241.017 30.3059 240.097 29.7867C239.192 29.2675 238.48 28.5332 237.961 27.5838C237.442 26.6196 237.182 25.507 237.182 24.2461C237.182 22.9851 237.434 21.88 237.939 20.9306C238.443 19.9812 239.148 19.2543 240.053 18.7499C240.972 18.2307 242.026 17.9711 243.212 17.9711C244.369 17.9711 245.393 18.2233 246.283 18.7277C247.173 19.232 247.855 19.9293 248.33 20.8193C248.82 21.6946 249.064 22.6885 249.064 23.801ZM246.973 23.3783C246.973 22.6069 246.802 21.9467 246.461 21.3979C246.12 20.8342 245.653 20.4114 245.059 20.1295C244.481 19.8328 243.835 19.6845 243.123 19.6845C242.1 19.6845 241.224 20.0109 240.498 20.6636C239.786 21.3163 239.378 22.2212 239.274 23.3783H246.973ZM262.863 23.801C262.863 24.1867 262.841 24.5947 262.796 25.0249H253.05C253.124 26.2264 253.532 27.1684 254.274 27.8508C255.03 28.5184 255.943 28.8521 257.011 28.8521C257.886 28.8521 258.613 28.6519 259.191 28.2513C259.785 27.836 260.2 27.2871 260.438 26.6047H262.618C262.292 27.7766 261.639 28.7335 260.66 29.4752C259.681 30.2021 258.465 30.5655 257.011 30.5655C255.854 30.5655 254.815 30.3059 253.896 29.7867C252.991 29.2675 252.279 28.5332 251.759 27.5838C251.24 26.6196 250.981 25.507 250.981 24.2461C250.981 22.9851 251.233 21.88 251.737 20.9306C252.242 19.9812 252.946 19.2543 253.851 18.7499C254.771 18.2307 255.824 17.9711 257.011 17.9711C258.168 17.9711 259.191 18.2233 260.082 18.7277C260.972 19.232 261.654 19.9293 262.129 20.8193C262.618 21.6946 262.863 22.6885 262.863 23.801ZM260.771 23.3783C260.771 22.6069 260.601 21.9467 260.26 21.3979C259.918 20.8342 259.451 20.4114 258.858 20.1295C258.279 19.8328 257.634 19.6845 256.922 19.6845C255.898 19.6845 255.023 20.0109 254.296 20.6636C253.584 21.3163 253.176 22.2212 253.072 23.3783H260.771Z" fill="#12274F" fill-opacity="0.29"/>
<path d="M26.655 44.4609C21.9605 44.4609 17.266 42.677 13.6952 39.105C6.54951 31.9654 6.54951 20.3469 13.6952 13.203L18.4237 8.47852L22.9189 12.97L18.1904 17.6944C13.5213 22.3596 13.5213 29.9484 18.1904 34.6136C22.8595 39.2788 30.4548 39.2788 35.1239 34.6136C39.793 29.9484 39.793 22.3596 35.1239 17.6944L39.6191 13.203C46.7648 20.3427 46.7648 31.9611 39.6191 39.105C36.0441 42.677 31.3538 44.4609 26.6593 44.4609" fill="#12274F" fill-opacity="0.29"/>
<path d="M31.1485 26.2482C21.5728 14.956 31.1273 4.82913 31.1273 4.82913L29.3716 3.07492L26.5982 0.303792C26.5982 0.303792 16.433 9.88411 5.11014 0.240234L0 6.14266C0.593709 6.64265 8.77417 13.3163 18.3626 8.7782L22.6458 13.0578C18.2353 22.3627 24.3972 30.3329 25.2242 31.3371L31.1443 26.2482H31.1485Z" fill="#12274F" fill-opacity="0.29"/>
</svg>
