<svg width="188" height="34" viewBox="0 0 188 34" fill="none" xmlns="http://www.w3.org/2000/svg">
<path d="M89.4452 8.96522V24.3633H87.4203V12.8815L82.3025 24.3633H80.8784L75.7383 12.8592V24.3633H73.7134V8.96522H75.894L81.5904 21.6931L87.2868 8.96522H89.4452ZM98.1974 24.5635C97.0551 24.5635 96.0167 24.3039 95.0821 23.7847C94.1624 23.2655 93.4355 22.5312 92.9015 21.5818C92.3823 20.6176 92.1227 19.505 92.1227 18.2441C92.1227 16.998 92.3897 15.9003 92.9237 14.9509C93.4726 13.9866 94.2143 13.2523 95.1489 12.748C96.0835 12.2288 97.1293 11.9692 98.2864 11.9692C99.4434 11.9692 100.489 12.2288 101.424 12.748C102.358 13.2523 103.093 13.9792 103.627 14.9286C104.176 15.878 104.45 16.9832 104.45 18.2441C104.45 19.505 104.168 20.6176 103.604 21.5818C103.056 22.5312 102.306 23.2655 101.357 23.7847C100.408 24.3039 99.3544 24.5635 98.1974 24.5635ZM98.1974 22.7834C98.9242 22.7834 99.6066 22.6128 100.245 22.2716C100.882 21.9304 101.394 21.4187 101.78 20.7363C102.18 20.0539 102.381 19.2232 102.381 18.2441C102.381 17.265 102.188 16.4343 101.802 15.7519C101.416 15.0696 100.912 14.5652 100.289 14.2388C99.666 13.8976 98.991 13.727 98.2641 13.727C97.5224 13.727 96.84 13.8976 96.217 14.2388C95.6088 14.5652 95.1192 15.0696 94.7484 15.7519C94.3775 16.4343 94.1921 17.265 94.1921 18.2441C94.1921 19.238 94.3701 20.0762 94.7261 20.7585C95.097 21.4409 95.5865 21.9527 96.1947 22.2939C96.8029 22.6202 97.4705 22.7834 98.1974 22.7834ZM112.431 24.5635C111.288 24.5635 110.25 24.3039 109.315 23.7847C108.396 23.2655 107.669 22.5312 107.135 21.5818C106.615 20.6176 106.356 19.505 106.356 18.2441C106.356 16.998 106.623 15.9003 107.157 14.9509C107.706 13.9866 108.448 13.2523 109.382 12.748C110.317 12.2288 111.362 11.9692 112.52 11.9692C113.677 11.9692 114.722 12.2288 115.657 12.748C116.592 13.2523 117.326 13.9792 117.86 14.9286C118.409 15.878 118.683 16.9832 118.683 18.2441C118.683 19.505 118.401 20.6176 117.838 21.5818C117.289 22.5312 116.54 23.2655 115.59 23.7847C114.641 24.3039 113.588 24.5635 112.431 24.5635ZM112.431 22.7834C113.157 22.7834 113.84 22.6128 114.478 22.2716C115.116 21.9304 115.627 21.4187 116.013 20.7363C116.414 20.0539 116.614 19.2232 116.614 18.2441C116.614 17.265 116.421 16.4343 116.035 15.7519C115.65 15.0696 115.145 14.5652 114.522 14.2388C113.899 13.8976 113.224 13.727 112.497 13.727C111.756 13.727 111.073 13.8976 110.45 14.2388C109.842 14.5652 109.352 15.0696 108.982 15.7519C108.611 16.4343 108.425 17.265 108.425 18.2441C108.425 19.238 108.603 20.0762 108.959 20.7585C109.33 21.4409 109.82 21.9527 110.428 22.2939C111.036 22.6202 111.704 22.7834 112.431 22.7834ZM123.37 14.1498C123.726 13.4526 124.231 12.9112 124.884 12.5255C125.551 12.1398 126.36 11.9469 127.309 11.9469V14.0386H126.775C124.505 14.0386 123.37 15.2698 123.37 17.7323V24.3633H121.346V12.1694H123.37V14.1498ZM133.963 24.5635C133.029 24.5635 132.191 24.4078 131.449 24.0963C130.707 23.7699 130.121 23.3249 129.691 22.7612C129.261 22.1826 129.023 21.5225 128.979 20.7808H131.071C131.13 21.389 131.412 21.8859 131.916 22.2716C132.435 22.6573 133.11 22.8502 133.941 22.8502C134.712 22.8502 135.321 22.6796 135.766 22.3384C136.211 21.9972 136.433 21.567 136.433 21.0478C136.433 20.5138 136.196 20.1207 135.721 19.8685C135.246 19.6015 134.512 19.3419 133.518 19.0897C132.613 18.8523 131.872 18.615 131.293 18.3776C130.729 18.1254 130.24 17.762 129.824 17.2873C129.424 16.7978 129.224 16.1599 129.224 15.3737C129.224 14.7506 129.409 14.1795 129.78 13.6603C130.151 13.1411 130.677 12.7331 131.36 12.4365C132.042 12.1249 132.821 11.9692 133.696 11.9692C135.046 11.9692 136.136 12.3104 136.967 12.9927C137.798 13.6751 138.243 14.6097 138.302 15.7964H136.277C136.233 15.1586 135.973 14.6468 135.499 14.2611C135.039 13.8754 134.416 13.6825 133.629 13.6825C132.903 13.6825 132.324 13.8383 131.894 14.1498C131.464 14.4613 131.249 14.8693 131.249 15.3737C131.249 15.7742 131.375 16.108 131.627 16.375C131.894 16.6272 132.22 16.8348 132.606 16.998C133.006 17.1464 133.555 17.317 134.253 17.5098C135.128 17.7472 135.84 17.9845 136.389 18.2219C136.938 18.4444 137.405 18.7856 137.79 19.2454C138.191 19.7053 138.399 20.3061 138.414 21.0478C138.414 21.7153 138.228 22.3161 137.857 22.8502C137.486 23.3842 136.96 23.807 136.277 24.1185C135.61 24.4152 134.838 24.5635 133.963 24.5635ZM143.297 7.89714V24.3633H141.272V7.89714H143.297ZM157.874 17.7991C157.874 18.1848 157.851 18.5927 157.807 19.0229H148.061C148.135 20.2245 148.543 21.1665 149.285 21.8489C150.041 22.5164 150.954 22.8502 152.022 22.8502C152.897 22.8502 153.624 22.6499 154.202 22.2494C154.796 21.834 155.211 21.2852 155.448 20.6028H157.629C157.303 21.7747 156.65 22.7315 155.671 23.4732C154.692 24.2001 153.475 24.5635 152.022 24.5635C150.864 24.5635 149.826 24.3039 148.906 23.7847C148.001 23.2655 147.289 22.5312 146.77 21.5818C146.251 20.6176 145.991 19.505 145.991 18.2441C145.991 16.9832 146.244 15.878 146.748 14.9286C147.252 13.9792 147.957 13.2523 148.862 12.748C149.782 12.2288 150.835 11.9692 152.022 11.9692C153.179 11.9692 154.202 12.2214 155.092 12.7257C155.982 13.2301 156.665 13.9273 157.139 14.8174C157.629 15.6926 157.874 16.6865 157.874 17.7991ZM155.782 17.3763C155.782 16.6049 155.611 15.9448 155.27 15.3959C154.929 14.8322 154.462 14.4094 153.868 14.1276C153.29 13.8309 152.645 13.6825 151.933 13.6825C150.909 13.6825 150.034 14.0089 149.307 14.6616C148.595 15.3143 148.187 16.2192 148.083 17.3763H155.782ZM159.79 18.2219C159.79 16.9758 160.042 15.8854 160.547 14.9509C161.051 14.0015 161.741 13.2672 162.616 12.748C163.506 12.2288 164.5 11.9692 165.598 11.9692C166.547 11.9692 167.43 12.1917 168.246 12.6367C169.061 13.0669 169.684 13.638 170.115 14.3501V7.89714H172.162V24.3633H170.115V22.0714C169.714 22.7983 169.121 23.399 168.335 23.8737C167.548 24.3336 166.629 24.5635 165.575 24.5635C164.492 24.5635 163.506 24.2965 162.616 23.7625C161.741 23.2285 161.051 22.4793 160.547 21.5151C160.042 20.5509 159.79 19.4531 159.79 18.2219ZM170.115 18.2441C170.115 17.3244 169.929 16.5233 169.558 15.8409C169.188 15.1586 168.683 14.6394 168.045 14.2833C167.422 13.9125 166.732 13.727 165.976 13.727C165.219 13.727 164.53 13.9051 163.907 14.2611C163.283 14.6171 162.787 15.1363 162.416 15.8187C162.045 16.5011 161.859 17.3021 161.859 18.2219C161.859 19.1564 162.045 19.9723 162.416 20.6695C162.787 21.3519 163.283 21.8785 163.907 22.2494C164.53 22.6054 165.219 22.7834 165.976 22.7834C166.732 22.7834 167.422 22.6054 168.045 22.2494C168.683 21.8785 169.188 21.3519 169.558 20.6695C169.929 19.9723 170.115 19.1638 170.115 18.2441ZM186.709 17.7991C186.709 18.1848 186.687 18.5927 186.643 19.0229H176.897C176.971 20.2245 177.379 21.1665 178.12 21.8489C178.877 22.5164 179.789 22.8502 180.857 22.8502C181.733 22.8502 182.459 22.6499 183.038 22.2494C183.631 21.834 184.047 21.2852 184.284 20.6028H186.465C186.138 21.7747 185.486 22.7315 184.507 23.4732C183.527 24.2001 182.311 24.5635 180.857 24.5635C179.7 24.5635 178.662 24.3039 177.742 23.7847C176.837 23.2655 176.125 22.5312 175.606 21.5818C175.087 20.6176 174.827 19.505 174.827 18.2441C174.827 16.9832 175.079 15.878 175.584 14.9286C176.088 13.9792 176.793 13.2523 177.698 12.748C178.617 12.2288 179.671 11.9692 180.857 11.9692C182.014 11.9692 183.038 12.2214 183.928 12.7257C184.818 13.2301 185.5 13.9273 185.975 14.8174C186.465 15.6926 186.709 16.6865 186.709 17.7991ZM184.618 17.3763C184.618 16.6049 184.447 15.9448 184.106 15.3959C183.765 14.8322 183.298 14.4094 182.704 14.1276C182.126 13.8309 181.48 13.6825 180.768 13.6825C179.745 13.6825 178.87 14.0089 178.143 14.6616C177.431 15.3143 177.023 16.2192 176.919 17.3763H184.618Z" fill="#12274F" fill-opacity="0.29"/>
<path d="M19.8136 0.474602C18.5606 0.606838 17.7289 0.860287 16.3538 1.51044C13.7036 2.78872 11.9626 4.64001 9.71152 8.60706C6.98361 13.3896 0.308021 25.2136 0.296932 25.2907C0.274754 25.3899 6.75075 29.0594 6.81728 28.9823C6.85055 28.9602 8.23668 26.5359 9.90003 23.5937C13.1824 17.8194 16.7974 11.5052 17.618 10.1167C18.1614 9.20212 18.9043 8.45278 19.5918 8.11118C19.8358 8.00098 20.3459 7.89079 20.8116 7.86875C21.477 7.83569 21.6988 7.86875 22.1978 8.08914C23.2734 8.58502 23.9055 9.29027 24.9478 11.1526C25.4358 12.0231 25.8682 13.092 25.6354 12.8716C25.6021 12.8386 25.1807 13.5659 24.6928 14.4805C24.216 15.4061 23.4176 16.9048 22.9185 17.8194C20.8449 21.6432 18.2944 26.5139 18.2944 26.6461C18.2944 26.8886 20.0243 29.7647 20.7118 30.6573C21.5213 31.7151 23.1625 33.3571 23.2734 33.2358C23.3621 33.1367 25.1031 29.8638 26.8884 26.4147C29.1395 22.062 29.8492 20.7396 29.9268 20.7396C29.9712 20.7396 30.692 22.062 31.5458 23.6819C34.8947 30.1173 36.5026 33.1367 36.5913 33.2248C36.6357 33.2799 37.0681 32.9383 37.5561 32.4534C38.8978 31.1201 40.0289 29.5443 41.2598 27.2853L41.6257 26.6241L39.5299 22.657C38.3767 20.4862 37.4008 18.679 37.3454 18.6679C37.301 18.6459 37.2567 18.5908 37.2567 18.5357C37.2567 18.4916 36.558 17.1252 35.6931 15.5053L34.1406 12.5741L34.8947 11.1746C35.8151 9.47761 36.8575 8.33157 37.7446 8.03404C39.2527 7.52714 40.7053 8.02302 41.7588 9.38945C41.9917 9.68698 42.2135 9.90737 42.2689 9.87431C42.3133 9.84125 42.3243 9.89635 42.2911 9.98451C42.2578 10.0727 42.3022 10.26 42.3909 10.4033C42.6348 10.7669 46.0946 16.8167 49.7651 23.2741C51.495 26.3376 52.9587 28.8831 53.0031 28.9382C53.0585 28.9823 54.5666 28.1999 56.363 27.1971L59.6343 25.3568L55.2541 17.6211C52.8478 13.3675 50.497 9.21313 50.0312 8.39769C48.9778 6.53538 48.5453 5.88522 47.4918 4.64001C44.2095 0.750092 39.3414 -0.583279 34.928 1.20189C33.4199 1.81899 31.8674 2.92095 30.6698 4.2433L29.949 5.02569L28.9732 4.02291C27.8421 2.86585 26.8884 2.14958 25.7241 1.56554C23.8389 0.628876 21.8429 0.265228 19.8136 0.474602ZM29.7161 5.24608C29.7161 5.26812 29.6274 5.35628 29.5276 5.43342C29.3502 5.57667 29.3391 5.56565 29.4833 5.38934C29.6274 5.21302 29.7161 5.15793 29.7161 5.24608ZM29.206 5.91828C29.1062 6.07255 29.0064 6.19377 28.9732 6.19377C28.9177 6.19377 29.0286 5.99541 29.1949 5.77502C29.3834 5.53259 29.3945 5.63177 29.206 5.91828ZM30.9359 6.20479C31.1022 6.51334 30.9914 6.45824 30.7696 6.12765C30.6698 5.96236 30.6365 5.8742 30.703 5.90726C30.7696 5.95134 30.8805 6.08357 30.9359 6.20479ZM31.2686 6.74475C31.3351 6.86596 31.3573 6.96514 31.3351 6.96514C31.3019 6.96514 31.2242 6.86596 31.1577 6.74475C31.0912 6.62353 31.069 6.52436 31.0912 6.52436C31.1244 6.52436 31.202 6.62353 31.2686 6.74475ZM31.69 7.57122C31.6567 7.60427 31.5902 7.54918 31.5569 7.43898C31.4904 7.28471 31.5015 7.27369 31.6123 7.37286C31.69 7.45 31.7232 7.53816 31.69 7.57122ZM28.1747 7.65937C28.0639 7.75855 28.0528 7.74753 28.1193 7.59326C28.1526 7.48306 28.2191 7.42796 28.2524 7.46102C28.2856 7.49408 28.2524 7.58224 28.1747 7.65937ZM32.0892 8.24341C32.1224 8.33157 32.1114 8.37565 32.0448 8.34259C31.9783 8.30953 31.9339 8.23239 31.9339 8.16628C31.9339 8.012 32.0115 8.04506 32.0892 8.24341ZM27.6979 8.56298C27.6314 8.71725 27.5538 8.81643 27.5316 8.79439C27.4761 8.73929 27.6979 8.28749 27.7755 8.28749C27.8088 8.28749 27.7645 8.4087 27.6979 8.56298ZM27.3874 9.16906C27.3209 9.29027 27.2433 9.38945 27.21 9.38945C27.1878 9.38945 27.21 9.29027 27.2765 9.16906C27.3431 9.04784 27.4207 8.94867 27.454 8.94867C27.4761 8.94867 27.454 9.04784 27.3874 9.16906ZM32.9874 9.94043C33.1426 10.238 33.2424 10.4914 33.2092 10.4914C33.187 10.4914 33.0317 10.238 32.8765 9.94043C32.7212 9.63188 32.6214 9.38945 32.6547 9.38945C32.6769 9.38945 32.8321 9.63188 32.9874 9.94043ZM27.1656 9.5878C27.1656 9.6429 27.088 9.77514 26.9993 9.89635C26.8441 10.0947 26.8441 10.0837 26.955 9.79717C27.088 9.49965 27.1656 9.42251 27.1656 9.5878ZM26.3672 11.0975C26.3007 11.2518 26.2231 11.3509 26.2009 11.3289C26.1455 11.2738 26.3672 10.822 26.4449 10.822C26.4781 10.822 26.4338 10.9432 26.3672 11.0975ZM26.0567 11.7036C25.9902 11.8248 25.9126 11.924 25.8793 11.924C25.8571 11.924 25.8793 11.8248 25.9459 11.7036C26.0124 11.5823 26.09 11.4832 26.1233 11.4832C26.1455 11.4832 26.1233 11.5823 26.0567 11.7036ZM34.1517 12.1884C34.1517 12.3207 34.0963 12.2656 33.941 11.924C33.8191 11.6595 33.8191 11.6595 33.9743 11.8578C34.0741 11.9791 34.1517 12.1223 34.1517 12.1884ZM33.9854 13.3565C33.8856 13.5328 33.7858 13.6871 33.7525 13.6871C33.7303 13.6871 33.7747 13.5328 33.8745 13.3565C33.9743 13.1692 34.0741 13.0259 34.1074 13.0259C34.1296 13.0259 34.0852 13.1692 33.9854 13.3565ZM26.2785 13.9075C26.4005 14.1499 26.4781 14.3483 26.4449 14.3483C26.4227 14.3483 26.2896 14.1499 26.1676 13.9075C26.0457 13.665 25.968 13.4667 26.0013 13.4667C26.0235 13.4667 26.1565 13.665 26.2785 13.9075ZM33.2979 14.6238C33.2646 14.7229 33.2092 14.778 33.187 14.745C33.1537 14.7119 33.1648 14.6458 33.2092 14.5797C33.309 14.4034 33.3755 14.4364 33.2979 14.6238ZM32.9874 15.2298C32.8876 15.4061 32.7878 15.5604 32.7545 15.5604C32.7323 15.5604 32.7767 15.4061 32.8765 15.2298C32.9763 15.0425 33.0761 14.8992 33.1094 14.8992C33.1315 14.8992 33.0872 15.0425 32.9874 15.2298ZM27.2211 15.6706C27.3209 15.8469 27.3652 16.0012 27.3431 16.0012C27.3098 16.0012 27.21 15.8469 27.1102 15.6706C27.0104 15.4833 26.966 15.34 26.9882 15.34C27.0215 15.34 27.1213 15.4833 27.2211 15.6706ZM32.3886 16.3648C32.2777 16.464 32.2666 16.453 32.3331 16.2987C32.3664 16.1885 32.4329 16.1334 32.4662 16.1665C32.4995 16.1996 32.4662 16.2877 32.3886 16.3648ZM31.7676 17.5439C31.6678 17.7203 31.568 17.8745 31.5347 17.8745C31.5125 17.8745 31.5569 17.7203 31.6567 17.5439C31.7565 17.3566 31.8563 17.2134 31.8896 17.2134C31.9117 17.2134 31.8674 17.3566 31.7676 17.5439ZM28.4963 18.0949C28.6183 18.3374 28.6959 18.5357 28.6627 18.5357C28.6405 18.5357 28.5074 18.3374 28.3854 18.0949C28.2635 17.8525 28.1858 17.6541 28.2191 17.6541C28.2413 17.6541 28.3743 17.8525 28.4963 18.0949ZM30.2817 20.3319C30.1708 20.4311 30.1597 20.4201 30.2262 20.2658C30.2595 20.1556 30.326 20.1005 30.3593 20.1335C30.3926 20.1666 30.3593 20.2548 30.2817 20.3319ZM29.7161 20.409C29.7827 20.5303 29.8048 20.6294 29.7827 20.6294C29.7494 20.6294 29.6718 20.5303 29.6052 20.409C29.5387 20.2878 29.5165 20.1886 29.5387 20.1886C29.572 20.1886 29.6496 20.2878 29.7161 20.409Z" fill="#12274F" fill-opacity="0.29"/>
</svg>
