<svg width="237" height="47" viewBox="0 0 237 47" fill="none" xmlns="http://www.w3.org/2000/svg">
<path d="M21.5249 35.2985H24.2058V17.839H21.5249V35.2985ZM16.1609 35.2985H18.8418V17.839H16.1609V35.2985ZM10.7904 35.2985H13.4713V17.839H10.7904V35.2985ZM5.42855 35.2985H8.10948V17.839H5.42855V35.2985ZM26.8953 35.2985H29.5763V17.839H26.8953V35.2985ZM32.2572 35.2985H34.9381V17.839H32.2572V35.2985ZM37.6276 35.2985H40.3086V17.839H37.6276V35.2985ZM2.68093 40.6799H43.0583V37.9849H2.68093V40.6799ZM40.3086 15.1526H5.42855L2.73902 12.4661H42.9895L40.3086 15.1526ZM0 46.0527H45.7393V43.3663H0V46.0527ZM45.7393 8.1196L22.8696 0L0 8.1196V10.9656L22.8696 2.85458L45.7393 10.9656V8.1196Z" fill="#12274F" fill-opacity="0.29"/>
<path d="M70.3216 20.3488C69.8914 19.4439 69.2683 18.7467 68.4524 18.2571C67.6365 17.7528 66.6871 17.5006 65.6042 17.5006C64.5213 17.5006 63.5423 17.7528 62.667 18.2571C61.8066 18.7467 61.1243 19.4587 60.6199 20.3933C60.1304 21.313 59.8856 22.3811 59.8856 23.5975C59.8856 24.8139 60.1304 25.882 60.6199 26.8017C61.1243 27.7214 61.8066 28.4335 62.667 28.9379C63.5423 29.4274 64.5213 29.6722 65.6042 29.6722C67.1173 29.6722 68.3634 29.2197 69.3425 28.3148C70.3216 27.4099 70.8927 26.1861 71.0559 24.6433H64.8699V22.9967H73.2143V24.5543C73.0956 25.8301 72.6951 27.002 72.0127 28.0701C71.3303 29.1233 70.4328 29.9614 69.3202 30.5845C68.2077 31.1927 66.969 31.4968 65.6042 31.4968C64.1653 31.4968 62.8525 31.163 61.6657 30.4955C60.479 29.8131 59.537 28.8711 58.8398 27.6695C58.1574 26.4679 57.8162 25.1106 57.8162 23.5975C57.8162 22.0844 58.1574 20.727 58.8398 19.5255C59.537 18.309 60.479 17.3671 61.6657 16.6995C62.8525 16.0171 64.1653 15.6759 65.6042 15.6759C67.2508 15.6759 68.7046 16.0839 69.9655 16.8998C71.2413 17.7157 72.1684 18.8653 72.747 20.3488H70.3216ZM81.944 18.9469C82.8637 18.9469 83.6944 19.1472 84.4362 19.5477C85.1779 19.9334 85.7564 20.5194 86.1718 21.3056C86.602 22.0918 86.8171 23.0486 86.8171 24.176V31.3633H84.8144V24.4653C84.8144 23.2489 84.5103 22.3217 83.9021 21.6839C83.2939 21.0311 82.4632 20.7048 81.41 20.7048C80.3419 20.7048 79.4889 21.0386 78.851 21.7061C78.228 22.3737 77.9165 23.3453 77.9165 24.6211V31.3633H75.8916V14.8971H77.9165V20.9051C78.317 20.282 78.8659 19.7999 79.5631 19.4587C80.2751 19.1175 81.0688 18.9469 81.944 18.9469ZM101.251 24.7991C101.251 25.1848 101.228 25.5927 101.184 26.0229H91.4376C91.5117 27.2245 91.9197 28.1665 92.6614 28.8489C93.418 29.5164 94.3303 29.8502 95.3983 29.8502C96.2736 29.8502 97.0005 29.6499 97.579 29.2494C98.1724 28.834 98.5877 28.2852 98.8251 27.6028H101.006C100.679 28.7747 100.027 29.7315 99.0476 30.4732C98.0685 31.2001 96.8521 31.5635 95.3983 31.5635C94.2413 31.5635 93.2029 31.3039 92.2831 30.7847C91.3782 30.2655 90.6662 29.5312 90.147 28.5818C89.6278 27.6176 89.3682 26.505 89.3682 25.2441C89.3682 23.9832 89.6204 22.878 90.1247 21.9286C90.6291 20.9792 91.3337 20.2523 92.2386 19.748C93.1584 19.2288 94.2116 18.9692 95.3983 18.9692C96.5554 18.9692 97.579 19.2214 98.4691 19.7257C99.3591 20.2301 100.042 20.9273 100.516 21.8174C101.006 22.6926 101.251 23.6865 101.251 24.7991ZM99.1589 24.3763C99.1589 23.6049 98.9883 22.9448 98.6471 22.3959C98.3059 21.8322 97.8386 21.4094 97.2452 21.1276C96.6667 20.8309 96.0214 20.6825 95.3093 20.6825C94.2858 20.6825 93.4105 21.0089 92.6837 21.6616C91.9716 22.3143 91.5637 23.2192 91.4598 24.3763H99.1589ZM109.864 18.9469C111.348 18.9469 112.549 19.3994 113.469 20.3043C114.389 21.1943 114.849 22.4849 114.849 24.176V31.3633H112.846V24.4653C112.846 23.2489 112.542 22.3217 111.934 21.6839C111.326 21.0311 110.495 20.7048 109.442 20.7048C108.374 20.7048 107.521 21.0386 106.883 21.7061C106.26 22.3737 105.948 23.3453 105.948 24.6211V31.3633H103.923V19.1694H105.948V20.9051C106.349 20.282 106.89 19.7999 107.573 19.4587C108.27 19.1175 109.034 18.9469 109.864 18.9469ZM120.626 20.8383V28.0256C120.626 28.6189 120.752 29.0417 121.005 29.2939C121.257 29.5312 121.694 29.6499 122.317 29.6499H123.808V31.3633H121.984C120.856 31.3633 120.011 31.1037 119.447 30.5845C118.883 30.0653 118.601 29.2123 118.601 28.0256V20.8383H117.022V19.1694H118.601V16.0987H120.626V19.1694H123.808V20.8383H120.626ZM143.008 19.1694V31.3633H140.983V29.5609C140.598 30.1839 140.056 30.6735 139.359 31.0295C138.677 31.3707 137.92 31.5413 137.089 31.5413C136.14 31.5413 135.287 31.3484 134.53 30.9628C133.774 30.5622 133.173 29.9689 132.728 29.1826C132.298 28.3964 132.083 27.4396 132.083 26.3122V19.1694H134.085V26.0452C134.085 27.2467 134.39 28.1739 134.998 28.8266C135.606 29.4645 136.437 29.7834 137.49 29.7834C138.573 29.7834 139.426 29.4496 140.049 28.7821C140.672 28.1146 140.983 27.1429 140.983 25.8672V19.1694H143.008ZM152.368 18.9469C153.852 18.9469 155.053 19.3994 155.973 20.3043C156.893 21.1943 157.353 22.4849 157.353 24.176V31.3633H155.35V24.4653C155.35 23.2489 155.046 22.3217 154.438 21.6839C153.83 21.0311 152.999 20.7048 151.946 20.7048C150.878 20.7048 150.025 21.0386 149.387 21.7061C148.764 22.3737 148.452 23.3453 148.452 24.6211V31.3633H146.427V19.1694H148.452V20.9051C148.853 20.282 149.394 19.7999 150.076 19.4587C150.774 19.1175 151.538 18.9469 152.368 18.9469ZM161.706 17.1891C161.32 17.1891 160.994 17.0555 160.727 16.7885C160.46 16.5215 160.327 16.1951 160.327 15.8095C160.327 15.4238 160.46 15.0974 160.727 14.8304C160.994 14.5634 161.32 14.4299 161.706 14.4299C162.077 14.4299 162.389 14.5634 162.641 14.8304C162.908 15.0974 163.041 15.4238 163.041 15.8095C163.041 16.1951 162.908 16.5215 162.641 16.7885C162.389 17.0555 162.077 17.1891 161.706 17.1891ZM162.685 19.1694V31.3633H160.66V19.1694H162.685ZM170.676 29.4942L174.458 19.1694H176.617L171.833 31.3633H169.474L164.69 19.1694H166.871L170.676 29.4942ZM189.735 24.7991C189.735 25.1848 189.713 25.5927 189.668 26.0229H179.922C179.996 27.2245 180.404 28.1665 181.146 28.8489C181.903 29.5164 182.815 29.8502 183.883 29.8502C184.758 29.8502 185.485 29.6499 186.064 29.2494C186.657 28.834 187.072 28.2852 187.31 27.6028H189.49C189.164 28.7747 188.511 29.7315 187.532 30.4732C186.553 31.2001 185.337 31.5635 183.883 31.5635C182.726 31.5635 181.687 31.3039 180.768 30.7847C179.863 30.2655 179.151 29.5312 178.632 28.5818C178.112 27.6176 177.853 26.505 177.853 25.2441C177.853 23.9832 178.105 22.878 178.609 21.9286C179.114 20.9792 179.818 20.2523 180.723 19.748C181.643 19.2288 182.696 18.9692 183.883 18.9692C185.04 18.9692 186.064 19.2214 186.954 19.7257C187.844 20.2301 188.526 20.9273 189.001 21.8174C189.49 22.6926 189.735 23.6865 189.735 24.7991ZM187.643 24.3763C187.643 23.6049 187.473 22.9448 187.132 22.3959C186.791 21.8322 186.323 21.4094 185.73 21.1276C185.151 20.8309 184.506 20.6825 183.794 20.6825C182.77 20.6825 181.895 21.0089 181.168 21.6616C180.456 22.3143 180.048 23.2192 179.944 24.3763H187.643ZM194.433 21.1498C194.789 20.4526 195.293 19.9112 195.946 19.5255C196.613 19.1398 197.422 18.9469 198.371 18.9469V21.0386H197.837C195.568 21.0386 194.433 22.2698 194.433 24.7323V31.3633H192.408V19.1694H194.433V21.1498ZM205.026 31.5635C204.091 31.5635 203.253 31.4078 202.511 31.0963C201.769 30.7699 201.183 30.3249 200.753 29.7612C200.323 29.1826 200.086 28.5225 200.041 27.7808H202.133C202.192 28.389 202.474 28.8859 202.978 29.2716C203.498 29.6573 204.173 29.8502 205.003 29.8502C205.775 29.8502 206.383 29.6796 206.828 29.3384C207.273 28.9972 207.496 28.567 207.496 28.0478C207.496 27.5138 207.258 27.1207 206.783 26.8685C206.309 26.6015 205.574 26.3419 204.581 26.0897C203.676 25.8523 202.934 25.615 202.355 25.3776C201.792 25.1254 201.302 24.762 200.887 24.2873C200.486 23.7978 200.286 23.1599 200.286 22.3737C200.286 21.7506 200.471 21.1795 200.842 20.6603C201.213 20.1411 201.74 19.7331 202.422 19.4365C203.105 19.1249 203.883 18.9692 204.759 18.9692C206.108 18.9692 207.199 19.3104 208.03 19.9927C208.86 20.6751 209.305 21.6097 209.365 22.7964H207.34C207.295 22.1586 207.036 21.6468 206.561 21.2611C206.101 20.8754 205.478 20.6825 204.692 20.6825C203.965 20.6825 203.386 20.8383 202.956 21.1498C202.526 21.4613 202.311 21.8693 202.311 22.3737C202.311 22.7742 202.437 23.108 202.689 23.375C202.956 23.6272 203.283 23.8348 203.668 23.998C204.069 24.1464 204.618 24.317 205.315 24.5098C206.19 24.7472 206.902 24.9845 207.451 25.2219C208 25.4444 208.467 25.7856 208.853 26.2454C209.253 26.7053 209.461 27.3061 209.476 28.0478C209.476 28.7153 209.29 29.3161 208.92 29.8502C208.549 30.3842 208.022 30.807 207.34 31.1185C206.672 31.4152 205.901 31.5635 205.026 31.5635ZM213.38 17.1891C212.994 17.1891 212.668 17.0555 212.401 16.7885C212.134 16.5215 212.001 16.1951 212.001 15.8095C212.001 15.4238 212.134 15.0974 212.401 14.8304C212.668 14.5634 212.994 14.4299 213.38 14.4299C213.751 14.4299 214.063 14.5634 214.315 14.8304C214.582 15.0974 214.715 15.4238 214.715 15.8095C214.715 16.1951 214.582 16.5215 214.315 16.7885C214.063 17.0555 213.751 17.1891 213.38 17.1891ZM214.359 19.1694V31.3633H212.334V19.1694H214.359ZM220.28 20.8383V28.0256C220.28 28.6189 220.406 29.0417 220.659 29.2939C220.911 29.5312 221.348 29.6499 221.971 29.6499H223.462V31.3633H221.638C220.51 31.3633 219.665 31.1037 219.101 30.5845C218.537 30.0653 218.255 29.2123 218.255 28.0256V20.8383H216.675V19.1694H218.255V16.0987H220.28V19.1694H223.462V20.8383H220.28ZM236.418 19.1694L229.075 37.1042H226.984L229.387 31.2298L224.469 19.1694H226.717L230.544 29.0491L234.327 19.1694H236.418Z" fill="#12274F" fill-opacity="0.29"/>
</svg>
