<svg xmlns="http://www.w3.org/2000/svg" id="Layer_1" data-name="Layer 1" viewBox="0 0 1280 1280"><defs><style>.cls-1{fill:#fff;stroke-width:0}</style></defs><path d="M917.08 584.89 679.22 346.81c-3.1-3.1-7.3-4.85-11.69-4.85H374.61c-14.72 0-22.09 17.8-11.68 28.2l238.09 238.09c3.1 3.1 7.3 4.84 11.68 4.84h292.69c14.72 0 22.09-17.79 11.69-28.2M679.22 933.19 917.08 695.1c10.4-10.41 3.03-28.2-11.69-28.2H612.7c-4.38 0-8.59 1.74-11.68 4.84L362.93 909.83c-10.41 10.41-3.04 28.2 11.68 28.2h292.92c4.38 0 8.59-1.74 11.69-4.84" class="cls-1"/></svg>