<?xml version="1.0" standalone="no"?>
<!DOCTYPE svg PUBLIC "-//W3C//DTD SVG 20010904//EN"
 "http://www.w3.org/TR/2001/REC-SVG-20010904/DTD/svg10.dtd">
<svg version="1.0" xmlns="http://www.w3.org/2000/svg"
 width="644.000000pt" height="644.000000pt" viewBox="0 0 644.000000 644.000000"
 preserveAspectRatio="xMidYMid meet">
<metadata>
Created by potrace 1.14, written by Peter Selinger 2001-2017
</metadata>
<g transform="translate(0.000000,644.000000) scale(0.100000,-0.100000)"
fill="#000000" stroke="none">
<path d="M0 5441 c0 -736 2 -840 15 -845 8 -3 15 -2 15 2 0 4 26 6 57 4 104
-5 151 -4 162 3 6 3 11 3 11 -2 0 -4 60 -7 133 -5 155 3 176 3 261 1 35 -1 69
2 75 5 6 4 11 4 11 -1 0 -4 60 -7 133 -5 155 3 176 3 261 1 35 -1 69 2 75 5 6
4 11 4 11 -1 0 -4 26 -7 57 -5 62 3 77 4 177 1 35 -1 69 2 75 5 6 4 11 4 11
-1 0 -4 60 -7 133 -5 155 3 176 3 261 1 35 -1 69 2 75 5 6 4 11 4 11 -1 0 -4
60 -7 133 -5 155 3 176 3 261 1 35 -1 69 2 75 5 6 4 11 4 11 -1 0 -4 60 -7
133 -5 155 3 176 3 261 1 35 -1 69 2 75 5 6 4 11 4 11 -1 0 -9 218 -9 226 0 3
3 18 2 32 -2 15 -5 36 -5 47 -1 11 4 27 4 35 0 8 -4 23 -4 33 -1 15 6 -1 25
-93 111 -62 58 -134 125 -160 150 -26 25 -96 90 -155 145 -59 55 -126 118
-149 140 -24 22 -89 83 -145 135 -57 52 -124 115 -150 140 -25 25 -104 99
-175 165 -71 66 -146 136 -166 155 -21 19 -71 67 -112 105 -149 140 -295 276
-378 355 l-85 80 -792 0 -793 0 0 -839z"/>
<path d="M2456 6213 c39 -38 126 -120 193 -183 68 -63 140 -131 161 -150 102
-96 279 -261 310 -290 19 -18 91 -85 160 -150 69 -65 141 -132 160 -150 66
-61 273 -255 321 -300 26 -25 97 -92 159 -150 62 -58 129 -121 150 -140 116
-109 101 -102 205 -101 52 1 98 1 102 2 5 1 13 1 18 -1 6 -1 39 -1 75 0 77 1
99 1 184 -1 35 -1 69 2 75 5 6 4 11 4 11 -1 0 -4 60 -7 133 -5 155 3 176 3
261 1 35 -1 69 2 75 5 6 4 11 4 11 -1 0 -4 60 -7 133 -5 155 3 176 3 261 1 35
-1 69 2 75 5 6 4 11 3 11 -2 0 -5 16 -6 38 -3 20 4 51 4 69 0 17 -3 37 -3 44
1 6 4 24 4 40 0 15 -5 29 -6 31 -4 3 2 21 6 41 8 95 13 167 98 167 200 0 25
-5 58 -12 73 -15 35 -129 148 -464 460 -88 81 -269 250 -304 283 -34 32 -228
214 -320 300 -152 142 -268 251 -301 283 -22 20 -57 46 -79 57 -38 19 -62 20
-1151 20 l-1113 0 70 -67z"/>
<path d="M0 3215 l0 -840 783 1 c430 1 787 2 794 3 10 1 82 64 183 161 41 39
265 250 321 302 76 69 284 264 319 298 20 19 87 82 150 140 62 58 129 121 150
140 151 142 301 283 330 310 53 49 257 240 302 283 22 20 38 38 36 38 -2 1
-760 2 -1685 3 l-1683 1 0 -840z"/>
<path d="M4142 4021 c-20 -18 -90 -83 -155 -145 -66 -61 -138 -129 -162 -151
-23 -22 -96 -90 -161 -151 -66 -62 -135 -126 -154 -144 -32 -30 -252 -236
-325 -305 -18 -16 -83 -77 -144 -134 -147 -137 -175 -163 -311 -291 -63 -59
-134 -125 -156 -146 -136 -128 -160 -151 -171 -164 -10 -13 122 -15 1100 -15
l1112 1 40 22 c22 11 72 51 110 87 69 66 277 261 346 326 43 40 280 262 319
299 15 14 80 75 145 135 65 61 137 128 160 150 40 38 252 237 320 300 94 87
100 208 16 298 -60 65 -5 62 -994 62 l-899 0 -36 -34z"/>
<path d="M0 990 l0 -840 1688 0 1687 0 -90 86 c-49 47 -117 111 -150 142 -33
30 -116 107 -184 171 -68 64 -140 132 -161 151 -21 19 -98 91 -171 160 -73 69
-145 136 -160 150 -15 14 -80 75 -145 136 -66 61 -135 126 -154 144 -19 17
-91 85 -160 150 -69 65 -147 139 -175 164 -27 25 -93 86 -145 135 l-95 91
-792 0 -793 0 0 -840z"/>
<path d="M2456 1762 c114 -107 303 -285 513 -481 63 -58 131 -122 151 -141 21
-19 90 -84 155 -145 65 -60 136 -128 160 -150 41 -39 246 -231 315 -295 88
-82 270 -252 344 -322 l81 -78 1129 0 c1057 0 1128 1 1115 17 -8 9 -34 35 -58
57 -24 23 -61 57 -81 76 -21 19 -90 85 -155 145 -65 61 -137 128 -160 150 -24
22 -89 83 -145 135 -56 52 -125 118 -155 145 -29 28 -103 97 -165 155 -62 58
-134 125 -160 150 -26 25 -98 92 -160 150 -62 58 -132 123 -155 145 -23 22
-88 83 -144 135 -56 52 -132 123 -169 158 l-67 62 -1130 0 -1130 0 71 -68z"/>
</g>
</svg>
