<svg width="28" height="43" viewBox="0 0 28 43" fill="none" xmlns="http://www.w3.org/2000/svg">
<mask id="mask0_1853_3712" style="mask-type:alpha" maskUnits="userSpaceOnUse" x="0" y="0" width="28" height="43">
<path d="M2.15625 19.5654V25.6131H25.395L22.7095 21.8288C22.7121 21.7376 25.264 21.8083 25.3119 21.7235C25.3669 21.6431 21.7256 21.4062 21.8036 21.3359C21.8373 21.3108 21.8732 21.2873 21.9113 21.2656C21.9362 21.2465 25.3669 25.6298 25.395 25.6131L25.6856 19.5654H2.15625Z" fill="black"/>
<path d="M25.8317 12.0059H2.15625V18.0535H25.8317V12.0059Z" fill="black"/>
<path d="M25.8317 19.5684H2.15625V25.616H25.8317V19.5684Z" fill="black"/>
<path d="M25.8317 4.44629H2.15625V10.4939H25.8317V4.44629Z" fill="black"/>
<path d="M13.9881 0L5.63281 2.93461H22.3434L13.9881 0Z" fill="black"/>
<path d="M2.15231 33.1726H0V43H2.15231V34.6845H3.87954L12.251 39.9762H15.7291L21.5231 36.3136V34.6845V33.1726V27.125H2.15231V33.1726Z" fill="black"/>
<path d="M25.8477 33.1726H28V43H25.8477V34.6845H24.1205L15.749 39.9762H12.2709L6.47687 36.3136V34.6845V33.1726V27.125H25.8477V33.1726Z" fill="black"/>
</mask>
<g mask="url(#mask0_1853_3712)">
<rect x="-5.09375" y="-3.59277" width="45.916" height="52.6922" fill="url(#paint0_linear_1853_3712)"/>
</g>
<defs>
<linearGradient id="paint0_linear_1853_3712" x1="-0.417118" y1="23.9509" x2="28.9181" y2="23.9509" gradientUnits="userSpaceOnUse">
<stop stop-color="#0043FF"/>
<stop offset="1" stop-color="#12274F"/>
</linearGradient>
</defs>
</svg>
