<svg width="1512" height="522" viewBox="0 0 1512 522" fill="none" xmlns="http://www.w3.org/2000/svg">
<path d="M487.356 222.039H255.598L18.4844 0H307.058C313.806 0 320.314 2.57213 325.246 7.18607L505.53 176.006C523.134 192.499 511.469 222.039 487.342 222.039H487.356Z" fill="#0043FF" fill-opacity="0.03"/>
<path d="M149.65 222.039H-297V0H-87.6374L149.65 222.039Z" fill="#0043FF" fill-opacity="0.03"/>
<path d="M487.356 294.052H255.598L18.4844 516.091H307.058C313.806 516.091 320.314 513.519 325.246 508.905L505.53 340.085C523.134 323.592 511.469 294.052 487.342 294.052H487.356Z" fill="#0043FF" fill-opacity="0.03"/>
<path d="M149.65 294.052H-297V516.091H-87.6374L149.65 294.052Z" fill="#0043FF" fill-opacity="0.03"/>
<path d="M1024.64 227.039H1256.4L1493.52 5H1204.94C1198.19 5 1191.69 7.57213 1186.75 12.1861L1006.47 181.006C988.866 197.499 1000.53 227.039 1024.66 227.039H1024.64Z" fill="#0043FF" fill-opacity="0.03"/>
<path d="M1362.35 227.039H1809V5H1599.64L1362.35 227.039Z" fill="#0043FF" fill-opacity="0.03"/>
<path d="M1024.64 299.052H1256.4L1493.52 521.091H1204.94C1198.19 521.091 1191.69 518.519 1186.75 513.905L1006.47 345.085C988.866 328.592 1000.53 299.052 1024.66 299.052H1024.64Z" fill="#0043FF" fill-opacity="0.03"/>
<path d="M1362.35 299.052H1809V521.091H1599.64L1362.35 299.052Z" fill="#0043FF" fill-opacity="0.03"/>
</svg>
