<svg width="265" height="165" viewBox="0 0 265 165" fill="none" xmlns="http://www.w3.org/2000/svg">
<rect width="265" height="165" rx="15.0305" fill="white"/>
<rect x="229.734" y="75.6689" width="8.00001" height="72" rx="4" transform="rotate(90 229.734 75.6689)" fill="#D9D9D9"/>
<rect x="225.734" y="97.8018" width="8.00001" height="68" rx="4" transform="rotate(90 225.734 97.8018)" fill="#D9D9D9"/>
<rect x="233.734" y="119.934" width="8.00001" height="76" rx="4" transform="rotate(90 233.734 119.934)" fill="#D9D9D9"/>
<path d="M118.387 101.299C118.387 123.35 100.554 141.201 78.5885 141.201C56.6225 141.201 38.7902 123.35 38.7902 101.299C38.7902 79.2473 56.6225 61.3966 78.5885 61.3966C100.554 61.3966 118.387 79.2473 118.387 101.299Z" stroke="#12274F" stroke-width="13.3928"/>
<mask id="mask0_1699_4299" style="mask-type:alpha" maskUnits="userSpaceOnUse" x="4" y="37" width="74" height="122">
<path d="M77.1021 97.0016L58.9659 37.8447L4.0625 107.577L33.2454 158.472L77.1021 97.0016Z" fill="#C4C4C4"/>
</mask>
<g mask="url(#mask0_1699_4299)">
<path d="M118.387 101.298C118.387 123.349 100.554 141.2 78.5885 141.2C56.6225 141.2 38.7902 123.349 38.7902 101.298C38.7902 79.2463 56.6225 61.3956 78.5885 61.3956C100.554 61.3956 118.387 79.2463 118.387 101.298Z" stroke="#12274F" stroke-width="13.3928"/>
</g>
<mask id="mask1_1699_4299" style="mask-type:alpha" maskUnits="userSpaceOnUse" x="52" y="32" width="92" height="85">
<path d="M83.2416 102.186L143.238 116.877L111.533 33.9181L52.9697 32.9646L83.2416 102.186Z" fill="#C4C4C4"/>
</mask>
<g mask="url(#mask1_1699_4299)">
<path d="M58.1852 135.538C39.293 124.253 33.0928 99.7665 44.3391 80.8453C55.5854 61.9242 80.018 55.7361 98.9102 67.0215C117.802 78.3068 124.003 102.793 112.756 121.715C101.51 140.636 77.0774 146.824 58.1852 135.538Z" stroke="#0043FF" stroke-width="13.3928"/>
</g>
<path d="M32.56 30.4C32.56 29.3013 32.8053 28.32 33.296 27.456C33.7973 26.5813 34.4747 25.904 35.328 25.424C36.192 24.9333 37.1573 24.688 38.224 24.688C39.472 24.688 40.5653 25.008 41.504 25.648C42.4427 26.288 43.0987 27.1733 43.472 28.304H40.896C40.64 27.7707 40.2773 27.3707 39.808 27.104C39.3493 26.8373 38.816 26.704 38.208 26.704C37.5573 26.704 36.976 26.8587 36.464 27.168C35.9627 27.4667 35.568 27.8933 35.28 28.448C35.0027 29.0027 34.864 29.6533 34.864 30.4C34.864 31.136 35.0027 31.7867 35.28 32.352C35.568 32.9067 35.9627 33.3387 36.464 33.648C36.976 33.9467 37.5573 34.096 38.208 34.096C38.816 34.096 39.3493 33.9627 39.808 33.696C40.2773 33.4187 40.64 33.0133 40.896 32.48H43.472C43.0987 33.6213 42.4427 34.512 41.504 35.152C40.576 35.7813 39.4827 36.096 38.224 36.096C37.1573 36.096 36.192 35.856 35.328 35.376C34.4747 34.8853 33.7973 34.208 33.296 33.344C32.8053 32.48 32.56 31.4987 32.56 30.4ZM50.5693 36.112C49.5239 36.112 48.5639 35.8667 47.6893 35.376C46.8146 34.8853 46.1213 34.208 45.6093 33.344C45.0973 32.4693 44.8413 31.4827 44.8413 30.384C44.8413 29.296 45.0973 28.32 45.6093 27.456C46.1213 26.5813 46.8146 25.8987 47.6893 25.408C48.5639 24.9173 49.5239 24.672 50.5693 24.672C51.6253 24.672 52.5853 24.9173 53.4493 25.408C54.3239 25.8987 55.0119 26.5813 55.5133 27.456C56.0253 28.32 56.2813 29.296 56.2813 30.384C56.2813 31.4827 56.0253 32.4693 55.5133 33.344C55.0119 34.208 54.3239 34.8853 53.4493 35.376C52.5746 35.8667 51.6146 36.112 50.5693 36.112ZM50.5693 34.112C51.2413 34.112 51.8333 33.9627 52.3453 33.664C52.8573 33.3547 53.2573 32.9173 53.5453 32.352C53.8333 31.7867 53.9773 31.1307 53.9773 30.384C53.9773 29.6373 53.8333 28.9867 53.5453 28.432C53.2573 27.8667 52.8573 27.4347 52.3453 27.136C51.8333 26.8373 51.2413 26.688 50.5693 26.688C49.8973 26.688 49.2999 26.8373 48.7773 27.136C48.2653 27.4347 47.8653 27.8667 47.5773 28.432C47.2893 28.9867 47.1453 29.6373 47.1453 30.384C47.1453 31.1307 47.2893 31.7867 47.5773 32.352C47.8653 32.9173 48.2653 33.3547 48.7773 33.664C49.2999 33.9627 49.8973 34.112 50.5693 34.112ZM58.3958 33.472C59.4198 32.6187 60.2358 31.9093 60.8438 31.344C61.4518 30.768 61.9584 30.1707 62.3638 29.552C62.7691 28.9333 62.9718 28.3253 62.9718 27.728C62.9718 27.184 62.8438 26.7573 62.5878 26.448C62.3318 26.1387 61.9371 25.984 61.4038 25.984C60.8704 25.984 60.4598 26.1653 60.1718 26.528C59.8838 26.88 59.7344 27.3653 59.7238 27.984H57.5478C57.5904 26.704 57.9691 25.7333 58.6838 25.072C59.4091 24.4107 60.3264 24.08 61.4358 24.08C62.6518 24.08 63.5851 24.4053 64.2358 25.056C64.8864 25.696 65.2118 26.544 65.2118 27.6C65.2118 28.432 64.9878 29.2267 64.5398 29.984C64.0918 30.7413 63.5798 31.4027 63.0038 31.968C62.4278 32.5227 61.6758 33.1947 60.7478 33.984H65.4678V35.84H57.5638V34.176L58.3958 33.472ZM74.3398 36.144C73.6144 36.144 72.9638 36.016 72.3878 35.76C71.8118 35.4933 71.3531 35.136 71.0118 34.688C70.6811 34.24 70.4998 33.744 70.4678 33.2H72.7238C72.7664 33.5413 72.9318 33.824 73.2198 34.048C73.5184 34.272 73.8864 34.384 74.3238 34.384C74.7504 34.384 75.0811 34.2987 75.3158 34.128C75.5611 33.9573 75.6838 33.7387 75.6838 33.472C75.6838 33.184 75.5344 32.9707 75.2358 32.832C74.9478 32.6827 74.4838 32.5227 73.8438 32.352C73.1824 32.192 72.6384 32.0267 72.2118 31.856C71.7958 31.6853 71.4331 31.424 71.1238 31.072C70.8251 30.72 70.6758 30.2453 70.6758 29.648C70.6758 29.1573 70.8144 28.7093 71.0918 28.304C71.3798 27.8987 71.7851 27.5787 72.3078 27.344C72.8411 27.1093 73.4651 26.992 74.1798 26.992C75.2358 26.992 76.0784 27.2587 76.7078 27.792C77.3371 28.3147 77.6838 29.024 77.7478 29.92H75.6038C75.5718 29.568 75.4224 29.2907 75.1558 29.088C74.8998 28.8747 74.5531 28.768 74.1158 28.768C73.7104 28.768 73.3958 28.8427 73.1718 28.992C72.9584 29.1413 72.8518 29.3493 72.8518 29.616C72.8518 29.9147 73.0011 30.144 73.2998 30.304C73.5984 30.4533 74.0624 30.608 74.6918 30.768C75.3318 30.928 75.8598 31.0933 76.2758 31.264C76.6918 31.4347 77.0491 31.7013 77.3478 32.064C77.6571 32.416 77.8171 32.8853 77.8278 33.472C77.8278 33.984 77.6838 34.4427 77.3958 34.848C77.1184 35.2533 76.7131 35.5733 76.1798 35.808C75.6571 36.032 75.0438 36.144 74.3398 36.144ZM79.0905 31.536C79.0905 30.64 79.2665 29.8453 79.6185 29.152C79.9812 28.4587 80.4665 27.9253 81.0745 27.552C81.6932 27.1787 82.3812 26.992 83.1385 26.992C83.7998 26.992 84.3758 27.1253 84.8665 27.392C85.3678 27.6587 85.7678 27.9947 86.0665 28.4V27.136H88.3225V36H86.0665V34.704C85.7785 35.12 85.3785 35.4667 84.8665 35.744C84.3652 36.0107 83.7838 36.144 83.1225 36.144C82.3758 36.144 81.6932 35.952 81.0745 35.568C80.4665 35.184 79.9812 34.6453 79.6185 33.952C79.2665 33.248 79.0905 32.4427 79.0905 31.536ZM86.0665 31.568C86.0665 31.024 85.9598 30.56 85.7465 30.176C85.5332 29.7813 85.2452 29.4827 84.8825 29.28C84.5198 29.0667 84.1305 28.96 83.7145 28.96C83.2985 28.96 82.9145 29.0613 82.5625 29.264C82.2105 29.4667 81.9225 29.7653 81.6985 30.16C81.4852 30.544 81.3785 31.0027 81.3785 31.536C81.3785 32.0693 81.4852 32.5387 81.6985 32.944C81.9225 33.3387 82.2105 33.6427 82.5625 33.856C82.9252 34.0693 83.3092 34.176 83.7145 34.176C84.1305 34.176 84.5198 34.0747 84.8825 33.872C85.2452 33.6587 85.5332 33.36 85.7465 32.976C85.9598 32.5813 86.0665 32.112 86.0665 31.568ZM94.2063 33.936L96.4463 27.136H98.8303L95.5503 36H92.8303L89.5663 27.136H91.9663L94.2063 33.936ZM101.224 26.08C100.83 26.08 100.499 25.9573 100.232 25.712C99.9764 25.456 99.8484 25.1413 99.8484 24.768C99.8484 24.3947 99.9764 24.0853 100.232 23.84C100.499 23.584 100.83 23.456 101.224 23.456C101.619 23.456 101.944 23.584 102.2 23.84C102.467 24.0853 102.6 24.3947 102.6 24.768C102.6 25.1413 102.467 25.456 102.2 25.712C101.944 25.9573 101.619 26.08 101.224 26.08ZM102.328 27.136V36H100.088V27.136H102.328ZM109.454 27.008C110.51 27.008 111.363 27.344 112.014 28.016C112.664 28.6773 112.99 29.6053 112.99 30.8V36H110.75V31.104C110.75 30.4 110.574 29.8613 110.222 29.488C109.87 29.104 109.39 28.912 108.782 28.912C108.163 28.912 107.672 29.104 107.31 29.488C106.958 29.8613 106.782 30.4 106.782 31.104V36H104.542V27.136H106.782V28.24C107.08 27.856 107.459 27.5573 107.918 27.344C108.387 27.12 108.899 27.008 109.454 27.008ZM118.592 26.992C119.253 26.992 119.834 27.1253 120.336 27.392C120.837 27.648 121.232 27.984 121.52 28.4V27.136H123.776V36.064C123.776 36.8853 123.61 37.616 123.28 38.256C122.949 38.9067 122.453 39.4187 121.792 39.792C121.13 40.176 120.33 40.368 119.392 40.368C118.133 40.368 117.098 40.0747 116.288 39.488C115.488 38.9013 115.034 38.1013 114.928 37.088H117.152C117.269 37.4933 117.52 37.8133 117.904 38.048C118.298 38.2933 118.773 38.416 119.328 38.416C119.978 38.416 120.506 38.2187 120.912 37.824C121.317 37.44 121.52 36.8533 121.52 36.064V34.688C121.232 35.104 120.832 35.4507 120.32 35.728C119.818 36.0053 119.242 36.144 118.592 36.144C117.845 36.144 117.162 35.952 116.544 35.568C115.925 35.184 115.434 34.6453 115.072 33.952C114.72 33.248 114.544 32.4427 114.544 31.536C114.544 30.64 114.72 29.8453 115.072 29.152C115.434 28.4587 115.92 27.9253 116.528 27.552C117.146 27.1787 117.834 26.992 118.592 26.992ZM121.52 31.568C121.52 31.024 121.413 30.56 121.2 30.176C120.986 29.7813 120.698 29.4827 120.336 29.28C119.973 29.0667 119.584 28.96 119.168 28.96C118.752 28.96 118.368 29.0613 118.016 29.264C117.664 29.4667 117.376 29.7653 117.152 30.16C116.938 30.544 116.832 31.0027 116.832 31.536C116.832 32.0693 116.938 32.5387 117.152 32.944C117.376 33.3387 117.664 33.6427 118.016 33.856C118.378 34.0693 118.762 34.176 119.168 34.176C119.584 34.176 119.973 34.0747 120.336 33.872C120.698 33.6587 120.986 33.36 121.2 32.976C121.413 32.5813 121.52 32.112 121.52 31.568ZM129.355 36.144C128.63 36.144 127.979 36.016 127.403 35.76C126.827 35.4933 126.369 35.136 126.027 34.688C125.697 34.24 125.515 33.744 125.483 33.2H127.739C127.782 33.5413 127.947 33.824 128.235 34.048C128.534 34.272 128.902 34.384 129.339 34.384C129.766 34.384 130.097 34.2987 130.331 34.128C130.577 33.9573 130.699 33.7387 130.699 33.472C130.699 33.184 130.55 32.9707 130.251 32.832C129.963 32.6827 129.499 32.5227 128.859 32.352C128.198 32.192 127.654 32.0267 127.227 31.856C126.811 31.6853 126.449 31.424 126.139 31.072C125.841 30.72 125.691 30.2453 125.691 29.648C125.691 29.1573 125.83 28.7093 126.107 28.304C126.395 27.8987 126.801 27.5787 127.323 27.344C127.857 27.1093 128.481 26.992 129.195 26.992C130.251 26.992 131.094 27.2587 131.723 27.792C132.353 28.3147 132.699 29.024 132.763 29.92H130.619C130.587 29.568 130.438 29.2907 130.171 29.088C129.915 28.8747 129.569 28.768 129.131 28.768C128.726 28.768 128.411 28.8427 128.187 28.992C127.974 29.1413 127.867 29.3493 127.867 29.616C127.867 29.9147 128.017 30.144 128.315 30.304C128.614 30.4533 129.078 30.608 129.707 30.768C130.347 30.928 130.875 31.0933 131.291 31.264C131.707 31.4347 132.065 31.7013 132.363 32.064C132.673 32.416 132.833 32.8853 132.843 33.472C132.843 33.984 132.699 34.4427 132.411 34.848C132.134 35.2533 131.729 35.5733 131.195 35.808C130.673 36.032 130.059 36.144 129.355 36.144Z" fill="black"/>
</svg>
