<svg width="32" height="43" viewBox="0 0 32 43" fill="none" xmlns="http://www.w3.org/2000/svg">
<mask id="mask0_1853_3719" style="mask-type:alpha" maskUnits="userSpaceOnUse" x="0" y="0" width="32" height="43">
<path d="M1.93827 21.2701V3.72527C1.93827 2.64374 2.84279 1.80255 4.00575 1.80255H16.5399C17.7028 1.80255 18.6074 2.64374 18.6074 3.72527V5.76816C18.7366 5.76816 18.995 5.76816 19.1242 5.76816C19.6411 5.76816 20.0287 5.76816 20.5456 5.76816V3.72527C20.5456 1.68238 18.7366 0 16.5399 0H4.00575C1.80905 0 0 1.68238 0 3.72527V42.9996C0.646089 42.9996 0.308419 42.9996 0.954508 42.9996H1.93827V21.2701Z" fill="black"/>
<path d="M9.81997 9.13166C8.01093 9.73251 6.71875 11.2947 6.71875 13.0973V16.3419H31.5286V12.9771C31.5286 11.1746 30.3656 9.61234 28.5565 9.01149C22.4833 6.9686 16.1516 7.08877 9.81997 9.13166Z" fill="black"/>
<path d="M31.6578 18.1465H6.71875V29.9231C7.9952 29.8372 9.43232 22.2323 10.8537 22.7129C13.3089 23.5541 14.8595 25.7172 14.8595 28.1206L6.71875 29.9231H31.5286V18.1465H31.6578Z" fill="black"/>
<path d="M31.5683 31.3857H6.71875V43.0001H31.5683V31.3857Z" fill="black"/>
<path d="M19.2217 20.623H6.79688V29.9145H19.2217V20.623Z" fill="black"/>
</mask>
<g mask="url(#mask0_1853_3719)">
<rect x="-10.7656" y="-5.41992" width="56.3257" height="58.8461" fill="url(#paint0_linear_1853_3719)"/>
</g>
<defs>
<linearGradient id="paint0_linear_1853_3719" x1="-0.825801" y1="24.7774" x2="31.8928" y2="24.7774" gradientUnits="userSpaceOnUse">
<stop stop-color="#0043FF"/>
<stop offset="1" stop-color="#12274F"/>
</linearGradient>
</defs>
</svg>
