<?xml version="1.0" encoding="UTF-8"?>
<svg id="Layer_1" data-name="Layer 1" xmlns="http://www.w3.org/2000/svg" viewBox="0 0 1280 1280">
  <defs>
    <style>
      .cls-1 {
        fill: #0043ff;
        stroke-width: 0px;
      }
    </style>
  </defs>
  <path class="cls-1" d="m917.08,584.89l-237.86-238.08c-3.1-3.1-7.3-4.85-11.69-4.85h-292.92c-14.72,0-22.09,17.8-11.68,28.2l238.09,238.09c3.1,3.1,7.3,4.84,11.68,4.84h292.69c14.72,0,22.09-17.79,11.69-28.2Z"/>
  <path class="cls-1" d="m679.22,933.19l237.86-238.09c10.4-10.41,3.03-28.2-11.69-28.2h-292.69c-4.38,0-8.59,1.74-11.68,4.84l-238.09,238.09c-10.41,10.41-3.04,28.2,11.68,28.2h292.92c4.38,0,8.59-1.74,11.69-4.84Z"/>
</svg>