<svg xmlns="http://www.w3.org/2000/svg" id="Layer_4" data-name="Layer 4" viewBox="0 0 1280 720"><defs><style>.cls-1{fill:#0043ff;stroke-width:0}</style></defs><path d="M910.91 221.56H735.63L556.29 53.65h218.26c5.11 0 10.02 1.94 13.75 5.43l136.36 127.67c13.32 12.47 4.49 34.81-13.75 34.81M655.73 221.56H318.16V53.66h158.23zM961.84 666.34H735.63l-179.34-167.9H782.5zM655.73 666.34H318.16v-167.9h158.23zM910.91 276.05H735.63L556.29 443.96h218.26c5.11 0 10.02-1.94 13.75-5.43l136.36-127.67c13.32-12.47 4.49-34.81-13.75-34.81M655.73 276.05H318.16v167.9h158.23z" class="cls-1"/></svg>