<?xml version="1.0" encoding="UTF-8"?>
<svg id="Layer_4" data-name="Layer 4" xmlns="http://www.w3.org/2000/svg" viewBox="0 0 1280 720">
  <defs>
    <style>
      .cls-1 {
        fill: #0043ff;
        stroke-width: 0px;
      }
    </style>
  </defs>
  <path class="cls-1" d="m910.91,221.56h-175.28l-179.34-167.91h218.26c5.11,0,10.02,1.94,13.75,5.43l136.36,127.67c13.32,12.47,4.49,34.81-13.75,34.81Z"/>
  <polygon class="cls-1" points="655.73 221.56 318.16 221.56 318.16 53.66 476.39 53.66 655.73 221.56"/>
  <polygon class="cls-1" points="961.84 666.34 735.63 666.34 556.29 498.44 782.5 498.44 961.84 666.34"/>
  <polygon class="cls-1" points="655.73 666.34 318.16 666.34 318.16 498.44 476.39 498.44 655.73 666.34"/>
  <path class="cls-1" d="m910.91,276.05h-175.28l-179.34,167.91h218.26c5.11,0,10.02-1.94,13.75-5.43l136.36-127.67c13.32-12.47,4.49-34.81-13.75-34.81Z"/>
  <polygon class="cls-1" points="655.73 276.05 318.16 276.05 318.16 443.95 476.39 443.95 655.73 276.05"/>
</svg>