<svg xmlns="http://www.w3.org/2000/svg" width="28" height="43" fill="none"><mask id="a" width="28" height="43" x="0" y="0" maskUnits="userSpaceOnUse" style="mask-type:alpha"><path fill="#000" d="M2.156 19.565v6.048h23.239l-2.686-3.784c.003-.091 2.555-.02 2.603-.105.055-.08-3.586-.318-3.508-.388a1 1 0 0 1 .107-.07c.025-.02 3.456 4.364 3.484 4.347l.29-6.048zM25.832 12.006H2.156v6.047h23.676z"/><path fill="#000" d="M25.832 19.568H2.156v6.048h23.676zM25.832 4.446H2.156v6.048h23.676zM13.988 0 5.633 2.935h16.71zM2.152 33.173H0V43h2.152v-8.315H3.88l8.371 5.291h3.478l5.794-3.662v-9.189H2.153z"/><path fill="#000" d="M25.848 33.173H28V43h-2.152v-8.315H24.12l-8.372 5.291h-3.478l-5.794-3.662v-9.189h19.37z"/></mask><g mask="url(#a)"><path fill="url(#b)" d="M-5.094-3.593h45.916v52.692H-5.094z"/></g><defs><linearGradient id="b" x1="-.417" x2="28.918" y1="23.951" y2="23.951" gradientUnits="userSpaceOnUse"><stop stop-color="#0043FF"/><stop offset="1" stop-color="#12274F"/></linearGradient></defs></svg>